%TF.GenerationSoftware,KiCad,Pcbnew,(6.0.1)*%
%TF.CreationDate,2022-04-19T02:49:18-05:00*%
%TF.ProjectId,pcb_w_STM32F030C8T6,7063625f-775f-4535-944d-333246303330,rev?*%
%TF.SameCoordinates,Original*%
%TF.FileFunction,Soldermask,Top*%
%TF.FilePolarity,Negative*%
%FSLAX46Y46*%
G04 Gerber Fmt 4.6, Leading zero omitted, Abs format (unit mm)*
G04 Created by KiCad (PCBNEW (6.0.1)) date 2022-04-19 02:49:18*
%MOMM*%
%LPD*%
G01*
G04 APERTURE LIST*
G04 Aperture macros list*
%AMRoundRect*
0 Rectangle with rounded corners*
0 $1 Rounding radius*
0 $2 $3 $4 $5 $6 $7 $8 $9 X,Y pos of 4 corners*
0 Add a 4 corners polygon primitive as box body*
4,1,4,$2,$3,$4,$5,$6,$7,$8,$9,$2,$3,0*
0 Add four circle primitives for the rounded corners*
1,1,$1+$1,$2,$3*
1,1,$1+$1,$4,$5*
1,1,$1+$1,$6,$7*
1,1,$1+$1,$8,$9*
0 Add four rect primitives between the rounded corners*
20,1,$1+$1,$2,$3,$4,$5,0*
20,1,$1+$1,$4,$5,$6,$7,0*
20,1,$1+$1,$6,$7,$8,$9,0*
20,1,$1+$1,$8,$9,$2,$3,0*%
G04 Aperture macros list end*
%ADD10RoundRect,0.250000X-0.350000X-0.450000X0.350000X-0.450000X0.350000X0.450000X-0.350000X0.450000X0*%
%ADD11RoundRect,0.250000X0.450000X-0.350000X0.450000X0.350000X-0.450000X0.350000X-0.450000X-0.350000X0*%
%ADD12RoundRect,0.250000X-0.325000X-0.450000X0.325000X-0.450000X0.325000X0.450000X-0.325000X0.450000X0*%
%ADD13RoundRect,0.250000X-0.337500X-0.475000X0.337500X-0.475000X0.337500X0.475000X-0.337500X0.475000X0*%
%ADD14R,1.350000X1.800000*%
%ADD15R,1.200000X0.700000*%
%ADD16R,1.700000X1.700000*%
%ADD17O,1.700000X1.700000*%
%ADD18C,1.000000*%
%ADD19R,0.500000X2.000000*%
%ADD20R,2.000000X1.700000*%
%ADD21RoundRect,0.075000X-0.662500X-0.075000X0.662500X-0.075000X0.662500X0.075000X-0.662500X0.075000X0*%
%ADD22RoundRect,0.075000X-0.075000X-0.662500X0.075000X-0.662500X0.075000X0.662500X-0.075000X0.662500X0*%
G04 APERTURE END LIST*
D10*
%TO.C,R9*%
X54700000Y-97800000D03*
X56700000Y-97800000D03*
%TD*%
%TO.C,R8*%
X89500000Y-95700000D03*
X91500000Y-95700000D03*
%TD*%
%TO.C,R7*%
X55000000Y-81750000D03*
X57000000Y-81750000D03*
%TD*%
%TO.C,R6*%
X48700000Y-102600000D03*
X50700000Y-102600000D03*
%TD*%
%TO.C,R5*%
X83075000Y-100500000D03*
X85075000Y-100500000D03*
%TD*%
%TO.C,R4*%
X48700000Y-85500000D03*
X50700000Y-85500000D03*
%TD*%
%TO.C,R3*%
X48737500Y-90200000D03*
X50737500Y-90200000D03*
%TD*%
D11*
%TO.C,R2*%
X71250000Y-89250000D03*
X71250000Y-87250000D03*
%TD*%
%TO.C,R1*%
X73750000Y-89250000D03*
X73750000Y-87250000D03*
%TD*%
D12*
%TO.C,D4*%
X54137500Y-102800000D03*
X56187500Y-102800000D03*
%TD*%
%TO.C,D3*%
X87975000Y-100300000D03*
X90025000Y-100300000D03*
%TD*%
%TO.C,D2*%
X53725000Y-85750000D03*
X55775000Y-85750000D03*
%TD*%
%TO.C,D1*%
X54575000Y-90500000D03*
X56625000Y-90500000D03*
%TD*%
D13*
%TO.C,C9*%
X65212500Y-73250000D03*
X67287500Y-73250000D03*
%TD*%
%TO.C,C8*%
X60462500Y-69250000D03*
X62537500Y-69250000D03*
%TD*%
%TO.C,C7*%
X62762500Y-91250000D03*
X64837500Y-91250000D03*
%TD*%
%TO.C,C6*%
X65512500Y-88600000D03*
X67587500Y-88600000D03*
%TD*%
%TO.C,C5*%
X58962500Y-102000000D03*
X61037500Y-102000000D03*
%TD*%
%TO.C,C4*%
X59712500Y-93500000D03*
X61787500Y-93500000D03*
%TD*%
%TO.C,C3*%
X59562500Y-97500000D03*
X61637500Y-97500000D03*
%TD*%
%TO.C,C2*%
X58862500Y-88300000D03*
X60937500Y-88300000D03*
%TD*%
%TO.C,C1*%
X69712500Y-105000000D03*
X71787500Y-105000000D03*
%TD*%
D14*
%TO.C,SW4*%
X82537500Y-95800000D03*
X86687500Y-95800000D03*
%TD*%
%TO.C,SW1*%
X61725000Y-105000000D03*
X65875000Y-105000000D03*
%TD*%
D15*
%TO.C,SW2*%
X91250000Y-81000000D03*
X91250000Y-86000000D03*
X91250000Y-83500000D03*
X84750000Y-81000000D03*
X84750000Y-83500000D03*
X84750000Y-86000000D03*
%TD*%
D16*
%TO.C,J2*%
X78125000Y-70600000D03*
D17*
X80665000Y-70600000D03*
X83205000Y-70600000D03*
X85745000Y-70600000D03*
X88285000Y-70600000D03*
%TD*%
D18*
%TO.C,J3*%
X48700000Y-73000000D03*
X53100000Y-73000000D03*
D19*
X52500000Y-75700000D03*
X51700000Y-75700000D03*
X50900000Y-75700000D03*
X50100000Y-75700000D03*
X49300000Y-75700000D03*
D20*
X55350000Y-75600000D03*
X46450000Y-75600000D03*
X55350000Y-70150000D03*
X46450000Y-70150000D03*
%TD*%
D14*
%TO.C,SW3*%
X47925000Y-81750000D03*
X52075000Y-81750000D03*
%TD*%
D16*
%TO.C,J1*%
X65200000Y-79975000D03*
D17*
X67740000Y-79975000D03*
X70280000Y-79975000D03*
X72820000Y-79975000D03*
%TD*%
D14*
%TO.C,SW5*%
X47350000Y-97700000D03*
X51500000Y-97700000D03*
%TD*%
D21*
%TO.C,U1*%
X64937500Y-94250000D03*
X64937500Y-94750000D03*
X64937500Y-95250000D03*
X64937500Y-95750000D03*
X64937500Y-96250000D03*
X64937500Y-96750000D03*
X64937500Y-97250000D03*
X64937500Y-97750000D03*
X64937500Y-98250000D03*
X64937500Y-98750000D03*
X64937500Y-99250000D03*
X64937500Y-99750000D03*
D22*
X66350000Y-101162500D03*
X66850000Y-101162500D03*
X67350000Y-101162500D03*
X67850000Y-101162500D03*
X68350000Y-101162500D03*
X68850000Y-101162500D03*
X69350000Y-101162500D03*
X69850000Y-101162500D03*
X70350000Y-101162500D03*
X70850000Y-101162500D03*
X71350000Y-101162500D03*
X71850000Y-101162500D03*
D21*
X73262500Y-99750000D03*
X73262500Y-99250000D03*
X73262500Y-98750000D03*
X73262500Y-98250000D03*
X73262500Y-97750000D03*
X73262500Y-97250000D03*
X73262500Y-96750000D03*
X73262500Y-96250000D03*
X73262500Y-95750000D03*
X73262500Y-95250000D03*
X73262500Y-94750000D03*
X73262500Y-94250000D03*
D22*
X71850000Y-92837500D03*
X71350000Y-92837500D03*
X70850000Y-92837500D03*
X70350000Y-92837500D03*
X69850000Y-92837500D03*
X69350000Y-92837500D03*
X68850000Y-92837500D03*
X68350000Y-92837500D03*
X67850000Y-92837500D03*
X67350000Y-92837500D03*
X66850000Y-92837500D03*
X66350000Y-92837500D03*
%TD*%
M02*
