%TF.GenerationSoftware,KiCad,Pcbnew,(6.0.1)*%
%TF.CreationDate,2022-04-19T02:49:18-05:00*%
%TF.ProjectId,pcb_w_STM32F030C8T6,7063625f-775f-4535-944d-333246303330,rev?*%
%TF.SameCoordinates,Original*%
%TF.FileFunction,Copper,L3,Inr*%
%TF.FilePolarity,Positive*%
%FSLAX46Y46*%
G04 Gerber Fmt 4.6, Leading zero omitted, Abs format (unit mm)*
G04 Created by KiCad (PCBNEW (6.0.1)) date 2022-04-19 02:49:18*
%MOMM*%
%LPD*%
G01*
G04 APERTURE LIST*
%TA.AperFunction,ComponentPad*%
%ADD10R,1.700000X1.700000*%
%TD*%
%TA.AperFunction,ComponentPad*%
%ADD11O,1.700000X1.700000*%
%TD*%
%TA.AperFunction,ViaPad*%
%ADD12C,0.800000*%
%TD*%
G04 APERTURE END LIST*
D10*
%TO.N,SWCLK*%
%TO.C,J2*%
X78125000Y-70600000D03*
D11*
%TO.N,SWDIO*%
X80665000Y-70600000D03*
%TO.N,GND*%
X83205000Y-70600000D03*
%TO.N,Net-(J2-Pad4)*%
X85745000Y-70600000D03*
%TO.N,NRST*%
X88285000Y-70600000D03*
%TD*%
D10*
%TO.N,GND*%
%TO.C,J1*%
X65200000Y-79975000D03*
D11*
%TO.N,VDDA*%
X67740000Y-79975000D03*
%TO.N,SCL*%
X70280000Y-79975000D03*
%TO.N,SDA*%
X72820000Y-79975000D03*
%TD*%
D12*
%TO.N,NRST*%
X64250000Y-103500000D03*
X63250000Y-95750000D03*
X85500000Y-76500000D03*
%TO.N,GND*%
X48000000Y-77500000D03*
X63000000Y-93500000D03*
X68500000Y-72250000D03*
X47000000Y-85250000D03*
X62250000Y-88000000D03*
X62250000Y-101000000D03*
X68250000Y-87000000D03*
X83000000Y-73250000D03*
X64500000Y-82500000D03*
X66500000Y-91000000D03*
X47000000Y-90500000D03*
X60000000Y-77750000D03*
X47000000Y-102000000D03*
X63750000Y-68750000D03*
X70750000Y-91250000D03*
X58250000Y-81500000D03*
X44500000Y-69750000D03*
X63000000Y-104750000D03*
X57250000Y-99250000D03*
X62750000Y-96750000D03*
X92750000Y-96000000D03*
X44500000Y-75250000D03*
X81250000Y-100000000D03*
X57250000Y-75250000D03*
X57250000Y-70500000D03*
X73500000Y-105000000D03*
%TO.N,VDDA*%
X83117157Y-81717157D03*
X73250000Y-86000000D03*
X46000000Y-98750000D03*
X72750000Y-101250000D03*
X67500000Y-77500000D03*
X70500000Y-86000000D03*
X58500000Y-94250000D03*
X65000000Y-87000000D03*
X62750000Y-99250000D03*
X64250000Y-93250000D03*
X63000000Y-89750000D03*
X57500000Y-89250000D03*
X58500000Y-96500000D03*
X81750000Y-94250000D03*
X57750000Y-101250000D03*
X46500000Y-82500000D03*
%TO.N,CHANGE_STATE*%
X55750000Y-92750000D03*
X55750000Y-87750000D03*
%TO.N,INC*%
X72800000Y-103400000D03*
X68250000Y-104250000D03*
%TO.N,DEC*%
X66750000Y-103000000D03*
X69750000Y-103000000D03*
%TO.N,SDA*%
X72500000Y-82750000D03*
X69500000Y-84750000D03*
%TO.N,SWCLK*%
X79750000Y-84000000D03*
X78737701Y-85762299D03*
%TO.N,SWDIO*%
X80750000Y-84500000D03*
X80000000Y-88500000D03*
%TD*%
%TA.AperFunction,Conductor*%
%TO.N,GND*%
G36*
X92970055Y-66509500D02*
G01*
X92984856Y-66511805D01*
X92984859Y-66511805D01*
X92993728Y-66513186D01*
X93002630Y-66512022D01*
X93002632Y-66512022D01*
X93002690Y-66512014D01*
X93002729Y-66512009D01*
X93033167Y-66511738D01*
X93095374Y-66518747D01*
X93122882Y-66525026D01*
X93200069Y-66552035D01*
X93225490Y-66564277D01*
X93294737Y-66607788D01*
X93316796Y-66625380D01*
X93374620Y-66683204D01*
X93392212Y-66705263D01*
X93435723Y-66774510D01*
X93447965Y-66799931D01*
X93474974Y-66877119D01*
X93481253Y-66904624D01*
X93487522Y-66960255D01*
X93488305Y-66975903D01*
X93488196Y-66984858D01*
X93486814Y-66993732D01*
X93488454Y-67006272D01*
X93490936Y-67025253D01*
X93492000Y-67041591D01*
X93492000Y-106950670D01*
X93490500Y-106970054D01*
X93486814Y-106993728D01*
X93487978Y-107002630D01*
X93487978Y-107002632D01*
X93487991Y-107002728D01*
X93488262Y-107033167D01*
X93481253Y-107095374D01*
X93474974Y-107122882D01*
X93447965Y-107200069D01*
X93435723Y-107225490D01*
X93392212Y-107294737D01*
X93374620Y-107316796D01*
X93316796Y-107374620D01*
X93294737Y-107392212D01*
X93225490Y-107435723D01*
X93200069Y-107447965D01*
X93122881Y-107474974D01*
X93095376Y-107481253D01*
X93083762Y-107482562D01*
X93039738Y-107487522D01*
X93024097Y-107488305D01*
X93015142Y-107488196D01*
X93006268Y-107486814D01*
X92974747Y-107490936D01*
X92958409Y-107492000D01*
X44049330Y-107492000D01*
X44029945Y-107490500D01*
X44015144Y-107488195D01*
X44015141Y-107488195D01*
X44006272Y-107486814D01*
X43997370Y-107487978D01*
X43997368Y-107487978D01*
X43997310Y-107487986D01*
X43997271Y-107487991D01*
X43966833Y-107488262D01*
X43904626Y-107481253D01*
X43877118Y-107474974D01*
X43799931Y-107447965D01*
X43774510Y-107435723D01*
X43705263Y-107392212D01*
X43683204Y-107374620D01*
X43625380Y-107316796D01*
X43607788Y-107294737D01*
X43564277Y-107225490D01*
X43552035Y-107200069D01*
X43525026Y-107122881D01*
X43518747Y-107095376D01*
X43512478Y-107039745D01*
X43511695Y-107024097D01*
X43511804Y-107015142D01*
X43513186Y-107006268D01*
X43509064Y-106974746D01*
X43508000Y-106958409D01*
X43508000Y-103500000D01*
X63336496Y-103500000D01*
X63337186Y-103506565D01*
X63346608Y-103596206D01*
X63356458Y-103689928D01*
X63415473Y-103871556D01*
X63418776Y-103877278D01*
X63418777Y-103877279D01*
X63436803Y-103908500D01*
X63510960Y-104036944D01*
X63515378Y-104041851D01*
X63515379Y-104041852D01*
X63537694Y-104066635D01*
X63638747Y-104178866D01*
X63793248Y-104291118D01*
X63799276Y-104293802D01*
X63799278Y-104293803D01*
X63961681Y-104366109D01*
X63967712Y-104368794D01*
X64061113Y-104388647D01*
X64148056Y-104407128D01*
X64148061Y-104407128D01*
X64154513Y-104408500D01*
X64345487Y-104408500D01*
X64351939Y-104407128D01*
X64351944Y-104407128D01*
X64438887Y-104388647D01*
X64532288Y-104368794D01*
X64538319Y-104366109D01*
X64700722Y-104293803D01*
X64700724Y-104293802D01*
X64706752Y-104291118D01*
X64861253Y-104178866D01*
X64962306Y-104066635D01*
X64984621Y-104041852D01*
X64984622Y-104041851D01*
X64989040Y-104036944D01*
X65063197Y-103908500D01*
X65081223Y-103877279D01*
X65081224Y-103877278D01*
X65084527Y-103871556D01*
X65143542Y-103689928D01*
X65153393Y-103596206D01*
X65162814Y-103506565D01*
X65163504Y-103500000D01*
X65151301Y-103383891D01*
X65144232Y-103316635D01*
X65144232Y-103316633D01*
X65143542Y-103310072D01*
X65084527Y-103128444D01*
X65010370Y-103000000D01*
X65836496Y-103000000D01*
X65856458Y-103189928D01*
X65915473Y-103371556D01*
X65918776Y-103377278D01*
X65918777Y-103377279D01*
X65924476Y-103387150D01*
X66010960Y-103536944D01*
X66015378Y-103541851D01*
X66015379Y-103541852D01*
X66058667Y-103589928D01*
X66138747Y-103678866D01*
X66293248Y-103791118D01*
X66299276Y-103793802D01*
X66299278Y-103793803D01*
X66317806Y-103802052D01*
X66467712Y-103868794D01*
X66561112Y-103888647D01*
X66648056Y-103907128D01*
X66648061Y-103907128D01*
X66654513Y-103908500D01*
X66845487Y-103908500D01*
X66851939Y-103907128D01*
X66851944Y-103907128D01*
X66938887Y-103888647D01*
X67032288Y-103868794D01*
X67182194Y-103802052D01*
X67200724Y-103793802D01*
X67200725Y-103793801D01*
X67206752Y-103791118D01*
X67212094Y-103787237D01*
X67214645Y-103785764D01*
X67283639Y-103769024D01*
X67350732Y-103792242D01*
X67394621Y-103848048D01*
X67401372Y-103918723D01*
X67397481Y-103933817D01*
X67356458Y-104060072D01*
X67355768Y-104066633D01*
X67355768Y-104066635D01*
X67343972Y-104178866D01*
X67336496Y-104250000D01*
X67337186Y-104256565D01*
X67353011Y-104407128D01*
X67356458Y-104439928D01*
X67415473Y-104621556D01*
X67510960Y-104786944D01*
X67638747Y-104928866D01*
X67793248Y-105041118D01*
X67799276Y-105043802D01*
X67799278Y-105043803D01*
X67961681Y-105116109D01*
X67967712Y-105118794D01*
X68061112Y-105138647D01*
X68148056Y-105157128D01*
X68148061Y-105157128D01*
X68154513Y-105158500D01*
X68345487Y-105158500D01*
X68351939Y-105157128D01*
X68351944Y-105157128D01*
X68438887Y-105138647D01*
X68532288Y-105118794D01*
X68538319Y-105116109D01*
X68700722Y-105043803D01*
X68700724Y-105043802D01*
X68706752Y-105041118D01*
X68861253Y-104928866D01*
X68989040Y-104786944D01*
X69084527Y-104621556D01*
X69143542Y-104439928D01*
X69146990Y-104407128D01*
X69162814Y-104256565D01*
X69163504Y-104250000D01*
X69156028Y-104178866D01*
X69144232Y-104066635D01*
X69144232Y-104066633D01*
X69143542Y-104060072D01*
X69102519Y-103933817D01*
X69100491Y-103862850D01*
X69137154Y-103802052D01*
X69200866Y-103770726D01*
X69271400Y-103778819D01*
X69285355Y-103785764D01*
X69287906Y-103787237D01*
X69293248Y-103791118D01*
X69299275Y-103793801D01*
X69299276Y-103793802D01*
X69317806Y-103802052D01*
X69467712Y-103868794D01*
X69561112Y-103888647D01*
X69648056Y-103907128D01*
X69648061Y-103907128D01*
X69654513Y-103908500D01*
X69845487Y-103908500D01*
X69851939Y-103907128D01*
X69851944Y-103907128D01*
X69938887Y-103888647D01*
X70032288Y-103868794D01*
X70182194Y-103802052D01*
X70200722Y-103793803D01*
X70200724Y-103793802D01*
X70206752Y-103791118D01*
X70361253Y-103678866D01*
X70441333Y-103589928D01*
X70484621Y-103541852D01*
X70484622Y-103541851D01*
X70489040Y-103536944D01*
X70568105Y-103400000D01*
X71886496Y-103400000D01*
X71887186Y-103406565D01*
X71904483Y-103571134D01*
X71906458Y-103589928D01*
X71965473Y-103771556D01*
X72060960Y-103936944D01*
X72188747Y-104078866D01*
X72287843Y-104150864D01*
X72326385Y-104178866D01*
X72343248Y-104191118D01*
X72349276Y-104193802D01*
X72349278Y-104193803D01*
X72490245Y-104256565D01*
X72517712Y-104268794D01*
X72604479Y-104287237D01*
X72698056Y-104307128D01*
X72698061Y-104307128D01*
X72704513Y-104308500D01*
X72895487Y-104308500D01*
X72901939Y-104307128D01*
X72901944Y-104307128D01*
X72995521Y-104287237D01*
X73082288Y-104268794D01*
X73109755Y-104256565D01*
X73250722Y-104193803D01*
X73250724Y-104193802D01*
X73256752Y-104191118D01*
X73273616Y-104178866D01*
X73312157Y-104150864D01*
X73411253Y-104078866D01*
X73539040Y-103936944D01*
X73634527Y-103771556D01*
X73693542Y-103589928D01*
X73695518Y-103571134D01*
X73712814Y-103406565D01*
X73713504Y-103400000D01*
X73711529Y-103381206D01*
X73694232Y-103216635D01*
X73694232Y-103216633D01*
X73693542Y-103210072D01*
X73634527Y-103028444D01*
X73539040Y-102863056D01*
X73497243Y-102816635D01*
X73415675Y-102726045D01*
X73415674Y-102726044D01*
X73411253Y-102721134D01*
X73256752Y-102608882D01*
X73250724Y-102606198D01*
X73250722Y-102606197D01*
X73088319Y-102533891D01*
X73088318Y-102533891D01*
X73082288Y-102531206D01*
X72988887Y-102511353D01*
X72901944Y-102492872D01*
X72901939Y-102492872D01*
X72895487Y-102491500D01*
X72704513Y-102491500D01*
X72698061Y-102492872D01*
X72698056Y-102492872D01*
X72611112Y-102511353D01*
X72517712Y-102531206D01*
X72511682Y-102533891D01*
X72511681Y-102533891D01*
X72349278Y-102606197D01*
X72349276Y-102606198D01*
X72343248Y-102608882D01*
X72188747Y-102721134D01*
X72184326Y-102726044D01*
X72184325Y-102726045D01*
X72102758Y-102816635D01*
X72060960Y-102863056D01*
X71965473Y-103028444D01*
X71906458Y-103210072D01*
X71905768Y-103216633D01*
X71905768Y-103216635D01*
X71888471Y-103381206D01*
X71886496Y-103400000D01*
X70568105Y-103400000D01*
X70575524Y-103387150D01*
X70581223Y-103377279D01*
X70581224Y-103377278D01*
X70584527Y-103371556D01*
X70643542Y-103189928D01*
X70663504Y-103000000D01*
X70643542Y-102810072D01*
X70584527Y-102628444D01*
X70563990Y-102592872D01*
X70529937Y-102533891D01*
X70489040Y-102463056D01*
X70361253Y-102321134D01*
X70206752Y-102208882D01*
X70200724Y-102206198D01*
X70200722Y-102206197D01*
X70038319Y-102133891D01*
X70038318Y-102133891D01*
X70032288Y-102131206D01*
X69938887Y-102111353D01*
X69851944Y-102092872D01*
X69851939Y-102092872D01*
X69845487Y-102091500D01*
X69654513Y-102091500D01*
X69648061Y-102092872D01*
X69648056Y-102092872D01*
X69561112Y-102111353D01*
X69467712Y-102131206D01*
X69461682Y-102133891D01*
X69461681Y-102133891D01*
X69299278Y-102206197D01*
X69299276Y-102206198D01*
X69293248Y-102208882D01*
X69138747Y-102321134D01*
X69010960Y-102463056D01*
X68970063Y-102533891D01*
X68936011Y-102592872D01*
X68915473Y-102628444D01*
X68856458Y-102810072D01*
X68836496Y-103000000D01*
X68856458Y-103189928D01*
X68858498Y-103196206D01*
X68897481Y-103316183D01*
X68899509Y-103387150D01*
X68862846Y-103447948D01*
X68799134Y-103479274D01*
X68728600Y-103471181D01*
X68714645Y-103464236D01*
X68712093Y-103462762D01*
X68706752Y-103458882D01*
X68574501Y-103400000D01*
X68538319Y-103383891D01*
X68538318Y-103383891D01*
X68532288Y-103381206D01*
X68438888Y-103361353D01*
X68351944Y-103342872D01*
X68351939Y-103342872D01*
X68345487Y-103341500D01*
X68154513Y-103341500D01*
X68148061Y-103342872D01*
X68148056Y-103342872D01*
X68061112Y-103361353D01*
X67967712Y-103381206D01*
X67961682Y-103383891D01*
X67961681Y-103383891D01*
X67925500Y-103400000D01*
X67793248Y-103458882D01*
X67787907Y-103462762D01*
X67785355Y-103464236D01*
X67716361Y-103480976D01*
X67649268Y-103457758D01*
X67605379Y-103401952D01*
X67598628Y-103331277D01*
X67602519Y-103316183D01*
X67641502Y-103196206D01*
X67643542Y-103189928D01*
X67663504Y-103000000D01*
X67643542Y-102810072D01*
X67584527Y-102628444D01*
X67563990Y-102592872D01*
X67529937Y-102533891D01*
X67489040Y-102463056D01*
X67361253Y-102321134D01*
X67206752Y-102208882D01*
X67200724Y-102206198D01*
X67200722Y-102206197D01*
X67038319Y-102133891D01*
X67038318Y-102133891D01*
X67032288Y-102131206D01*
X66938887Y-102111353D01*
X66851944Y-102092872D01*
X66851939Y-102092872D01*
X66845487Y-102091500D01*
X66654513Y-102091500D01*
X66648061Y-102092872D01*
X66648056Y-102092872D01*
X66561112Y-102111353D01*
X66467712Y-102131206D01*
X66461682Y-102133891D01*
X66461681Y-102133891D01*
X66299278Y-102206197D01*
X66299276Y-102206198D01*
X66293248Y-102208882D01*
X66138747Y-102321134D01*
X66010960Y-102463056D01*
X65970063Y-102533891D01*
X65936011Y-102592872D01*
X65915473Y-102628444D01*
X65856458Y-102810072D01*
X65836496Y-103000000D01*
X65010370Y-103000000D01*
X64989040Y-102963056D01*
X64861253Y-102821134D01*
X64730375Y-102726045D01*
X64712094Y-102712763D01*
X64712093Y-102712762D01*
X64706752Y-102708882D01*
X64700724Y-102706198D01*
X64700722Y-102706197D01*
X64538319Y-102633891D01*
X64538318Y-102633891D01*
X64532288Y-102631206D01*
X64438888Y-102611353D01*
X64351944Y-102592872D01*
X64351939Y-102592872D01*
X64345487Y-102591500D01*
X64154513Y-102591500D01*
X64148061Y-102592872D01*
X64148056Y-102592872D01*
X64061113Y-102611353D01*
X63967712Y-102631206D01*
X63961682Y-102633891D01*
X63961681Y-102633891D01*
X63799278Y-102706197D01*
X63799276Y-102706198D01*
X63793248Y-102708882D01*
X63787907Y-102712762D01*
X63787906Y-102712763D01*
X63769625Y-102726045D01*
X63638747Y-102821134D01*
X63510960Y-102963056D01*
X63415473Y-103128444D01*
X63356458Y-103310072D01*
X63355768Y-103316633D01*
X63355768Y-103316635D01*
X63348699Y-103383891D01*
X63336496Y-103500000D01*
X43508000Y-103500000D01*
X43508000Y-101250000D01*
X56836496Y-101250000D01*
X56856458Y-101439928D01*
X56915473Y-101621556D01*
X57010960Y-101786944D01*
X57138747Y-101928866D01*
X57293248Y-102041118D01*
X57299276Y-102043802D01*
X57299278Y-102043803D01*
X57406408Y-102091500D01*
X57467712Y-102118794D01*
X57561113Y-102138647D01*
X57648056Y-102157128D01*
X57648061Y-102157128D01*
X57654513Y-102158500D01*
X57845487Y-102158500D01*
X57851939Y-102157128D01*
X57851944Y-102157128D01*
X57938887Y-102138647D01*
X58032288Y-102118794D01*
X58093592Y-102091500D01*
X58200722Y-102043803D01*
X58200724Y-102043802D01*
X58206752Y-102041118D01*
X58361253Y-101928866D01*
X58489040Y-101786944D01*
X58584527Y-101621556D01*
X58643542Y-101439928D01*
X58663504Y-101250000D01*
X71836496Y-101250000D01*
X71856458Y-101439928D01*
X71915473Y-101621556D01*
X72010960Y-101786944D01*
X72138747Y-101928866D01*
X72293248Y-102041118D01*
X72299276Y-102043802D01*
X72299278Y-102043803D01*
X72406408Y-102091500D01*
X72467712Y-102118794D01*
X72561113Y-102138647D01*
X72648056Y-102157128D01*
X72648061Y-102157128D01*
X72654513Y-102158500D01*
X72845487Y-102158500D01*
X72851939Y-102157128D01*
X72851944Y-102157128D01*
X72938887Y-102138647D01*
X73032288Y-102118794D01*
X73093592Y-102091500D01*
X73200722Y-102043803D01*
X73200724Y-102043802D01*
X73206752Y-102041118D01*
X73361253Y-101928866D01*
X73489040Y-101786944D01*
X73584527Y-101621556D01*
X73643542Y-101439928D01*
X73663504Y-101250000D01*
X73643542Y-101060072D01*
X73584527Y-100878444D01*
X73489040Y-100713056D01*
X73361253Y-100571134D01*
X73206752Y-100458882D01*
X73200724Y-100456198D01*
X73200722Y-100456197D01*
X73038319Y-100383891D01*
X73038318Y-100383891D01*
X73032288Y-100381206D01*
X72938887Y-100361353D01*
X72851944Y-100342872D01*
X72851939Y-100342872D01*
X72845487Y-100341500D01*
X72654513Y-100341500D01*
X72648061Y-100342872D01*
X72648056Y-100342872D01*
X72561113Y-100361353D01*
X72467712Y-100381206D01*
X72461682Y-100383891D01*
X72461681Y-100383891D01*
X72299278Y-100456197D01*
X72299276Y-100456198D01*
X72293248Y-100458882D01*
X72138747Y-100571134D01*
X72010960Y-100713056D01*
X71915473Y-100878444D01*
X71856458Y-101060072D01*
X71836496Y-101250000D01*
X58663504Y-101250000D01*
X58643542Y-101060072D01*
X58584527Y-100878444D01*
X58489040Y-100713056D01*
X58361253Y-100571134D01*
X58206752Y-100458882D01*
X58200724Y-100456198D01*
X58200722Y-100456197D01*
X58038319Y-100383891D01*
X58038318Y-100383891D01*
X58032288Y-100381206D01*
X57938887Y-100361353D01*
X57851944Y-100342872D01*
X57851939Y-100342872D01*
X57845487Y-100341500D01*
X57654513Y-100341500D01*
X57648061Y-100342872D01*
X57648056Y-100342872D01*
X57561113Y-100361353D01*
X57467712Y-100381206D01*
X57461682Y-100383891D01*
X57461681Y-100383891D01*
X57299278Y-100456197D01*
X57299276Y-100456198D01*
X57293248Y-100458882D01*
X57138747Y-100571134D01*
X57010960Y-100713056D01*
X56915473Y-100878444D01*
X56856458Y-101060072D01*
X56836496Y-101250000D01*
X43508000Y-101250000D01*
X43508000Y-98750000D01*
X45086496Y-98750000D01*
X45106458Y-98939928D01*
X45165473Y-99121556D01*
X45260960Y-99286944D01*
X45388747Y-99428866D01*
X45543248Y-99541118D01*
X45549276Y-99543802D01*
X45549278Y-99543803D01*
X45709799Y-99615271D01*
X45717712Y-99618794D01*
X45811112Y-99638647D01*
X45898056Y-99657128D01*
X45898061Y-99657128D01*
X45904513Y-99658500D01*
X46095487Y-99658500D01*
X46101939Y-99657128D01*
X46101944Y-99657128D01*
X46188888Y-99638647D01*
X46282288Y-99618794D01*
X46290201Y-99615271D01*
X46450722Y-99543803D01*
X46450724Y-99543802D01*
X46456752Y-99541118D01*
X46611253Y-99428866D01*
X46739040Y-99286944D01*
X46760370Y-99250000D01*
X61836496Y-99250000D01*
X61856458Y-99439928D01*
X61915473Y-99621556D01*
X61918776Y-99627278D01*
X61918777Y-99627279D01*
X61936803Y-99658500D01*
X62010960Y-99786944D01*
X62138747Y-99928866D01*
X62293248Y-100041118D01*
X62299276Y-100043802D01*
X62299278Y-100043803D01*
X62461681Y-100116109D01*
X62467712Y-100118794D01*
X62561113Y-100138647D01*
X62648056Y-100157128D01*
X62648061Y-100157128D01*
X62654513Y-100158500D01*
X62845487Y-100158500D01*
X62851939Y-100157128D01*
X62851944Y-100157128D01*
X62938887Y-100138647D01*
X63032288Y-100118794D01*
X63038319Y-100116109D01*
X63200722Y-100043803D01*
X63200724Y-100043802D01*
X63206752Y-100041118D01*
X63361253Y-99928866D01*
X63489040Y-99786944D01*
X63563197Y-99658500D01*
X63581223Y-99627279D01*
X63581224Y-99627278D01*
X63584527Y-99621556D01*
X63643542Y-99439928D01*
X63663504Y-99250000D01*
X63643542Y-99060072D01*
X63584527Y-98878444D01*
X63489040Y-98713056D01*
X63361253Y-98571134D01*
X63206752Y-98458882D01*
X63200724Y-98456198D01*
X63200722Y-98456197D01*
X63038319Y-98383891D01*
X63038318Y-98383891D01*
X63032288Y-98381206D01*
X62938888Y-98361353D01*
X62851944Y-98342872D01*
X62851939Y-98342872D01*
X62845487Y-98341500D01*
X62654513Y-98341500D01*
X62648061Y-98342872D01*
X62648056Y-98342872D01*
X62561112Y-98361353D01*
X62467712Y-98381206D01*
X62461682Y-98383891D01*
X62461681Y-98383891D01*
X62299278Y-98456197D01*
X62299276Y-98456198D01*
X62293248Y-98458882D01*
X62138747Y-98571134D01*
X62010960Y-98713056D01*
X61915473Y-98878444D01*
X61856458Y-99060072D01*
X61836496Y-99250000D01*
X46760370Y-99250000D01*
X46834527Y-99121556D01*
X46893542Y-98939928D01*
X46913504Y-98750000D01*
X46893542Y-98560072D01*
X46834527Y-98378444D01*
X46813990Y-98342872D01*
X46742341Y-98218774D01*
X46739040Y-98213056D01*
X46611253Y-98071134D01*
X46456752Y-97958882D01*
X46450724Y-97956198D01*
X46450722Y-97956197D01*
X46288319Y-97883891D01*
X46288318Y-97883891D01*
X46282288Y-97881206D01*
X46188887Y-97861353D01*
X46101944Y-97842872D01*
X46101939Y-97842872D01*
X46095487Y-97841500D01*
X45904513Y-97841500D01*
X45898061Y-97842872D01*
X45898056Y-97842872D01*
X45811113Y-97861353D01*
X45717712Y-97881206D01*
X45711682Y-97883891D01*
X45711681Y-97883891D01*
X45549278Y-97956197D01*
X45549276Y-97956198D01*
X45543248Y-97958882D01*
X45388747Y-98071134D01*
X45260960Y-98213056D01*
X45257659Y-98218774D01*
X45186011Y-98342872D01*
X45165473Y-98378444D01*
X45106458Y-98560072D01*
X45086496Y-98750000D01*
X43508000Y-98750000D01*
X43508000Y-96500000D01*
X57586496Y-96500000D01*
X57587186Y-96506565D01*
X57603011Y-96657128D01*
X57606458Y-96689928D01*
X57665473Y-96871556D01*
X57760960Y-97036944D01*
X57888747Y-97178866D01*
X58043248Y-97291118D01*
X58049276Y-97293802D01*
X58049278Y-97293803D01*
X58211681Y-97366109D01*
X58217712Y-97368794D01*
X58311113Y-97388647D01*
X58398056Y-97407128D01*
X58398061Y-97407128D01*
X58404513Y-97408500D01*
X58595487Y-97408500D01*
X58601939Y-97407128D01*
X58601944Y-97407128D01*
X58688887Y-97388647D01*
X58782288Y-97368794D01*
X58788319Y-97366109D01*
X58950722Y-97293803D01*
X58950724Y-97293802D01*
X58956752Y-97291118D01*
X59111253Y-97178866D01*
X59239040Y-97036944D01*
X59334527Y-96871556D01*
X59393542Y-96689928D01*
X59396990Y-96657128D01*
X59412814Y-96506565D01*
X59413504Y-96500000D01*
X59406028Y-96428866D01*
X59394232Y-96316635D01*
X59394232Y-96316633D01*
X59393542Y-96310072D01*
X59334527Y-96128444D01*
X59239040Y-95963056D01*
X59218216Y-95939928D01*
X59115675Y-95826045D01*
X59115674Y-95826044D01*
X59111253Y-95821134D01*
X59013346Y-95750000D01*
X62336496Y-95750000D01*
X62337186Y-95756565D01*
X62344489Y-95826045D01*
X62356458Y-95939928D01*
X62415473Y-96121556D01*
X62510960Y-96286944D01*
X62515378Y-96291851D01*
X62515379Y-96291852D01*
X62537694Y-96316635D01*
X62638747Y-96428866D01*
X62793248Y-96541118D01*
X62799276Y-96543802D01*
X62799278Y-96543803D01*
X62961681Y-96616109D01*
X62967712Y-96618794D01*
X63061113Y-96638647D01*
X63148056Y-96657128D01*
X63148061Y-96657128D01*
X63154513Y-96658500D01*
X63345487Y-96658500D01*
X63351939Y-96657128D01*
X63351944Y-96657128D01*
X63438887Y-96638647D01*
X63532288Y-96618794D01*
X63538319Y-96616109D01*
X63700722Y-96543803D01*
X63700724Y-96543802D01*
X63706752Y-96541118D01*
X63861253Y-96428866D01*
X63962306Y-96316635D01*
X63984621Y-96291852D01*
X63984622Y-96291851D01*
X63989040Y-96286944D01*
X64084527Y-96121556D01*
X64143542Y-95939928D01*
X64155512Y-95826045D01*
X64162814Y-95756565D01*
X64163504Y-95750000D01*
X64151301Y-95633891D01*
X64144232Y-95566635D01*
X64144232Y-95566633D01*
X64143542Y-95560072D01*
X64084527Y-95378444D01*
X63989040Y-95213056D01*
X63861253Y-95071134D01*
X63706752Y-94958882D01*
X63700724Y-94956198D01*
X63700722Y-94956197D01*
X63538319Y-94883891D01*
X63538318Y-94883891D01*
X63532288Y-94881206D01*
X63438887Y-94861353D01*
X63351944Y-94842872D01*
X63351939Y-94842872D01*
X63345487Y-94841500D01*
X63154513Y-94841500D01*
X63148061Y-94842872D01*
X63148056Y-94842872D01*
X63061113Y-94861353D01*
X62967712Y-94881206D01*
X62961682Y-94883891D01*
X62961681Y-94883891D01*
X62799278Y-94956197D01*
X62799276Y-94956198D01*
X62793248Y-94958882D01*
X62638747Y-95071134D01*
X62510960Y-95213056D01*
X62415473Y-95378444D01*
X62356458Y-95560072D01*
X62355768Y-95566633D01*
X62355768Y-95566635D01*
X62348699Y-95633891D01*
X62336496Y-95750000D01*
X59013346Y-95750000D01*
X58956752Y-95708882D01*
X58950724Y-95706198D01*
X58950722Y-95706197D01*
X58788319Y-95633891D01*
X58788318Y-95633891D01*
X58782288Y-95631206D01*
X58688887Y-95611353D01*
X58601944Y-95592872D01*
X58601939Y-95592872D01*
X58595487Y-95591500D01*
X58404513Y-95591500D01*
X58398061Y-95592872D01*
X58398056Y-95592872D01*
X58311113Y-95611353D01*
X58217712Y-95631206D01*
X58211682Y-95633891D01*
X58211681Y-95633891D01*
X58049278Y-95706197D01*
X58049276Y-95706198D01*
X58043248Y-95708882D01*
X57888747Y-95821134D01*
X57884326Y-95826044D01*
X57884325Y-95826045D01*
X57781785Y-95939928D01*
X57760960Y-95963056D01*
X57665473Y-96128444D01*
X57606458Y-96310072D01*
X57605768Y-96316633D01*
X57605768Y-96316635D01*
X57593972Y-96428866D01*
X57586496Y-96500000D01*
X43508000Y-96500000D01*
X43508000Y-94250000D01*
X57586496Y-94250000D01*
X57606458Y-94439928D01*
X57665473Y-94621556D01*
X57760960Y-94786944D01*
X57888747Y-94928866D01*
X58043248Y-95041118D01*
X58049276Y-95043802D01*
X58049278Y-95043803D01*
X58211681Y-95116109D01*
X58217712Y-95118794D01*
X58311112Y-95138647D01*
X58398056Y-95157128D01*
X58398061Y-95157128D01*
X58404513Y-95158500D01*
X58595487Y-95158500D01*
X58601939Y-95157128D01*
X58601944Y-95157128D01*
X58688888Y-95138647D01*
X58782288Y-95118794D01*
X58788319Y-95116109D01*
X58950722Y-95043803D01*
X58950724Y-95043802D01*
X58956752Y-95041118D01*
X59111253Y-94928866D01*
X59239040Y-94786944D01*
X59334527Y-94621556D01*
X59393542Y-94439928D01*
X59413504Y-94250000D01*
X80836496Y-94250000D01*
X80856458Y-94439928D01*
X80915473Y-94621556D01*
X81010960Y-94786944D01*
X81138747Y-94928866D01*
X81293248Y-95041118D01*
X81299276Y-95043802D01*
X81299278Y-95043803D01*
X81461681Y-95116109D01*
X81467712Y-95118794D01*
X81561112Y-95138647D01*
X81648056Y-95157128D01*
X81648061Y-95157128D01*
X81654513Y-95158500D01*
X81845487Y-95158500D01*
X81851939Y-95157128D01*
X81851944Y-95157128D01*
X81938888Y-95138647D01*
X82032288Y-95118794D01*
X82038319Y-95116109D01*
X82200722Y-95043803D01*
X82200724Y-95043802D01*
X82206752Y-95041118D01*
X82361253Y-94928866D01*
X82489040Y-94786944D01*
X82584527Y-94621556D01*
X82643542Y-94439928D01*
X82663504Y-94250000D01*
X82643542Y-94060072D01*
X82584527Y-93878444D01*
X82489040Y-93713056D01*
X82361253Y-93571134D01*
X82206752Y-93458882D01*
X82200724Y-93456198D01*
X82200722Y-93456197D01*
X82038319Y-93383891D01*
X82038318Y-93383891D01*
X82032288Y-93381206D01*
X81938887Y-93361353D01*
X81851944Y-93342872D01*
X81851939Y-93342872D01*
X81845487Y-93341500D01*
X81654513Y-93341500D01*
X81648061Y-93342872D01*
X81648056Y-93342872D01*
X81561113Y-93361353D01*
X81467712Y-93381206D01*
X81461682Y-93383891D01*
X81461681Y-93383891D01*
X81299278Y-93456197D01*
X81299276Y-93456198D01*
X81293248Y-93458882D01*
X81138747Y-93571134D01*
X81010960Y-93713056D01*
X80915473Y-93878444D01*
X80856458Y-94060072D01*
X80836496Y-94250000D01*
X59413504Y-94250000D01*
X59393542Y-94060072D01*
X59334527Y-93878444D01*
X59239040Y-93713056D01*
X59111253Y-93571134D01*
X58956752Y-93458882D01*
X58950724Y-93456198D01*
X58950722Y-93456197D01*
X58788319Y-93383891D01*
X58788318Y-93383891D01*
X58782288Y-93381206D01*
X58688887Y-93361353D01*
X58601944Y-93342872D01*
X58601939Y-93342872D01*
X58595487Y-93341500D01*
X58404513Y-93341500D01*
X58398061Y-93342872D01*
X58398056Y-93342872D01*
X58311113Y-93361353D01*
X58217712Y-93381206D01*
X58211682Y-93383891D01*
X58211681Y-93383891D01*
X58049278Y-93456197D01*
X58049276Y-93456198D01*
X58043248Y-93458882D01*
X57888747Y-93571134D01*
X57760960Y-93713056D01*
X57665473Y-93878444D01*
X57606458Y-94060072D01*
X57586496Y-94250000D01*
X43508000Y-94250000D01*
X43508000Y-92750000D01*
X54836496Y-92750000D01*
X54856458Y-92939928D01*
X54915473Y-93121556D01*
X55010960Y-93286944D01*
X55138747Y-93428866D01*
X55293248Y-93541118D01*
X55299276Y-93543802D01*
X55299278Y-93543803D01*
X55459799Y-93615271D01*
X55467712Y-93618794D01*
X55561112Y-93638647D01*
X55648056Y-93657128D01*
X55648061Y-93657128D01*
X55654513Y-93658500D01*
X55845487Y-93658500D01*
X55851939Y-93657128D01*
X55851944Y-93657128D01*
X55938888Y-93638647D01*
X56032288Y-93618794D01*
X56040201Y-93615271D01*
X56200722Y-93543803D01*
X56200724Y-93543802D01*
X56206752Y-93541118D01*
X56361253Y-93428866D01*
X56489040Y-93286944D01*
X56510370Y-93250000D01*
X63336496Y-93250000D01*
X63356458Y-93439928D01*
X63415473Y-93621556D01*
X63418776Y-93627278D01*
X63418777Y-93627279D01*
X63436803Y-93658500D01*
X63510960Y-93786944D01*
X63638747Y-93928866D01*
X63793248Y-94041118D01*
X63799276Y-94043802D01*
X63799278Y-94043803D01*
X63850560Y-94066635D01*
X63967712Y-94118794D01*
X64061112Y-94138647D01*
X64148056Y-94157128D01*
X64148061Y-94157128D01*
X64154513Y-94158500D01*
X64345487Y-94158500D01*
X64351939Y-94157128D01*
X64351944Y-94157128D01*
X64438888Y-94138647D01*
X64532288Y-94118794D01*
X64649440Y-94066635D01*
X64700722Y-94043803D01*
X64700724Y-94043802D01*
X64706752Y-94041118D01*
X64861253Y-93928866D01*
X64989040Y-93786944D01*
X65063197Y-93658500D01*
X65081223Y-93627279D01*
X65081224Y-93627278D01*
X65084527Y-93621556D01*
X65143542Y-93439928D01*
X65163504Y-93250000D01*
X65143542Y-93060072D01*
X65084527Y-92878444D01*
X64989040Y-92713056D01*
X64861253Y-92571134D01*
X64706752Y-92458882D01*
X64700724Y-92456198D01*
X64700722Y-92456197D01*
X64538319Y-92383891D01*
X64538318Y-92383891D01*
X64532288Y-92381206D01*
X64438888Y-92361353D01*
X64351944Y-92342872D01*
X64351939Y-92342872D01*
X64345487Y-92341500D01*
X64154513Y-92341500D01*
X64148061Y-92342872D01*
X64148056Y-92342872D01*
X64061112Y-92361353D01*
X63967712Y-92381206D01*
X63961682Y-92383891D01*
X63961681Y-92383891D01*
X63799278Y-92456197D01*
X63799276Y-92456198D01*
X63793248Y-92458882D01*
X63638747Y-92571134D01*
X63510960Y-92713056D01*
X63415473Y-92878444D01*
X63356458Y-93060072D01*
X63336496Y-93250000D01*
X56510370Y-93250000D01*
X56584527Y-93121556D01*
X56643542Y-92939928D01*
X56663504Y-92750000D01*
X56643542Y-92560072D01*
X56584527Y-92378444D01*
X56563990Y-92342872D01*
X56492341Y-92218774D01*
X56489040Y-92213056D01*
X56361253Y-92071134D01*
X56206752Y-91958882D01*
X56200724Y-91956198D01*
X56200722Y-91956197D01*
X56038319Y-91883891D01*
X56038318Y-91883891D01*
X56032288Y-91881206D01*
X55938887Y-91861353D01*
X55851944Y-91842872D01*
X55851939Y-91842872D01*
X55845487Y-91841500D01*
X55654513Y-91841500D01*
X55648061Y-91842872D01*
X55648056Y-91842872D01*
X55561113Y-91861353D01*
X55467712Y-91881206D01*
X55461682Y-91883891D01*
X55461681Y-91883891D01*
X55299278Y-91956197D01*
X55299276Y-91956198D01*
X55293248Y-91958882D01*
X55138747Y-92071134D01*
X55010960Y-92213056D01*
X55007659Y-92218774D01*
X54936011Y-92342872D01*
X54915473Y-92378444D01*
X54856458Y-92560072D01*
X54836496Y-92750000D01*
X43508000Y-92750000D01*
X43508000Y-89250000D01*
X56586496Y-89250000D01*
X56587186Y-89256565D01*
X56603011Y-89407128D01*
X56606458Y-89439928D01*
X56665473Y-89621556D01*
X56760960Y-89786944D01*
X56888747Y-89928866D01*
X57043248Y-90041118D01*
X57049276Y-90043802D01*
X57049278Y-90043803D01*
X57209799Y-90115271D01*
X57217712Y-90118794D01*
X57311112Y-90138647D01*
X57398056Y-90157128D01*
X57398061Y-90157128D01*
X57404513Y-90158500D01*
X57595487Y-90158500D01*
X57601939Y-90157128D01*
X57601944Y-90157128D01*
X57688888Y-90138647D01*
X57782288Y-90118794D01*
X57790201Y-90115271D01*
X57950722Y-90043803D01*
X57950724Y-90043802D01*
X57956752Y-90041118D01*
X58111253Y-89928866D01*
X58239040Y-89786944D01*
X58260370Y-89750000D01*
X62086496Y-89750000D01*
X62106458Y-89939928D01*
X62165473Y-90121556D01*
X62168776Y-90127278D01*
X62168777Y-90127279D01*
X62186803Y-90158500D01*
X62260960Y-90286944D01*
X62388747Y-90428866D01*
X62543248Y-90541118D01*
X62549276Y-90543802D01*
X62549278Y-90543803D01*
X62711681Y-90616109D01*
X62717712Y-90618794D01*
X62811113Y-90638647D01*
X62898056Y-90657128D01*
X62898061Y-90657128D01*
X62904513Y-90658500D01*
X63095487Y-90658500D01*
X63101939Y-90657128D01*
X63101944Y-90657128D01*
X63188887Y-90638647D01*
X63282288Y-90618794D01*
X63288319Y-90616109D01*
X63450722Y-90543803D01*
X63450724Y-90543802D01*
X63456752Y-90541118D01*
X63611253Y-90428866D01*
X63739040Y-90286944D01*
X63813197Y-90158500D01*
X63831223Y-90127279D01*
X63831224Y-90127278D01*
X63834527Y-90121556D01*
X63893542Y-89939928D01*
X63913504Y-89750000D01*
X63893542Y-89560072D01*
X63834527Y-89378444D01*
X63827406Y-89366109D01*
X63784109Y-89291118D01*
X63739040Y-89213056D01*
X63711752Y-89182749D01*
X63615675Y-89076045D01*
X63615674Y-89076044D01*
X63611253Y-89071134D01*
X63456752Y-88958882D01*
X63450724Y-88956198D01*
X63450722Y-88956197D01*
X63288319Y-88883891D01*
X63288318Y-88883891D01*
X63282288Y-88881206D01*
X63188887Y-88861353D01*
X63101944Y-88842872D01*
X63101939Y-88842872D01*
X63095487Y-88841500D01*
X62904513Y-88841500D01*
X62898061Y-88842872D01*
X62898056Y-88842872D01*
X62811113Y-88861353D01*
X62717712Y-88881206D01*
X62711682Y-88883891D01*
X62711681Y-88883891D01*
X62549278Y-88956197D01*
X62549276Y-88956198D01*
X62543248Y-88958882D01*
X62388747Y-89071134D01*
X62384326Y-89076044D01*
X62384325Y-89076045D01*
X62288249Y-89182749D01*
X62260960Y-89213056D01*
X62215891Y-89291118D01*
X62172595Y-89366109D01*
X62165473Y-89378444D01*
X62106458Y-89560072D01*
X62086496Y-89750000D01*
X58260370Y-89750000D01*
X58334527Y-89621556D01*
X58393542Y-89439928D01*
X58396990Y-89407128D01*
X58412814Y-89256565D01*
X58413504Y-89250000D01*
X58406028Y-89178866D01*
X58394232Y-89066635D01*
X58394232Y-89066633D01*
X58393542Y-89060072D01*
X58334527Y-88878444D01*
X58313990Y-88842872D01*
X58242341Y-88718774D01*
X58239040Y-88713056D01*
X58218216Y-88689928D01*
X58115675Y-88576045D01*
X58115674Y-88576044D01*
X58111253Y-88571134D01*
X58013346Y-88500000D01*
X79086496Y-88500000D01*
X79087186Y-88506565D01*
X79103011Y-88657128D01*
X79106458Y-88689928D01*
X79165473Y-88871556D01*
X79168776Y-88877278D01*
X79168777Y-88877279D01*
X79173078Y-88884729D01*
X79260960Y-89036944D01*
X79265378Y-89041851D01*
X79265379Y-89041852D01*
X79384325Y-89173955D01*
X79388747Y-89178866D01*
X79543248Y-89291118D01*
X79549276Y-89293802D01*
X79549278Y-89293803D01*
X79711681Y-89366109D01*
X79717712Y-89368794D01*
X79792680Y-89384729D01*
X79898056Y-89407128D01*
X79898061Y-89407128D01*
X79904513Y-89408500D01*
X80095487Y-89408500D01*
X80101939Y-89407128D01*
X80101944Y-89407128D01*
X80207320Y-89384729D01*
X80282288Y-89368794D01*
X80288319Y-89366109D01*
X80450722Y-89293803D01*
X80450724Y-89293802D01*
X80456752Y-89291118D01*
X80611253Y-89178866D01*
X80615675Y-89173955D01*
X80734621Y-89041852D01*
X80734622Y-89041851D01*
X80739040Y-89036944D01*
X80826922Y-88884729D01*
X80831223Y-88877279D01*
X80831224Y-88877278D01*
X80834527Y-88871556D01*
X80893542Y-88689928D01*
X80896990Y-88657128D01*
X80912814Y-88506565D01*
X80913504Y-88500000D01*
X80906028Y-88428866D01*
X80894232Y-88316635D01*
X80894232Y-88316633D01*
X80893542Y-88310072D01*
X80834527Y-88128444D01*
X80739040Y-87963056D01*
X80718216Y-87939928D01*
X80615675Y-87826045D01*
X80615674Y-87826044D01*
X80611253Y-87821134D01*
X80456752Y-87708882D01*
X80450724Y-87706198D01*
X80450722Y-87706197D01*
X80288319Y-87633891D01*
X80288318Y-87633891D01*
X80282288Y-87631206D01*
X80188887Y-87611353D01*
X80101944Y-87592872D01*
X80101939Y-87592872D01*
X80095487Y-87591500D01*
X79904513Y-87591500D01*
X79898061Y-87592872D01*
X79898056Y-87592872D01*
X79811113Y-87611353D01*
X79717712Y-87631206D01*
X79711682Y-87633891D01*
X79711681Y-87633891D01*
X79549278Y-87706197D01*
X79549276Y-87706198D01*
X79543248Y-87708882D01*
X79388747Y-87821134D01*
X79384326Y-87826044D01*
X79384325Y-87826045D01*
X79281785Y-87939928D01*
X79260960Y-87963056D01*
X79165473Y-88128444D01*
X79106458Y-88310072D01*
X79105768Y-88316633D01*
X79105768Y-88316635D01*
X79093972Y-88428866D01*
X79086496Y-88500000D01*
X58013346Y-88500000D01*
X57956752Y-88458882D01*
X57950724Y-88456198D01*
X57950722Y-88456197D01*
X57788319Y-88383891D01*
X57788318Y-88383891D01*
X57782288Y-88381206D01*
X57688888Y-88361353D01*
X57601944Y-88342872D01*
X57601939Y-88342872D01*
X57595487Y-88341500D01*
X57404513Y-88341500D01*
X57398061Y-88342872D01*
X57398056Y-88342872D01*
X57311112Y-88361353D01*
X57217712Y-88381206D01*
X57211682Y-88383891D01*
X57211681Y-88383891D01*
X57049278Y-88456197D01*
X57049276Y-88456198D01*
X57043248Y-88458882D01*
X56888747Y-88571134D01*
X56884326Y-88576044D01*
X56884325Y-88576045D01*
X56781785Y-88689928D01*
X56760960Y-88713056D01*
X56757659Y-88718774D01*
X56686011Y-88842872D01*
X56665473Y-88878444D01*
X56606458Y-89060072D01*
X56605768Y-89066633D01*
X56605768Y-89066635D01*
X56593972Y-89178866D01*
X56586496Y-89250000D01*
X43508000Y-89250000D01*
X43508000Y-87750000D01*
X54836496Y-87750000D01*
X54837186Y-87756565D01*
X54853011Y-87907128D01*
X54856458Y-87939928D01*
X54915473Y-88121556D01*
X55010960Y-88286944D01*
X55015378Y-88291851D01*
X55015379Y-88291852D01*
X55037694Y-88316635D01*
X55138747Y-88428866D01*
X55293248Y-88541118D01*
X55299276Y-88543802D01*
X55299278Y-88543803D01*
X55461681Y-88616109D01*
X55467712Y-88618794D01*
X55561113Y-88638647D01*
X55648056Y-88657128D01*
X55648061Y-88657128D01*
X55654513Y-88658500D01*
X55845487Y-88658500D01*
X55851939Y-88657128D01*
X55851944Y-88657128D01*
X55938887Y-88638647D01*
X56032288Y-88618794D01*
X56038319Y-88616109D01*
X56200722Y-88543803D01*
X56200724Y-88543802D01*
X56206752Y-88541118D01*
X56361253Y-88428866D01*
X56462306Y-88316635D01*
X56484621Y-88291852D01*
X56484622Y-88291851D01*
X56489040Y-88286944D01*
X56584527Y-88121556D01*
X56643542Y-87939928D01*
X56646990Y-87907128D01*
X56662814Y-87756565D01*
X56663504Y-87750000D01*
X56656028Y-87678866D01*
X56644232Y-87566635D01*
X56644232Y-87566633D01*
X56643542Y-87560072D01*
X56584527Y-87378444D01*
X56489040Y-87213056D01*
X56468216Y-87189928D01*
X56365675Y-87076045D01*
X56365674Y-87076044D01*
X56361253Y-87071134D01*
X56263346Y-87000000D01*
X64086496Y-87000000D01*
X64087186Y-87006565D01*
X64094489Y-87076045D01*
X64106458Y-87189928D01*
X64165473Y-87371556D01*
X64260960Y-87536944D01*
X64265378Y-87541851D01*
X64265379Y-87541852D01*
X64287694Y-87566635D01*
X64388747Y-87678866D01*
X64543248Y-87791118D01*
X64549276Y-87793802D01*
X64549278Y-87793803D01*
X64711681Y-87866109D01*
X64717712Y-87868794D01*
X64811113Y-87888647D01*
X64898056Y-87907128D01*
X64898061Y-87907128D01*
X64904513Y-87908500D01*
X65095487Y-87908500D01*
X65101939Y-87907128D01*
X65101944Y-87907128D01*
X65188887Y-87888647D01*
X65282288Y-87868794D01*
X65288319Y-87866109D01*
X65450722Y-87793803D01*
X65450724Y-87793802D01*
X65456752Y-87791118D01*
X65611253Y-87678866D01*
X65712306Y-87566635D01*
X65734621Y-87541852D01*
X65734622Y-87541851D01*
X65739040Y-87536944D01*
X65834527Y-87371556D01*
X65893542Y-87189928D01*
X65905512Y-87076045D01*
X65912814Y-87006565D01*
X65913504Y-87000000D01*
X65901301Y-86883891D01*
X65894232Y-86816635D01*
X65894232Y-86816633D01*
X65893542Y-86810072D01*
X65834527Y-86628444D01*
X65739040Y-86463056D01*
X65714908Y-86436254D01*
X65615675Y-86326045D01*
X65615674Y-86326044D01*
X65611253Y-86321134D01*
X65456752Y-86208882D01*
X65450724Y-86206198D01*
X65450722Y-86206197D01*
X65288319Y-86133891D01*
X65288318Y-86133891D01*
X65282288Y-86131206D01*
X65188888Y-86111353D01*
X65101944Y-86092872D01*
X65101939Y-86092872D01*
X65095487Y-86091500D01*
X64904513Y-86091500D01*
X64898061Y-86092872D01*
X64898056Y-86092872D01*
X64811112Y-86111353D01*
X64717712Y-86131206D01*
X64711682Y-86133891D01*
X64711681Y-86133891D01*
X64549278Y-86206197D01*
X64549276Y-86206198D01*
X64543248Y-86208882D01*
X64388747Y-86321134D01*
X64384326Y-86326044D01*
X64384325Y-86326045D01*
X64285093Y-86436254D01*
X64260960Y-86463056D01*
X64165473Y-86628444D01*
X64106458Y-86810072D01*
X64105768Y-86816633D01*
X64105768Y-86816635D01*
X64098699Y-86883891D01*
X64086496Y-87000000D01*
X56263346Y-87000000D01*
X56206752Y-86958882D01*
X56200724Y-86956198D01*
X56200722Y-86956197D01*
X56038319Y-86883891D01*
X56038318Y-86883891D01*
X56032288Y-86881206D01*
X55938887Y-86861353D01*
X55851944Y-86842872D01*
X55851939Y-86842872D01*
X55845487Y-86841500D01*
X55654513Y-86841500D01*
X55648061Y-86842872D01*
X55648056Y-86842872D01*
X55561113Y-86861353D01*
X55467712Y-86881206D01*
X55461682Y-86883891D01*
X55461681Y-86883891D01*
X55299278Y-86956197D01*
X55299276Y-86956198D01*
X55293248Y-86958882D01*
X55138747Y-87071134D01*
X55134326Y-87076044D01*
X55134325Y-87076045D01*
X55031785Y-87189928D01*
X55010960Y-87213056D01*
X54915473Y-87378444D01*
X54856458Y-87560072D01*
X54855768Y-87566633D01*
X54855768Y-87566635D01*
X54843972Y-87678866D01*
X54836496Y-87750000D01*
X43508000Y-87750000D01*
X43508000Y-84750000D01*
X68586496Y-84750000D01*
X68587186Y-84756565D01*
X68603011Y-84907128D01*
X68606458Y-84939928D01*
X68665473Y-85121556D01*
X68668776Y-85127278D01*
X68668777Y-85127279D01*
X68695726Y-85173955D01*
X68760960Y-85286944D01*
X68765378Y-85291851D01*
X68765379Y-85291852D01*
X68832240Y-85366109D01*
X68888747Y-85428866D01*
X69043248Y-85541118D01*
X69049276Y-85543802D01*
X69049278Y-85543803D01*
X69211681Y-85616109D01*
X69217712Y-85618794D01*
X69292680Y-85634729D01*
X69398056Y-85657128D01*
X69398061Y-85657128D01*
X69404513Y-85658500D01*
X69483784Y-85658500D01*
X69551905Y-85678502D01*
X69598398Y-85732158D01*
X69608502Y-85802432D01*
X69607971Y-85805416D01*
X69606458Y-85810072D01*
X69586496Y-86000000D01*
X69587186Y-86006565D01*
X69600565Y-86133855D01*
X69606458Y-86189928D01*
X69665473Y-86371556D01*
X69760960Y-86536944D01*
X69888747Y-86678866D01*
X70043248Y-86791118D01*
X70049276Y-86793802D01*
X70049278Y-86793803D01*
X70100560Y-86816635D01*
X70217712Y-86868794D01*
X70311112Y-86888647D01*
X70398056Y-86907128D01*
X70398061Y-86907128D01*
X70404513Y-86908500D01*
X70595487Y-86908500D01*
X70601939Y-86907128D01*
X70601944Y-86907128D01*
X70688888Y-86888647D01*
X70782288Y-86868794D01*
X70899440Y-86816635D01*
X70950722Y-86793803D01*
X70950724Y-86793802D01*
X70956752Y-86791118D01*
X71111253Y-86678866D01*
X71239040Y-86536944D01*
X71334527Y-86371556D01*
X71393542Y-86189928D01*
X71399436Y-86133855D01*
X71412814Y-86006565D01*
X71413504Y-86000000D01*
X72336496Y-86000000D01*
X72337186Y-86006565D01*
X72350565Y-86133855D01*
X72356458Y-86189928D01*
X72415473Y-86371556D01*
X72510960Y-86536944D01*
X72638747Y-86678866D01*
X72793248Y-86791118D01*
X72799276Y-86793802D01*
X72799278Y-86793803D01*
X72850560Y-86816635D01*
X72967712Y-86868794D01*
X73061112Y-86888647D01*
X73148056Y-86907128D01*
X73148061Y-86907128D01*
X73154513Y-86908500D01*
X73345487Y-86908500D01*
X73351939Y-86907128D01*
X73351944Y-86907128D01*
X73438888Y-86888647D01*
X73532288Y-86868794D01*
X73649440Y-86816635D01*
X73700722Y-86793803D01*
X73700724Y-86793802D01*
X73706752Y-86791118D01*
X73861253Y-86678866D01*
X73989040Y-86536944D01*
X74084527Y-86371556D01*
X74143542Y-86189928D01*
X74149436Y-86133855D01*
X74162814Y-86006565D01*
X74163504Y-86000000D01*
X74143542Y-85810072D01*
X74128019Y-85762299D01*
X77824197Y-85762299D01*
X77844159Y-85952227D01*
X77903174Y-86133855D01*
X77998661Y-86299243D01*
X78003079Y-86304150D01*
X78003080Y-86304151D01*
X78058113Y-86365271D01*
X78126448Y-86441165D01*
X78280949Y-86553417D01*
X78286977Y-86556101D01*
X78286979Y-86556102D01*
X78436609Y-86622721D01*
X78455413Y-86631093D01*
X78548814Y-86650946D01*
X78635757Y-86669427D01*
X78635762Y-86669427D01*
X78642214Y-86670799D01*
X78833188Y-86670799D01*
X78839640Y-86669427D01*
X78839645Y-86669427D01*
X78926588Y-86650946D01*
X79019989Y-86631093D01*
X79038793Y-86622721D01*
X79188423Y-86556102D01*
X79188425Y-86556101D01*
X79194453Y-86553417D01*
X79348954Y-86441165D01*
X79417289Y-86365271D01*
X79472322Y-86304151D01*
X79472323Y-86304150D01*
X79476741Y-86299243D01*
X79572228Y-86133855D01*
X79631243Y-85952227D01*
X79651205Y-85762299D01*
X79642398Y-85678502D01*
X79631933Y-85578934D01*
X79631933Y-85578932D01*
X79631243Y-85572371D01*
X79572228Y-85390743D01*
X79476741Y-85225355D01*
X79459491Y-85206197D01*
X79353377Y-85088345D01*
X79353376Y-85088344D01*
X79348954Y-85083433D01*
X79346004Y-85081289D01*
X79309341Y-85021778D01*
X79310693Y-84950794D01*
X79350207Y-84891810D01*
X79415338Y-84863553D01*
X79467026Y-84868488D01*
X79467712Y-84868794D01*
X79561112Y-84888647D01*
X79648056Y-84907128D01*
X79648061Y-84907128D01*
X79654513Y-84908500D01*
X79845487Y-84908500D01*
X79850401Y-84907456D01*
X79919662Y-84920122D01*
X79972112Y-84969658D01*
X80010960Y-85036944D01*
X80015378Y-85041851D01*
X80015379Y-85041852D01*
X80060082Y-85091500D01*
X80138747Y-85178866D01*
X80293248Y-85291118D01*
X80299276Y-85293802D01*
X80299278Y-85293803D01*
X80461681Y-85366109D01*
X80467712Y-85368794D01*
X80544049Y-85385020D01*
X80648056Y-85407128D01*
X80648061Y-85407128D01*
X80654513Y-85408500D01*
X80845487Y-85408500D01*
X80851939Y-85407128D01*
X80851944Y-85407128D01*
X80955951Y-85385020D01*
X81032288Y-85368794D01*
X81038319Y-85366109D01*
X81200722Y-85293803D01*
X81200724Y-85293802D01*
X81206752Y-85291118D01*
X81361253Y-85178866D01*
X81439918Y-85091500D01*
X81484621Y-85041852D01*
X81484622Y-85041851D01*
X81489040Y-85036944D01*
X81563861Y-84907350D01*
X81581223Y-84877279D01*
X81581224Y-84877278D01*
X81584527Y-84871556D01*
X81643542Y-84689928D01*
X81656501Y-84566635D01*
X81662814Y-84506565D01*
X81663504Y-84500000D01*
X81643542Y-84310072D01*
X81584527Y-84128444D01*
X81489040Y-83963056D01*
X81361253Y-83821134D01*
X81206752Y-83708882D01*
X81200724Y-83706198D01*
X81200722Y-83706197D01*
X81038319Y-83633891D01*
X81038318Y-83633891D01*
X81032288Y-83631206D01*
X80938887Y-83611353D01*
X80851944Y-83592872D01*
X80851939Y-83592872D01*
X80845487Y-83591500D01*
X80654513Y-83591500D01*
X80649599Y-83592544D01*
X80580338Y-83579878D01*
X80527887Y-83530341D01*
X80492341Y-83468774D01*
X80489040Y-83463056D01*
X80461752Y-83432749D01*
X80365675Y-83326045D01*
X80365674Y-83326044D01*
X80361253Y-83321134D01*
X80206752Y-83208882D01*
X80200724Y-83206198D01*
X80200722Y-83206197D01*
X80038319Y-83133891D01*
X80038318Y-83133891D01*
X80032288Y-83131206D01*
X79938888Y-83111353D01*
X79851944Y-83092872D01*
X79851939Y-83092872D01*
X79845487Y-83091500D01*
X79654513Y-83091500D01*
X79648061Y-83092872D01*
X79648056Y-83092872D01*
X79561112Y-83111353D01*
X79467712Y-83131206D01*
X79461682Y-83133891D01*
X79461681Y-83133891D01*
X79299278Y-83206197D01*
X79299276Y-83206198D01*
X79293248Y-83208882D01*
X79138747Y-83321134D01*
X79134326Y-83326044D01*
X79134325Y-83326045D01*
X79038249Y-83432749D01*
X79010960Y-83463056D01*
X78965891Y-83541118D01*
X78922595Y-83616109D01*
X78915473Y-83628444D01*
X78856458Y-83810072D01*
X78855768Y-83816633D01*
X78855768Y-83816635D01*
X78848699Y-83883891D01*
X78836496Y-84000000D01*
X78837186Y-84006565D01*
X78844489Y-84076045D01*
X78856458Y-84189928D01*
X78915473Y-84371556D01*
X79010960Y-84536944D01*
X79015378Y-84541851D01*
X79015379Y-84541852D01*
X79031785Y-84560072D01*
X79138747Y-84678866D01*
X79141697Y-84681010D01*
X79178360Y-84740521D01*
X79177008Y-84811505D01*
X79137494Y-84870489D01*
X79072363Y-84898746D01*
X79020675Y-84893811D01*
X79019989Y-84893505D01*
X78911708Y-84870489D01*
X78839645Y-84855171D01*
X78839640Y-84855171D01*
X78833188Y-84853799D01*
X78642214Y-84853799D01*
X78635762Y-84855171D01*
X78635757Y-84855171D01*
X78563694Y-84870489D01*
X78455413Y-84893505D01*
X78449383Y-84896190D01*
X78449382Y-84896190D01*
X78286979Y-84968496D01*
X78286977Y-84968497D01*
X78280949Y-84971181D01*
X78126448Y-85083433D01*
X78122027Y-85088343D01*
X78122026Y-85088344D01*
X78037024Y-85182749D01*
X77998661Y-85225355D01*
X77903174Y-85390743D01*
X77844159Y-85572371D01*
X77843469Y-85578932D01*
X77843469Y-85578934D01*
X77833004Y-85678502D01*
X77824197Y-85762299D01*
X74128019Y-85762299D01*
X74084527Y-85628444D01*
X74077406Y-85616109D01*
X74034109Y-85541118D01*
X73989040Y-85463056D01*
X73961752Y-85432749D01*
X73865675Y-85326045D01*
X73865674Y-85326044D01*
X73861253Y-85321134D01*
X73706752Y-85208882D01*
X73700724Y-85206198D01*
X73700722Y-85206197D01*
X73538319Y-85133891D01*
X73538318Y-85133891D01*
X73532288Y-85131206D01*
X73438888Y-85111353D01*
X73351944Y-85092872D01*
X73351939Y-85092872D01*
X73345487Y-85091500D01*
X73154513Y-85091500D01*
X73148061Y-85092872D01*
X73148056Y-85092872D01*
X73061112Y-85111353D01*
X72967712Y-85131206D01*
X72961682Y-85133891D01*
X72961681Y-85133891D01*
X72799278Y-85206197D01*
X72799276Y-85206198D01*
X72793248Y-85208882D01*
X72638747Y-85321134D01*
X72634326Y-85326044D01*
X72634325Y-85326045D01*
X72538249Y-85432749D01*
X72510960Y-85463056D01*
X72465891Y-85541118D01*
X72422595Y-85616109D01*
X72415473Y-85628444D01*
X72356458Y-85810072D01*
X72336496Y-86000000D01*
X71413504Y-86000000D01*
X71393542Y-85810072D01*
X71334527Y-85628444D01*
X71327406Y-85616109D01*
X71284109Y-85541118D01*
X71239040Y-85463056D01*
X71211752Y-85432749D01*
X71115675Y-85326045D01*
X71115674Y-85326044D01*
X71111253Y-85321134D01*
X70956752Y-85208882D01*
X70950724Y-85206198D01*
X70950722Y-85206197D01*
X70788319Y-85133891D01*
X70788318Y-85133891D01*
X70782288Y-85131206D01*
X70688888Y-85111353D01*
X70601944Y-85092872D01*
X70601939Y-85092872D01*
X70595487Y-85091500D01*
X70516216Y-85091500D01*
X70448095Y-85071498D01*
X70401602Y-85017842D01*
X70391498Y-84947568D01*
X70392029Y-84944584D01*
X70393542Y-84939928D01*
X70413504Y-84750000D01*
X70407190Y-84689928D01*
X70394232Y-84566635D01*
X70394232Y-84566633D01*
X70393542Y-84560072D01*
X70334527Y-84378444D01*
X70239040Y-84213056D01*
X70218216Y-84189928D01*
X70115675Y-84076045D01*
X70115674Y-84076044D01*
X70111253Y-84071134D01*
X69956752Y-83958882D01*
X69950724Y-83956198D01*
X69950722Y-83956197D01*
X69788319Y-83883891D01*
X69788318Y-83883891D01*
X69782288Y-83881206D01*
X69688888Y-83861353D01*
X69601944Y-83842872D01*
X69601939Y-83842872D01*
X69595487Y-83841500D01*
X69404513Y-83841500D01*
X69398061Y-83842872D01*
X69398056Y-83842872D01*
X69311112Y-83861353D01*
X69217712Y-83881206D01*
X69211682Y-83883891D01*
X69211681Y-83883891D01*
X69049278Y-83956197D01*
X69049276Y-83956198D01*
X69043248Y-83958882D01*
X68888747Y-84071134D01*
X68884326Y-84076044D01*
X68884325Y-84076045D01*
X68781785Y-84189928D01*
X68760960Y-84213056D01*
X68665473Y-84378444D01*
X68606458Y-84560072D01*
X68605768Y-84566633D01*
X68605768Y-84566635D01*
X68592810Y-84689928D01*
X68586496Y-84750000D01*
X43508000Y-84750000D01*
X43508000Y-82500000D01*
X45586496Y-82500000D01*
X45587186Y-82506565D01*
X45595248Y-82583266D01*
X45606458Y-82689928D01*
X45665473Y-82871556D01*
X45760960Y-83036944D01*
X45888747Y-83178866D01*
X46043248Y-83291118D01*
X46049276Y-83293802D01*
X46049278Y-83293803D01*
X46211681Y-83366109D01*
X46217712Y-83368794D01*
X46311113Y-83388647D01*
X46398056Y-83407128D01*
X46398061Y-83407128D01*
X46404513Y-83408500D01*
X46595487Y-83408500D01*
X46601939Y-83407128D01*
X46601944Y-83407128D01*
X46688887Y-83388647D01*
X46782288Y-83368794D01*
X46788319Y-83366109D01*
X46950722Y-83293803D01*
X46950724Y-83293802D01*
X46956752Y-83291118D01*
X47111253Y-83178866D01*
X47239040Y-83036944D01*
X47334527Y-82871556D01*
X47374023Y-82750000D01*
X71586496Y-82750000D01*
X71606458Y-82939928D01*
X71665473Y-83121556D01*
X71668776Y-83127278D01*
X71668777Y-83127279D01*
X71695726Y-83173955D01*
X71760960Y-83286944D01*
X71765378Y-83291851D01*
X71765379Y-83291852D01*
X71832240Y-83366109D01*
X71888747Y-83428866D01*
X72043248Y-83541118D01*
X72049276Y-83543802D01*
X72049278Y-83543803D01*
X72156408Y-83591500D01*
X72217712Y-83618794D01*
X72292680Y-83634729D01*
X72398056Y-83657128D01*
X72398061Y-83657128D01*
X72404513Y-83658500D01*
X72595487Y-83658500D01*
X72601939Y-83657128D01*
X72601944Y-83657128D01*
X72707320Y-83634729D01*
X72782288Y-83618794D01*
X72843592Y-83591500D01*
X72950722Y-83543803D01*
X72950724Y-83543802D01*
X72956752Y-83541118D01*
X73111253Y-83428866D01*
X73167760Y-83366109D01*
X73234621Y-83291852D01*
X73234622Y-83291851D01*
X73239040Y-83286944D01*
X73304274Y-83173955D01*
X73331223Y-83127279D01*
X73331224Y-83127278D01*
X73334527Y-83121556D01*
X73393542Y-82939928D01*
X73413504Y-82750000D01*
X73407190Y-82689928D01*
X73394232Y-82566635D01*
X73394232Y-82566633D01*
X73393542Y-82560072D01*
X73334527Y-82378444D01*
X73239040Y-82213056D01*
X73111253Y-82071134D01*
X72956752Y-81958882D01*
X72950724Y-81956198D01*
X72950722Y-81956197D01*
X72788319Y-81883891D01*
X72788318Y-81883891D01*
X72782288Y-81881206D01*
X72688887Y-81861353D01*
X72601944Y-81842872D01*
X72601939Y-81842872D01*
X72595487Y-81841500D01*
X72404513Y-81841500D01*
X72398061Y-81842872D01*
X72398056Y-81842872D01*
X72311113Y-81861353D01*
X72217712Y-81881206D01*
X72211682Y-81883891D01*
X72211681Y-81883891D01*
X72049278Y-81956197D01*
X72049276Y-81956198D01*
X72043248Y-81958882D01*
X71888747Y-82071134D01*
X71760960Y-82213056D01*
X71665473Y-82378444D01*
X71606458Y-82560072D01*
X71605768Y-82566633D01*
X71605768Y-82566635D01*
X71592810Y-82689928D01*
X71586496Y-82750000D01*
X47374023Y-82750000D01*
X47393542Y-82689928D01*
X47404753Y-82583266D01*
X47412814Y-82506565D01*
X47413504Y-82500000D01*
X47393542Y-82310072D01*
X47334527Y-82128444D01*
X47314893Y-82094436D01*
X47242341Y-81968774D01*
X47239040Y-81963056D01*
X47111253Y-81821134D01*
X47012157Y-81749136D01*
X46968142Y-81717157D01*
X82203653Y-81717157D01*
X82223615Y-81907085D01*
X82282630Y-82088713D01*
X82285933Y-82094435D01*
X82285934Y-82094436D01*
X82305569Y-82128444D01*
X82378117Y-82254101D01*
X82505904Y-82396023D01*
X82605000Y-82468021D01*
X82639980Y-82493435D01*
X82660405Y-82508275D01*
X82666433Y-82510959D01*
X82666435Y-82510960D01*
X82791484Y-82566635D01*
X82834869Y-82585951D01*
X82928270Y-82605804D01*
X83015213Y-82624285D01*
X83015218Y-82624285D01*
X83021670Y-82625657D01*
X83212644Y-82625657D01*
X83219096Y-82624285D01*
X83219101Y-82624285D01*
X83306044Y-82605804D01*
X83399445Y-82585951D01*
X83442830Y-82566635D01*
X83567879Y-82510960D01*
X83567881Y-82510959D01*
X83573909Y-82508275D01*
X83594335Y-82493435D01*
X83629314Y-82468021D01*
X83728410Y-82396023D01*
X83856197Y-82254101D01*
X83928745Y-82128444D01*
X83948380Y-82094436D01*
X83948381Y-82094435D01*
X83951684Y-82088713D01*
X84010699Y-81907085D01*
X84030661Y-81717157D01*
X84029509Y-81706197D01*
X84011389Y-81533792D01*
X84011389Y-81533790D01*
X84010699Y-81527229D01*
X83951684Y-81345601D01*
X83946467Y-81336564D01*
X83891809Y-81241895D01*
X83856197Y-81180213D01*
X83778789Y-81094242D01*
X83732832Y-81043202D01*
X83732831Y-81043201D01*
X83728410Y-81038291D01*
X83612328Y-80953952D01*
X83579251Y-80929920D01*
X83579250Y-80929919D01*
X83573909Y-80926039D01*
X83567881Y-80923355D01*
X83567879Y-80923354D01*
X83405476Y-80851048D01*
X83405475Y-80851048D01*
X83399445Y-80848363D01*
X83306045Y-80828510D01*
X83219101Y-80810029D01*
X83219096Y-80810029D01*
X83212644Y-80808657D01*
X83021670Y-80808657D01*
X83015218Y-80810029D01*
X83015213Y-80810029D01*
X82928269Y-80828510D01*
X82834869Y-80848363D01*
X82828839Y-80851048D01*
X82828838Y-80851048D01*
X82666435Y-80923354D01*
X82666433Y-80923355D01*
X82660405Y-80926039D01*
X82655064Y-80929919D01*
X82655063Y-80929920D01*
X82621986Y-80953952D01*
X82505904Y-81038291D01*
X82501483Y-81043201D01*
X82501482Y-81043202D01*
X82455526Y-81094242D01*
X82378117Y-81180213D01*
X82342505Y-81241895D01*
X82287848Y-81336564D01*
X82282630Y-81345601D01*
X82223615Y-81527229D01*
X82222925Y-81533790D01*
X82222925Y-81533792D01*
X82204805Y-81706197D01*
X82203653Y-81717157D01*
X46968142Y-81717157D01*
X46962094Y-81712763D01*
X46962093Y-81712762D01*
X46956752Y-81708882D01*
X46950724Y-81706198D01*
X46950722Y-81706197D01*
X46788319Y-81633891D01*
X46788318Y-81633891D01*
X46782288Y-81631206D01*
X46688888Y-81611353D01*
X46601944Y-81592872D01*
X46601939Y-81592872D01*
X46595487Y-81591500D01*
X46404513Y-81591500D01*
X46398061Y-81592872D01*
X46398056Y-81592872D01*
X46311112Y-81611353D01*
X46217712Y-81631206D01*
X46211682Y-81633891D01*
X46211681Y-81633891D01*
X46049278Y-81706197D01*
X46049276Y-81706198D01*
X46043248Y-81708882D01*
X46037907Y-81712762D01*
X46037906Y-81712763D01*
X45987843Y-81749136D01*
X45888747Y-81821134D01*
X45760960Y-81963056D01*
X45757659Y-81968774D01*
X45685108Y-82094436D01*
X45665473Y-82128444D01*
X45606458Y-82310072D01*
X45586496Y-82500000D01*
X43508000Y-82500000D01*
X43508000Y-80869669D01*
X63842001Y-80869669D01*
X63842371Y-80876490D01*
X63847895Y-80927352D01*
X63851521Y-80942604D01*
X63896676Y-81063054D01*
X63905214Y-81078649D01*
X63981715Y-81180724D01*
X63994276Y-81193285D01*
X64096351Y-81269786D01*
X64111946Y-81278324D01*
X64232394Y-81323478D01*
X64247649Y-81327105D01*
X64298514Y-81332631D01*
X64305328Y-81333000D01*
X64927885Y-81333000D01*
X64943124Y-81328525D01*
X64944329Y-81327135D01*
X64946000Y-81319452D01*
X64946000Y-81314884D01*
X65454000Y-81314884D01*
X65458475Y-81330123D01*
X65459865Y-81331328D01*
X65467548Y-81332999D01*
X66094669Y-81332999D01*
X66101490Y-81332629D01*
X66152352Y-81327105D01*
X66167604Y-81323479D01*
X66288054Y-81278324D01*
X66303649Y-81269786D01*
X66405724Y-81193285D01*
X66418285Y-81180724D01*
X66494786Y-81078649D01*
X66503324Y-81063054D01*
X66544225Y-80953952D01*
X66586867Y-80897188D01*
X66653428Y-80872488D01*
X66722777Y-80887696D01*
X66757444Y-80915684D01*
X66782865Y-80945031D01*
X66782869Y-80945035D01*
X66786250Y-80948938D01*
X66958126Y-81091632D01*
X67151000Y-81204338D01*
X67359692Y-81284030D01*
X67364760Y-81285061D01*
X67364763Y-81285062D01*
X67472017Y-81306883D01*
X67578597Y-81328567D01*
X67583772Y-81328757D01*
X67583774Y-81328757D01*
X67796673Y-81336564D01*
X67796677Y-81336564D01*
X67801837Y-81336753D01*
X67806957Y-81336097D01*
X67806959Y-81336097D01*
X68018288Y-81309025D01*
X68018289Y-81309025D01*
X68023416Y-81308368D01*
X68028366Y-81306883D01*
X68232429Y-81245661D01*
X68232434Y-81245659D01*
X68237384Y-81244174D01*
X68437994Y-81145896D01*
X68619860Y-81016173D01*
X68778096Y-80858489D01*
X68908453Y-80677077D01*
X68909776Y-80678028D01*
X68956645Y-80634857D01*
X69026580Y-80622625D01*
X69092026Y-80650144D01*
X69119875Y-80681994D01*
X69179987Y-80780088D01*
X69326250Y-80948938D01*
X69498126Y-81091632D01*
X69691000Y-81204338D01*
X69899692Y-81284030D01*
X69904760Y-81285061D01*
X69904763Y-81285062D01*
X70012017Y-81306883D01*
X70118597Y-81328567D01*
X70123772Y-81328757D01*
X70123774Y-81328757D01*
X70336673Y-81336564D01*
X70336677Y-81336564D01*
X70341837Y-81336753D01*
X70346957Y-81336097D01*
X70346959Y-81336097D01*
X70558288Y-81309025D01*
X70558289Y-81309025D01*
X70563416Y-81308368D01*
X70568366Y-81306883D01*
X70772429Y-81245661D01*
X70772434Y-81245659D01*
X70777384Y-81244174D01*
X70977994Y-81145896D01*
X71159860Y-81016173D01*
X71318096Y-80858489D01*
X71448453Y-80677077D01*
X71449776Y-80678028D01*
X71496645Y-80634857D01*
X71566580Y-80622625D01*
X71632026Y-80650144D01*
X71659875Y-80681994D01*
X71719987Y-80780088D01*
X71866250Y-80948938D01*
X72038126Y-81091632D01*
X72231000Y-81204338D01*
X72439692Y-81284030D01*
X72444760Y-81285061D01*
X72444763Y-81285062D01*
X72552017Y-81306883D01*
X72658597Y-81328567D01*
X72663772Y-81328757D01*
X72663774Y-81328757D01*
X72876673Y-81336564D01*
X72876677Y-81336564D01*
X72881837Y-81336753D01*
X72886957Y-81336097D01*
X72886959Y-81336097D01*
X73098288Y-81309025D01*
X73098289Y-81309025D01*
X73103416Y-81308368D01*
X73108366Y-81306883D01*
X73312429Y-81245661D01*
X73312434Y-81245659D01*
X73317384Y-81244174D01*
X73517994Y-81145896D01*
X73699860Y-81016173D01*
X73858096Y-80858489D01*
X73988453Y-80677077D01*
X74009320Y-80634857D01*
X74085136Y-80481453D01*
X74085137Y-80481451D01*
X74087430Y-80476811D01*
X74152370Y-80263069D01*
X74181529Y-80041590D01*
X74183156Y-79975000D01*
X74164852Y-79752361D01*
X74110431Y-79535702D01*
X74021354Y-79330840D01*
X73900014Y-79143277D01*
X73749670Y-78978051D01*
X73745619Y-78974852D01*
X73745615Y-78974848D01*
X73578414Y-78842800D01*
X73578410Y-78842798D01*
X73574359Y-78839598D01*
X73378789Y-78731638D01*
X73373920Y-78729914D01*
X73373916Y-78729912D01*
X73173087Y-78658795D01*
X73173083Y-78658794D01*
X73168212Y-78657069D01*
X73163119Y-78656162D01*
X73163116Y-78656161D01*
X72953373Y-78618800D01*
X72953367Y-78618799D01*
X72948284Y-78617894D01*
X72874452Y-78616992D01*
X72730081Y-78615228D01*
X72730079Y-78615228D01*
X72724911Y-78615165D01*
X72504091Y-78648955D01*
X72291756Y-78718357D01*
X72093607Y-78821507D01*
X72089474Y-78824610D01*
X72089471Y-78824612D01*
X72006450Y-78886946D01*
X71914965Y-78955635D01*
X71760629Y-79117138D01*
X71653201Y-79274621D01*
X71598293Y-79319621D01*
X71527768Y-79327792D01*
X71464021Y-79296538D01*
X71443324Y-79272054D01*
X71362822Y-79147617D01*
X71362820Y-79147614D01*
X71360014Y-79143277D01*
X71209670Y-78978051D01*
X71205619Y-78974852D01*
X71205615Y-78974848D01*
X71038414Y-78842800D01*
X71038410Y-78842798D01*
X71034359Y-78839598D01*
X70838789Y-78731638D01*
X70833920Y-78729914D01*
X70833916Y-78729912D01*
X70633087Y-78658795D01*
X70633083Y-78658794D01*
X70628212Y-78657069D01*
X70623119Y-78656162D01*
X70623116Y-78656161D01*
X70413373Y-78618800D01*
X70413367Y-78618799D01*
X70408284Y-78617894D01*
X70334452Y-78616992D01*
X70190081Y-78615228D01*
X70190079Y-78615228D01*
X70184911Y-78615165D01*
X69964091Y-78648955D01*
X69751756Y-78718357D01*
X69553607Y-78821507D01*
X69549474Y-78824610D01*
X69549471Y-78824612D01*
X69466450Y-78886946D01*
X69374965Y-78955635D01*
X69220629Y-79117138D01*
X69113201Y-79274621D01*
X69058293Y-79319621D01*
X68987768Y-79327792D01*
X68924021Y-79296538D01*
X68903324Y-79272054D01*
X68822822Y-79147617D01*
X68822820Y-79147614D01*
X68820014Y-79143277D01*
X68669670Y-78978051D01*
X68665619Y-78974852D01*
X68665615Y-78974848D01*
X68498414Y-78842800D01*
X68498410Y-78842798D01*
X68494359Y-78839598D01*
X68298789Y-78731638D01*
X68293920Y-78729914D01*
X68293916Y-78729912D01*
X68093087Y-78658795D01*
X68093083Y-78658794D01*
X68088212Y-78657069D01*
X68083119Y-78656162D01*
X68083116Y-78656161D01*
X67873373Y-78618800D01*
X67873367Y-78618799D01*
X67868284Y-78617894D01*
X67809577Y-78617177D01*
X67741707Y-78596344D01*
X67695873Y-78542125D01*
X67686628Y-78471733D01*
X67716907Y-78407517D01*
X67772179Y-78371353D01*
X67775830Y-78370167D01*
X67782288Y-78368794D01*
X67788321Y-78366108D01*
X67950722Y-78293803D01*
X67950724Y-78293802D01*
X67956752Y-78291118D01*
X68111253Y-78178866D01*
X68239040Y-78036944D01*
X68334527Y-77871556D01*
X68393542Y-77689928D01*
X68413504Y-77500000D01*
X68393542Y-77310072D01*
X68334527Y-77128444D01*
X68239040Y-76963056D01*
X68111253Y-76821134D01*
X67956752Y-76708882D01*
X67950724Y-76706198D01*
X67950722Y-76706197D01*
X67788319Y-76633891D01*
X67788318Y-76633891D01*
X67782288Y-76631206D01*
X67688887Y-76611353D01*
X67601944Y-76592872D01*
X67601939Y-76592872D01*
X67595487Y-76591500D01*
X67404513Y-76591500D01*
X67398061Y-76592872D01*
X67398056Y-76592872D01*
X67311113Y-76611353D01*
X67217712Y-76631206D01*
X67211682Y-76633891D01*
X67211681Y-76633891D01*
X67049278Y-76706197D01*
X67049276Y-76706198D01*
X67043248Y-76708882D01*
X66888747Y-76821134D01*
X66760960Y-76963056D01*
X66665473Y-77128444D01*
X66606458Y-77310072D01*
X66586496Y-77500000D01*
X66606458Y-77689928D01*
X66665473Y-77871556D01*
X66760960Y-78036944D01*
X66888747Y-78178866D01*
X67043248Y-78291118D01*
X67049276Y-78293802D01*
X67049278Y-78293803D01*
X67211679Y-78366108D01*
X67217712Y-78368794D01*
X67403791Y-78408347D01*
X67466263Y-78442074D01*
X67500585Y-78504224D01*
X67495857Y-78575063D01*
X67453581Y-78632101D01*
X67416739Y-78651358D01*
X67211756Y-78718357D01*
X67013607Y-78821507D01*
X67009474Y-78824610D01*
X67009471Y-78824612D01*
X66926450Y-78886946D01*
X66834965Y-78955635D01*
X66831393Y-78959373D01*
X66753898Y-79040466D01*
X66692374Y-79075895D01*
X66621462Y-79072438D01*
X66563676Y-79031192D01*
X66544823Y-78997644D01*
X66503324Y-78886946D01*
X66494786Y-78871351D01*
X66418285Y-78769276D01*
X66405724Y-78756715D01*
X66303649Y-78680214D01*
X66288054Y-78671676D01*
X66167606Y-78626522D01*
X66152351Y-78622895D01*
X66101486Y-78617369D01*
X66094672Y-78617000D01*
X65472115Y-78617000D01*
X65456876Y-78621475D01*
X65455671Y-78622865D01*
X65454000Y-78630548D01*
X65454000Y-81314884D01*
X64946000Y-81314884D01*
X64946000Y-80247115D01*
X64941525Y-80231876D01*
X64940135Y-80230671D01*
X64932452Y-80229000D01*
X63860116Y-80229000D01*
X63844877Y-80233475D01*
X63843672Y-80234865D01*
X63842001Y-80242548D01*
X63842001Y-80869669D01*
X43508000Y-80869669D01*
X43508000Y-79702885D01*
X63842000Y-79702885D01*
X63846475Y-79718124D01*
X63847865Y-79719329D01*
X63855548Y-79721000D01*
X64927885Y-79721000D01*
X64943124Y-79716525D01*
X64944329Y-79715135D01*
X64946000Y-79707452D01*
X64946000Y-78635116D01*
X64941525Y-78619877D01*
X64940135Y-78618672D01*
X64932452Y-78617001D01*
X64305331Y-78617001D01*
X64298510Y-78617371D01*
X64247648Y-78622895D01*
X64232396Y-78626521D01*
X64111946Y-78671676D01*
X64096351Y-78680214D01*
X63994276Y-78756715D01*
X63981715Y-78769276D01*
X63905214Y-78871351D01*
X63896676Y-78886946D01*
X63851522Y-79007394D01*
X63847895Y-79022649D01*
X63842369Y-79073514D01*
X63842000Y-79080328D01*
X63842000Y-79702885D01*
X43508000Y-79702885D01*
X43508000Y-76500000D01*
X84586496Y-76500000D01*
X84606458Y-76689928D01*
X84665473Y-76871556D01*
X84760960Y-77036944D01*
X84888747Y-77178866D01*
X85043248Y-77291118D01*
X85049276Y-77293802D01*
X85049278Y-77293803D01*
X85100560Y-77316635D01*
X85217712Y-77368794D01*
X85311113Y-77388647D01*
X85398056Y-77407128D01*
X85398061Y-77407128D01*
X85404513Y-77408500D01*
X85595487Y-77408500D01*
X85601939Y-77407128D01*
X85601944Y-77407128D01*
X85688887Y-77388647D01*
X85782288Y-77368794D01*
X85899440Y-77316635D01*
X85950722Y-77293803D01*
X85950724Y-77293802D01*
X85956752Y-77291118D01*
X86111253Y-77178866D01*
X86239040Y-77036944D01*
X86334527Y-76871556D01*
X86393542Y-76689928D01*
X86413504Y-76500000D01*
X86393542Y-76310072D01*
X86334527Y-76128444D01*
X86239040Y-75963056D01*
X86111253Y-75821134D01*
X85956752Y-75708882D01*
X85950724Y-75706198D01*
X85950722Y-75706197D01*
X85788319Y-75633891D01*
X85788318Y-75633891D01*
X85782288Y-75631206D01*
X85688888Y-75611353D01*
X85601944Y-75592872D01*
X85601939Y-75592872D01*
X85595487Y-75591500D01*
X85404513Y-75591500D01*
X85398061Y-75592872D01*
X85398056Y-75592872D01*
X85311112Y-75611353D01*
X85217712Y-75631206D01*
X85211682Y-75633891D01*
X85211681Y-75633891D01*
X85049278Y-75706197D01*
X85049276Y-75706198D01*
X85043248Y-75708882D01*
X84888747Y-75821134D01*
X84760960Y-75963056D01*
X84665473Y-76128444D01*
X84606458Y-76310072D01*
X84586496Y-76500000D01*
X43508000Y-76500000D01*
X43508000Y-72992925D01*
X47686645Y-72992925D01*
X47704570Y-73189888D01*
X47760410Y-73379619D01*
X47763263Y-73385077D01*
X47763265Y-73385081D01*
X47810720Y-73475853D01*
X47852040Y-73554890D01*
X47975968Y-73709025D01*
X47980692Y-73712989D01*
X47987933Y-73719065D01*
X48127474Y-73836154D01*
X48132872Y-73839121D01*
X48132877Y-73839125D01*
X48276180Y-73917905D01*
X48300787Y-73931433D01*
X48306654Y-73933294D01*
X48306656Y-73933295D01*
X48483436Y-73989373D01*
X48489306Y-73991235D01*
X48643227Y-74008500D01*
X48749769Y-74008500D01*
X48752825Y-74008200D01*
X48752832Y-74008200D01*
X48811340Y-74002463D01*
X48896833Y-73994080D01*
X48902734Y-73992298D01*
X48902736Y-73992298D01*
X48976053Y-73970162D01*
X49086169Y-73936916D01*
X49260796Y-73844066D01*
X49347062Y-73773709D01*
X49409287Y-73722960D01*
X49409290Y-73722957D01*
X49414062Y-73719065D01*
X49426344Y-73704219D01*
X49536201Y-73571425D01*
X49536203Y-73571421D01*
X49540130Y-73566675D01*
X49634198Y-73392701D01*
X49692682Y-73203768D01*
X49713355Y-73007075D01*
X49712067Y-72992925D01*
X52086645Y-72992925D01*
X52104570Y-73189888D01*
X52160410Y-73379619D01*
X52163263Y-73385077D01*
X52163265Y-73385081D01*
X52210720Y-73475853D01*
X52252040Y-73554890D01*
X52375968Y-73709025D01*
X52380692Y-73712989D01*
X52387933Y-73719065D01*
X52527474Y-73836154D01*
X52532872Y-73839121D01*
X52532877Y-73839125D01*
X52676180Y-73917905D01*
X52700787Y-73931433D01*
X52706654Y-73933294D01*
X52706656Y-73933295D01*
X52883436Y-73989373D01*
X52889306Y-73991235D01*
X53043227Y-74008500D01*
X53149769Y-74008500D01*
X53152825Y-74008200D01*
X53152832Y-74008200D01*
X53211340Y-74002463D01*
X53296833Y-73994080D01*
X53302734Y-73992298D01*
X53302736Y-73992298D01*
X53376053Y-73970162D01*
X53486169Y-73936916D01*
X53660796Y-73844066D01*
X53747062Y-73773709D01*
X53809287Y-73722960D01*
X53809290Y-73722957D01*
X53814062Y-73719065D01*
X53826344Y-73704219D01*
X53936201Y-73571425D01*
X53936203Y-73571421D01*
X53940130Y-73566675D01*
X54034198Y-73392701D01*
X54092682Y-73203768D01*
X54113355Y-73007075D01*
X54095430Y-72810112D01*
X54039590Y-72620381D01*
X54029919Y-72601881D01*
X53950813Y-72450568D01*
X53947960Y-72445110D01*
X53824032Y-72290975D01*
X53817727Y-72285684D01*
X53801334Y-72271929D01*
X53672526Y-72163846D01*
X53667128Y-72160879D01*
X53667123Y-72160875D01*
X53504608Y-72071533D01*
X53504609Y-72071533D01*
X53499213Y-72068567D01*
X53493346Y-72066706D01*
X53493344Y-72066705D01*
X53316564Y-72010627D01*
X53316563Y-72010627D01*
X53310694Y-72008765D01*
X53156773Y-71991500D01*
X53050231Y-71991500D01*
X53047175Y-71991800D01*
X53047168Y-71991800D01*
X52988660Y-71997537D01*
X52903167Y-72005920D01*
X52897266Y-72007702D01*
X52897264Y-72007702D01*
X52823947Y-72029838D01*
X52713831Y-72063084D01*
X52539204Y-72155934D01*
X52452938Y-72226291D01*
X52390713Y-72277040D01*
X52390710Y-72277043D01*
X52385938Y-72280935D01*
X52382011Y-72285682D01*
X52382009Y-72285684D01*
X52263799Y-72428575D01*
X52263797Y-72428579D01*
X52259870Y-72433325D01*
X52165802Y-72607299D01*
X52107318Y-72796232D01*
X52086645Y-72992925D01*
X49712067Y-72992925D01*
X49695430Y-72810112D01*
X49639590Y-72620381D01*
X49629919Y-72601881D01*
X49550813Y-72450568D01*
X49547960Y-72445110D01*
X49424032Y-72290975D01*
X49417727Y-72285684D01*
X49401334Y-72271929D01*
X49272526Y-72163846D01*
X49267128Y-72160879D01*
X49267123Y-72160875D01*
X49104608Y-72071533D01*
X49104609Y-72071533D01*
X49099213Y-72068567D01*
X49093346Y-72066706D01*
X49093344Y-72066705D01*
X48916564Y-72010627D01*
X48916563Y-72010627D01*
X48910694Y-72008765D01*
X48756773Y-71991500D01*
X48650231Y-71991500D01*
X48647175Y-71991800D01*
X48647168Y-71991800D01*
X48588660Y-71997537D01*
X48503167Y-72005920D01*
X48497266Y-72007702D01*
X48497264Y-72007702D01*
X48423947Y-72029838D01*
X48313831Y-72063084D01*
X48139204Y-72155934D01*
X48052938Y-72226291D01*
X47990713Y-72277040D01*
X47990710Y-72277043D01*
X47985938Y-72280935D01*
X47982011Y-72285682D01*
X47982009Y-72285684D01*
X47863799Y-72428575D01*
X47863797Y-72428579D01*
X47859870Y-72433325D01*
X47765802Y-72607299D01*
X47707318Y-72796232D01*
X47686645Y-72992925D01*
X43508000Y-72992925D01*
X43508000Y-71498134D01*
X76766500Y-71498134D01*
X76773255Y-71560316D01*
X76824385Y-71696705D01*
X76911739Y-71813261D01*
X77028295Y-71900615D01*
X77164684Y-71951745D01*
X77226866Y-71958500D01*
X79023134Y-71958500D01*
X79085316Y-71951745D01*
X79221705Y-71900615D01*
X79338261Y-71813261D01*
X79425615Y-71696705D01*
X79447799Y-71637529D01*
X79469598Y-71579382D01*
X79512240Y-71522618D01*
X79578802Y-71497918D01*
X79648150Y-71513126D01*
X79682817Y-71541114D01*
X79711250Y-71573938D01*
X79883126Y-71716632D01*
X80076000Y-71829338D01*
X80284692Y-71909030D01*
X80289760Y-71910061D01*
X80289763Y-71910062D01*
X80384862Y-71929410D01*
X80503597Y-71953567D01*
X80508772Y-71953757D01*
X80508774Y-71953757D01*
X80721673Y-71961564D01*
X80721677Y-71961564D01*
X80726837Y-71961753D01*
X80731957Y-71961097D01*
X80731959Y-71961097D01*
X80943288Y-71934025D01*
X80943289Y-71934025D01*
X80948416Y-71933368D01*
X80953366Y-71931883D01*
X81157429Y-71870661D01*
X81157434Y-71870659D01*
X81162384Y-71869174D01*
X81362994Y-71770896D01*
X81544860Y-71641173D01*
X81703096Y-71483489D01*
X81833453Y-71302077D01*
X81834640Y-71302930D01*
X81881960Y-71259362D01*
X81951897Y-71247145D01*
X82017338Y-71274678D01*
X82045166Y-71306511D01*
X82102694Y-71400388D01*
X82108777Y-71408699D01*
X82248213Y-71569667D01*
X82255580Y-71576883D01*
X82419434Y-71712916D01*
X82427881Y-71718831D01*
X82611756Y-71826279D01*
X82621042Y-71830729D01*
X82820001Y-71906703D01*
X82829899Y-71909579D01*
X82933250Y-71930606D01*
X82947299Y-71929410D01*
X82951000Y-71919065D01*
X82951000Y-71918517D01*
X83459000Y-71918517D01*
X83463064Y-71932359D01*
X83476478Y-71934393D01*
X83483184Y-71933534D01*
X83493262Y-71931392D01*
X83697255Y-71870191D01*
X83706842Y-71866433D01*
X83898095Y-71772739D01*
X83906945Y-71767464D01*
X84080328Y-71643792D01*
X84088200Y-71637139D01*
X84239052Y-71486812D01*
X84245730Y-71478965D01*
X84373022Y-71301819D01*
X84374279Y-71302722D01*
X84421373Y-71259362D01*
X84491311Y-71247145D01*
X84556751Y-71274678D01*
X84584579Y-71306511D01*
X84644987Y-71405088D01*
X84791250Y-71573938D01*
X84963126Y-71716632D01*
X85156000Y-71829338D01*
X85364692Y-71909030D01*
X85369760Y-71910061D01*
X85369763Y-71910062D01*
X85464862Y-71929410D01*
X85583597Y-71953567D01*
X85588772Y-71953757D01*
X85588774Y-71953757D01*
X85801673Y-71961564D01*
X85801677Y-71961564D01*
X85806837Y-71961753D01*
X85811957Y-71961097D01*
X85811959Y-71961097D01*
X86023288Y-71934025D01*
X86023289Y-71934025D01*
X86028416Y-71933368D01*
X86033366Y-71931883D01*
X86237429Y-71870661D01*
X86237434Y-71870659D01*
X86242384Y-71869174D01*
X86442994Y-71770896D01*
X86624860Y-71641173D01*
X86783096Y-71483489D01*
X86913453Y-71302077D01*
X86914776Y-71303028D01*
X86961645Y-71259857D01*
X87031580Y-71247625D01*
X87097026Y-71275144D01*
X87124875Y-71306994D01*
X87184987Y-71405088D01*
X87331250Y-71573938D01*
X87503126Y-71716632D01*
X87696000Y-71829338D01*
X87904692Y-71909030D01*
X87909760Y-71910061D01*
X87909763Y-71910062D01*
X88004862Y-71929410D01*
X88123597Y-71953567D01*
X88128772Y-71953757D01*
X88128774Y-71953757D01*
X88341673Y-71961564D01*
X88341677Y-71961564D01*
X88346837Y-71961753D01*
X88351957Y-71961097D01*
X88351959Y-71961097D01*
X88563288Y-71934025D01*
X88563289Y-71934025D01*
X88568416Y-71933368D01*
X88573366Y-71931883D01*
X88777429Y-71870661D01*
X88777434Y-71870659D01*
X88782384Y-71869174D01*
X88982994Y-71770896D01*
X89164860Y-71641173D01*
X89323096Y-71483489D01*
X89453453Y-71302077D01*
X89466995Y-71274678D01*
X89550136Y-71106453D01*
X89550137Y-71106451D01*
X89552430Y-71101811D01*
X89617370Y-70888069D01*
X89646529Y-70666590D01*
X89648156Y-70600000D01*
X89629852Y-70377361D01*
X89575431Y-70160702D01*
X89486354Y-69955840D01*
X89365014Y-69768277D01*
X89214670Y-69603051D01*
X89210619Y-69599852D01*
X89210615Y-69599848D01*
X89043414Y-69467800D01*
X89043410Y-69467798D01*
X89039359Y-69464598D01*
X89003028Y-69444542D01*
X88987136Y-69435769D01*
X88843789Y-69356638D01*
X88838920Y-69354914D01*
X88838916Y-69354912D01*
X88638087Y-69283795D01*
X88638083Y-69283794D01*
X88633212Y-69282069D01*
X88628119Y-69281162D01*
X88628116Y-69281161D01*
X88418373Y-69243800D01*
X88418367Y-69243799D01*
X88413284Y-69242894D01*
X88339452Y-69241992D01*
X88195081Y-69240228D01*
X88195079Y-69240228D01*
X88189911Y-69240165D01*
X87969091Y-69273955D01*
X87756756Y-69343357D01*
X87558607Y-69446507D01*
X87554474Y-69449610D01*
X87554471Y-69449612D01*
X87384100Y-69577530D01*
X87379965Y-69580635D01*
X87376393Y-69584373D01*
X87268729Y-69697037D01*
X87225629Y-69742138D01*
X87118201Y-69899621D01*
X87063293Y-69944621D01*
X86992768Y-69952792D01*
X86929021Y-69921538D01*
X86908324Y-69897054D01*
X86827822Y-69772617D01*
X86827820Y-69772614D01*
X86825014Y-69768277D01*
X86674670Y-69603051D01*
X86670619Y-69599852D01*
X86670615Y-69599848D01*
X86503414Y-69467800D01*
X86503410Y-69467798D01*
X86499359Y-69464598D01*
X86463028Y-69444542D01*
X86447136Y-69435769D01*
X86303789Y-69356638D01*
X86298920Y-69354914D01*
X86298916Y-69354912D01*
X86098087Y-69283795D01*
X86098083Y-69283794D01*
X86093212Y-69282069D01*
X86088119Y-69281162D01*
X86088116Y-69281161D01*
X85878373Y-69243800D01*
X85878367Y-69243799D01*
X85873284Y-69242894D01*
X85799452Y-69241992D01*
X85655081Y-69240228D01*
X85655079Y-69240228D01*
X85649911Y-69240165D01*
X85429091Y-69273955D01*
X85216756Y-69343357D01*
X85018607Y-69446507D01*
X85014474Y-69449610D01*
X85014471Y-69449612D01*
X84844100Y-69577530D01*
X84839965Y-69580635D01*
X84836393Y-69584373D01*
X84728729Y-69697037D01*
X84685629Y-69742138D01*
X84578204Y-69899618D01*
X84577898Y-69900066D01*
X84522987Y-69945069D01*
X84452462Y-69953240D01*
X84388715Y-69921986D01*
X84368018Y-69897502D01*
X84287426Y-69772926D01*
X84281136Y-69764757D01*
X84137806Y-69607240D01*
X84130273Y-69600215D01*
X83963139Y-69468222D01*
X83954552Y-69462517D01*
X83768117Y-69359599D01*
X83758705Y-69355369D01*
X83557959Y-69284280D01*
X83547988Y-69281646D01*
X83476837Y-69268972D01*
X83463540Y-69270432D01*
X83459000Y-69284989D01*
X83459000Y-71918517D01*
X82951000Y-71918517D01*
X82951000Y-69283102D01*
X82947082Y-69269758D01*
X82932806Y-69267771D01*
X82894324Y-69273660D01*
X82884288Y-69276051D01*
X82681868Y-69342212D01*
X82672359Y-69346209D01*
X82483463Y-69444542D01*
X82474738Y-69450036D01*
X82304433Y-69577905D01*
X82296726Y-69584748D01*
X82149590Y-69738717D01*
X82143109Y-69746722D01*
X82038498Y-69900074D01*
X81983587Y-69945076D01*
X81913062Y-69953247D01*
X81849315Y-69921993D01*
X81828618Y-69897509D01*
X81747822Y-69772617D01*
X81747820Y-69772614D01*
X81745014Y-69768277D01*
X81594670Y-69603051D01*
X81590619Y-69599852D01*
X81590615Y-69599848D01*
X81423414Y-69467800D01*
X81423410Y-69467798D01*
X81419359Y-69464598D01*
X81383028Y-69444542D01*
X81367136Y-69435769D01*
X81223789Y-69356638D01*
X81218920Y-69354914D01*
X81218916Y-69354912D01*
X81018087Y-69283795D01*
X81018083Y-69283794D01*
X81013212Y-69282069D01*
X81008119Y-69281162D01*
X81008116Y-69281161D01*
X80798373Y-69243800D01*
X80798367Y-69243799D01*
X80793284Y-69242894D01*
X80719452Y-69241992D01*
X80575081Y-69240228D01*
X80575079Y-69240228D01*
X80569911Y-69240165D01*
X80349091Y-69273955D01*
X80136756Y-69343357D01*
X79938607Y-69446507D01*
X79934474Y-69449610D01*
X79934471Y-69449612D01*
X79764100Y-69577530D01*
X79759965Y-69580635D01*
X79703537Y-69639684D01*
X79679283Y-69665064D01*
X79617759Y-69700494D01*
X79546846Y-69697037D01*
X79489060Y-69655791D01*
X79470207Y-69622243D01*
X79428767Y-69511703D01*
X79425615Y-69503295D01*
X79338261Y-69386739D01*
X79221705Y-69299385D01*
X79085316Y-69248255D01*
X79023134Y-69241500D01*
X77226866Y-69241500D01*
X77164684Y-69248255D01*
X77028295Y-69299385D01*
X76911739Y-69386739D01*
X76824385Y-69503295D01*
X76773255Y-69639684D01*
X76766500Y-69701866D01*
X76766500Y-71498134D01*
X43508000Y-71498134D01*
X43508000Y-67049330D01*
X43509500Y-67029945D01*
X43511805Y-67015144D01*
X43511805Y-67015141D01*
X43513186Y-67006272D01*
X43512009Y-66997271D01*
X43511738Y-66966833D01*
X43518747Y-66904626D01*
X43525026Y-66877118D01*
X43552035Y-66799931D01*
X43564277Y-66774510D01*
X43607788Y-66705263D01*
X43625380Y-66683204D01*
X43683204Y-66625380D01*
X43705263Y-66607788D01*
X43774510Y-66564277D01*
X43799931Y-66552035D01*
X43877119Y-66525026D01*
X43904624Y-66518747D01*
X43916238Y-66517438D01*
X43960262Y-66512478D01*
X43975903Y-66511695D01*
X43984858Y-66511804D01*
X43993732Y-66513186D01*
X44025254Y-66509064D01*
X44041591Y-66508000D01*
X92950670Y-66508000D01*
X92970055Y-66509500D01*
G37*
%TD.AperFunction*%
%TD*%
M02*
