M48
; DRILL file {KiCad (6.0.1)} date Tue Apr 19 02:49:10 2022
; FORMAT={-:-/ absolute / inch / decimal}
; #@! TF.CreationDate,2022-04-19T02:49:10-05:00
; #@! TF.GenerationSoftware,Kicad,Pcbnew,(6.0.1)
; #@! TF.FileFunction,Plated,1,4,PTH
FMAT,2
INCH
; #@! TA.AperFunction,Plated,PTH,ViaDrill
T1C0.0157
; #@! TA.AperFunction,Plated,PTH,ComponentDrill
T2C0.0394
%
G90
G05
T1
X1.752Y-2.7461
X1.752Y-2.9626
X1.811Y-3.8878
X1.8307Y-3.248
X1.8504Y-3.3563
X1.8504Y-3.563
X1.8504Y-4.0157
X1.8898Y-3.0512
X2.1949Y-3.4547
X2.1949Y-3.6516
X2.2539Y-2.7756
X2.2539Y-2.9626
X2.2539Y-3.9075
X2.2638Y-3.5138
X2.2736Y-3.9862
X2.2933Y-3.2087
X2.3031Y-3.7106
X2.3031Y-3.7992
X2.3622Y-3.061
X2.4508Y-3.4646
X2.4508Y-3.9764
X2.4705Y-3.8091
X2.4705Y-3.9075
X2.4803Y-3.5335
X2.4803Y-3.6811
X2.4803Y-4.124
X2.4902Y-3.7697
X2.5098Y-2.7067
X2.5295Y-3.6713
X2.5295Y-4.0748
X2.5394Y-3.248
X2.5591Y-3.4252
X2.6181Y-3.5827
X2.628Y-4.0551
X2.6575Y-3.0512
X2.687Y-3.4252
X2.687Y-4.1043
X2.6969Y-2.8445
X2.7362Y-3.3366
X2.7461Y-4.0551
X2.7756Y-3.3858
X2.7854Y-3.5925
X2.8543Y-3.2579
X2.8642Y-3.9862
X2.8661Y-4.0709
X2.8839Y-3.3858
X2.8937Y-4.1339
X3.0999Y-3.3765
X3.1398Y-3.3071
X3.1496Y-3.4843
X3.1791Y-3.3268
X3.1988Y-3.937
X3.2185Y-3.7106
X3.2677Y-2.8839
X3.2723Y-3.2172
X3.3661Y-3.0118
X3.6516Y-3.7795
T2
X2.5669Y-3.1486
X2.6669Y-3.1486
X2.7669Y-3.1486
X2.8669Y-3.1486
X3.0758Y-2.7795
X3.1758Y-2.7795
X3.2758Y-2.7795
X3.3758Y-2.7795
X3.4758Y-2.7795
T0
M30
