%TF.GenerationSoftware,KiCad,Pcbnew,(6.0.1)*%
%TF.CreationDate,2022-04-20T02:22:31-05:00*%
%TF.ProjectId,pcb_w_STM32F030C8T6,7063625f-775f-4535-944d-333246303330,rev?*%
%TF.SameCoordinates,Original*%
%TF.FileFunction,Legend,Top*%
%TF.FilePolarity,Positive*%
%FSLAX46Y46*%
G04 Gerber Fmt 4.6, Leading zero omitted, Abs format (unit mm)*
G04 Created by KiCad (PCBNEW (6.0.1)) date 2022-04-20 02:22:31*
%MOMM*%
%LPD*%
G01*
G04 APERTURE LIST*
%ADD10C,0.200000*%
%ADD11C,0.325000*%
%ADD12C,0.150000*%
%ADD13C,0.062500*%
%ADD14C,0.120000*%
G04 APERTURE END LIST*
D10*
X58850000Y-74700000D02*
G75*
G03*
X58850000Y-74700000I-100000J0D01*
G01*
X61575000Y-89150000D02*
G75*
G03*
X61575000Y-89150000I-100000J0D01*
G01*
D11*
X65412500Y-67350000D02*
G75*
G03*
X65412500Y-67350000I-162500J0D01*
G01*
X78312500Y-67425000D02*
G75*
G03*
X78312500Y-67425000I-162500J0D01*
G01*
D12*
X50247619Y-88077380D02*
X49914285Y-87601190D01*
X49676190Y-88077380D02*
X49676190Y-87077380D01*
X50057142Y-87077380D01*
X50152380Y-87125000D01*
X50200000Y-87172619D01*
X50247619Y-87267857D01*
X50247619Y-87410714D01*
X50200000Y-87505952D01*
X50152380Y-87553571D01*
X50057142Y-87601190D01*
X49676190Y-87601190D01*
X50676190Y-87553571D02*
X51009523Y-87553571D01*
X51152380Y-88077380D02*
X50676190Y-88077380D01*
X50676190Y-87077380D01*
X51152380Y-87077380D01*
X51533333Y-88029761D02*
X51676190Y-88077380D01*
X51914285Y-88077380D01*
X52009523Y-88029761D01*
X52057142Y-87982142D01*
X52104761Y-87886904D01*
X52104761Y-87791666D01*
X52057142Y-87696428D01*
X52009523Y-87648809D01*
X51914285Y-87601190D01*
X51723809Y-87553571D01*
X51628571Y-87505952D01*
X51580952Y-87458333D01*
X51533333Y-87363095D01*
X51533333Y-87267857D01*
X51580952Y-87172619D01*
X51628571Y-87125000D01*
X51723809Y-87077380D01*
X51961904Y-87077380D01*
X52104761Y-87125000D01*
X52533333Y-87553571D02*
X52866666Y-87553571D01*
X53009523Y-88077380D02*
X52533333Y-88077380D01*
X52533333Y-87077380D01*
X53009523Y-87077380D01*
X53295238Y-87077380D02*
X53866666Y-87077380D01*
X53580952Y-88077380D02*
X53580952Y-87077380D01*
X53035714Y-95702380D02*
X53035714Y-94702380D01*
X53273809Y-94702380D01*
X53416666Y-94750000D01*
X53511904Y-94845238D01*
X53559523Y-94940476D01*
X53607142Y-95130952D01*
X53607142Y-95273809D01*
X53559523Y-95464285D01*
X53511904Y-95559523D01*
X53416666Y-95654761D01*
X53273809Y-95702380D01*
X53035714Y-95702380D01*
X54035714Y-95178571D02*
X54369047Y-95178571D01*
X54511904Y-95702380D02*
X54035714Y-95702380D01*
X54035714Y-94702380D01*
X54511904Y-94702380D01*
X55511904Y-95607142D02*
X55464285Y-95654761D01*
X55321428Y-95702380D01*
X55226190Y-95702380D01*
X55083333Y-95654761D01*
X54988095Y-95559523D01*
X54940476Y-95464285D01*
X54892857Y-95273809D01*
X54892857Y-95130952D01*
X54940476Y-94940476D01*
X54988095Y-94845238D01*
X55083333Y-94750000D01*
X55226190Y-94702380D01*
X55321428Y-94702380D01*
X55464285Y-94750000D01*
X55511904Y-94797619D01*
X84976190Y-92927380D02*
X84976190Y-91927380D01*
X85452380Y-92927380D02*
X85452380Y-91927380D01*
X86023809Y-92927380D01*
X86023809Y-91927380D01*
X87071428Y-92832142D02*
X87023809Y-92879761D01*
X86880952Y-92927380D01*
X86785714Y-92927380D01*
X86642857Y-92879761D01*
X86547619Y-92784523D01*
X86500000Y-92689285D01*
X86452380Y-92498809D01*
X86452380Y-92355952D01*
X86500000Y-92165476D01*
X86547619Y-92070238D01*
X86642857Y-91975000D01*
X86785714Y-91927380D01*
X86880952Y-91927380D01*
X87023809Y-91975000D01*
X87071428Y-92022619D01*
X79485714Y-80757142D02*
X79438095Y-80804761D01*
X79295238Y-80852380D01*
X79200000Y-80852380D01*
X79057142Y-80804761D01*
X78961904Y-80709523D01*
X78914285Y-80614285D01*
X78866666Y-80423809D01*
X78866666Y-80280952D01*
X78914285Y-80090476D01*
X78961904Y-79995238D01*
X79057142Y-79900000D01*
X79200000Y-79852380D01*
X79295238Y-79852380D01*
X79438095Y-79900000D01*
X79485714Y-79947619D01*
X79914285Y-80852380D02*
X79914285Y-79852380D01*
X79914285Y-80328571D02*
X80485714Y-80328571D01*
X80485714Y-80852380D02*
X80485714Y-79852380D01*
X80723809Y-80947619D02*
X81485714Y-80947619D01*
X81676190Y-80804761D02*
X81819047Y-80852380D01*
X82057142Y-80852380D01*
X82152380Y-80804761D01*
X82200000Y-80757142D01*
X82247619Y-80661904D01*
X82247619Y-80566666D01*
X82200000Y-80471428D01*
X82152380Y-80423809D01*
X82057142Y-80376190D01*
X81866666Y-80328571D01*
X81771428Y-80280952D01*
X81723809Y-80233333D01*
X81676190Y-80138095D01*
X81676190Y-80042857D01*
X81723809Y-79947619D01*
X81771428Y-79900000D01*
X81866666Y-79852380D01*
X82104761Y-79852380D01*
X82247619Y-79900000D01*
X82533333Y-79852380D02*
X83104761Y-79852380D01*
X82819047Y-80852380D02*
X82819047Y-79852380D01*
X83390476Y-80566666D02*
X83866666Y-80566666D01*
X83295238Y-80852380D02*
X83628571Y-79852380D01*
X83961904Y-80852380D01*
X84152380Y-79852380D02*
X84723809Y-79852380D01*
X84438095Y-80852380D02*
X84438095Y-79852380D01*
X85057142Y-80328571D02*
X85390476Y-80328571D01*
X85533333Y-80852380D02*
X85057142Y-80852380D01*
X85057142Y-79852380D01*
X85533333Y-79852380D01*
X89142857Y-85829761D02*
X89285714Y-85877380D01*
X89523809Y-85877380D01*
X89619047Y-85829761D01*
X89666666Y-85782142D01*
X89714285Y-85686904D01*
X89714285Y-85591666D01*
X89666666Y-85496428D01*
X89619047Y-85448809D01*
X89523809Y-85401190D01*
X89333333Y-85353571D01*
X89238095Y-85305952D01*
X89190476Y-85258333D01*
X89142857Y-85163095D01*
X89142857Y-85067857D01*
X89190476Y-84972619D01*
X89238095Y-84925000D01*
X89333333Y-84877380D01*
X89571428Y-84877380D01*
X89714285Y-84925000D01*
X90047619Y-84877380D02*
X90285714Y-85877380D01*
X90476190Y-85163095D01*
X90666666Y-85877380D01*
X90904761Y-84877380D01*
X91285714Y-85877380D02*
X91285714Y-84877380D01*
X91523809Y-84877380D01*
X91666666Y-84925000D01*
X91761904Y-85020238D01*
X91809523Y-85115476D01*
X91857142Y-85305952D01*
X91857142Y-85448809D01*
X91809523Y-85639285D01*
X91761904Y-85734523D01*
X91666666Y-85829761D01*
X91523809Y-85877380D01*
X91285714Y-85877380D01*
X89639285Y-73210714D02*
X89639285Y-73877380D01*
X89210714Y-73210714D02*
X89210714Y-73734523D01*
X89258333Y-73829761D01*
X89353571Y-73877380D01*
X89496428Y-73877380D01*
X89591666Y-73829761D01*
X89639285Y-73782142D01*
X90115476Y-72877380D02*
X90115476Y-73686904D01*
X90163095Y-73782142D01*
X90210714Y-73829761D01*
X90305952Y-73877380D01*
X90496428Y-73877380D01*
X90591666Y-73829761D01*
X90639285Y-73782142D01*
X90686904Y-73686904D01*
X90686904Y-72877380D01*
X91115476Y-73829761D02*
X91258333Y-73877380D01*
X91496428Y-73877380D01*
X91591666Y-73829761D01*
X91639285Y-73782142D01*
X91686904Y-73686904D01*
X91686904Y-73591666D01*
X91639285Y-73496428D01*
X91591666Y-73448809D01*
X91496428Y-73401190D01*
X91305952Y-73353571D01*
X91210714Y-73305952D01*
X91163095Y-73258333D01*
X91115476Y-73163095D01*
X91115476Y-73067857D01*
X91163095Y-72972619D01*
X91210714Y-72925000D01*
X91305952Y-72877380D01*
X91544047Y-72877380D01*
X91686904Y-72925000D01*
X92448809Y-73353571D02*
X92591666Y-73401190D01*
X92639285Y-73448809D01*
X92686904Y-73544047D01*
X92686904Y-73686904D01*
X92639285Y-73782142D01*
X92591666Y-73829761D01*
X92496428Y-73877380D01*
X92115476Y-73877380D01*
X92115476Y-72877380D01*
X92448809Y-72877380D01*
X92544047Y-72925000D01*
X92591666Y-72972619D01*
X92639285Y-73067857D01*
X92639285Y-73163095D01*
X92591666Y-73258333D01*
X92544047Y-73305952D01*
X92448809Y-73353571D01*
X92115476Y-73353571D01*
D13*
X63295238Y-90338095D02*
X63295238Y-90516666D01*
X63283333Y-90552380D01*
X63259523Y-90576190D01*
X63223809Y-90588095D01*
X63200000Y-90588095D01*
X63533333Y-90588095D02*
X63414285Y-90588095D01*
X63414285Y-90338095D01*
X63759523Y-90564285D02*
X63747619Y-90576190D01*
X63711904Y-90588095D01*
X63688095Y-90588095D01*
X63652380Y-90576190D01*
X63628571Y-90552380D01*
X63616666Y-90528571D01*
X63604761Y-90480952D01*
X63604761Y-90445238D01*
X63616666Y-90397619D01*
X63628571Y-90373809D01*
X63652380Y-90350000D01*
X63688095Y-90338095D01*
X63711904Y-90338095D01*
X63747619Y-90350000D01*
X63759523Y-90361904D01*
X63938095Y-90338095D02*
X63938095Y-90516666D01*
X63926190Y-90552380D01*
X63902380Y-90576190D01*
X63866666Y-90588095D01*
X63842857Y-90588095D01*
X64176190Y-90588095D02*
X64057142Y-90588095D01*
X64057142Y-90338095D01*
X64402380Y-90564285D02*
X64390476Y-90576190D01*
X64354761Y-90588095D01*
X64330952Y-90588095D01*
X64295238Y-90576190D01*
X64271428Y-90552380D01*
X64259523Y-90528571D01*
X64247619Y-90480952D01*
X64247619Y-90445238D01*
X64259523Y-90397619D01*
X64271428Y-90373809D01*
X64295238Y-90350000D01*
X64330952Y-90338095D01*
X64354761Y-90338095D01*
X64390476Y-90350000D01*
X64402380Y-90361904D01*
X64580952Y-90338095D02*
X64580952Y-90516666D01*
X64569047Y-90552380D01*
X64545238Y-90576190D01*
X64509523Y-90588095D01*
X64485714Y-90588095D01*
X64819047Y-90588095D02*
X64700000Y-90588095D01*
X64700000Y-90338095D01*
X65045238Y-90564285D02*
X65033333Y-90576190D01*
X64997619Y-90588095D01*
X64973809Y-90588095D01*
X64938095Y-90576190D01*
X64914285Y-90552380D01*
X64902380Y-90528571D01*
X64890476Y-90480952D01*
X64890476Y-90445238D01*
X64902380Y-90397619D01*
X64914285Y-90373809D01*
X64938095Y-90350000D01*
X64973809Y-90338095D01*
X64997619Y-90338095D01*
X65033333Y-90350000D01*
X65045238Y-90361904D01*
X65223809Y-90338095D02*
X65223809Y-90516666D01*
X65211904Y-90552380D01*
X65188095Y-90576190D01*
X65152380Y-90588095D01*
X65128571Y-90588095D01*
X65461904Y-90588095D02*
X65342857Y-90588095D01*
X65342857Y-90338095D01*
X65688095Y-90564285D02*
X65676190Y-90576190D01*
X65640476Y-90588095D01*
X65616666Y-90588095D01*
X65580952Y-90576190D01*
X65557142Y-90552380D01*
X65545238Y-90528571D01*
X65533333Y-90480952D01*
X65533333Y-90445238D01*
X65545238Y-90397619D01*
X65557142Y-90373809D01*
X65580952Y-90350000D01*
X65616666Y-90338095D01*
X65640476Y-90338095D01*
X65676190Y-90350000D01*
X65688095Y-90361904D01*
D12*
%TO.C,U2*%
X61050000Y-79200000D02*
X61050000Y-79000000D01*
X65200000Y-74050000D02*
X65200000Y-74250000D01*
X61050000Y-79200000D02*
X65200000Y-79200000D01*
X61050000Y-74050000D02*
X65200000Y-74050000D01*
X65200000Y-79200000D02*
X65200000Y-79000000D01*
X61050000Y-74050000D02*
X61050000Y-74250000D01*
X61050000Y-74250000D02*
X59750000Y-74250000D01*
D14*
%TO.C,R11*%
X56472936Y-77665000D02*
X56927064Y-77665000D01*
X56472936Y-79135000D02*
X56927064Y-79135000D01*
%TO.C,R10*%
X60197936Y-80115000D02*
X60652064Y-80115000D01*
X60197936Y-81585000D02*
X60652064Y-81585000D01*
%TO.C,C8*%
X60263748Y-71290000D02*
X60786252Y-71290000D01*
X60263748Y-72760000D02*
X60786252Y-72760000D01*
%TO.C,C5*%
X60088748Y-68790000D02*
X60611252Y-68790000D01*
X60088748Y-70260000D02*
X60611252Y-70260000D01*
%TO.C,C4*%
X67913748Y-71990000D02*
X68436252Y-71990000D01*
X67913748Y-73460000D02*
X68436252Y-73460000D01*
%TO.C,C3*%
X68315000Y-91761252D02*
X68315000Y-91238748D01*
X69785000Y-91761252D02*
X69785000Y-91238748D01*
%TO.C,C2*%
X70690000Y-91686252D02*
X70690000Y-91163748D01*
X72160000Y-91686252D02*
X72160000Y-91163748D01*
%TO.C,D4*%
X56615000Y-100815000D02*
X56615000Y-102735000D01*
X59475000Y-100815000D02*
X56615000Y-100815000D01*
X56615000Y-102735000D02*
X59475000Y-102735000D01*
%TO.C,U1*%
X62565000Y-88640000D02*
X62340000Y-88640000D01*
X66560000Y-88640000D02*
X66560000Y-88865000D01*
X62340000Y-92860000D02*
X62340000Y-92635000D01*
X66560000Y-92860000D02*
X66560000Y-92635000D01*
X62565000Y-92860000D02*
X62340000Y-92860000D01*
X66335000Y-88640000D02*
X66560000Y-88640000D01*
X66335000Y-92860000D02*
X66560000Y-92860000D01*
%TO.C,R1*%
X69847936Y-84790000D02*
X70302064Y-84790000D01*
X69847936Y-86260000D02*
X70302064Y-86260000D01*
%TO.C,D2*%
X53165000Y-80115000D02*
X53165000Y-82035000D01*
X56025000Y-80115000D02*
X53165000Y-80115000D01*
X53165000Y-82035000D02*
X56025000Y-82035000D01*
%TO.C,J2*%
X79705000Y-68520000D02*
X89925000Y-68520000D01*
X77105000Y-71180000D02*
X77105000Y-69850000D01*
X79705000Y-71180000D02*
X89925000Y-71180000D01*
X89925000Y-71180000D02*
X89925000Y-68520000D01*
X79705000Y-71180000D02*
X79705000Y-68520000D01*
X78435000Y-71180000D02*
X77105000Y-71180000D01*
%TO.C,R4*%
X50222936Y-80215000D02*
X50677064Y-80215000D01*
X50222936Y-81685000D02*
X50677064Y-81685000D01*
%TO.C,R5*%
X83147936Y-94365000D02*
X83602064Y-94365000D01*
X83147936Y-95835000D02*
X83602064Y-95835000D01*
%TO.C,J1*%
X64420000Y-69750000D02*
X64420000Y-68420000D01*
X64420000Y-68420000D02*
X65750000Y-68420000D01*
X67020000Y-71080000D02*
X74700000Y-71080000D01*
X67020000Y-71080000D02*
X67020000Y-68420000D01*
X67020000Y-68420000D02*
X74700000Y-68420000D01*
X74700000Y-71080000D02*
X74700000Y-68420000D01*
%TO.C,G\u002A\u002A\u002A*%
G36*
X77308456Y-101191738D02*
G01*
X77640631Y-101204074D01*
X77840473Y-101224770D01*
X77913224Y-101254128D01*
X77864127Y-101292449D01*
X77731147Y-101332137D01*
X77547573Y-101395424D01*
X77290445Y-101505333D01*
X77064971Y-101613493D01*
X76489682Y-101953763D01*
X76062885Y-102319283D01*
X75780840Y-102715810D01*
X75639809Y-103149100D01*
X75636053Y-103624908D01*
X75660795Y-103775109D01*
X75692814Y-103961587D01*
X75670314Y-104033256D01*
X75569466Y-104025680D01*
X75504088Y-104009014D01*
X75251144Y-103971153D01*
X74890608Y-103953226D01*
X74466875Y-103953846D01*
X74024339Y-103971624D01*
X73607395Y-104005171D01*
X73260437Y-104053101D01*
X73121410Y-104083513D01*
X72457705Y-104323057D01*
X71893341Y-104658742D01*
X71439672Y-105080650D01*
X71108056Y-105578861D01*
X70951358Y-105978852D01*
X70906937Y-106107714D01*
X70871644Y-106097583D01*
X70838579Y-106017221D01*
X70556753Y-105415584D01*
X70195728Y-104932313D01*
X69739875Y-104553719D01*
X69173567Y-104266111D01*
X68645881Y-104096332D01*
X68384558Y-104039846D01*
X68098295Y-104005370D01*
X67749724Y-103990593D01*
X67301477Y-103993199D01*
X67073202Y-103998959D01*
X65993835Y-104030456D01*
X66098379Y-103727014D01*
X66161306Y-103323558D01*
X66077804Y-102922578D01*
X65854799Y-102532596D01*
X65499217Y-102162132D01*
X65017984Y-101819707D01*
X64418028Y-101513841D01*
X64238973Y-101439578D01*
X63701813Y-101226431D01*
X66176586Y-101223790D01*
X66914578Y-101224666D01*
X67508518Y-101229246D01*
X67967794Y-101237851D01*
X68301790Y-101250803D01*
X68519894Y-101268424D01*
X68631490Y-101291035D01*
X68651360Y-101308665D01*
X68683589Y-101424657D01*
X68765413Y-101619957D01*
X68818843Y-101731534D01*
X68924408Y-101912281D01*
X69050184Y-102039045D01*
X69229161Y-102128080D01*
X69494331Y-102195645D01*
X69878683Y-102257993D01*
X69890763Y-102259720D01*
X70088373Y-102283185D01*
X70210552Y-102264870D01*
X70284248Y-102176239D01*
X70336411Y-101988755D01*
X70382395Y-101739124D01*
X70439106Y-101527258D01*
X70503920Y-101460399D01*
X70569485Y-101541770D01*
X70601300Y-101643203D01*
X70674304Y-101786341D01*
X70826920Y-101833754D01*
X70876737Y-101835046D01*
X71054176Y-101803750D01*
X71140159Y-101684978D01*
X71152174Y-101643203D01*
X71215116Y-101483822D01*
X71280811Y-101472793D01*
X71341620Y-101605345D01*
X71377636Y-101783982D01*
X71423690Y-102046576D01*
X71487400Y-102198345D01*
X71603350Y-102260610D01*
X71806124Y-102254694D01*
X72072027Y-102212079D01*
X72515398Y-102086899D01*
X72828628Y-101886151D01*
X73017581Y-101605382D01*
X73061814Y-101460158D01*
X73109532Y-101242898D01*
X75465491Y-101201877D01*
X76226129Y-101190941D01*
X76838703Y-101187461D01*
X77308456Y-101191738D01*
G37*
%TO.C,C7*%
X73235000Y-95763748D02*
X73235000Y-96286252D01*
X71765000Y-95763748D02*
X71765000Y-96286252D01*
%TO.C,R3*%
X78972936Y-74015000D02*
X79427064Y-74015000D01*
X78972936Y-75485000D02*
X79427064Y-75485000D01*
%TO.C,C6*%
X70460000Y-95763748D02*
X70460000Y-96286252D01*
X68990000Y-95763748D02*
X68990000Y-96286252D01*
%TO.C,R8*%
X86447936Y-102290000D02*
X86902064Y-102290000D01*
X86447936Y-103760000D02*
X86902064Y-103760000D01*
%TO.C,R9*%
X46597936Y-101390000D02*
X47052064Y-101390000D01*
X46597936Y-102860000D02*
X47052064Y-102860000D01*
%TO.C,C1*%
X58890000Y-89436252D02*
X58890000Y-88913748D01*
X60360000Y-89436252D02*
X60360000Y-88913748D01*
%TO.C,J3*%
X54135000Y-66915000D02*
X54135000Y-68865000D01*
X46315000Y-66915000D02*
X46315000Y-68865000D01*
X53415000Y-76235000D02*
X52335000Y-76235000D01*
X48115000Y-76235000D02*
X47035000Y-76235000D01*
X54135000Y-71085000D02*
X54135000Y-74315000D01*
X46315000Y-66915000D02*
X54135000Y-66915000D01*
X46315000Y-71085000D02*
X46315000Y-74315000D01*
X52335000Y-76235000D02*
X52335000Y-76665000D01*
%TO.C,D1*%
X81640000Y-73790000D02*
X81640000Y-75710000D01*
X84500000Y-73790000D02*
X81640000Y-73790000D01*
X81640000Y-75710000D02*
X84500000Y-75710000D01*
%TO.C,R2*%
X70097936Y-87340000D02*
X70552064Y-87340000D01*
X70097936Y-88810000D02*
X70552064Y-88810000D01*
%TO.C,R7*%
X85172936Y-86690000D02*
X85627064Y-86690000D01*
X85172936Y-88160000D02*
X85627064Y-88160000D01*
%TO.C,D3*%
X86490000Y-94265000D02*
X86490000Y-96185000D01*
X89350000Y-94265000D02*
X86490000Y-94265000D01*
X86490000Y-96185000D02*
X89350000Y-96185000D01*
%TO.C,R6*%
X53222936Y-101065000D02*
X53677064Y-101065000D01*
X53222936Y-102535000D02*
X53677064Y-102535000D01*
%TD*%
M02*
