%TF.GenerationSoftware,KiCad,Pcbnew,(6.0.1)*%
%TF.CreationDate,2022-04-19T02:49:18-05:00*%
%TF.ProjectId,pcb_w_STM32F030C8T6,7063625f-775f-4535-944d-333246303330,rev?*%
%TF.SameCoordinates,Original*%
%TF.FileFunction,Copper,L1,Top*%
%TF.FilePolarity,Positive*%
%FSLAX46Y46*%
G04 Gerber Fmt 4.6, Leading zero omitted, Abs format (unit mm)*
G04 Created by KiCad (PCBNEW (6.0.1)) date 2022-04-19 02:49:18*
%MOMM*%
%LPD*%
G01*
G04 APERTURE LIST*
G04 Aperture macros list*
%AMRoundRect*
0 Rectangle with rounded corners*
0 $1 Rounding radius*
0 $2 $3 $4 $5 $6 $7 $8 $9 X,Y pos of 4 corners*
0 Add a 4 corners polygon primitive as box body*
4,1,4,$2,$3,$4,$5,$6,$7,$8,$9,$2,$3,0*
0 Add four circle primitives for the rounded corners*
1,1,$1+$1,$2,$3*
1,1,$1+$1,$4,$5*
1,1,$1+$1,$6,$7*
1,1,$1+$1,$8,$9*
0 Add four rect primitives between the rounded corners*
20,1,$1+$1,$2,$3,$4,$5,0*
20,1,$1+$1,$4,$5,$6,$7,0*
20,1,$1+$1,$6,$7,$8,$9,0*
20,1,$1+$1,$8,$9,$2,$3,0*%
G04 Aperture macros list end*
%TA.AperFunction,SMDPad,CuDef*%
%ADD10RoundRect,0.250000X-0.350000X-0.450000X0.350000X-0.450000X0.350000X0.450000X-0.350000X0.450000X0*%
%TD*%
%TA.AperFunction,SMDPad,CuDef*%
%ADD11RoundRect,0.250000X0.450000X-0.350000X0.450000X0.350000X-0.450000X0.350000X-0.450000X-0.350000X0*%
%TD*%
%TA.AperFunction,SMDPad,CuDef*%
%ADD12RoundRect,0.250000X-0.325000X-0.450000X0.325000X-0.450000X0.325000X0.450000X-0.325000X0.450000X0*%
%TD*%
%TA.AperFunction,SMDPad,CuDef*%
%ADD13RoundRect,0.250000X-0.337500X-0.475000X0.337500X-0.475000X0.337500X0.475000X-0.337500X0.475000X0*%
%TD*%
%TA.AperFunction,SMDPad,CuDef*%
%ADD14R,1.350000X1.800000*%
%TD*%
%TA.AperFunction,SMDPad,CuDef*%
%ADD15R,1.200000X0.700000*%
%TD*%
%TA.AperFunction,SMDPad,CuDef*%
%ADD16R,0.500000X0.500000*%
%TD*%
%TA.AperFunction,ComponentPad*%
%ADD17R,1.700000X1.700000*%
%TD*%
%TA.AperFunction,ComponentPad*%
%ADD18O,1.700000X1.700000*%
%TD*%
%TA.AperFunction,SMDPad,CuDef*%
%ADD19R,0.500000X2.000000*%
%TD*%
%TA.AperFunction,SMDPad,CuDef*%
%ADD20R,2.000000X1.700000*%
%TD*%
%TA.AperFunction,SMDPad,CuDef*%
%ADD21RoundRect,0.075000X-0.662500X-0.075000X0.662500X-0.075000X0.662500X0.075000X-0.662500X0.075000X0*%
%TD*%
%TA.AperFunction,SMDPad,CuDef*%
%ADD22RoundRect,0.075000X-0.075000X-0.662500X0.075000X-0.662500X0.075000X0.662500X-0.075000X0.662500X0*%
%TD*%
%TA.AperFunction,ViaPad*%
%ADD23C,0.800000*%
%TD*%
%TA.AperFunction,Conductor*%
%ADD24C,0.250000*%
%TD*%
G04 APERTURE END LIST*
D10*
%TO.P,R9,1*%
%TO.N,DEC*%
X54700000Y-97800000D03*
%TO.P,R9,2*%
%TO.N,GND*%
X56700000Y-97800000D03*
%TD*%
%TO.P,R8,1*%
%TO.N,INC*%
X89500000Y-95700000D03*
%TO.P,R8,2*%
%TO.N,GND*%
X91500000Y-95700000D03*
%TD*%
%TO.P,R7,1*%
%TO.N,CHANGE_STATE*%
X55000000Y-81750000D03*
%TO.P,R7,2*%
%TO.N,GND*%
X57000000Y-81750000D03*
%TD*%
%TO.P,R6,1*%
%TO.N,GND*%
X48700000Y-102600000D03*
%TO.P,R6,2*%
%TO.N,Net-(D4-Pad1)*%
X50700000Y-102600000D03*
%TD*%
%TO.P,R5,1*%
%TO.N,GND*%
X83075000Y-100500000D03*
%TO.P,R5,2*%
%TO.N,Net-(D3-Pad1)*%
X85075000Y-100500000D03*
%TD*%
%TO.P,R4,1*%
%TO.N,GND*%
X48700000Y-85500000D03*
%TO.P,R4,2*%
%TO.N,Net-(D2-Pad1)*%
X50700000Y-85500000D03*
%TD*%
%TO.P,R3,1*%
%TO.N,GND*%
X48737500Y-90200000D03*
%TO.P,R3,2*%
%TO.N,Net-(D1-Pad1)*%
X50737500Y-90200000D03*
%TD*%
D11*
%TO.P,R2,1*%
%TO.N,SDA*%
X71250000Y-89250000D03*
%TO.P,R2,2*%
%TO.N,VDDA*%
X71250000Y-87250000D03*
%TD*%
%TO.P,R1,1*%
%TO.N,SCL*%
X73750000Y-89250000D03*
%TO.P,R1,2*%
%TO.N,VDDA*%
X73750000Y-87250000D03*
%TD*%
D12*
%TO.P,D4,1,K*%
%TO.N,Net-(D4-Pad1)*%
X54137500Y-102800000D03*
%TO.P,D4,2,A*%
%TO.N,DEC*%
X56187500Y-102800000D03*
%TD*%
%TO.P,D3,1,K*%
%TO.N,Net-(D3-Pad1)*%
X87975000Y-100300000D03*
%TO.P,D3,2,A*%
%TO.N,INC*%
X90025000Y-100300000D03*
%TD*%
%TO.P,D2,1,K*%
%TO.N,Net-(D2-Pad1)*%
X53725000Y-85750000D03*
%TO.P,D2,2,A*%
%TO.N,CHANGE_STATE*%
X55775000Y-85750000D03*
%TD*%
%TO.P,D1,1,K*%
%TO.N,Net-(D1-Pad1)*%
X54575000Y-90500000D03*
%TO.P,D1,2,A*%
%TO.N,VDDA*%
X56625000Y-90500000D03*
%TD*%
D13*
%TO.P,C9,1*%
%TO.N,MC_USB_3.3*%
X65212500Y-73250000D03*
%TO.P,C9,2*%
%TO.N,GND*%
X67287500Y-73250000D03*
%TD*%
%TO.P,C8,1*%
%TO.N,MC_USB_5*%
X60462500Y-69250000D03*
%TO.P,C8,2*%
%TO.N,GND*%
X62537500Y-69250000D03*
%TD*%
%TO.P,C7,1*%
%TO.N,VDDA*%
X62762500Y-91250000D03*
%TO.P,C7,2*%
%TO.N,GND*%
X64837500Y-91250000D03*
%TD*%
%TO.P,C6,1*%
%TO.N,VDDA*%
X65512500Y-88600000D03*
%TO.P,C6,2*%
%TO.N,GND*%
X67587500Y-88600000D03*
%TD*%
%TO.P,C5,1*%
%TO.N,VDDA*%
X58962500Y-102000000D03*
%TO.P,C5,2*%
%TO.N,GND*%
X61037500Y-102000000D03*
%TD*%
%TO.P,C4,1*%
%TO.N,VDDA*%
X59712500Y-93500000D03*
%TO.P,C4,2*%
%TO.N,GND*%
X61787500Y-93500000D03*
%TD*%
%TO.P,C3,1*%
%TO.N,VDDA*%
X59562500Y-97500000D03*
%TO.P,C3,2*%
%TO.N,GND*%
X61637500Y-97500000D03*
%TD*%
%TO.P,C2,1*%
%TO.N,VDDA*%
X58862500Y-88300000D03*
%TO.P,C2,2*%
%TO.N,GND*%
X60937500Y-88300000D03*
%TD*%
%TO.P,C1,1*%
%TO.N,NRST*%
X69712500Y-105000000D03*
%TO.P,C1,2*%
%TO.N,GND*%
X71787500Y-105000000D03*
%TD*%
D14*
%TO.P,SW4,1,1*%
%TO.N,VDDA*%
X82537500Y-95800000D03*
%TO.P,SW4,2,2*%
%TO.N,INC*%
X86687500Y-95800000D03*
%TD*%
%TO.P,SW1,1,1*%
%TO.N,GND*%
X61725000Y-105000000D03*
%TO.P,SW1,2,2*%
%TO.N,NRST*%
X65875000Y-105000000D03*
%TD*%
D15*
%TO.P,SW2,*%
%TO.N,*%
X91250000Y-81000000D03*
X91250000Y-86000000D03*
X91250000Y-83500000D03*
%TO.P,SW2,1,A*%
%TO.N,MC_USB_3.3*%
X84750000Y-81000000D03*
%TO.P,SW2,2,B*%
%TO.N,VDDA*%
X84750000Y-83500000D03*
%TO.P,SW2,3,C*%
%TO.N,Net-(J2-Pad4)*%
X84750000Y-86000000D03*
%TD*%
D16*
%TO.P,U2,1,GND*%
%TO.N,GND*%
X60550000Y-77100000D03*
%TO.P,U2,2,Q*%
%TO.N,MC_USB_3.3*%
X62450000Y-77100000D03*
%TO.P,U2,3,I*%
%TO.N,MC_USB_5*%
X61500000Y-74900000D03*
%TD*%
D17*
%TO.P,J2,1,Pin_1*%
%TO.N,SWCLK*%
X78125000Y-70600000D03*
D18*
%TO.P,J2,2,Pin_2*%
%TO.N,SWDIO*%
X80665000Y-70600000D03*
%TO.P,J2,3,Pin_3*%
%TO.N,GND*%
X83205000Y-70600000D03*
%TO.P,J2,4,Pin_4*%
%TO.N,Net-(J2-Pad4)*%
X85745000Y-70600000D03*
%TO.P,J2,5,Pin_5*%
%TO.N,NRST*%
X88285000Y-70600000D03*
%TD*%
D19*
%TO.P,J3,1,VBUS*%
%TO.N,MC_USB_5*%
X52500000Y-75700000D03*
%TO.P,J3,2,D-*%
%TO.N,unconnected-(J3-Pad2)*%
X51700000Y-75700000D03*
%TO.P,J3,3,D+*%
%TO.N,unconnected-(J3-Pad3)*%
X50900000Y-75700000D03*
%TO.P,J3,4,ID*%
%TO.N,unconnected-(J3-Pad4)*%
X50100000Y-75700000D03*
%TO.P,J3,5,GND*%
%TO.N,GND*%
X49300000Y-75700000D03*
D20*
%TO.P,J3,6,Shield*%
X55350000Y-75600000D03*
X46450000Y-75600000D03*
X55350000Y-70150000D03*
X46450000Y-70150000D03*
%TD*%
D14*
%TO.P,SW3,1,1*%
%TO.N,VDDA*%
X47925000Y-81750000D03*
%TO.P,SW3,2,2*%
%TO.N,CHANGE_STATE*%
X52075000Y-81750000D03*
%TD*%
D17*
%TO.P,J1,1,Pin_1*%
%TO.N,GND*%
X65200000Y-79975000D03*
D18*
%TO.P,J1,2,Pin_2*%
%TO.N,VDDA*%
X67740000Y-79975000D03*
%TO.P,J1,3,Pin_3*%
%TO.N,SCL*%
X70280000Y-79975000D03*
%TO.P,J1,4,Pin_4*%
%TO.N,SDA*%
X72820000Y-79975000D03*
%TD*%
D14*
%TO.P,SW5,1,1*%
%TO.N,VDDA*%
X47350000Y-97700000D03*
%TO.P,SW5,2,2*%
%TO.N,DEC*%
X51500000Y-97700000D03*
%TD*%
D21*
%TO.P,U1,1,VDD*%
%TO.N,VDDA*%
X64937500Y-94250000D03*
%TO.P,U1,2,PC13*%
%TO.N,CHANGE_STATE*%
X64937500Y-94750000D03*
%TO.P,U1,3,PC14*%
%TO.N,unconnected-(U1-Pad3)*%
X64937500Y-95250000D03*
%TO.P,U1,4,PC15*%
%TO.N,unconnected-(U1-Pad4)*%
X64937500Y-95750000D03*
%TO.P,U1,5,PF0*%
%TO.N,unconnected-(U1-Pad5)*%
X64937500Y-96250000D03*
%TO.P,U1,6,PF1*%
%TO.N,unconnected-(U1-Pad6)*%
X64937500Y-96750000D03*
%TO.P,U1,7,NRST*%
%TO.N,NRST*%
X64937500Y-97250000D03*
%TO.P,U1,8,VSSA*%
%TO.N,GND*%
X64937500Y-97750000D03*
%TO.P,U1,9,VDDA*%
%TO.N,VDDA*%
X64937500Y-98250000D03*
%TO.P,U1,10,PA0*%
%TO.N,unconnected-(U1-Pad10)*%
X64937500Y-98750000D03*
%TO.P,U1,11,PA1*%
%TO.N,unconnected-(U1-Pad11)*%
X64937500Y-99250000D03*
%TO.P,U1,12,PA2*%
%TO.N,unconnected-(U1-Pad12)*%
X64937500Y-99750000D03*
D22*
%TO.P,U1,13,PA3*%
%TO.N,unconnected-(U1-Pad13)*%
X66350000Y-101162500D03*
%TO.P,U1,14,PA4*%
%TO.N,unconnected-(U1-Pad14)*%
X66850000Y-101162500D03*
%TO.P,U1,15,PA5*%
%TO.N,unconnected-(U1-Pad15)*%
X67350000Y-101162500D03*
%TO.P,U1,16,PA6*%
%TO.N,unconnected-(U1-Pad16)*%
X67850000Y-101162500D03*
%TO.P,U1,17,PA7*%
%TO.N,unconnected-(U1-Pad17)*%
X68350000Y-101162500D03*
%TO.P,U1,18,PB0*%
%TO.N,INC*%
X68850000Y-101162500D03*
%TO.P,U1,19,PB1*%
%TO.N,unconnected-(U1-Pad19)*%
X69350000Y-101162500D03*
%TO.P,U1,20,PB2*%
%TO.N,DEC*%
X69850000Y-101162500D03*
%TO.P,U1,21,PB10*%
%TO.N,unconnected-(U1-Pad21)*%
X70350000Y-101162500D03*
%TO.P,U1,22,PB11*%
%TO.N,unconnected-(U1-Pad22)*%
X70850000Y-101162500D03*
%TO.P,U1,23,VSS*%
%TO.N,GND*%
X71350000Y-101162500D03*
%TO.P,U1,24,VDD*%
%TO.N,VDDA*%
X71850000Y-101162500D03*
D21*
%TO.P,U1,25,PB12*%
%TO.N,unconnected-(U1-Pad25)*%
X73262500Y-99750000D03*
%TO.P,U1,26,PB13*%
%TO.N,unconnected-(U1-Pad26)*%
X73262500Y-99250000D03*
%TO.P,U1,27,PB14*%
%TO.N,unconnected-(U1-Pad27)*%
X73262500Y-98750000D03*
%TO.P,U1,28,PB15*%
%TO.N,unconnected-(U1-Pad28)*%
X73262500Y-98250000D03*
%TO.P,U1,29,PA8*%
%TO.N,unconnected-(U1-Pad29)*%
X73262500Y-97750000D03*
%TO.P,U1,30,PA9*%
%TO.N,unconnected-(U1-Pad30)*%
X73262500Y-97250000D03*
%TO.P,U1,31,PA10*%
%TO.N,unconnected-(U1-Pad31)*%
X73262500Y-96750000D03*
%TO.P,U1,32,PA11*%
%TO.N,unconnected-(U1-Pad32)*%
X73262500Y-96250000D03*
%TO.P,U1,33,PA12*%
%TO.N,unconnected-(U1-Pad33)*%
X73262500Y-95750000D03*
%TO.P,U1,34,PA13*%
%TO.N,SWDIO*%
X73262500Y-95250000D03*
%TO.P,U1,35,PF6*%
%TO.N,unconnected-(U1-Pad35)*%
X73262500Y-94750000D03*
%TO.P,U1,36,PF7*%
%TO.N,unconnected-(U1-Pad36)*%
X73262500Y-94250000D03*
D22*
%TO.P,U1,37,PA14*%
%TO.N,SWCLK*%
X71850000Y-92837500D03*
%TO.P,U1,38,PA15*%
%TO.N,unconnected-(U1-Pad38)*%
X71350000Y-92837500D03*
%TO.P,U1,39,PB3*%
%TO.N,unconnected-(U1-Pad39)*%
X70850000Y-92837500D03*
%TO.P,U1,40,PB4*%
%TO.N,unconnected-(U1-Pad40)*%
X70350000Y-92837500D03*
%TO.P,U1,41,PB5*%
%TO.N,unconnected-(U1-Pad41)*%
X69850000Y-92837500D03*
%TO.P,U1,42,PB6*%
%TO.N,unconnected-(U1-Pad42)*%
X69350000Y-92837500D03*
%TO.P,U1,43,PB7*%
%TO.N,unconnected-(U1-Pad43)*%
X68850000Y-92837500D03*
%TO.P,U1,44,BOOT0*%
%TO.N,GND*%
X68350000Y-92837500D03*
%TO.P,U1,45,PB8*%
%TO.N,SCL*%
X67850000Y-92837500D03*
%TO.P,U1,46,PB9*%
%TO.N,SDA*%
X67350000Y-92837500D03*
%TO.P,U1,47,VSS*%
%TO.N,GND*%
X66850000Y-92837500D03*
%TO.P,U1,48,VDD*%
%TO.N,VDDA*%
X66350000Y-92837500D03*
%TD*%
D23*
%TO.N,NRST*%
X64250000Y-103500000D03*
X63250000Y-95750000D03*
X85500000Y-76500000D03*
%TO.N,GND*%
X48000000Y-77500000D03*
X63000000Y-93500000D03*
X68500000Y-72250000D03*
X47000000Y-85250000D03*
X62250000Y-88000000D03*
X62250000Y-101000000D03*
X68250000Y-87000000D03*
X83000000Y-73250000D03*
X64500000Y-82500000D03*
X66500000Y-91000000D03*
X47000000Y-90500000D03*
X60000000Y-77750000D03*
X47000000Y-102000000D03*
X63750000Y-68750000D03*
X70750000Y-91250000D03*
X58250000Y-81500000D03*
X44500000Y-69750000D03*
X63000000Y-104750000D03*
X57250000Y-99250000D03*
X62750000Y-96750000D03*
X92750000Y-96000000D03*
X44500000Y-75250000D03*
X81250000Y-100000000D03*
X57250000Y-75250000D03*
X57250000Y-70500000D03*
X73500000Y-105000000D03*
%TO.N,VDDA*%
X83117157Y-81717157D03*
X73250000Y-86000000D03*
X46000000Y-98750000D03*
X72750000Y-101250000D03*
X67500000Y-77500000D03*
X70500000Y-86000000D03*
X58500000Y-94250000D03*
X65000000Y-87000000D03*
X62750000Y-99250000D03*
X64250000Y-93250000D03*
X63000000Y-89750000D03*
X57500000Y-89250000D03*
X58500000Y-96500000D03*
X81750000Y-94250000D03*
X57750000Y-101250000D03*
X46500000Y-82500000D03*
%TO.N,CHANGE_STATE*%
X55750000Y-92750000D03*
X55750000Y-87750000D03*
%TO.N,INC*%
X72800000Y-103400000D03*
X68250000Y-104250000D03*
%TO.N,DEC*%
X66750000Y-103000000D03*
X69750000Y-103000000D03*
%TO.N,SDA*%
X72500000Y-82750000D03*
X69500000Y-84750000D03*
%TO.N,SWCLK*%
X79750000Y-84000000D03*
X78737701Y-85762299D03*
%TO.N,SWDIO*%
X80750000Y-84500000D03*
X80000000Y-88500000D03*
%TD*%
D24*
%TO.N,MC_USB_5*%
X60462500Y-71462500D02*
X61500000Y-72500000D01*
X61500000Y-72500000D02*
X61500000Y-74900000D01*
X60462500Y-69250000D02*
X60462500Y-71462500D01*
%TO.N,VDDA*%
X59500000Y-97500000D02*
X58500000Y-96500000D01*
X59562500Y-97500000D02*
X59500000Y-97500000D01*
X62762500Y-89987500D02*
X63000000Y-89750000D01*
X62762500Y-91250000D02*
X62762500Y-89987500D01*
%TO.N,GND*%
X65087500Y-91000000D02*
X64837500Y-91250000D01*
X66500000Y-91000000D02*
X65087500Y-91000000D01*
X61950000Y-88300000D02*
X62250000Y-88000000D01*
X60937500Y-88300000D02*
X61950000Y-88300000D01*
%TO.N,VDDA*%
X57912500Y-89250000D02*
X58862500Y-88300000D01*
X57500000Y-89250000D02*
X57912500Y-89250000D01*
%TO.N,GND*%
X71700000Y-105000000D02*
X71350000Y-104650000D01*
X73500000Y-105000000D02*
X71700000Y-105000000D01*
X71350000Y-104650000D02*
X71350000Y-101162500D01*
%TO.N,INC*%
X84737500Y-97750000D02*
X86687500Y-95800000D01*
X72800000Y-102950000D02*
X78000000Y-97750000D01*
X72800000Y-103400000D02*
X72800000Y-102950000D01*
X78000000Y-97750000D02*
X84737500Y-97750000D01*
%TO.N,MC_USB_3.3*%
X65350000Y-76250000D02*
X65300000Y-76200000D01*
X77250000Y-76250000D02*
X65350000Y-76250000D01*
X77500000Y-76500000D02*
X77250000Y-76250000D01*
X80000000Y-86000000D02*
X77500000Y-83500000D01*
X82000000Y-86000000D02*
X80000000Y-86000000D01*
X82500000Y-85500000D02*
X82000000Y-86000000D01*
X77500000Y-83500000D02*
X77500000Y-76500000D01*
X82500000Y-83500000D02*
X82500000Y-85500000D01*
X81500000Y-82500000D02*
X82500000Y-83500000D01*
X81500000Y-81000000D02*
X81500000Y-82500000D01*
X82500000Y-80000000D02*
X81500000Y-81000000D01*
X83750000Y-80000000D02*
X82500000Y-80000000D01*
X84750000Y-81000000D02*
X83750000Y-80000000D01*
%TO.N,Net-(J2-Pad4)*%
X84750000Y-73250000D02*
X84750000Y-71595000D01*
X84750000Y-71595000D02*
X85745000Y-70600000D01*
X83000000Y-75000000D02*
X84750000Y-73250000D01*
X83000000Y-76500000D02*
X83000000Y-75000000D01*
X86000000Y-79500000D02*
X83000000Y-76500000D01*
X86000000Y-84750000D02*
X86000000Y-79500000D01*
X84750000Y-86000000D02*
X86000000Y-84750000D01*
%TO.N,VDDA*%
X84750000Y-83350000D02*
X83117157Y-81717157D01*
X84750000Y-83500000D02*
X84750000Y-83350000D01*
%TO.N,NRST*%
X63500000Y-96615006D02*
X63500000Y-96000000D01*
X88285000Y-73715000D02*
X85500000Y-76500000D01*
X64937500Y-97250000D02*
X64134994Y-97250000D01*
X64134994Y-97250000D02*
X63500000Y-96615006D01*
X65875000Y-105000000D02*
X69800000Y-105000000D01*
X88285000Y-70600000D02*
X88285000Y-73715000D01*
X65750000Y-105000000D02*
X64250000Y-103500000D01*
X63500000Y-96000000D02*
X63250000Y-95750000D01*
X65875000Y-105000000D02*
X65750000Y-105000000D01*
%TO.N,GND*%
X82612500Y-100500000D02*
X81750000Y-100500000D01*
X56612500Y-97800000D02*
X56612500Y-98612500D01*
X60550000Y-77100000D02*
X60550000Y-77200000D01*
X48275000Y-90200000D02*
X47300000Y-90200000D01*
X60950000Y-102000000D02*
X61250000Y-102000000D01*
X58000000Y-81750000D02*
X58250000Y-81500000D01*
X44850000Y-75600000D02*
X44500000Y-75250000D01*
X92450000Y-95700000D02*
X92750000Y-96000000D01*
X64937500Y-97750000D02*
X63750000Y-97750000D01*
X83000000Y-73250000D02*
X83205000Y-73045000D01*
X55350000Y-75600000D02*
X56900000Y-75600000D01*
X61550000Y-97500000D02*
X62000000Y-97500000D01*
X56612500Y-98612500D02*
X57250000Y-99250000D01*
X47300000Y-90200000D02*
X47000000Y-90500000D01*
X67500000Y-73250000D02*
X68500000Y-72250000D01*
X91412500Y-95700000D02*
X92450000Y-95700000D01*
X63750000Y-97750000D02*
X62750000Y-96750000D01*
X46450000Y-70150000D02*
X44900000Y-70150000D01*
X81750000Y-100500000D02*
X81250000Y-100000000D01*
X67200000Y-73250000D02*
X67500000Y-73250000D01*
X62750000Y-105000000D02*
X63000000Y-104750000D01*
X67500000Y-88600000D02*
X67500000Y-87750000D01*
X70750000Y-91250000D02*
X69134994Y-91250000D01*
X49300000Y-76200000D02*
X48000000Y-77500000D01*
X66850000Y-91350000D02*
X66500000Y-91000000D01*
X55350000Y-70150000D02*
X56900000Y-70150000D01*
X61250000Y-102000000D02*
X62250000Y-101000000D01*
X48237500Y-85500000D02*
X47250000Y-85500000D01*
X60550000Y-77200000D02*
X60000000Y-77750000D01*
X62450000Y-69250000D02*
X63250000Y-69250000D01*
X68350000Y-92034994D02*
X68350000Y-92837500D01*
X61725000Y-105000000D02*
X62750000Y-105000000D01*
X64500000Y-82500000D02*
X65200000Y-81800000D01*
X56900000Y-70150000D02*
X57250000Y-70500000D01*
X67500000Y-87750000D02*
X68250000Y-87000000D01*
X47250000Y-85500000D02*
X47000000Y-85250000D01*
X63250000Y-69250000D02*
X63750000Y-68750000D01*
X46450000Y-75600000D02*
X44850000Y-75600000D01*
X83205000Y-73045000D02*
X83205000Y-70600000D01*
X69134994Y-91250000D02*
X68350000Y-92034994D01*
X44900000Y-70150000D02*
X44500000Y-69750000D01*
X56900000Y-75600000D02*
X57250000Y-75250000D01*
X56912500Y-81750000D02*
X58000000Y-81750000D01*
X65200000Y-81800000D02*
X65200000Y-79975000D01*
X62000000Y-97500000D02*
X62750000Y-96750000D01*
X66850000Y-92837500D02*
X66850000Y-91350000D01*
X49300000Y-75700000D02*
X49300000Y-76200000D01*
X47600000Y-102600000D02*
X47000000Y-102000000D01*
X48237500Y-102600000D02*
X47600000Y-102600000D01*
X61700000Y-93500000D02*
X63000000Y-93500000D01*
%TO.N,VDDA*%
X64937500Y-93937500D02*
X64250000Y-93250000D01*
X47250000Y-81750000D02*
X46500000Y-82500000D01*
X71250000Y-86750000D02*
X70500000Y-86000000D01*
X82537500Y-95800000D02*
X82537500Y-95037500D01*
X65600000Y-87600000D02*
X65000000Y-87000000D01*
X66350000Y-92837500D02*
X64662500Y-92837500D01*
X47925000Y-81750000D02*
X47250000Y-81750000D01*
X71250000Y-87337500D02*
X71250000Y-86750000D01*
X71850000Y-101162500D02*
X72662500Y-101162500D01*
X59050000Y-102000000D02*
X58500000Y-102000000D01*
X73750000Y-86500000D02*
X73250000Y-86000000D01*
X64937500Y-98250000D02*
X63750000Y-98250000D01*
X47350000Y-97700000D02*
X47050000Y-97700000D01*
X65600000Y-88600000D02*
X65600000Y-87600000D01*
X82537500Y-95037500D02*
X81750000Y-94250000D01*
X56537500Y-90212500D02*
X57500000Y-89250000D01*
X67500000Y-77500000D02*
X67740000Y-77740000D01*
X59800000Y-93500000D02*
X59250000Y-93500000D01*
X56537500Y-90500000D02*
X56537500Y-90212500D01*
X64937500Y-94250000D02*
X64937500Y-93937500D01*
X72662500Y-101162500D02*
X72750000Y-101250000D01*
X64662500Y-92837500D02*
X64250000Y-93250000D01*
X58500000Y-102000000D02*
X57750000Y-101250000D01*
X63750000Y-98250000D02*
X62750000Y-99250000D01*
X47050000Y-97700000D02*
X46000000Y-98750000D01*
X73750000Y-87337500D02*
X73750000Y-86500000D01*
X67740000Y-77740000D02*
X67740000Y-79975000D01*
X59250000Y-93500000D02*
X58500000Y-94250000D01*
%TO.N,Net-(D1-Pad1)*%
X54662500Y-90500000D02*
X54362500Y-90200000D01*
X54362500Y-90200000D02*
X51200000Y-90200000D01*
%TO.N,Net-(D2-Pad1)*%
X51412500Y-85750000D02*
X51162500Y-85500000D01*
X53812500Y-85750000D02*
X51412500Y-85750000D01*
%TO.N,CHANGE_STATE*%
X55087500Y-81750000D02*
X55087500Y-83087500D01*
X60000000Y-94750000D02*
X59500000Y-95250000D01*
X55087500Y-83087500D02*
X55750000Y-83750000D01*
X55750000Y-85812500D02*
X55687500Y-85750000D01*
X55750000Y-85687500D02*
X55687500Y-85750000D01*
X57000000Y-95000000D02*
X55750000Y-93750000D01*
X64937500Y-94750000D02*
X60000000Y-94750000D01*
X55750000Y-93750000D02*
X55750000Y-92750000D01*
X57250000Y-95250000D02*
X57000000Y-95000000D01*
X55750000Y-87750000D02*
X55750000Y-85812500D01*
X59500000Y-95250000D02*
X57250000Y-95250000D01*
X55750000Y-83750000D02*
X55750000Y-85687500D01*
X55087500Y-81750000D02*
X52075000Y-81750000D01*
%TO.N,Net-(D3-Pad1)*%
X85537500Y-100500000D02*
X87862500Y-100500000D01*
X87862500Y-100500000D02*
X88062500Y-100300000D01*
%TO.N,INC*%
X68250000Y-104250000D02*
X68250000Y-103700000D01*
X68250000Y-103700000D02*
X68850000Y-103100000D01*
X86687500Y-95800000D02*
X89487500Y-95800000D01*
X89587500Y-95700000D02*
X89937500Y-96050000D01*
X89487500Y-95800000D02*
X89587500Y-95700000D01*
X89937500Y-96050000D02*
X89937500Y-100300000D01*
X68850000Y-103100000D02*
X68850000Y-101162500D01*
%TO.N,Net-(D4-Pad1)*%
X51362500Y-102800000D02*
X54225000Y-102800000D01*
X51162500Y-102600000D02*
X51362500Y-102800000D01*
%TO.N,DEC*%
X66500000Y-102750000D02*
X66750000Y-103000000D01*
X56100000Y-99112500D02*
X54787500Y-97800000D01*
X63000000Y-102750000D02*
X66500000Y-102750000D01*
X56800000Y-103500000D02*
X62250000Y-103500000D01*
X54687500Y-97700000D02*
X51500000Y-97700000D01*
X69850000Y-102900000D02*
X69850000Y-101162500D01*
X69750000Y-103000000D02*
X69850000Y-102900000D01*
X62250000Y-103500000D02*
X63000000Y-102750000D01*
X56100000Y-102800000D02*
X56100000Y-99112500D01*
X54787500Y-97800000D02*
X54687500Y-97700000D01*
X56100000Y-102800000D02*
X56800000Y-103500000D01*
%TO.N,SCL*%
X72362020Y-90550480D02*
X73750000Y-89162500D01*
X75750000Y-84000000D02*
X75750000Y-89250000D01*
X67874991Y-90525489D02*
X72337029Y-90525489D01*
X67850000Y-90550480D02*
X67874991Y-90525489D01*
X72337029Y-90525489D02*
X72362020Y-90550480D01*
X75750000Y-89250000D02*
X73837500Y-89250000D01*
X71500000Y-84000000D02*
X75750000Y-84000000D01*
X70280000Y-79975000D02*
X70280000Y-82780000D01*
X70280000Y-82780000D02*
X71500000Y-84000000D01*
X67850000Y-92837500D02*
X67850000Y-90550480D01*
X73837500Y-89250000D02*
X73750000Y-89162500D01*
%TO.N,SDA*%
X69337500Y-89162500D02*
X68500000Y-90000000D01*
X69662500Y-89162500D02*
X69337500Y-89162500D01*
X72820000Y-82430000D02*
X72500000Y-82750000D01*
X67500000Y-90000000D02*
X67350000Y-90150000D01*
X71250000Y-89162500D02*
X69662500Y-89162500D01*
X68500000Y-90000000D02*
X67500000Y-90000000D01*
X67350000Y-90150000D02*
X67350000Y-92837500D01*
X72820000Y-79975000D02*
X72820000Y-82430000D01*
X69662500Y-84912500D02*
X69662500Y-89162500D01*
X69500000Y-84750000D02*
X69662500Y-84912500D01*
%TO.N,SWCLK*%
X78737701Y-88012299D02*
X78737701Y-85762299D01*
X78125000Y-74125000D02*
X78125000Y-70600000D01*
X77250000Y-89500000D02*
X78737701Y-88012299D01*
X78125000Y-74125000D02*
X78250000Y-74250000D01*
X79750000Y-76250000D02*
X78250000Y-74750000D01*
X71850000Y-92837500D02*
X73912500Y-92837500D01*
X73912500Y-92837500D02*
X77250000Y-89500000D01*
X79750000Y-84000000D02*
X79750000Y-76250000D01*
X78250000Y-74250000D02*
X78250000Y-74750000D01*
%TO.N,SWDIO*%
X73262500Y-95250000D02*
X76250000Y-95250000D01*
X80000000Y-91500000D02*
X80000000Y-89250000D01*
X80000000Y-89250000D02*
X80000000Y-88500000D01*
X80750000Y-84500000D02*
X80665000Y-84415000D01*
X76250000Y-95250000D02*
X80000000Y-91500000D01*
X80665000Y-84415000D02*
X80665000Y-70600000D01*
%TO.N,MC_USB_5*%
X60100000Y-74900000D02*
X61500000Y-74900000D01*
X52500000Y-77000000D02*
X53250000Y-77750000D01*
X53250000Y-77750000D02*
X57250000Y-77750000D01*
X57250000Y-77750000D02*
X60100000Y-74900000D01*
X52500000Y-75700000D02*
X52500000Y-77000000D01*
%TO.N,MC_USB_3.3*%
X65300000Y-76200000D02*
X64400000Y-77100000D01*
X65300000Y-76200000D02*
X65300000Y-73250000D01*
X62450000Y-77100000D02*
X64400000Y-77100000D01*
%TD*%
M02*
