%TF.GenerationSoftware,KiCad,Pcbnew,(6.0.1)*%
%TF.CreationDate,2022-04-19T02:49:18-05:00*%
%TF.ProjectId,pcb_w_STM32F030C8T6,7063625f-775f-4535-944d-333246303330,rev?*%
%TF.SameCoordinates,Original*%
%TF.FileFunction,Copper,L4,Bot*%
%TF.FilePolarity,Positive*%
%FSLAX46Y46*%
G04 Gerber Fmt 4.6, Leading zero omitted, Abs format (unit mm)*
G04 Created by KiCad (PCBNEW (6.0.1)) date 2022-04-19 02:49:18*
%MOMM*%
%LPD*%
G01*
G04 APERTURE LIST*
%TA.AperFunction,ComponentPad*%
%ADD10R,1.700000X1.700000*%
%TD*%
%TA.AperFunction,ComponentPad*%
%ADD11O,1.700000X1.700000*%
%TD*%
%TA.AperFunction,ViaPad*%
%ADD12C,0.800000*%
%TD*%
%TA.AperFunction,Conductor*%
%ADD13C,0.250000*%
%TD*%
G04 APERTURE END LIST*
D10*
%TO.P,J2,1,Pin_1*%
%TO.N,SWCLK*%
X78125000Y-70600000D03*
D11*
%TO.P,J2,2,Pin_2*%
%TO.N,SWDIO*%
X80665000Y-70600000D03*
%TO.P,J2,3,Pin_3*%
%TO.N,GND*%
X83205000Y-70600000D03*
%TO.P,J2,4,Pin_4*%
%TO.N,Net-(J2-Pad4)*%
X85745000Y-70600000D03*
%TO.P,J2,5,Pin_5*%
%TO.N,NRST*%
X88285000Y-70600000D03*
%TD*%
D10*
%TO.P,J1,1,Pin_1*%
%TO.N,GND*%
X65200000Y-79975000D03*
D11*
%TO.P,J1,2,Pin_2*%
%TO.N,VDDA*%
X67740000Y-79975000D03*
%TO.P,J1,3,Pin_3*%
%TO.N,SCL*%
X70280000Y-79975000D03*
%TO.P,J1,4,Pin_4*%
%TO.N,SDA*%
X72820000Y-79975000D03*
%TD*%
D12*
%TO.N,NRST*%
X64250000Y-103500000D03*
X63250000Y-95750000D03*
X85500000Y-76500000D03*
%TO.N,GND*%
X48000000Y-77500000D03*
X63000000Y-93500000D03*
X68500000Y-72250000D03*
X47000000Y-85250000D03*
X62250000Y-88000000D03*
X62250000Y-101000000D03*
X68250000Y-87000000D03*
X83000000Y-73250000D03*
X64500000Y-82500000D03*
X66500000Y-91000000D03*
X47000000Y-90500000D03*
X60000000Y-77750000D03*
X47000000Y-102000000D03*
X63750000Y-68750000D03*
X70750000Y-91250000D03*
X58250000Y-81500000D03*
X44500000Y-69750000D03*
X63000000Y-104750000D03*
X57250000Y-99250000D03*
X62750000Y-96750000D03*
X92750000Y-96000000D03*
X44500000Y-75250000D03*
X81250000Y-100000000D03*
X57250000Y-75250000D03*
X57250000Y-70500000D03*
X73500000Y-105000000D03*
%TO.N,VDDA*%
X83117157Y-81717157D03*
X73250000Y-86000000D03*
X46000000Y-98750000D03*
X72750000Y-101250000D03*
X67500000Y-77500000D03*
X70500000Y-86000000D03*
X58500000Y-94250000D03*
X65000000Y-87000000D03*
X62750000Y-99250000D03*
X64250000Y-93250000D03*
X63000000Y-89750000D03*
X57500000Y-89250000D03*
X58500000Y-96500000D03*
X81750000Y-94250000D03*
X57750000Y-101250000D03*
X46500000Y-82500000D03*
%TO.N,CHANGE_STATE*%
X55750000Y-92750000D03*
X55750000Y-87750000D03*
%TO.N,INC*%
X72800000Y-103400000D03*
X68250000Y-104250000D03*
%TO.N,DEC*%
X66750000Y-103000000D03*
X69750000Y-103000000D03*
%TO.N,SDA*%
X72500000Y-82750000D03*
X69500000Y-84750000D03*
%TO.N,SWCLK*%
X79750000Y-84000000D03*
X78737701Y-85762299D03*
%TO.N,SWDIO*%
X80750000Y-84500000D03*
X80000000Y-88500000D03*
%TD*%
D13*
%TO.N,INC*%
X68750000Y-103750000D02*
X68250000Y-104250000D01*
X72450000Y-103750000D02*
X68750000Y-103750000D01*
X72800000Y-103400000D02*
X72450000Y-103750000D01*
%TO.N,NRST*%
X73250000Y-95750000D02*
X68500000Y-95750000D01*
X76500000Y-85500000D02*
X85500000Y-76500000D01*
X68500000Y-95750000D02*
X63250000Y-95750000D01*
X76500000Y-92500000D02*
X76500000Y-85500000D01*
X64250000Y-100000000D02*
X68500000Y-95750000D01*
X64250000Y-103500000D02*
X64250000Y-100000000D01*
X73250000Y-95750000D02*
X76500000Y-92500000D01*
%TO.N,CHANGE_STATE*%
X55750000Y-92750000D02*
X55750000Y-87750000D01*
%TO.N,DEC*%
X66750000Y-103000000D02*
X69750000Y-103000000D01*
%TO.N,SDA*%
X72500000Y-82750000D02*
X70500000Y-84750000D01*
X70500000Y-84750000D02*
X69500000Y-84750000D01*
%TO.N,SWCLK*%
X78737701Y-85762299D02*
X78737701Y-85012299D01*
X78737701Y-85012299D02*
X79750000Y-84000000D01*
%TO.N,SWDIO*%
X80000000Y-88500000D02*
X80750000Y-87750000D01*
X80750000Y-87750000D02*
X80750000Y-85000000D01*
X80750000Y-85000000D02*
X80750000Y-84500000D01*
%TD*%
M02*
