M48
; DRILL file {KiCad (6.0.1)} date Wed Apr 20 02:22:29 2022
; FORMAT={-:-/ absolute / inch / decimal}
; #@! TF.CreationDate,2022-04-20T02:22:29-05:00
; #@! TF.GenerationSoftware,Kicad,Pcbnew,(6.0.1)
; #@! TF.FileFunction,Plated,1,4,PTH
FMAT,2
INCH
; #@! TA.AperFunction,Plated,PTH,ViaDrill
T1C0.0157
; #@! TA.AperFunction,Plated,PTH,ComponentDrill
T2C0.0394
%
G90
G05
T1
X1.7146Y-2.9341
X1.7165Y-3.0118
X1.7215Y-2.7795
X1.7224Y-2.7077
X1.7963Y-3.4281
X1.872Y-3.8514
X1.8848Y-3.189
X1.8868Y-4.0827
X1.9075Y-3.0541
X2.0098Y-4.0689
X2.1309Y-3.0571
X2.2323Y-2.7293
X2.2333Y-2.7785
X2.248Y-3.0049
X2.2506Y-2.9467
X2.2766Y-2.8366
X2.3012Y-2.8976
X2.3297Y-3.4075
X2.3386Y-3.6358
X2.4035Y-3.8002
X2.4104Y-3.4813
X2.4134Y-3.6014
X2.4154Y-3.5394
X2.4508Y-3.438
X2.4616Y-3.7953
X2.4754Y-2.7943
X2.4764Y-2.8346
X2.4813Y-2.8878
X2.4823Y-3.1516
X2.5315Y-3.7726
X2.5581Y-3.5866
X2.5837Y-3.1545
X2.6614Y-3.5965
X2.6654Y-3.6545
X2.6781Y-3.3051
X2.685Y-3.7156
X2.7067Y-3.1919
X2.7264Y-2.9262
X2.7323Y-3.876
X2.7549Y-3.0276
X2.7618Y-3.4183
X2.7659Y-3.1731
X2.7726Y-3.0837
X2.7805Y-3.2864
X2.8179Y-2.9006
X2.8455Y-3.1004
X2.8504Y-3.372
X2.8543Y-3.877
X2.8622Y-3.4616
X2.873Y-3.627
X2.8819Y-3.5472
X2.9144Y-3.6998
X2.9183Y-3.2549
X2.9203Y-3.3189
X2.9242Y-3.187
X2.9409Y-3.6476
X3.0256Y-2.9163
X3.065Y-3.7972
X3.0866Y-3.1024
X3.1713Y-3.0108
X3.2028Y-3.0856
X3.2234Y-3.6781
X3.3219Y-3.0394
X3.3258Y-2.872
X3.4183Y-3.0571
X3.4272Y-2.936
X3.4449Y-3.1762
X3.4528Y-3.128
X3.4656Y-3.4537
X3.5059Y-4.0295
T2
X2.5886Y-2.7461
X2.6886Y-2.7461
X2.7886Y-2.7461
X2.8886Y-2.7461
X3.088Y-2.75
X3.188Y-2.75
X3.288Y-2.75
X3.388Y-2.75
X3.488Y-2.75
T0
M30
