%TF.GenerationSoftware,KiCad,Pcbnew,(6.0.1)*%
%TF.CreationDate,2022-04-20T02:22:31-05:00*%
%TF.ProjectId,pcb_w_STM32F030C8T6,7063625f-775f-4535-944d-333246303330,rev?*%
%TF.SameCoordinates,Original*%
%TF.FileFunction,Paste,Top*%
%TF.FilePolarity,Positive*%
%FSLAX46Y46*%
G04 Gerber Fmt 4.6, Leading zero omitted, Abs format (unit mm)*
G04 Created by KiCad (PCBNEW (6.0.1)) date 2022-04-20 02:22:31*
%MOMM*%
%LPD*%
G01*
G04 APERTURE LIST*
G04 Aperture macros list*
%AMRoundRect*
0 Rectangle with rounded corners*
0 $1 Rounding radius*
0 $2 $3 $4 $5 $6 $7 $8 $9 X,Y pos of 4 corners*
0 Add a 4 corners polygon primitive as box body*
4,1,4,$2,$3,$4,$5,$6,$7,$8,$9,$2,$3,0*
0 Add four circle primitives for the rounded corners*
1,1,$1+$1,$2,$3*
1,1,$1+$1,$4,$5*
1,1,$1+$1,$6,$7*
1,1,$1+$1,$8,$9*
0 Add four rect primitives between the rounded corners*
20,1,$1+$1,$2,$3,$4,$5,0*
20,1,$1+$1,$4,$5,$6,$7,0*
20,1,$1+$1,$6,$7,$8,$9,0*
20,1,$1+$1,$8,$9,$2,$3,0*%
%AMFreePoly0*
4,1,17,0.230680,0.111820,0.364318,-0.021819,0.364320,-0.021820,0.364320,-0.021821,0.377501,-0.053640,0.377500,-0.053642,0.377500,-0.080000,0.364320,-0.111820,0.332500,-0.125000,-0.332500,-0.125000,-0.364320,-0.111820,-0.377500,-0.080000,-0.377500,0.080000,-0.364320,0.111820,-0.332500,0.125000,0.198860,0.125000,0.230680,0.111820,0.230680,0.111820,$1*%
%AMFreePoly1*
4,1,17,0.364320,0.111820,0.377500,0.080000,0.377500,0.053642,0.377501,0.053640,0.369779,0.035000,0.364320,0.021820,0.364318,0.021819,0.230680,-0.111820,0.198860,-0.125000,-0.332500,-0.125000,-0.364320,-0.111820,-0.377500,-0.080000,-0.377500,0.080000,-0.364320,0.111820,-0.332500,0.125000,0.332500,0.125000,0.364320,0.111820,0.364320,0.111820,$1*%
%AMFreePoly2*
4,1,17,0.053642,0.377500,0.080000,0.377500,0.111820,0.364320,0.125000,0.332500,0.125000,-0.332500,0.111820,-0.364320,0.080000,-0.377500,-0.080000,-0.377500,-0.111820,-0.364320,-0.125000,-0.332500,-0.125000,0.198860,-0.111820,0.230680,0.021819,0.364318,0.021820,0.364320,0.031140,0.368181,0.053640,0.377501,0.053642,0.377500,0.053642,0.377500,$1*%
%AMFreePoly3*
4,1,17,-0.021820,0.364320,0.111818,0.230681,0.111820,0.230680,0.111820,0.230679,0.125001,0.198860,0.125000,0.198858,0.125000,-0.332500,0.111820,-0.364320,0.080000,-0.377500,-0.080000,-0.377500,-0.111820,-0.364320,-0.125000,-0.332500,-0.125000,0.332500,-0.111820,0.364320,-0.080000,0.377500,-0.053640,0.377500,-0.021820,0.364320,-0.021820,0.364320,$1*%
%AMFreePoly4*
4,1,17,0.364320,0.111820,0.377500,0.080000,0.377500,-0.080000,0.364320,-0.111820,0.332500,-0.125000,-0.198858,-0.125000,-0.198860,-0.125001,-0.221360,-0.115681,-0.230680,-0.111820,-0.230681,-0.111818,-0.364320,0.021820,-0.377500,0.053640,-0.377500,0.080000,-0.364320,0.111820,-0.332500,0.125000,0.332500,0.125000,0.364320,0.111820,0.364320,0.111820,$1*%
%AMFreePoly5*
4,1,17,-0.198858,0.125000,0.332500,0.125000,0.364320,0.111820,0.377500,0.080000,0.377500,-0.080000,0.364320,-0.111820,0.332500,-0.125000,-0.332500,-0.125000,-0.364320,-0.111820,-0.377500,-0.080000,-0.377500,-0.053640,-0.364320,-0.021820,-0.230681,0.111818,-0.230680,0.111820,-0.221360,0.115681,-0.198860,0.125001,-0.198858,0.125000,-0.198858,0.125000,$1*%
%AMFreePoly6*
4,1,17,0.111820,0.364320,0.125000,0.332500,0.125000,-0.198858,0.125001,-0.198860,0.115681,-0.221360,0.111820,-0.230680,0.111818,-0.230681,-0.021820,-0.364320,-0.053640,-0.377500,-0.080000,-0.377500,-0.111820,-0.364320,-0.125000,-0.332500,-0.125000,0.332500,-0.111820,0.364320,-0.080000,0.377500,0.080000,0.377500,0.111820,0.364320,0.111820,0.364320,$1*%
%AMFreePoly7*
4,1,17,0.111820,0.364320,0.125000,0.332500,0.125000,-0.332500,0.111820,-0.364320,0.080000,-0.377500,0.053642,-0.377500,0.053640,-0.377501,0.031140,-0.368181,0.021820,-0.364320,0.021819,-0.364318,-0.111820,-0.230680,-0.125000,-0.198860,-0.125000,0.332500,-0.111820,0.364320,-0.080000,0.377500,0.080000,0.377500,0.111820,0.364320,0.111820,0.364320,$1*%
G04 Aperture macros list end*
%ADD10R,1.910000X0.610000*%
%ADD11R,0.723000X0.930000*%
%ADD12RoundRect,0.250000X-0.350000X-0.450000X0.350000X-0.450000X0.350000X0.450000X-0.350000X0.450000X0*%
%ADD13RoundRect,0.250000X-0.337500X-0.475000X0.337500X-0.475000X0.337500X0.475000X-0.337500X0.475000X0*%
%ADD14RoundRect,0.250000X0.475000X-0.337500X0.475000X0.337500X-0.475000X0.337500X-0.475000X-0.337500X0*%
%ADD15RoundRect,0.250000X-0.325000X-0.450000X0.325000X-0.450000X0.325000X0.450000X-0.325000X0.450000X0*%
%ADD16FreePoly0,0.000000*%
%ADD17RoundRect,0.062500X-0.375000X-0.062500X0.375000X-0.062500X0.375000X0.062500X-0.375000X0.062500X0*%
%ADD18FreePoly1,0.000000*%
%ADD19FreePoly2,0.000000*%
%ADD20RoundRect,0.062500X-0.062500X-0.375000X0.062500X-0.375000X0.062500X0.375000X-0.062500X0.375000X0*%
%ADD21FreePoly3,0.000000*%
%ADD22FreePoly4,0.000000*%
%ADD23FreePoly5,0.000000*%
%ADD24FreePoly6,0.000000*%
%ADD25FreePoly7,0.000000*%
%ADD26RoundRect,0.300000X0.500000X-0.300000X0.500000X0.300000X-0.500000X0.300000X-0.500000X-0.300000X0*%
%ADD27RoundRect,0.250000X-0.475000X0.337500X-0.475000X-0.337500X0.475000X-0.337500X0.475000X0.337500X0*%
%ADD28RoundRect,0.400000X-0.690000X-0.400000X0.690000X-0.400000X0.690000X0.400000X-0.690000X0.400000X0*%
%ADD29R,0.500000X2.000000*%
%ADD30R,2.000000X1.700000*%
G04 APERTURE END LIST*
D10*
%TO.C,U2*%
X60345000Y-75990000D03*
X60345000Y-74720000D03*
X60345000Y-77260000D03*
X60345000Y-78530000D03*
D11*
X62522500Y-75850000D03*
X63727500Y-75850000D03*
X62522500Y-77400000D03*
X63727500Y-77400000D03*
D10*
X65905000Y-78530000D03*
X65905000Y-77260000D03*
X65905000Y-75990000D03*
X65905000Y-74720000D03*
%TD*%
D12*
%TO.C,R11*%
X55700000Y-78400000D03*
X57700000Y-78400000D03*
%TD*%
%TO.C,R10*%
X59425000Y-80850000D03*
X61425000Y-80850000D03*
%TD*%
D13*
%TO.C,C8*%
X59487500Y-72025000D03*
X61562500Y-72025000D03*
%TD*%
%TO.C,C5*%
X59312500Y-69525000D03*
X61387500Y-69525000D03*
%TD*%
%TO.C,C4*%
X67137500Y-72725000D03*
X69212500Y-72725000D03*
%TD*%
D14*
%TO.C,C3*%
X69050000Y-92537500D03*
X69050000Y-90462500D03*
%TD*%
%TO.C,C2*%
X71425000Y-92462500D03*
X71425000Y-90387500D03*
%TD*%
D15*
%TO.C,D4*%
X57450000Y-101775000D03*
X59500000Y-101775000D03*
%TD*%
D16*
%TO.C,U1*%
X62452500Y-89250000D03*
D17*
X62512500Y-89750000D03*
X62512500Y-90250000D03*
X62512500Y-90750000D03*
X62512500Y-91250000D03*
X62512500Y-91750000D03*
D18*
X62452500Y-92250000D03*
D19*
X62950000Y-92747500D03*
D20*
X63450000Y-92687500D03*
X63950000Y-92687500D03*
X64450000Y-92687500D03*
X64950000Y-92687500D03*
X65450000Y-92687500D03*
D21*
X65950000Y-92747500D03*
D22*
X66447500Y-92250000D03*
D17*
X66387500Y-91750000D03*
X66387500Y-91250000D03*
X66387500Y-90750000D03*
X66387500Y-90250000D03*
X66387500Y-89750000D03*
D23*
X66447500Y-89250000D03*
D24*
X65950000Y-88752500D03*
D20*
X65450000Y-88812500D03*
X64950000Y-88812500D03*
X64450000Y-88812500D03*
X63950000Y-88812500D03*
X63450000Y-88812500D03*
D25*
X62950000Y-88752500D03*
%TD*%
D12*
%TO.C,R1*%
X69075000Y-85525000D03*
X71075000Y-85525000D03*
%TD*%
D26*
%TO.C,SW2*%
X92000000Y-76950000D03*
X89200000Y-76950000D03*
X92000000Y-79450000D03*
X89200000Y-79450000D03*
X92000000Y-81950000D03*
X89200000Y-81950000D03*
%TD*%
D15*
%TO.C,D2*%
X54000000Y-81075000D03*
X56050000Y-81075000D03*
%TD*%
D12*
%TO.C,R4*%
X49450000Y-80950000D03*
X51450000Y-80950000D03*
%TD*%
%TO.C,R5*%
X82375000Y-95100000D03*
X84375000Y-95100000D03*
%TD*%
D27*
%TO.C,C7*%
X72500000Y-94987500D03*
X72500000Y-97062500D03*
%TD*%
D12*
%TO.C,R3*%
X78200000Y-74750000D03*
X80200000Y-74750000D03*
%TD*%
D27*
%TO.C,C6*%
X69725000Y-94987500D03*
X69725000Y-97062500D03*
%TD*%
D12*
%TO.C,R8*%
X85675000Y-103025000D03*
X87675000Y-103025000D03*
%TD*%
%TO.C,R9*%
X45825000Y-102125000D03*
X47825000Y-102125000D03*
%TD*%
D14*
%TO.C,C1*%
X59625000Y-90212500D03*
X59625000Y-88137500D03*
%TD*%
D28*
%TO.C,SW5*%
X49660000Y-98425000D03*
X58840000Y-98425000D03*
%TD*%
D29*
%TO.C,J3*%
X51825000Y-75525000D03*
X51025000Y-75525000D03*
X50225000Y-75525000D03*
X49425000Y-75525000D03*
X48625000Y-75525000D03*
D30*
X54675000Y-75425000D03*
X45775000Y-75425000D03*
X54675000Y-69975000D03*
X45775000Y-69975000D03*
%TD*%
D15*
%TO.C,D1*%
X82475000Y-74750000D03*
X84525000Y-74750000D03*
%TD*%
D12*
%TO.C,R2*%
X69325000Y-88075000D03*
X71325000Y-88075000D03*
%TD*%
D28*
%TO.C,SW4*%
X79860000Y-98875000D03*
X89040000Y-98875000D03*
%TD*%
%TO.C,SW3*%
X76210000Y-83550000D03*
X85390000Y-83550000D03*
%TD*%
D12*
%TO.C,R7*%
X84400000Y-87425000D03*
X86400000Y-87425000D03*
%TD*%
D15*
%TO.C,D3*%
X87325000Y-95225000D03*
X89375000Y-95225000D03*
%TD*%
D12*
%TO.C,R6*%
X52450000Y-101800000D03*
X54450000Y-101800000D03*
%TD*%
D28*
%TO.C,SW1*%
X46860000Y-84425000D03*
X56040000Y-84425000D03*
%TD*%
M02*
