%TF.GenerationSoftware,KiCad,Pcbnew,(6.0.1)*%
%TF.CreationDate,2022-04-20T02:22:31-05:00*%
%TF.ProjectId,pcb_w_STM32F030C8T6,7063625f-775f-4535-944d-333246303330,rev?*%
%TF.SameCoordinates,Original*%
%TF.FileFunction,Copper,L2,Inr*%
%TF.FilePolarity,Positive*%
%FSLAX46Y46*%
G04 Gerber Fmt 4.6, Leading zero omitted, Abs format (unit mm)*
G04 Created by KiCad (PCBNEW (6.0.1)) date 2022-04-20 02:22:31*
%MOMM*%
%LPD*%
G01*
G04 APERTURE LIST*
%TA.AperFunction,ComponentPad*%
%ADD10R,1.700000X1.700000*%
%TD*%
%TA.AperFunction,ComponentPad*%
%ADD11O,1.700000X1.700000*%
%TD*%
%TA.AperFunction,ViaPad*%
%ADD12C,0.800000*%
%TD*%
G04 APERTURE END LIST*
D10*
%TO.N,SWCLK*%
%TO.C,J2*%
X78435000Y-69850000D03*
D11*
%TO.N,SWDIO*%
X80975000Y-69850000D03*
%TO.N,GND*%
X83515000Y-69850000D03*
%TO.N,Net-(J2-Pad4)*%
X86055000Y-69850000D03*
%TO.N,NRST*%
X88595000Y-69850000D03*
%TD*%
D10*
%TO.N,GND*%
%TO.C,J1*%
X65750000Y-69750000D03*
D11*
%TO.N,VDDA*%
X68290000Y-69750000D03*
%TO.N,SCL*%
X70830000Y-69750000D03*
%TO.N,SDA*%
X73370000Y-69750000D03*
%TD*%
D12*
%TO.N,GND*%
X69250000Y-74325000D03*
%TO.N,Net-(C5-Pad2)*%
X62875000Y-70975000D03*
X58450000Y-73600000D03*
%TO.N,MC_USB_3.3*%
X63050000Y-80050000D03*
X57825000Y-72050000D03*
%TO.N,MC_USB_5*%
X65625000Y-80125000D03*
X54125000Y-77650000D03*
%TO.N,MC_USB_3.3*%
X81350000Y-78375000D03*
X80550000Y-76475500D03*
%TO.N,GND*%
X63025000Y-73350000D03*
X62900000Y-72000000D03*
X69400000Y-98450000D03*
X67600000Y-91350000D03*
X43750000Y-68775000D03*
X57100000Y-76325000D03*
X43600000Y-76500000D03*
X88025000Y-87725000D03*
X51050000Y-103350000D03*
X59175000Y-86550000D03*
X47925000Y-103700000D03*
X43550000Y-74525000D03*
X76850000Y-74075000D03*
X43725000Y-70600000D03*
X81875000Y-93425000D03*
X72500000Y-98475000D03*
X48450000Y-77575000D03*
X73200000Y-90100000D03*
X89050000Y-102350000D03*
X57165468Y-74847117D03*
X47875000Y-81000000D03*
X56725000Y-70575000D03*
X56700000Y-69325000D03*
X62250000Y-87325000D03*
X45625000Y-87075000D03*
%TO.N,VDDA*%
X47550000Y-97825000D03*
X77850000Y-96450000D03*
X64975000Y-91100000D03*
X74125000Y-82675000D03*
X87700000Y-79450000D03*
X72400000Y-85650000D03*
X74175000Y-84300000D03*
X72700000Y-87925000D03*
X84475000Y-72950000D03*
X61300000Y-91475000D03*
X67700000Y-92825000D03*
X68200000Y-94375000D03*
X72975000Y-92125000D03*
X74025000Y-93975000D03*
%TO.N,NRST*%
X61350000Y-89900000D03*
X70625000Y-83475000D03*
X74275000Y-80950000D03*
X87050000Y-74575000D03*
X84375000Y-77200000D03*
X78400000Y-78800000D03*
%TO.N,CHANGE_STATE*%
X61225000Y-88425000D03*
X61050000Y-96525000D03*
X74700000Y-92650000D03*
X59400000Y-92350000D03*
%TO.N,DEC*%
X64300000Y-95825000D03*
X62525000Y-96400000D03*
%TO.N,SCL*%
X70150000Y-86825000D03*
X71575000Y-73675000D03*
%TO.N,SDA*%
X69975000Y-76900000D03*
X68024500Y-83950000D03*
%TO.N,SWCLK*%
X68750000Y-81075000D03*
X70425000Y-78325000D03*
%TO.N,SWDIO*%
X70252729Y-80596870D03*
X72275000Y-78750000D03*
%TO.N,Net-(J2-Pad4)*%
X87500000Y-80675000D03*
X86825000Y-77650000D03*
%TD*%
%TA.AperFunction,Conductor*%
%TO.N,VDDA*%
G36*
X92970055Y-66509500D02*
G01*
X92984856Y-66511805D01*
X92984859Y-66511805D01*
X92993728Y-66513186D01*
X93002630Y-66512022D01*
X93002632Y-66512022D01*
X93002690Y-66512014D01*
X93002729Y-66512009D01*
X93033167Y-66511738D01*
X93095374Y-66518747D01*
X93122882Y-66525026D01*
X93200069Y-66552035D01*
X93225490Y-66564277D01*
X93294737Y-66607788D01*
X93316796Y-66625380D01*
X93374620Y-66683204D01*
X93392212Y-66705263D01*
X93435723Y-66774510D01*
X93447965Y-66799931D01*
X93474974Y-66877119D01*
X93481253Y-66904624D01*
X93487522Y-66960255D01*
X93488305Y-66975903D01*
X93488196Y-66984858D01*
X93486814Y-66993732D01*
X93488454Y-67006272D01*
X93490936Y-67025253D01*
X93492000Y-67041591D01*
X93492000Y-106950670D01*
X93490500Y-106970054D01*
X93486814Y-106993728D01*
X93487978Y-107002630D01*
X93487978Y-107002632D01*
X93487991Y-107002728D01*
X93488262Y-107033167D01*
X93481253Y-107095374D01*
X93474974Y-107122882D01*
X93447965Y-107200069D01*
X93435723Y-107225490D01*
X93392212Y-107294737D01*
X93374620Y-107316796D01*
X93316796Y-107374620D01*
X93294737Y-107392212D01*
X93225490Y-107435723D01*
X93200069Y-107447965D01*
X93122881Y-107474974D01*
X93095376Y-107481253D01*
X93083762Y-107482562D01*
X93039738Y-107487522D01*
X93024097Y-107488305D01*
X93015142Y-107488196D01*
X93006268Y-107486814D01*
X92974747Y-107490936D01*
X92958409Y-107492000D01*
X44049330Y-107492000D01*
X44029945Y-107490500D01*
X44015144Y-107488195D01*
X44015141Y-107488195D01*
X44006272Y-107486814D01*
X43997370Y-107487978D01*
X43997368Y-107487978D01*
X43997310Y-107487986D01*
X43997271Y-107487991D01*
X43966833Y-107488262D01*
X43904626Y-107481253D01*
X43877118Y-107474974D01*
X43799931Y-107447965D01*
X43774510Y-107435723D01*
X43705263Y-107392212D01*
X43683204Y-107374620D01*
X43625380Y-107316796D01*
X43607788Y-107294737D01*
X43564277Y-107225490D01*
X43552035Y-107200069D01*
X43525026Y-107122881D01*
X43518747Y-107095376D01*
X43512478Y-107039745D01*
X43511695Y-107024097D01*
X43511804Y-107015142D01*
X43513186Y-107006268D01*
X43509064Y-106974746D01*
X43508000Y-106958409D01*
X43508000Y-103700000D01*
X47011496Y-103700000D01*
X47031458Y-103889928D01*
X47090473Y-104071556D01*
X47185960Y-104236944D01*
X47313747Y-104378866D01*
X47468248Y-104491118D01*
X47474276Y-104493802D01*
X47474278Y-104493803D01*
X47636681Y-104566109D01*
X47642712Y-104568794D01*
X47736112Y-104588647D01*
X47823056Y-104607128D01*
X47823061Y-104607128D01*
X47829513Y-104608500D01*
X48020487Y-104608500D01*
X48026939Y-104607128D01*
X48026944Y-104607128D01*
X48113888Y-104588647D01*
X48207288Y-104568794D01*
X48213319Y-104566109D01*
X48375722Y-104493803D01*
X48375724Y-104493802D01*
X48381752Y-104491118D01*
X48536253Y-104378866D01*
X48664040Y-104236944D01*
X48759527Y-104071556D01*
X48818542Y-103889928D01*
X48838504Y-103700000D01*
X48818542Y-103510072D01*
X48766531Y-103350000D01*
X50136496Y-103350000D01*
X50156458Y-103539928D01*
X50215473Y-103721556D01*
X50310960Y-103886944D01*
X50315378Y-103891851D01*
X50315379Y-103891852D01*
X50434325Y-104023955D01*
X50438747Y-104028866D01*
X50593248Y-104141118D01*
X50599276Y-104143802D01*
X50599278Y-104143803D01*
X50761681Y-104216109D01*
X50767712Y-104218794D01*
X50853101Y-104236944D01*
X50948056Y-104257128D01*
X50948061Y-104257128D01*
X50954513Y-104258500D01*
X51145487Y-104258500D01*
X51151939Y-104257128D01*
X51151944Y-104257128D01*
X51246899Y-104236944D01*
X51332288Y-104218794D01*
X51338319Y-104216109D01*
X51500722Y-104143803D01*
X51500724Y-104143802D01*
X51506752Y-104141118D01*
X51661253Y-104028866D01*
X51665675Y-104023955D01*
X51784621Y-103891852D01*
X51784622Y-103891851D01*
X51789040Y-103886944D01*
X51884527Y-103721556D01*
X51943542Y-103539928D01*
X51963504Y-103350000D01*
X51943542Y-103160072D01*
X51884527Y-102978444D01*
X51789040Y-102813056D01*
X51661253Y-102671134D01*
X51506752Y-102558882D01*
X51500724Y-102556198D01*
X51500722Y-102556197D01*
X51338319Y-102483891D01*
X51338318Y-102483891D01*
X51332288Y-102481206D01*
X51238888Y-102461353D01*
X51151944Y-102442872D01*
X51151939Y-102442872D01*
X51145487Y-102441500D01*
X50954513Y-102441500D01*
X50948061Y-102442872D01*
X50948056Y-102442872D01*
X50861112Y-102461353D01*
X50767712Y-102481206D01*
X50761682Y-102483891D01*
X50761681Y-102483891D01*
X50599278Y-102556197D01*
X50599276Y-102556198D01*
X50593248Y-102558882D01*
X50438747Y-102671134D01*
X50310960Y-102813056D01*
X50215473Y-102978444D01*
X50156458Y-103160072D01*
X50136496Y-103350000D01*
X48766531Y-103350000D01*
X48759527Y-103328444D01*
X48664040Y-103163056D01*
X48655701Y-103153794D01*
X48540675Y-103026045D01*
X48540674Y-103026044D01*
X48536253Y-103021134D01*
X48381752Y-102908882D01*
X48375724Y-102906198D01*
X48375722Y-102906197D01*
X48213319Y-102833891D01*
X48213318Y-102833891D01*
X48207288Y-102831206D01*
X48113887Y-102811353D01*
X48026944Y-102792872D01*
X48026939Y-102792872D01*
X48020487Y-102791500D01*
X47829513Y-102791500D01*
X47823061Y-102792872D01*
X47823056Y-102792872D01*
X47736113Y-102811353D01*
X47642712Y-102831206D01*
X47636682Y-102833891D01*
X47636681Y-102833891D01*
X47474278Y-102906197D01*
X47474276Y-102906198D01*
X47468248Y-102908882D01*
X47313747Y-103021134D01*
X47309326Y-103026044D01*
X47309325Y-103026045D01*
X47194300Y-103153794D01*
X47185960Y-103163056D01*
X47090473Y-103328444D01*
X47031458Y-103510072D01*
X47011496Y-103700000D01*
X43508000Y-103700000D01*
X43508000Y-102350000D01*
X88136496Y-102350000D01*
X88156458Y-102539928D01*
X88215473Y-102721556D01*
X88310960Y-102886944D01*
X88315378Y-102891851D01*
X88315379Y-102891852D01*
X88388194Y-102972721D01*
X88438747Y-103028866D01*
X88593248Y-103141118D01*
X88599276Y-103143802D01*
X88599278Y-103143803D01*
X88761681Y-103216109D01*
X88767712Y-103218794D01*
X88861112Y-103238647D01*
X88948056Y-103257128D01*
X88948061Y-103257128D01*
X88954513Y-103258500D01*
X89145487Y-103258500D01*
X89151939Y-103257128D01*
X89151944Y-103257128D01*
X89238887Y-103238647D01*
X89332288Y-103218794D01*
X89338319Y-103216109D01*
X89500722Y-103143803D01*
X89500724Y-103143802D01*
X89506752Y-103141118D01*
X89661253Y-103028866D01*
X89711806Y-102972721D01*
X89784621Y-102891852D01*
X89784622Y-102891851D01*
X89789040Y-102886944D01*
X89884527Y-102721556D01*
X89943542Y-102539928D01*
X89963504Y-102350000D01*
X89943542Y-102160072D01*
X89884527Y-101978444D01*
X89789040Y-101813056D01*
X89661253Y-101671134D01*
X89506752Y-101558882D01*
X89500724Y-101556198D01*
X89500722Y-101556197D01*
X89338319Y-101483891D01*
X89338318Y-101483891D01*
X89332288Y-101481206D01*
X89238887Y-101461353D01*
X89151944Y-101442872D01*
X89151939Y-101442872D01*
X89145487Y-101441500D01*
X88954513Y-101441500D01*
X88948061Y-101442872D01*
X88948056Y-101442872D01*
X88861112Y-101461353D01*
X88767712Y-101481206D01*
X88761682Y-101483891D01*
X88761681Y-101483891D01*
X88599278Y-101556197D01*
X88599276Y-101556198D01*
X88593248Y-101558882D01*
X88438747Y-101671134D01*
X88310960Y-101813056D01*
X88215473Y-101978444D01*
X88156458Y-102160072D01*
X88136496Y-102350000D01*
X43508000Y-102350000D01*
X43508000Y-98450000D01*
X68486496Y-98450000D01*
X68506458Y-98639928D01*
X68565473Y-98821556D01*
X68660960Y-98986944D01*
X68665378Y-98991851D01*
X68665379Y-98991852D01*
X68683470Y-99011944D01*
X68788747Y-99128866D01*
X68943248Y-99241118D01*
X68949276Y-99243802D01*
X68949278Y-99243803D01*
X69111681Y-99316109D01*
X69117712Y-99318794D01*
X69211113Y-99338647D01*
X69298056Y-99357128D01*
X69298061Y-99357128D01*
X69304513Y-99358500D01*
X69495487Y-99358500D01*
X69501939Y-99357128D01*
X69501944Y-99357128D01*
X69588887Y-99338647D01*
X69682288Y-99318794D01*
X69688319Y-99316109D01*
X69850722Y-99243803D01*
X69850724Y-99243802D01*
X69856752Y-99241118D01*
X70011253Y-99128866D01*
X70116530Y-99011944D01*
X70134621Y-98991852D01*
X70134622Y-98991851D01*
X70139040Y-98986944D01*
X70234527Y-98821556D01*
X70293542Y-98639928D01*
X70310876Y-98475000D01*
X71586496Y-98475000D01*
X71587186Y-98481565D01*
X71603141Y-98633365D01*
X71606458Y-98664928D01*
X71665473Y-98846556D01*
X71760960Y-99011944D01*
X71888747Y-99153866D01*
X71987843Y-99225864D01*
X72008839Y-99241118D01*
X72043248Y-99266118D01*
X72049276Y-99268802D01*
X72049278Y-99268803D01*
X72164642Y-99320166D01*
X72217712Y-99343794D01*
X72311112Y-99363647D01*
X72398056Y-99382128D01*
X72398061Y-99382128D01*
X72404513Y-99383500D01*
X72595487Y-99383500D01*
X72601939Y-99382128D01*
X72601944Y-99382128D01*
X72688888Y-99363647D01*
X72782288Y-99343794D01*
X72835358Y-99320166D01*
X72950722Y-99268803D01*
X72950724Y-99268802D01*
X72956752Y-99266118D01*
X72991162Y-99241118D01*
X73012157Y-99225864D01*
X73111253Y-99153866D01*
X73239040Y-99011944D01*
X73334527Y-98846556D01*
X73393542Y-98664928D01*
X73396860Y-98633365D01*
X73412814Y-98481565D01*
X73413504Y-98475000D01*
X73393542Y-98285072D01*
X73334527Y-98103444D01*
X73239040Y-97938056D01*
X73221679Y-97918774D01*
X73115675Y-97801045D01*
X73115674Y-97801044D01*
X73111253Y-97796134D01*
X72956752Y-97683882D01*
X72950724Y-97681198D01*
X72950722Y-97681197D01*
X72788319Y-97608891D01*
X72788318Y-97608891D01*
X72782288Y-97606206D01*
X72677305Y-97583891D01*
X72601944Y-97567872D01*
X72601939Y-97567872D01*
X72595487Y-97566500D01*
X72404513Y-97566500D01*
X72398061Y-97567872D01*
X72398056Y-97567872D01*
X72322695Y-97583891D01*
X72217712Y-97606206D01*
X72211682Y-97608891D01*
X72211681Y-97608891D01*
X72049278Y-97681197D01*
X72049276Y-97681198D01*
X72043248Y-97683882D01*
X71888747Y-97796134D01*
X71884326Y-97801044D01*
X71884325Y-97801045D01*
X71778322Y-97918774D01*
X71760960Y-97938056D01*
X71665473Y-98103444D01*
X71606458Y-98285072D01*
X71586496Y-98475000D01*
X70310876Y-98475000D01*
X70313504Y-98450000D01*
X70312814Y-98443435D01*
X70294232Y-98266635D01*
X70294232Y-98266633D01*
X70293542Y-98260072D01*
X70234527Y-98078444D01*
X70139040Y-97913056D01*
X70011253Y-97771134D01*
X69896503Y-97687763D01*
X69862094Y-97662763D01*
X69862093Y-97662762D01*
X69856752Y-97658882D01*
X69850724Y-97656198D01*
X69850722Y-97656197D01*
X69688319Y-97583891D01*
X69688318Y-97583891D01*
X69682288Y-97581206D01*
X69588888Y-97561353D01*
X69501944Y-97542872D01*
X69501939Y-97542872D01*
X69495487Y-97541500D01*
X69304513Y-97541500D01*
X69298061Y-97542872D01*
X69298056Y-97542872D01*
X69211112Y-97561353D01*
X69117712Y-97581206D01*
X69111682Y-97583891D01*
X69111681Y-97583891D01*
X68949278Y-97656197D01*
X68949276Y-97656198D01*
X68943248Y-97658882D01*
X68937907Y-97662762D01*
X68937906Y-97662763D01*
X68903497Y-97687763D01*
X68788747Y-97771134D01*
X68660960Y-97913056D01*
X68565473Y-98078444D01*
X68506458Y-98260072D01*
X68505768Y-98266633D01*
X68505768Y-98266635D01*
X68487186Y-98443435D01*
X68486496Y-98450000D01*
X43508000Y-98450000D01*
X43508000Y-96525000D01*
X60136496Y-96525000D01*
X60137186Y-96531565D01*
X60153955Y-96691109D01*
X60156458Y-96714928D01*
X60215473Y-96896556D01*
X60310960Y-97061944D01*
X60315378Y-97066851D01*
X60315379Y-97066852D01*
X60329693Y-97082749D01*
X60438747Y-97203866D01*
X60593248Y-97316118D01*
X60599276Y-97318802D01*
X60599278Y-97318803D01*
X60761681Y-97391109D01*
X60767712Y-97393794D01*
X60861113Y-97413647D01*
X60948056Y-97432128D01*
X60948061Y-97432128D01*
X60954513Y-97433500D01*
X61145487Y-97433500D01*
X61151939Y-97432128D01*
X61151944Y-97432128D01*
X61238887Y-97413647D01*
X61332288Y-97393794D01*
X61338319Y-97391109D01*
X61500722Y-97318803D01*
X61500724Y-97318802D01*
X61506752Y-97316118D01*
X61661253Y-97203866D01*
X61753235Y-97101709D01*
X61813680Y-97064471D01*
X61884664Y-97065823D01*
X61920929Y-97084084D01*
X62068248Y-97191118D01*
X62074276Y-97193802D01*
X62074278Y-97193803D01*
X62236681Y-97266109D01*
X62242712Y-97268794D01*
X62336113Y-97288647D01*
X62423056Y-97307128D01*
X62423061Y-97307128D01*
X62429513Y-97308500D01*
X62620487Y-97308500D01*
X62626939Y-97307128D01*
X62626944Y-97307128D01*
X62713887Y-97288647D01*
X62807288Y-97268794D01*
X62813319Y-97266109D01*
X62975722Y-97193803D01*
X62975724Y-97193802D01*
X62981752Y-97191118D01*
X63136253Y-97078866D01*
X63140675Y-97073955D01*
X63259621Y-96941852D01*
X63259622Y-96941851D01*
X63264040Y-96936944D01*
X63359527Y-96771556D01*
X63418542Y-96589928D01*
X63425305Y-96525586D01*
X63452317Y-96459930D01*
X63510538Y-96419300D01*
X63581483Y-96416597D01*
X63644250Y-96454447D01*
X63688747Y-96503866D01*
X63787843Y-96575864D01*
X63815842Y-96596206D01*
X63843248Y-96616118D01*
X63849276Y-96618802D01*
X63849278Y-96618803D01*
X64011681Y-96691109D01*
X64017712Y-96693794D01*
X64086263Y-96708365D01*
X64198056Y-96732128D01*
X64198061Y-96732128D01*
X64204513Y-96733500D01*
X64395487Y-96733500D01*
X64401939Y-96732128D01*
X64401944Y-96732128D01*
X64513737Y-96708365D01*
X64582288Y-96693794D01*
X64588319Y-96691109D01*
X64750722Y-96618803D01*
X64750724Y-96618802D01*
X64756752Y-96616118D01*
X64784159Y-96596206D01*
X64812157Y-96575864D01*
X64911253Y-96503866D01*
X64955750Y-96454447D01*
X65034621Y-96366852D01*
X65034622Y-96366851D01*
X65039040Y-96361944D01*
X65134527Y-96196556D01*
X65193542Y-96014928D01*
X65195766Y-95993774D01*
X65212814Y-95831565D01*
X65213504Y-95825000D01*
X65211476Y-95805700D01*
X65194232Y-95641635D01*
X65194232Y-95641633D01*
X65193542Y-95635072D01*
X65134527Y-95453444D01*
X65039040Y-95288056D01*
X64911253Y-95146134D01*
X64756752Y-95033882D01*
X64750724Y-95031198D01*
X64750722Y-95031197D01*
X64588319Y-94958891D01*
X64588318Y-94958891D01*
X64582288Y-94956206D01*
X64488888Y-94936353D01*
X64401944Y-94917872D01*
X64401939Y-94917872D01*
X64395487Y-94916500D01*
X64204513Y-94916500D01*
X64198061Y-94917872D01*
X64198056Y-94917872D01*
X64111112Y-94936353D01*
X64017712Y-94956206D01*
X64011682Y-94958891D01*
X64011681Y-94958891D01*
X63849278Y-95031197D01*
X63849276Y-95031198D01*
X63843248Y-95033882D01*
X63688747Y-95146134D01*
X63560960Y-95288056D01*
X63465473Y-95453444D01*
X63406458Y-95635072D01*
X63405768Y-95641633D01*
X63405768Y-95641635D01*
X63399696Y-95699413D01*
X63372683Y-95765070D01*
X63314462Y-95805700D01*
X63243517Y-95808403D01*
X63180750Y-95770553D01*
X63140675Y-95726045D01*
X63140671Y-95726041D01*
X63136253Y-95721134D01*
X63037157Y-95649136D01*
X62987094Y-95612763D01*
X62987093Y-95612762D01*
X62981752Y-95608882D01*
X62975724Y-95606198D01*
X62975722Y-95606197D01*
X62813319Y-95533891D01*
X62813318Y-95533891D01*
X62807288Y-95531206D01*
X62713887Y-95511353D01*
X62626944Y-95492872D01*
X62626939Y-95492872D01*
X62620487Y-95491500D01*
X62429513Y-95491500D01*
X62423061Y-95492872D01*
X62423056Y-95492872D01*
X62336113Y-95511353D01*
X62242712Y-95531206D01*
X62236682Y-95533891D01*
X62236681Y-95533891D01*
X62074278Y-95606197D01*
X62074276Y-95606198D01*
X62068248Y-95608882D01*
X62062907Y-95612762D01*
X62062906Y-95612763D01*
X62012843Y-95649136D01*
X61913747Y-95721134D01*
X61821765Y-95823291D01*
X61761320Y-95860529D01*
X61690336Y-95859177D01*
X61654071Y-95840916D01*
X61506752Y-95733882D01*
X61500724Y-95731198D01*
X61500722Y-95731197D01*
X61338319Y-95658891D01*
X61338318Y-95658891D01*
X61332288Y-95656206D01*
X61232861Y-95635072D01*
X61151944Y-95617872D01*
X61151939Y-95617872D01*
X61145487Y-95616500D01*
X60954513Y-95616500D01*
X60948061Y-95617872D01*
X60948056Y-95617872D01*
X60867139Y-95635072D01*
X60767712Y-95656206D01*
X60761682Y-95658891D01*
X60761681Y-95658891D01*
X60599278Y-95731197D01*
X60599276Y-95731198D01*
X60593248Y-95733882D01*
X60438747Y-95846134D01*
X60310960Y-95988056D01*
X60215473Y-96153444D01*
X60156458Y-96335072D01*
X60155768Y-96341633D01*
X60155768Y-96341635D01*
X60153118Y-96366852D01*
X60136496Y-96525000D01*
X43508000Y-96525000D01*
X43508000Y-92350000D01*
X58486496Y-92350000D01*
X58487186Y-92356565D01*
X58503996Y-92516500D01*
X58506458Y-92539928D01*
X58565473Y-92721556D01*
X58568776Y-92727278D01*
X58568777Y-92727279D01*
X58602686Y-92786010D01*
X58660960Y-92886944D01*
X58788747Y-93028866D01*
X58943248Y-93141118D01*
X58949276Y-93143802D01*
X58949278Y-93143803D01*
X59033332Y-93181226D01*
X59117712Y-93218794D01*
X59194294Y-93235072D01*
X59298056Y-93257128D01*
X59298061Y-93257128D01*
X59304513Y-93258500D01*
X59495487Y-93258500D01*
X59501939Y-93257128D01*
X59501944Y-93257128D01*
X59605706Y-93235072D01*
X59682288Y-93218794D01*
X59766668Y-93181226D01*
X59850722Y-93143803D01*
X59850724Y-93143802D01*
X59856752Y-93141118D01*
X60011253Y-93028866D01*
X60139040Y-92886944D01*
X60197314Y-92786010D01*
X60231223Y-92727279D01*
X60231224Y-92727278D01*
X60234527Y-92721556D01*
X60257777Y-92650000D01*
X73786496Y-92650000D01*
X73806458Y-92839928D01*
X73865473Y-93021556D01*
X73868776Y-93027278D01*
X73868777Y-93027279D01*
X73887512Y-93059729D01*
X73960960Y-93186944D01*
X73965378Y-93191851D01*
X73965379Y-93191852D01*
X74010204Y-93241635D01*
X74088747Y-93328866D01*
X74187843Y-93400864D01*
X74221064Y-93425000D01*
X74243248Y-93441118D01*
X74249276Y-93443802D01*
X74249278Y-93443803D01*
X74411681Y-93516109D01*
X74417712Y-93518794D01*
X74511112Y-93538647D01*
X74598056Y-93557128D01*
X74598061Y-93557128D01*
X74604513Y-93558500D01*
X74795487Y-93558500D01*
X74801939Y-93557128D01*
X74801944Y-93557128D01*
X74888888Y-93538647D01*
X74982288Y-93518794D01*
X74988319Y-93516109D01*
X75150722Y-93443803D01*
X75150724Y-93443802D01*
X75156752Y-93441118D01*
X75178937Y-93425000D01*
X80961496Y-93425000D01*
X80981458Y-93614928D01*
X81040473Y-93796556D01*
X81135960Y-93961944D01*
X81263747Y-94103866D01*
X81418248Y-94216118D01*
X81424276Y-94218802D01*
X81424278Y-94218803D01*
X81586681Y-94291109D01*
X81592712Y-94293794D01*
X81686113Y-94313647D01*
X81773056Y-94332128D01*
X81773061Y-94332128D01*
X81779513Y-94333500D01*
X81970487Y-94333500D01*
X81976939Y-94332128D01*
X81976944Y-94332128D01*
X82063887Y-94313647D01*
X82157288Y-94293794D01*
X82163319Y-94291109D01*
X82325722Y-94218803D01*
X82325724Y-94218802D01*
X82331752Y-94216118D01*
X82486253Y-94103866D01*
X82614040Y-93961944D01*
X82709527Y-93796556D01*
X82768542Y-93614928D01*
X82788504Y-93425000D01*
X82777884Y-93323955D01*
X82769232Y-93241635D01*
X82769232Y-93241633D01*
X82768542Y-93235072D01*
X82709527Y-93053444D01*
X82692502Y-93023955D01*
X82617341Y-92893774D01*
X82614040Y-92888056D01*
X82570706Y-92839928D01*
X82490675Y-92751045D01*
X82490674Y-92751044D01*
X82486253Y-92746134D01*
X82362972Y-92656565D01*
X82337094Y-92637763D01*
X82337093Y-92637762D01*
X82331752Y-92633882D01*
X82325724Y-92631198D01*
X82325722Y-92631197D01*
X82163319Y-92558891D01*
X82163318Y-92558891D01*
X82157288Y-92556206D01*
X82063887Y-92536353D01*
X81976944Y-92517872D01*
X81976939Y-92517872D01*
X81970487Y-92516500D01*
X81779513Y-92516500D01*
X81773061Y-92517872D01*
X81773056Y-92517872D01*
X81686113Y-92536353D01*
X81592712Y-92556206D01*
X81586682Y-92558891D01*
X81586681Y-92558891D01*
X81424278Y-92631197D01*
X81424276Y-92631198D01*
X81418248Y-92633882D01*
X81412907Y-92637762D01*
X81412906Y-92637763D01*
X81387028Y-92656565D01*
X81263747Y-92746134D01*
X81259326Y-92751044D01*
X81259325Y-92751045D01*
X81179295Y-92839928D01*
X81135960Y-92888056D01*
X81132659Y-92893774D01*
X81057499Y-93023955D01*
X81040473Y-93053444D01*
X80981458Y-93235072D01*
X80980768Y-93241633D01*
X80980768Y-93241635D01*
X80972116Y-93323955D01*
X80961496Y-93425000D01*
X75178937Y-93425000D01*
X75212157Y-93400864D01*
X75311253Y-93328866D01*
X75389796Y-93241635D01*
X75434621Y-93191852D01*
X75434622Y-93191851D01*
X75439040Y-93186944D01*
X75512488Y-93059729D01*
X75531223Y-93027279D01*
X75531224Y-93027278D01*
X75534527Y-93021556D01*
X75593542Y-92839928D01*
X75613504Y-92650000D01*
X75593542Y-92460072D01*
X75534527Y-92278444D01*
X75439040Y-92113056D01*
X75311253Y-91971134D01*
X75156752Y-91858882D01*
X75150724Y-91856198D01*
X75150722Y-91856197D01*
X74988319Y-91783891D01*
X74988318Y-91783891D01*
X74982288Y-91781206D01*
X74888888Y-91761353D01*
X74801944Y-91742872D01*
X74801939Y-91742872D01*
X74795487Y-91741500D01*
X74604513Y-91741500D01*
X74598061Y-91742872D01*
X74598056Y-91742872D01*
X74511112Y-91761353D01*
X74417712Y-91781206D01*
X74411682Y-91783891D01*
X74411681Y-91783891D01*
X74249278Y-91856197D01*
X74249276Y-91856198D01*
X74243248Y-91858882D01*
X74088747Y-91971134D01*
X73960960Y-92113056D01*
X73865473Y-92278444D01*
X73806458Y-92460072D01*
X73786496Y-92650000D01*
X60257777Y-92650000D01*
X60293542Y-92539928D01*
X60296005Y-92516500D01*
X60312814Y-92356565D01*
X60313504Y-92350000D01*
X60293542Y-92160072D01*
X60234527Y-91978444D01*
X60139040Y-91813056D01*
X60011253Y-91671134D01*
X59856752Y-91558882D01*
X59850724Y-91556198D01*
X59850722Y-91556197D01*
X59688319Y-91483891D01*
X59688318Y-91483891D01*
X59682288Y-91481206D01*
X59588887Y-91461353D01*
X59501944Y-91442872D01*
X59501939Y-91442872D01*
X59495487Y-91441500D01*
X59304513Y-91441500D01*
X59298061Y-91442872D01*
X59298056Y-91442872D01*
X59211113Y-91461353D01*
X59117712Y-91481206D01*
X59111682Y-91483891D01*
X59111681Y-91483891D01*
X58949278Y-91556197D01*
X58949276Y-91556198D01*
X58943248Y-91558882D01*
X58788747Y-91671134D01*
X58660960Y-91813056D01*
X58565473Y-91978444D01*
X58506458Y-92160072D01*
X58486496Y-92350000D01*
X43508000Y-92350000D01*
X43508000Y-91350000D01*
X66686496Y-91350000D01*
X66706458Y-91539928D01*
X66765473Y-91721556D01*
X66860960Y-91886944D01*
X66988747Y-92028866D01*
X67143248Y-92141118D01*
X67149276Y-92143802D01*
X67149278Y-92143803D01*
X67200560Y-92166635D01*
X67317712Y-92218794D01*
X67411112Y-92238647D01*
X67498056Y-92257128D01*
X67498061Y-92257128D01*
X67504513Y-92258500D01*
X67695487Y-92258500D01*
X67701939Y-92257128D01*
X67701944Y-92257128D01*
X67788888Y-92238647D01*
X67882288Y-92218794D01*
X67999440Y-92166635D01*
X68050722Y-92143803D01*
X68050724Y-92143802D01*
X68056752Y-92141118D01*
X68211253Y-92028866D01*
X68339040Y-91886944D01*
X68434527Y-91721556D01*
X68493542Y-91539928D01*
X68513504Y-91350000D01*
X68493542Y-91160072D01*
X68434527Y-90978444D01*
X68427406Y-90966109D01*
X68384109Y-90891118D01*
X68339040Y-90813056D01*
X68333703Y-90807128D01*
X68215675Y-90676045D01*
X68215674Y-90676044D01*
X68211253Y-90671134D01*
X68056752Y-90558882D01*
X68050724Y-90556198D01*
X68050722Y-90556197D01*
X67888319Y-90483891D01*
X67888318Y-90483891D01*
X67882288Y-90481206D01*
X67788888Y-90461353D01*
X67701944Y-90442872D01*
X67701939Y-90442872D01*
X67695487Y-90441500D01*
X67504513Y-90441500D01*
X67498061Y-90442872D01*
X67498056Y-90442872D01*
X67411112Y-90461353D01*
X67317712Y-90481206D01*
X67311682Y-90483891D01*
X67311681Y-90483891D01*
X67149278Y-90556197D01*
X67149276Y-90556198D01*
X67143248Y-90558882D01*
X66988747Y-90671134D01*
X66984326Y-90676044D01*
X66984325Y-90676045D01*
X66866298Y-90807128D01*
X66860960Y-90813056D01*
X66815891Y-90891118D01*
X66772595Y-90966109D01*
X66765473Y-90978444D01*
X66706458Y-91160072D01*
X66686496Y-91350000D01*
X43508000Y-91350000D01*
X43508000Y-88425000D01*
X60311496Y-88425000D01*
X60312186Y-88431565D01*
X60328955Y-88591109D01*
X60331458Y-88614928D01*
X60390473Y-88796556D01*
X60485960Y-88961944D01*
X60613747Y-89103866D01*
X60631950Y-89117091D01*
X60639935Y-89122893D01*
X60683288Y-89179116D01*
X60689362Y-89249853D01*
X60659508Y-89309138D01*
X60610960Y-89363056D01*
X60515473Y-89528444D01*
X60456458Y-89710072D01*
X60455768Y-89716633D01*
X60455768Y-89716635D01*
X60454527Y-89728444D01*
X60436496Y-89900000D01*
X60456458Y-90089928D01*
X60515473Y-90271556D01*
X60610960Y-90436944D01*
X60615378Y-90441851D01*
X60615379Y-90441852D01*
X60653231Y-90483891D01*
X60738747Y-90578866D01*
X60893248Y-90691118D01*
X60899276Y-90693802D01*
X60899278Y-90693803D01*
X61061681Y-90766109D01*
X61067712Y-90768794D01*
X61133365Y-90782749D01*
X61248056Y-90807128D01*
X61248061Y-90807128D01*
X61254513Y-90808500D01*
X61445487Y-90808500D01*
X61451939Y-90807128D01*
X61451944Y-90807128D01*
X61566635Y-90782749D01*
X61632288Y-90768794D01*
X61638319Y-90766109D01*
X61800722Y-90693803D01*
X61800724Y-90693802D01*
X61806752Y-90691118D01*
X61961253Y-90578866D01*
X62046769Y-90483891D01*
X62084621Y-90441852D01*
X62084622Y-90441851D01*
X62089040Y-90436944D01*
X62184527Y-90271556D01*
X62240269Y-90100000D01*
X72286496Y-90100000D01*
X72287186Y-90106565D01*
X72305129Y-90277279D01*
X72306458Y-90289928D01*
X72365473Y-90471556D01*
X72368776Y-90477278D01*
X72368777Y-90477279D01*
X72402686Y-90536010D01*
X72460960Y-90636944D01*
X72465378Y-90641851D01*
X72465379Y-90641852D01*
X72579678Y-90768794D01*
X72588747Y-90778866D01*
X72743248Y-90891118D01*
X72749276Y-90893802D01*
X72749278Y-90893803D01*
X72911681Y-90966109D01*
X72917712Y-90968794D01*
X72992680Y-90984729D01*
X73098056Y-91007128D01*
X73098061Y-91007128D01*
X73104513Y-91008500D01*
X73295487Y-91008500D01*
X73301939Y-91007128D01*
X73301944Y-91007128D01*
X73407320Y-90984729D01*
X73482288Y-90968794D01*
X73488319Y-90966109D01*
X73650722Y-90893803D01*
X73650724Y-90893802D01*
X73656752Y-90891118D01*
X73811253Y-90778866D01*
X73820322Y-90768794D01*
X73934621Y-90641852D01*
X73934622Y-90641851D01*
X73939040Y-90636944D01*
X73997314Y-90536010D01*
X74031223Y-90477279D01*
X74031224Y-90477278D01*
X74034527Y-90471556D01*
X74093542Y-90289928D01*
X74094872Y-90277279D01*
X74112814Y-90106565D01*
X74113504Y-90100000D01*
X74093542Y-89910072D01*
X74034527Y-89728444D01*
X73939040Y-89563056D01*
X73811253Y-89421134D01*
X73656752Y-89308882D01*
X73650724Y-89306198D01*
X73650722Y-89306197D01*
X73488319Y-89233891D01*
X73488318Y-89233891D01*
X73482288Y-89231206D01*
X73372685Y-89207909D01*
X73301944Y-89192872D01*
X73301939Y-89192872D01*
X73295487Y-89191500D01*
X73104513Y-89191500D01*
X73098061Y-89192872D01*
X73098056Y-89192872D01*
X73027315Y-89207909D01*
X72917712Y-89231206D01*
X72911682Y-89233891D01*
X72911681Y-89233891D01*
X72749278Y-89306197D01*
X72749276Y-89306198D01*
X72743248Y-89308882D01*
X72588747Y-89421134D01*
X72460960Y-89563056D01*
X72365473Y-89728444D01*
X72306458Y-89910072D01*
X72286496Y-90100000D01*
X62240269Y-90100000D01*
X62243542Y-90089928D01*
X62263504Y-89900000D01*
X62245473Y-89728444D01*
X62244232Y-89716635D01*
X62244232Y-89716633D01*
X62243542Y-89710072D01*
X62184527Y-89528444D01*
X62089040Y-89363056D01*
X61972740Y-89233891D01*
X61965675Y-89226045D01*
X61965674Y-89226044D01*
X61961253Y-89221134D01*
X61935065Y-89202107D01*
X61891712Y-89145884D01*
X61885638Y-89075147D01*
X61915492Y-89015862D01*
X61959621Y-88966852D01*
X61959622Y-88966851D01*
X61964040Y-88961944D01*
X62059527Y-88796556D01*
X62118542Y-88614928D01*
X62121046Y-88591109D01*
X62137814Y-88431565D01*
X62138504Y-88425000D01*
X62133004Y-88372670D01*
X62145776Y-88302832D01*
X62194278Y-88250985D01*
X62258314Y-88233500D01*
X62345487Y-88233500D01*
X62351939Y-88232128D01*
X62351944Y-88232128D01*
X62438887Y-88213647D01*
X62532288Y-88193794D01*
X62538319Y-88191109D01*
X62700722Y-88118803D01*
X62700724Y-88118802D01*
X62706752Y-88116118D01*
X62861253Y-88003866D01*
X62941333Y-87914928D01*
X62984621Y-87866852D01*
X62984622Y-87866851D01*
X62989040Y-87861944D01*
X63063197Y-87733500D01*
X63081223Y-87702279D01*
X63081224Y-87702278D01*
X63084527Y-87696556D01*
X63143542Y-87514928D01*
X63163504Y-87325000D01*
X63157190Y-87264928D01*
X63144232Y-87141635D01*
X63144232Y-87141633D01*
X63143542Y-87135072D01*
X63084527Y-86953444D01*
X63066117Y-86921556D01*
X63029937Y-86858891D01*
X63010370Y-86825000D01*
X69236496Y-86825000D01*
X69237186Y-86831565D01*
X69243500Y-86891635D01*
X69256458Y-87014928D01*
X69315473Y-87196556D01*
X69410960Y-87361944D01*
X69415378Y-87366851D01*
X69415379Y-87366852D01*
X69459730Y-87416109D01*
X69538747Y-87503866D01*
X69693248Y-87616118D01*
X69699276Y-87618802D01*
X69699278Y-87618803D01*
X69859799Y-87690271D01*
X69867712Y-87693794D01*
X69961113Y-87713647D01*
X70048056Y-87732128D01*
X70048061Y-87732128D01*
X70054513Y-87733500D01*
X70245487Y-87733500D01*
X70251939Y-87732128D01*
X70251944Y-87732128D01*
X70285477Y-87725000D01*
X87111496Y-87725000D01*
X87112186Y-87731565D01*
X87129235Y-87893774D01*
X87131458Y-87914928D01*
X87190473Y-88096556D01*
X87285960Y-88261944D01*
X87413747Y-88403866D01*
X87568248Y-88516118D01*
X87574276Y-88518802D01*
X87574278Y-88518803D01*
X87736681Y-88591109D01*
X87742712Y-88593794D01*
X87811263Y-88608365D01*
X87923056Y-88632128D01*
X87923061Y-88632128D01*
X87929513Y-88633500D01*
X88120487Y-88633500D01*
X88126939Y-88632128D01*
X88126944Y-88632128D01*
X88238737Y-88608365D01*
X88307288Y-88593794D01*
X88313319Y-88591109D01*
X88475722Y-88518803D01*
X88475724Y-88518802D01*
X88481752Y-88516118D01*
X88636253Y-88403866D01*
X88764040Y-88261944D01*
X88859527Y-88096556D01*
X88918542Y-87914928D01*
X88920766Y-87893774D01*
X88937814Y-87731565D01*
X88938504Y-87725000D01*
X88926652Y-87612237D01*
X88919232Y-87541635D01*
X88919232Y-87541633D01*
X88918542Y-87535072D01*
X88859527Y-87353444D01*
X88764040Y-87188056D01*
X88722243Y-87141635D01*
X88640675Y-87051045D01*
X88640674Y-87051044D01*
X88636253Y-87046134D01*
X88481752Y-86933882D01*
X88475724Y-86931198D01*
X88475722Y-86931197D01*
X88313319Y-86858891D01*
X88313318Y-86858891D01*
X88307288Y-86856206D01*
X88191362Y-86831565D01*
X88126944Y-86817872D01*
X88126939Y-86817872D01*
X88120487Y-86816500D01*
X87929513Y-86816500D01*
X87923061Y-86817872D01*
X87923056Y-86817872D01*
X87858638Y-86831565D01*
X87742712Y-86856206D01*
X87736682Y-86858891D01*
X87736681Y-86858891D01*
X87574278Y-86931197D01*
X87574276Y-86931198D01*
X87568248Y-86933882D01*
X87413747Y-87046134D01*
X87409326Y-87051044D01*
X87409325Y-87051045D01*
X87327758Y-87141635D01*
X87285960Y-87188056D01*
X87190473Y-87353444D01*
X87131458Y-87535072D01*
X87130768Y-87541633D01*
X87130768Y-87541635D01*
X87123348Y-87612237D01*
X87111496Y-87725000D01*
X70285477Y-87725000D01*
X70338887Y-87713647D01*
X70432288Y-87693794D01*
X70440201Y-87690271D01*
X70600722Y-87618803D01*
X70600724Y-87618802D01*
X70606752Y-87616118D01*
X70761253Y-87503866D01*
X70840270Y-87416109D01*
X70884621Y-87366852D01*
X70884622Y-87366851D01*
X70889040Y-87361944D01*
X70984527Y-87196556D01*
X71043542Y-87014928D01*
X71056501Y-86891635D01*
X71062814Y-86831565D01*
X71063504Y-86825000D01*
X71043542Y-86635072D01*
X70984527Y-86453444D01*
X70963990Y-86417872D01*
X70934408Y-86366635D01*
X70889040Y-86288056D01*
X70761253Y-86146134D01*
X70606752Y-86033882D01*
X70600724Y-86031198D01*
X70600722Y-86031197D01*
X70438319Y-85958891D01*
X70438318Y-85958891D01*
X70432288Y-85956206D01*
X70338887Y-85936353D01*
X70251944Y-85917872D01*
X70251939Y-85917872D01*
X70245487Y-85916500D01*
X70054513Y-85916500D01*
X70048061Y-85917872D01*
X70048056Y-85917872D01*
X69961113Y-85936353D01*
X69867712Y-85956206D01*
X69861682Y-85958891D01*
X69861681Y-85958891D01*
X69699278Y-86031197D01*
X69699276Y-86031198D01*
X69693248Y-86033882D01*
X69538747Y-86146134D01*
X69410960Y-86288056D01*
X69365592Y-86366635D01*
X69336011Y-86417872D01*
X69315473Y-86453444D01*
X69256458Y-86635072D01*
X69236496Y-86825000D01*
X63010370Y-86825000D01*
X62989040Y-86788056D01*
X62945706Y-86739928D01*
X62865675Y-86651045D01*
X62865674Y-86651044D01*
X62861253Y-86646134D01*
X62737972Y-86556565D01*
X62712094Y-86537763D01*
X62712093Y-86537762D01*
X62706752Y-86533882D01*
X62700724Y-86531198D01*
X62700722Y-86531197D01*
X62538319Y-86458891D01*
X62538318Y-86458891D01*
X62532288Y-86456206D01*
X62438888Y-86436353D01*
X62351944Y-86417872D01*
X62351939Y-86417872D01*
X62345487Y-86416500D01*
X62154513Y-86416500D01*
X62148061Y-86417872D01*
X62148056Y-86417872D01*
X62061112Y-86436353D01*
X61967712Y-86456206D01*
X61961682Y-86458891D01*
X61961681Y-86458891D01*
X61799278Y-86531197D01*
X61799276Y-86531198D01*
X61793248Y-86533882D01*
X61787907Y-86537762D01*
X61787906Y-86537763D01*
X61762028Y-86556565D01*
X61638747Y-86646134D01*
X61634326Y-86651044D01*
X61634325Y-86651045D01*
X61554295Y-86739928D01*
X61510960Y-86788056D01*
X61470063Y-86858891D01*
X61433884Y-86921556D01*
X61415473Y-86953444D01*
X61356458Y-87135072D01*
X61355768Y-87141633D01*
X61355768Y-87141635D01*
X61342810Y-87264928D01*
X61336496Y-87325000D01*
X61337186Y-87331565D01*
X61341996Y-87377330D01*
X61329224Y-87447168D01*
X61280722Y-87499015D01*
X61216686Y-87516500D01*
X61129513Y-87516500D01*
X61123061Y-87517872D01*
X61123056Y-87517872D01*
X61042139Y-87535072D01*
X60942712Y-87556206D01*
X60936682Y-87558891D01*
X60936681Y-87558891D01*
X60774278Y-87631197D01*
X60774276Y-87631198D01*
X60768248Y-87633882D01*
X60613747Y-87746134D01*
X60609326Y-87751044D01*
X60609325Y-87751045D01*
X60509208Y-87862237D01*
X60485960Y-87888056D01*
X60390473Y-88053444D01*
X60331458Y-88235072D01*
X60330768Y-88241633D01*
X60330768Y-88241635D01*
X60328118Y-88266852D01*
X60311496Y-88425000D01*
X43508000Y-88425000D01*
X43508000Y-87075000D01*
X44711496Y-87075000D01*
X44712186Y-87081565D01*
X44727152Y-87223955D01*
X44731458Y-87264928D01*
X44790473Y-87446556D01*
X44885960Y-87611944D01*
X44890378Y-87616851D01*
X44890379Y-87616852D01*
X44956486Y-87690271D01*
X45013747Y-87753866D01*
X45168248Y-87866118D01*
X45174276Y-87868802D01*
X45174278Y-87868803D01*
X45291978Y-87921206D01*
X45342712Y-87943794D01*
X45436113Y-87963647D01*
X45523056Y-87982128D01*
X45523061Y-87982128D01*
X45529513Y-87983500D01*
X45720487Y-87983500D01*
X45726939Y-87982128D01*
X45726944Y-87982128D01*
X45813887Y-87963647D01*
X45907288Y-87943794D01*
X45958022Y-87921206D01*
X46075722Y-87868803D01*
X46075724Y-87868802D01*
X46081752Y-87866118D01*
X46236253Y-87753866D01*
X46293514Y-87690271D01*
X46359621Y-87616852D01*
X46359622Y-87616851D01*
X46364040Y-87611944D01*
X46459527Y-87446556D01*
X46518542Y-87264928D01*
X46522849Y-87223955D01*
X46537814Y-87081565D01*
X46538504Y-87075000D01*
X46532190Y-87014928D01*
X46519232Y-86891635D01*
X46519232Y-86891633D01*
X46518542Y-86885072D01*
X46459527Y-86703444D01*
X46370936Y-86550000D01*
X58261496Y-86550000D01*
X58281458Y-86739928D01*
X58340473Y-86921556D01*
X58343776Y-86927278D01*
X58343777Y-86927279D01*
X58362512Y-86959729D01*
X58435960Y-87086944D01*
X58440378Y-87091851D01*
X58440379Y-87091852D01*
X58528996Y-87190271D01*
X58563747Y-87228866D01*
X58604349Y-87258365D01*
X58696064Y-87325000D01*
X58718248Y-87341118D01*
X58724276Y-87343802D01*
X58724278Y-87343803D01*
X58886681Y-87416109D01*
X58892712Y-87418794D01*
X58986112Y-87438647D01*
X59073056Y-87457128D01*
X59073061Y-87457128D01*
X59079513Y-87458500D01*
X59270487Y-87458500D01*
X59276939Y-87457128D01*
X59276944Y-87457128D01*
X59363888Y-87438647D01*
X59457288Y-87418794D01*
X59463319Y-87416109D01*
X59625722Y-87343803D01*
X59625724Y-87343802D01*
X59631752Y-87341118D01*
X59653937Y-87325000D01*
X59745651Y-87258365D01*
X59786253Y-87228866D01*
X59821004Y-87190271D01*
X59909621Y-87091852D01*
X59909622Y-87091851D01*
X59914040Y-87086944D01*
X59987488Y-86959729D01*
X60006223Y-86927279D01*
X60006224Y-86927278D01*
X60009527Y-86921556D01*
X60068542Y-86739928D01*
X60088504Y-86550000D01*
X60074473Y-86416500D01*
X60069232Y-86366635D01*
X60069232Y-86366633D01*
X60068542Y-86360072D01*
X60009527Y-86178444D01*
X59914040Y-86013056D01*
X59786253Y-85871134D01*
X59631752Y-85758882D01*
X59625724Y-85756198D01*
X59625722Y-85756197D01*
X59463319Y-85683891D01*
X59463318Y-85683891D01*
X59457288Y-85681206D01*
X59363888Y-85661353D01*
X59276944Y-85642872D01*
X59276939Y-85642872D01*
X59270487Y-85641500D01*
X59079513Y-85641500D01*
X59073061Y-85642872D01*
X59073056Y-85642872D01*
X58986112Y-85661353D01*
X58892712Y-85681206D01*
X58886682Y-85683891D01*
X58886681Y-85683891D01*
X58724278Y-85756197D01*
X58724276Y-85756198D01*
X58718248Y-85758882D01*
X58563747Y-85871134D01*
X58435960Y-86013056D01*
X58340473Y-86178444D01*
X58281458Y-86360072D01*
X58280768Y-86366633D01*
X58280768Y-86366635D01*
X58275527Y-86416500D01*
X58261496Y-86550000D01*
X46370936Y-86550000D01*
X46364040Y-86538056D01*
X46236253Y-86396134D01*
X46081752Y-86283882D01*
X46075724Y-86281198D01*
X46075722Y-86281197D01*
X45913319Y-86208891D01*
X45913318Y-86208891D01*
X45907288Y-86206206D01*
X45806247Y-86184729D01*
X45726944Y-86167872D01*
X45726939Y-86167872D01*
X45720487Y-86166500D01*
X45529513Y-86166500D01*
X45523061Y-86167872D01*
X45523056Y-86167872D01*
X45443753Y-86184729D01*
X45342712Y-86206206D01*
X45336682Y-86208891D01*
X45336681Y-86208891D01*
X45174278Y-86281197D01*
X45174276Y-86281198D01*
X45168248Y-86283882D01*
X45013747Y-86396134D01*
X44885960Y-86538056D01*
X44790473Y-86703444D01*
X44731458Y-86885072D01*
X44730768Y-86891633D01*
X44730768Y-86891635D01*
X44717810Y-87014928D01*
X44711496Y-87075000D01*
X43508000Y-87075000D01*
X43508000Y-83950000D01*
X67110996Y-83950000D01*
X67111686Y-83956565D01*
X67116906Y-84006226D01*
X67130958Y-84139928D01*
X67189973Y-84321556D01*
X67285460Y-84486944D01*
X67413247Y-84628866D01*
X67567748Y-84741118D01*
X67573776Y-84743802D01*
X67573778Y-84743803D01*
X67736181Y-84816109D01*
X67742212Y-84818794D01*
X67835613Y-84838647D01*
X67922556Y-84857128D01*
X67922561Y-84857128D01*
X67929013Y-84858500D01*
X68119987Y-84858500D01*
X68126439Y-84857128D01*
X68126444Y-84857128D01*
X68213387Y-84838647D01*
X68306788Y-84818794D01*
X68312819Y-84816109D01*
X68475222Y-84743803D01*
X68475224Y-84743802D01*
X68481252Y-84741118D01*
X68635753Y-84628866D01*
X68763540Y-84486944D01*
X68859027Y-84321556D01*
X68918042Y-84139928D01*
X68932095Y-84006226D01*
X68937314Y-83956565D01*
X68938004Y-83950000D01*
X68918042Y-83760072D01*
X68859027Y-83578444D01*
X68799303Y-83475000D01*
X69711496Y-83475000D01*
X69731458Y-83664928D01*
X69790473Y-83846556D01*
X69885960Y-84011944D01*
X70013747Y-84153866D01*
X70168248Y-84266118D01*
X70174276Y-84268802D01*
X70174278Y-84268803D01*
X70336681Y-84341109D01*
X70342712Y-84343794D01*
X70436112Y-84363647D01*
X70523056Y-84382128D01*
X70523061Y-84382128D01*
X70529513Y-84383500D01*
X70720487Y-84383500D01*
X70726939Y-84382128D01*
X70726944Y-84382128D01*
X70813888Y-84363647D01*
X70907288Y-84343794D01*
X70913319Y-84341109D01*
X71075722Y-84268803D01*
X71075724Y-84268802D01*
X71081752Y-84266118D01*
X71236253Y-84153866D01*
X71364040Y-84011944D01*
X71459527Y-83846556D01*
X71518542Y-83664928D01*
X71538504Y-83475000D01*
X71537814Y-83468435D01*
X71519232Y-83291635D01*
X71519232Y-83291633D01*
X71518542Y-83285072D01*
X71459527Y-83103444D01*
X71364040Y-82938056D01*
X71236253Y-82796134D01*
X71081752Y-82683882D01*
X71075724Y-82681198D01*
X71075722Y-82681197D01*
X70913319Y-82608891D01*
X70913318Y-82608891D01*
X70907288Y-82606206D01*
X70813888Y-82586353D01*
X70726944Y-82567872D01*
X70726939Y-82567872D01*
X70720487Y-82566500D01*
X70529513Y-82566500D01*
X70523061Y-82567872D01*
X70523056Y-82567872D01*
X70436112Y-82586353D01*
X70342712Y-82606206D01*
X70336682Y-82608891D01*
X70336681Y-82608891D01*
X70174278Y-82681197D01*
X70174276Y-82681198D01*
X70168248Y-82683882D01*
X70013747Y-82796134D01*
X69885960Y-82938056D01*
X69790473Y-83103444D01*
X69731458Y-83285072D01*
X69730768Y-83291633D01*
X69730768Y-83291635D01*
X69712186Y-83468435D01*
X69711496Y-83475000D01*
X68799303Y-83475000D01*
X68763540Y-83413056D01*
X68635753Y-83271134D01*
X68481252Y-83158882D01*
X68475224Y-83156198D01*
X68475222Y-83156197D01*
X68312819Y-83083891D01*
X68312818Y-83083891D01*
X68306788Y-83081206D01*
X68213388Y-83061353D01*
X68126444Y-83042872D01*
X68126439Y-83042872D01*
X68119987Y-83041500D01*
X67929013Y-83041500D01*
X67922561Y-83042872D01*
X67922556Y-83042872D01*
X67835612Y-83061353D01*
X67742212Y-83081206D01*
X67736182Y-83083891D01*
X67736181Y-83083891D01*
X67573778Y-83156197D01*
X67573776Y-83156198D01*
X67567748Y-83158882D01*
X67413247Y-83271134D01*
X67285460Y-83413056D01*
X67189973Y-83578444D01*
X67130958Y-83760072D01*
X67110996Y-83950000D01*
X43508000Y-83950000D01*
X43508000Y-81000000D01*
X46961496Y-81000000D01*
X46981458Y-81189928D01*
X47040473Y-81371556D01*
X47135960Y-81536944D01*
X47263747Y-81678866D01*
X47418248Y-81791118D01*
X47424276Y-81793802D01*
X47424278Y-81793803D01*
X47586681Y-81866109D01*
X47592712Y-81868794D01*
X47686113Y-81888647D01*
X47773056Y-81907128D01*
X47773061Y-81907128D01*
X47779513Y-81908500D01*
X47970487Y-81908500D01*
X47976939Y-81907128D01*
X47976944Y-81907128D01*
X48063887Y-81888647D01*
X48157288Y-81868794D01*
X48163319Y-81866109D01*
X48325722Y-81793803D01*
X48325724Y-81793802D01*
X48331752Y-81791118D01*
X48486253Y-81678866D01*
X48614040Y-81536944D01*
X48709527Y-81371556D01*
X48768542Y-81189928D01*
X48780621Y-81075000D01*
X67836496Y-81075000D01*
X67837186Y-81081565D01*
X67842678Y-81133814D01*
X67856458Y-81264928D01*
X67915473Y-81446556D01*
X68010960Y-81611944D01*
X68015378Y-81616851D01*
X68015379Y-81616852D01*
X68029693Y-81632749D01*
X68138747Y-81753866D01*
X68293248Y-81866118D01*
X68299276Y-81868802D01*
X68299278Y-81868803D01*
X68385358Y-81907128D01*
X68467712Y-81943794D01*
X68561113Y-81963647D01*
X68648056Y-81982128D01*
X68648061Y-81982128D01*
X68654513Y-81983500D01*
X68845487Y-81983500D01*
X68851939Y-81982128D01*
X68851944Y-81982128D01*
X68938887Y-81963647D01*
X69032288Y-81943794D01*
X69114642Y-81907128D01*
X69200722Y-81868803D01*
X69200724Y-81868802D01*
X69206752Y-81866118D01*
X69361253Y-81753866D01*
X69470307Y-81632749D01*
X69484621Y-81616852D01*
X69484622Y-81616851D01*
X69489040Y-81611944D01*
X69584527Y-81446556D01*
X69586715Y-81439823D01*
X69586870Y-81439596D01*
X69589254Y-81434242D01*
X69590233Y-81434678D01*
X69626788Y-81381217D01*
X69692185Y-81353580D01*
X69762142Y-81365687D01*
X69780607Y-81376821D01*
X69795977Y-81387988D01*
X69802005Y-81390672D01*
X69802007Y-81390673D01*
X69964410Y-81462979D01*
X69970441Y-81465664D01*
X70063841Y-81485517D01*
X70150785Y-81503998D01*
X70150790Y-81503998D01*
X70157242Y-81505370D01*
X70348216Y-81505370D01*
X70354668Y-81503998D01*
X70354673Y-81503998D01*
X70441617Y-81485517D01*
X70535017Y-81465664D01*
X70541048Y-81462979D01*
X70703451Y-81390673D01*
X70703453Y-81390672D01*
X70709481Y-81387988D01*
X70718801Y-81381217D01*
X70809567Y-81315271D01*
X70863982Y-81275736D01*
X70991769Y-81133814D01*
X71087256Y-80968426D01*
X71093243Y-80950000D01*
X73361496Y-80950000D01*
X73381458Y-81139928D01*
X73440473Y-81321556D01*
X73535960Y-81486944D01*
X73540378Y-81491851D01*
X73540379Y-81491852D01*
X73659325Y-81623955D01*
X73663747Y-81628866D01*
X73818248Y-81741118D01*
X73824276Y-81743802D01*
X73824278Y-81743803D01*
X73921833Y-81787237D01*
X73992712Y-81818794D01*
X74086113Y-81838647D01*
X74173056Y-81857128D01*
X74173061Y-81857128D01*
X74179513Y-81858500D01*
X74370487Y-81858500D01*
X74376939Y-81857128D01*
X74376944Y-81857128D01*
X74463887Y-81838647D01*
X74557288Y-81818794D01*
X74628167Y-81787237D01*
X74725722Y-81743803D01*
X74725724Y-81743802D01*
X74731752Y-81741118D01*
X74886253Y-81628866D01*
X74890675Y-81623955D01*
X75009621Y-81491852D01*
X75009622Y-81491851D01*
X75014040Y-81486944D01*
X75109527Y-81321556D01*
X75168542Y-81139928D01*
X75188504Y-80950000D01*
X75168542Y-80760072D01*
X75140900Y-80675000D01*
X86586496Y-80675000D01*
X86587186Y-80681565D01*
X86603548Y-80837237D01*
X86606458Y-80864928D01*
X86665473Y-81046556D01*
X86760960Y-81211944D01*
X86765378Y-81216851D01*
X86765379Y-81216852D01*
X86821895Y-81279619D01*
X86888747Y-81353866D01*
X86987843Y-81425864D01*
X87024198Y-81452277D01*
X87043248Y-81466118D01*
X87049276Y-81468802D01*
X87049278Y-81468803D01*
X87211681Y-81541109D01*
X87217712Y-81543794D01*
X87311113Y-81563647D01*
X87398056Y-81582128D01*
X87398061Y-81582128D01*
X87404513Y-81583500D01*
X87595487Y-81583500D01*
X87601939Y-81582128D01*
X87601944Y-81582128D01*
X87688887Y-81563647D01*
X87782288Y-81543794D01*
X87788319Y-81541109D01*
X87950722Y-81468803D01*
X87950724Y-81468802D01*
X87956752Y-81466118D01*
X87975803Y-81452277D01*
X88012157Y-81425864D01*
X88111253Y-81353866D01*
X88178105Y-81279619D01*
X88234621Y-81216852D01*
X88234622Y-81216851D01*
X88239040Y-81211944D01*
X88334527Y-81046556D01*
X88393542Y-80864928D01*
X88396453Y-80837237D01*
X88412814Y-80681565D01*
X88413504Y-80675000D01*
X88393542Y-80485072D01*
X88334527Y-80303444D01*
X88239040Y-80138056D01*
X88233196Y-80131565D01*
X88115675Y-80001045D01*
X88115674Y-80001044D01*
X88111253Y-79996134D01*
X87956752Y-79883882D01*
X87950724Y-79881198D01*
X87950722Y-79881197D01*
X87788319Y-79808891D01*
X87788318Y-79808891D01*
X87782288Y-79806206D01*
X87688888Y-79786353D01*
X87601944Y-79767872D01*
X87601939Y-79767872D01*
X87595487Y-79766500D01*
X87404513Y-79766500D01*
X87398061Y-79767872D01*
X87398056Y-79767872D01*
X87311112Y-79786353D01*
X87217712Y-79806206D01*
X87211682Y-79808891D01*
X87211681Y-79808891D01*
X87049278Y-79881197D01*
X87049276Y-79881198D01*
X87043248Y-79883882D01*
X86888747Y-79996134D01*
X86884326Y-80001044D01*
X86884325Y-80001045D01*
X86766805Y-80131565D01*
X86760960Y-80138056D01*
X86665473Y-80303444D01*
X86606458Y-80485072D01*
X86586496Y-80675000D01*
X75140900Y-80675000D01*
X75109527Y-80578444D01*
X75014040Y-80413056D01*
X74998804Y-80396134D01*
X74890675Y-80276045D01*
X74890674Y-80276044D01*
X74886253Y-80271134D01*
X74731752Y-80158882D01*
X74725724Y-80156198D01*
X74725722Y-80156197D01*
X74563319Y-80083891D01*
X74563318Y-80083891D01*
X74557288Y-80081206D01*
X74441362Y-80056565D01*
X74376944Y-80042872D01*
X74376939Y-80042872D01*
X74370487Y-80041500D01*
X74179513Y-80041500D01*
X74173061Y-80042872D01*
X74173056Y-80042872D01*
X74108638Y-80056565D01*
X73992712Y-80081206D01*
X73986682Y-80083891D01*
X73986681Y-80083891D01*
X73824278Y-80156197D01*
X73824276Y-80156198D01*
X73818248Y-80158882D01*
X73663747Y-80271134D01*
X73659326Y-80276044D01*
X73659325Y-80276045D01*
X73551197Y-80396134D01*
X73535960Y-80413056D01*
X73440473Y-80578444D01*
X73381458Y-80760072D01*
X73361496Y-80950000D01*
X71093243Y-80950000D01*
X71146271Y-80786798D01*
X71162915Y-80628444D01*
X71165543Y-80603435D01*
X71166233Y-80596870D01*
X71163695Y-80572721D01*
X71146961Y-80413505D01*
X71146961Y-80413503D01*
X71146271Y-80406942D01*
X71087256Y-80225314D01*
X70991769Y-80059926D01*
X70976921Y-80043435D01*
X70868404Y-79922915D01*
X70868403Y-79922914D01*
X70863982Y-79918004D01*
X70709481Y-79805752D01*
X70703453Y-79803068D01*
X70703451Y-79803067D01*
X70541048Y-79730761D01*
X70541047Y-79730761D01*
X70535017Y-79728076D01*
X70436465Y-79707128D01*
X70354673Y-79689742D01*
X70354668Y-79689742D01*
X70348216Y-79688370D01*
X70157242Y-79688370D01*
X70150790Y-79689742D01*
X70150785Y-79689742D01*
X70068993Y-79707128D01*
X69970441Y-79728076D01*
X69964411Y-79730761D01*
X69964410Y-79730761D01*
X69802007Y-79803067D01*
X69802005Y-79803068D01*
X69795977Y-79805752D01*
X69641476Y-79918004D01*
X69637055Y-79922914D01*
X69637054Y-79922915D01*
X69528538Y-80043435D01*
X69513689Y-80059926D01*
X69418202Y-80225314D01*
X69416161Y-80231597D01*
X69416160Y-80231598D01*
X69416014Y-80232047D01*
X69415859Y-80232274D01*
X69413475Y-80237628D01*
X69412496Y-80237192D01*
X69375941Y-80290653D01*
X69310544Y-80318290D01*
X69240587Y-80306183D01*
X69222122Y-80295049D01*
X69216071Y-80290653D01*
X69206752Y-80283882D01*
X69200724Y-80281198D01*
X69200722Y-80281197D01*
X69038319Y-80208891D01*
X69038318Y-80208891D01*
X69032288Y-80206206D01*
X68938887Y-80186353D01*
X68851944Y-80167872D01*
X68851939Y-80167872D01*
X68845487Y-80166500D01*
X68654513Y-80166500D01*
X68648061Y-80167872D01*
X68648056Y-80167872D01*
X68561113Y-80186353D01*
X68467712Y-80206206D01*
X68461682Y-80208891D01*
X68461681Y-80208891D01*
X68299278Y-80281197D01*
X68299276Y-80281198D01*
X68293248Y-80283882D01*
X68287907Y-80287762D01*
X68287906Y-80287763D01*
X68277878Y-80295049D01*
X68138747Y-80396134D01*
X68134326Y-80401044D01*
X68134325Y-80401045D01*
X68052758Y-80491635D01*
X68010960Y-80538056D01*
X67915473Y-80703444D01*
X67856458Y-80885072D01*
X67855768Y-80891633D01*
X67855768Y-80891635D01*
X67850324Y-80943435D01*
X67836496Y-81075000D01*
X48780621Y-81075000D01*
X48788504Y-81000000D01*
X48785787Y-80974149D01*
X48769232Y-80816635D01*
X48769232Y-80816633D01*
X48768542Y-80810072D01*
X48709527Y-80628444D01*
X48614040Y-80463056D01*
X48574169Y-80418774D01*
X48490675Y-80326045D01*
X48490674Y-80326044D01*
X48486253Y-80321134D01*
X48354369Y-80225314D01*
X48337094Y-80212763D01*
X48337093Y-80212762D01*
X48331752Y-80208882D01*
X48325724Y-80206198D01*
X48325722Y-80206197D01*
X48163319Y-80133891D01*
X48163318Y-80133891D01*
X48157288Y-80131206D01*
X48063888Y-80111353D01*
X47976944Y-80092872D01*
X47976939Y-80092872D01*
X47970487Y-80091500D01*
X47779513Y-80091500D01*
X47773061Y-80092872D01*
X47773056Y-80092872D01*
X47686112Y-80111353D01*
X47592712Y-80131206D01*
X47586682Y-80133891D01*
X47586681Y-80133891D01*
X47424278Y-80206197D01*
X47424276Y-80206198D01*
X47418248Y-80208882D01*
X47412907Y-80212762D01*
X47412906Y-80212763D01*
X47395631Y-80225314D01*
X47263747Y-80321134D01*
X47259326Y-80326044D01*
X47259325Y-80326045D01*
X47175832Y-80418774D01*
X47135960Y-80463056D01*
X47040473Y-80628444D01*
X46981458Y-80810072D01*
X46980768Y-80816633D01*
X46980768Y-80816635D01*
X46964213Y-80974149D01*
X46961496Y-81000000D01*
X43508000Y-81000000D01*
X43508000Y-80050000D01*
X62136496Y-80050000D01*
X62137186Y-80056565D01*
X62155654Y-80232274D01*
X62156458Y-80239928D01*
X62215473Y-80421556D01*
X62310960Y-80586944D01*
X62315378Y-80591851D01*
X62315379Y-80591852D01*
X62343174Y-80622721D01*
X62438747Y-80728866D01*
X62593248Y-80841118D01*
X62599276Y-80843802D01*
X62599278Y-80843803D01*
X62761681Y-80916109D01*
X62767712Y-80918794D01*
X62861113Y-80938647D01*
X62948056Y-80957128D01*
X62948061Y-80957128D01*
X62954513Y-80958500D01*
X63145487Y-80958500D01*
X63151939Y-80957128D01*
X63151944Y-80957128D01*
X63238887Y-80938647D01*
X63332288Y-80918794D01*
X63338319Y-80916109D01*
X63500722Y-80843803D01*
X63500724Y-80843802D01*
X63506752Y-80841118D01*
X63661253Y-80728866D01*
X63756826Y-80622721D01*
X63784621Y-80591852D01*
X63784622Y-80591851D01*
X63789040Y-80586944D01*
X63884527Y-80421556D01*
X63943542Y-80239928D01*
X63944347Y-80232274D01*
X63955621Y-80125000D01*
X64711496Y-80125000D01*
X64712186Y-80131565D01*
X64729369Y-80295049D01*
X64731458Y-80314928D01*
X64790473Y-80496556D01*
X64885960Y-80661944D01*
X64890378Y-80666851D01*
X64890379Y-80666852D01*
X64998379Y-80786798D01*
X65013747Y-80803866D01*
X65168248Y-80916118D01*
X65174276Y-80918802D01*
X65174278Y-80918803D01*
X65285734Y-80968426D01*
X65342712Y-80993794D01*
X65436112Y-81013647D01*
X65523056Y-81032128D01*
X65523061Y-81032128D01*
X65529513Y-81033500D01*
X65720487Y-81033500D01*
X65726939Y-81032128D01*
X65726944Y-81032128D01*
X65813888Y-81013647D01*
X65907288Y-80993794D01*
X65964266Y-80968426D01*
X66075722Y-80918803D01*
X66075724Y-80918802D01*
X66081752Y-80916118D01*
X66236253Y-80803866D01*
X66251621Y-80786798D01*
X66359621Y-80666852D01*
X66359622Y-80666851D01*
X66364040Y-80661944D01*
X66459527Y-80496556D01*
X66518542Y-80314928D01*
X66520632Y-80295049D01*
X66537814Y-80131565D01*
X66538504Y-80125000D01*
X66518542Y-79935072D01*
X66459527Y-79753444D01*
X66364040Y-79588056D01*
X66324195Y-79543803D01*
X66240675Y-79451045D01*
X66240674Y-79451044D01*
X66236253Y-79446134D01*
X66081752Y-79333882D01*
X66075724Y-79331198D01*
X66075722Y-79331197D01*
X65913319Y-79258891D01*
X65913318Y-79258891D01*
X65907288Y-79256206D01*
X65813888Y-79236353D01*
X65726944Y-79217872D01*
X65726939Y-79217872D01*
X65720487Y-79216500D01*
X65529513Y-79216500D01*
X65523061Y-79217872D01*
X65523056Y-79217872D01*
X65436112Y-79236353D01*
X65342712Y-79256206D01*
X65336682Y-79258891D01*
X65336681Y-79258891D01*
X65174278Y-79331197D01*
X65174276Y-79331198D01*
X65168248Y-79333882D01*
X65013747Y-79446134D01*
X65009326Y-79451044D01*
X65009325Y-79451045D01*
X64925806Y-79543803D01*
X64885960Y-79588056D01*
X64790473Y-79753444D01*
X64731458Y-79935072D01*
X64711496Y-80125000D01*
X63955621Y-80125000D01*
X63962814Y-80056565D01*
X63963504Y-80050000D01*
X63949223Y-79914121D01*
X63944232Y-79866635D01*
X63944232Y-79866633D01*
X63943542Y-79860072D01*
X63884527Y-79678444D01*
X63877406Y-79666109D01*
X63832341Y-79588056D01*
X63789040Y-79513056D01*
X63761752Y-79482749D01*
X63665675Y-79376045D01*
X63665674Y-79376044D01*
X63661253Y-79371134D01*
X63538747Y-79282128D01*
X63512094Y-79262763D01*
X63512093Y-79262762D01*
X63506752Y-79258882D01*
X63500724Y-79256198D01*
X63500722Y-79256197D01*
X63338319Y-79183891D01*
X63338318Y-79183891D01*
X63332288Y-79181206D01*
X63238888Y-79161353D01*
X63151944Y-79142872D01*
X63151939Y-79142872D01*
X63145487Y-79141500D01*
X62954513Y-79141500D01*
X62948061Y-79142872D01*
X62948056Y-79142872D01*
X62861112Y-79161353D01*
X62767712Y-79181206D01*
X62761682Y-79183891D01*
X62761681Y-79183891D01*
X62599278Y-79256197D01*
X62599276Y-79256198D01*
X62593248Y-79258882D01*
X62587907Y-79262762D01*
X62587906Y-79262763D01*
X62561253Y-79282128D01*
X62438747Y-79371134D01*
X62434326Y-79376044D01*
X62434325Y-79376045D01*
X62338249Y-79482749D01*
X62310960Y-79513056D01*
X62267659Y-79588056D01*
X62222595Y-79666109D01*
X62215473Y-79678444D01*
X62156458Y-79860072D01*
X62155768Y-79866633D01*
X62155768Y-79866635D01*
X62150777Y-79914121D01*
X62136496Y-80050000D01*
X43508000Y-80050000D01*
X43508000Y-77575000D01*
X47536496Y-77575000D01*
X47537186Y-77581565D01*
X47554033Y-77741852D01*
X47556458Y-77764928D01*
X47615473Y-77946556D01*
X47618776Y-77952278D01*
X47618777Y-77952279D01*
X47684497Y-78066109D01*
X47710960Y-78111944D01*
X47715378Y-78116851D01*
X47715379Y-78116852D01*
X47807150Y-78218774D01*
X47838747Y-78253866D01*
X47993248Y-78366118D01*
X47999276Y-78368802D01*
X47999278Y-78368803D01*
X48161681Y-78441109D01*
X48167712Y-78443794D01*
X48261112Y-78463647D01*
X48348056Y-78482128D01*
X48348061Y-78482128D01*
X48354513Y-78483500D01*
X48545487Y-78483500D01*
X48551939Y-78482128D01*
X48551944Y-78482128D01*
X48638888Y-78463647D01*
X48732288Y-78443794D01*
X48738319Y-78441109D01*
X48900722Y-78368803D01*
X48900724Y-78368802D01*
X48906752Y-78366118D01*
X49061253Y-78253866D01*
X49092850Y-78218774D01*
X49184621Y-78116852D01*
X49184622Y-78116851D01*
X49189040Y-78111944D01*
X49215503Y-78066109D01*
X49281223Y-77952279D01*
X49281224Y-77952278D01*
X49284527Y-77946556D01*
X49343542Y-77764928D01*
X49345968Y-77741852D01*
X49355622Y-77650000D01*
X53211496Y-77650000D01*
X53212186Y-77656565D01*
X53223982Y-77768794D01*
X53231458Y-77839928D01*
X53290473Y-78021556D01*
X53385960Y-78186944D01*
X53390378Y-78191851D01*
X53390379Y-78191852D01*
X53440990Y-78248061D01*
X53513747Y-78328866D01*
X53668248Y-78441118D01*
X53674276Y-78443802D01*
X53674278Y-78443803D01*
X53836681Y-78516109D01*
X53842712Y-78518794D01*
X53936113Y-78538647D01*
X54023056Y-78557128D01*
X54023061Y-78557128D01*
X54029513Y-78558500D01*
X54220487Y-78558500D01*
X54226939Y-78557128D01*
X54226944Y-78557128D01*
X54313887Y-78538647D01*
X54407288Y-78518794D01*
X54413319Y-78516109D01*
X54575722Y-78443803D01*
X54575724Y-78443802D01*
X54581752Y-78441118D01*
X54736253Y-78328866D01*
X54809010Y-78248061D01*
X54859621Y-78191852D01*
X54859622Y-78191851D01*
X54864040Y-78186944D01*
X54959527Y-78021556D01*
X55018542Y-77839928D01*
X55026019Y-77768794D01*
X55037814Y-77656565D01*
X55038504Y-77650000D01*
X55030621Y-77575000D01*
X55019232Y-77466635D01*
X55019232Y-77466633D01*
X55018542Y-77460072D01*
X54959527Y-77278444D01*
X54954250Y-77269303D01*
X54867341Y-77118774D01*
X54864040Y-77113056D01*
X54843216Y-77089928D01*
X54740675Y-76976045D01*
X54740674Y-76976044D01*
X54736253Y-76971134D01*
X54581752Y-76858882D01*
X54575724Y-76856198D01*
X54575722Y-76856197D01*
X54413319Y-76783891D01*
X54413318Y-76783891D01*
X54407288Y-76781206D01*
X54313887Y-76761353D01*
X54226944Y-76742872D01*
X54226939Y-76742872D01*
X54220487Y-76741500D01*
X54029513Y-76741500D01*
X54023061Y-76742872D01*
X54023056Y-76742872D01*
X53936113Y-76761353D01*
X53842712Y-76781206D01*
X53836682Y-76783891D01*
X53836681Y-76783891D01*
X53674278Y-76856197D01*
X53674276Y-76856198D01*
X53668248Y-76858882D01*
X53513747Y-76971134D01*
X53509326Y-76976044D01*
X53509325Y-76976045D01*
X53406785Y-77089928D01*
X53385960Y-77113056D01*
X53382659Y-77118774D01*
X53295751Y-77269303D01*
X53290473Y-77278444D01*
X53231458Y-77460072D01*
X53230768Y-77466633D01*
X53230768Y-77466635D01*
X53219379Y-77575000D01*
X53211496Y-77650000D01*
X49355622Y-77650000D01*
X49362814Y-77581565D01*
X49363504Y-77575000D01*
X49355766Y-77501379D01*
X49344232Y-77391635D01*
X49344232Y-77391633D01*
X49343542Y-77385072D01*
X49284527Y-77203444D01*
X49277406Y-77191109D01*
X49232341Y-77113056D01*
X49189040Y-77038056D01*
X49169753Y-77016635D01*
X49065675Y-76901045D01*
X49065674Y-76901044D01*
X49061253Y-76896134D01*
X48906752Y-76783882D01*
X48900724Y-76781198D01*
X48900722Y-76781197D01*
X48738319Y-76708891D01*
X48738318Y-76708891D01*
X48732288Y-76706206D01*
X48638888Y-76686353D01*
X48551944Y-76667872D01*
X48551939Y-76667872D01*
X48545487Y-76666500D01*
X48354513Y-76666500D01*
X48348061Y-76667872D01*
X48348056Y-76667872D01*
X48261112Y-76686353D01*
X48167712Y-76706206D01*
X48161682Y-76708891D01*
X48161681Y-76708891D01*
X47999278Y-76781197D01*
X47999276Y-76781198D01*
X47993248Y-76783882D01*
X47838747Y-76896134D01*
X47834326Y-76901044D01*
X47834325Y-76901045D01*
X47730248Y-77016635D01*
X47710960Y-77038056D01*
X47667659Y-77113056D01*
X47622595Y-77191109D01*
X47615473Y-77203444D01*
X47556458Y-77385072D01*
X47555768Y-77391633D01*
X47555768Y-77391635D01*
X47544234Y-77501379D01*
X47536496Y-77575000D01*
X43508000Y-77575000D01*
X43508000Y-77534500D01*
X43528002Y-77466379D01*
X43581658Y-77419886D01*
X43634000Y-77408500D01*
X43695487Y-77408500D01*
X43701939Y-77407128D01*
X43701944Y-77407128D01*
X43805706Y-77385072D01*
X43882288Y-77368794D01*
X43888319Y-77366109D01*
X44050722Y-77293803D01*
X44050724Y-77293802D01*
X44056752Y-77291118D01*
X44087176Y-77269014D01*
X44168774Y-77209729D01*
X44211253Y-77178866D01*
X44265360Y-77118774D01*
X44334621Y-77041852D01*
X44334622Y-77041851D01*
X44339040Y-77036944D01*
X44414315Y-76906565D01*
X44431223Y-76877279D01*
X44431224Y-76877278D01*
X44434527Y-76871556D01*
X44493542Y-76689928D01*
X44495766Y-76668774D01*
X44512814Y-76506565D01*
X44513504Y-76500000D01*
X44498595Y-76358148D01*
X44494232Y-76316635D01*
X44494232Y-76316633D01*
X44493542Y-76310072D01*
X44434527Y-76128444D01*
X44339040Y-75963056D01*
X44330386Y-75953444D01*
X44215675Y-75826045D01*
X44215674Y-75826044D01*
X44211253Y-75821134D01*
X44056752Y-75708882D01*
X44050724Y-75706198D01*
X44050722Y-75706197D01*
X43888319Y-75633891D01*
X43888318Y-75633891D01*
X43882288Y-75631206D01*
X43875833Y-75629834D01*
X43875824Y-75629831D01*
X43866833Y-75627920D01*
X43804360Y-75594192D01*
X43770039Y-75532042D01*
X43774767Y-75461203D01*
X43817044Y-75404166D01*
X43841782Y-75389567D01*
X44000722Y-75318803D01*
X44000724Y-75318802D01*
X44006752Y-75316118D01*
X44161253Y-75203866D01*
X44170322Y-75193794D01*
X44284621Y-75066852D01*
X44284622Y-75066851D01*
X44289040Y-75061944D01*
X44384527Y-74896556D01*
X44443542Y-74714928D01*
X44444872Y-74702279D01*
X44462814Y-74531565D01*
X44463504Y-74525000D01*
X44461626Y-74507128D01*
X44444232Y-74341635D01*
X44444232Y-74341633D01*
X44443542Y-74335072D01*
X44384527Y-74153444D01*
X44377835Y-74141852D01*
X44319186Y-74040271D01*
X44289040Y-73988056D01*
X44280277Y-73978323D01*
X44165675Y-73851045D01*
X44165674Y-73851044D01*
X44161253Y-73846134D01*
X44041357Y-73759024D01*
X44012094Y-73737763D01*
X44012093Y-73737762D01*
X44006752Y-73733882D01*
X44000724Y-73731198D01*
X44000722Y-73731197D01*
X43838319Y-73658891D01*
X43838318Y-73658891D01*
X43832288Y-73656206D01*
X43738887Y-73636353D01*
X43651944Y-73617872D01*
X43651939Y-73617872D01*
X43645487Y-73616500D01*
X43634000Y-73616500D01*
X43565879Y-73596498D01*
X43519386Y-73542842D01*
X43508000Y-73490500D01*
X43508000Y-72817925D01*
X47011645Y-72817925D01*
X47012204Y-72824065D01*
X47025733Y-72972721D01*
X47029570Y-73014888D01*
X47085410Y-73204619D01*
X47088263Y-73210077D01*
X47088265Y-73210081D01*
X47097865Y-73228444D01*
X47177040Y-73379890D01*
X47300968Y-73534025D01*
X47305692Y-73537989D01*
X47308003Y-73539928D01*
X47452474Y-73661154D01*
X47457872Y-73664121D01*
X47457877Y-73664125D01*
X47591826Y-73737763D01*
X47625787Y-73756433D01*
X47631654Y-73758294D01*
X47631656Y-73758295D01*
X47793276Y-73809564D01*
X47814306Y-73816235D01*
X47968227Y-73833500D01*
X48074769Y-73833500D01*
X48077825Y-73833200D01*
X48077832Y-73833200D01*
X48136340Y-73827463D01*
X48221833Y-73819080D01*
X48227734Y-73817298D01*
X48227736Y-73817298D01*
X48324589Y-73788056D01*
X48411169Y-73761916D01*
X48585796Y-73669066D01*
X48678529Y-73593435D01*
X48734287Y-73547960D01*
X48734290Y-73547957D01*
X48739062Y-73544065D01*
X48744089Y-73537989D01*
X48861201Y-73396425D01*
X48861203Y-73396421D01*
X48865130Y-73391675D01*
X48959198Y-73217701D01*
X49017682Y-73028768D01*
X49024480Y-72964087D01*
X49037711Y-72838204D01*
X49037711Y-72838202D01*
X49038355Y-72832075D01*
X49037067Y-72817925D01*
X51411645Y-72817925D01*
X51412204Y-72824065D01*
X51425733Y-72972721D01*
X51429570Y-73014888D01*
X51485410Y-73204619D01*
X51488263Y-73210077D01*
X51488265Y-73210081D01*
X51497865Y-73228444D01*
X51577040Y-73379890D01*
X51700968Y-73534025D01*
X51705692Y-73537989D01*
X51708003Y-73539928D01*
X51852474Y-73661154D01*
X51857872Y-73664121D01*
X51857877Y-73664125D01*
X51991826Y-73737763D01*
X52025787Y-73756433D01*
X52031654Y-73758294D01*
X52031656Y-73758295D01*
X52193276Y-73809564D01*
X52214306Y-73816235D01*
X52368227Y-73833500D01*
X52474769Y-73833500D01*
X52477825Y-73833200D01*
X52477832Y-73833200D01*
X52536340Y-73827463D01*
X52621833Y-73819080D01*
X52627734Y-73817298D01*
X52627736Y-73817298D01*
X52724589Y-73788056D01*
X52811169Y-73761916D01*
X52985796Y-73669066D01*
X53078529Y-73593435D01*
X53134287Y-73547960D01*
X53134290Y-73547957D01*
X53139062Y-73544065D01*
X53144089Y-73537989D01*
X53261201Y-73396425D01*
X53261203Y-73396421D01*
X53265130Y-73391675D01*
X53359198Y-73217701D01*
X53417682Y-73028768D01*
X53424480Y-72964087D01*
X53437711Y-72838204D01*
X53437711Y-72838202D01*
X53438355Y-72832075D01*
X53425562Y-72691500D01*
X53420989Y-72641251D01*
X53420988Y-72641248D01*
X53420430Y-72635112D01*
X53417224Y-72624216D01*
X53366330Y-72451294D01*
X53364590Y-72445381D01*
X53355127Y-72427279D01*
X53275813Y-72275568D01*
X53272960Y-72270110D01*
X53149032Y-72115975D01*
X53142727Y-72110684D01*
X53062582Y-72043435D01*
X52997526Y-71988846D01*
X52992128Y-71985879D01*
X52992123Y-71985875D01*
X52829608Y-71896533D01*
X52829609Y-71896533D01*
X52824213Y-71893567D01*
X52818346Y-71891706D01*
X52818344Y-71891705D01*
X52641564Y-71835627D01*
X52641563Y-71835627D01*
X52635694Y-71833765D01*
X52481773Y-71816500D01*
X52375231Y-71816500D01*
X52372175Y-71816800D01*
X52372168Y-71816800D01*
X52313660Y-71822537D01*
X52228167Y-71830920D01*
X52222266Y-71832702D01*
X52222264Y-71832702D01*
X52152405Y-71853794D01*
X52038831Y-71888084D01*
X51864204Y-71980934D01*
X51779521Y-72050000D01*
X51715713Y-72102040D01*
X51715710Y-72102043D01*
X51710938Y-72105935D01*
X51707011Y-72110682D01*
X51707009Y-72110684D01*
X51588799Y-72253575D01*
X51588797Y-72253579D01*
X51584870Y-72258325D01*
X51490802Y-72432299D01*
X51432318Y-72621232D01*
X51431674Y-72627357D01*
X51431674Y-72627358D01*
X51412673Y-72808148D01*
X51411645Y-72817925D01*
X49037067Y-72817925D01*
X49025562Y-72691500D01*
X49020989Y-72641251D01*
X49020988Y-72641248D01*
X49020430Y-72635112D01*
X49017224Y-72624216D01*
X48966330Y-72451294D01*
X48964590Y-72445381D01*
X48955127Y-72427279D01*
X48875813Y-72275568D01*
X48872960Y-72270110D01*
X48749032Y-72115975D01*
X48742727Y-72110684D01*
X48662582Y-72043435D01*
X48597526Y-71988846D01*
X48592128Y-71985879D01*
X48592123Y-71985875D01*
X48429608Y-71896533D01*
X48429609Y-71896533D01*
X48424213Y-71893567D01*
X48418346Y-71891706D01*
X48418344Y-71891705D01*
X48241564Y-71835627D01*
X48241563Y-71835627D01*
X48235694Y-71833765D01*
X48081773Y-71816500D01*
X47975231Y-71816500D01*
X47972175Y-71816800D01*
X47972168Y-71816800D01*
X47913660Y-71822537D01*
X47828167Y-71830920D01*
X47822266Y-71832702D01*
X47822264Y-71832702D01*
X47752405Y-71853794D01*
X47638831Y-71888084D01*
X47464204Y-71980934D01*
X47379521Y-72050000D01*
X47315713Y-72102040D01*
X47315710Y-72102043D01*
X47310938Y-72105935D01*
X47307011Y-72110682D01*
X47307009Y-72110684D01*
X47188799Y-72253575D01*
X47188797Y-72253579D01*
X47184870Y-72258325D01*
X47090802Y-72432299D01*
X47032318Y-72621232D01*
X47031674Y-72627357D01*
X47031674Y-72627358D01*
X47012673Y-72808148D01*
X47011645Y-72817925D01*
X43508000Y-72817925D01*
X43508000Y-71634500D01*
X43528002Y-71566379D01*
X43581658Y-71519886D01*
X43634000Y-71508500D01*
X43820487Y-71508500D01*
X43826939Y-71507128D01*
X43826944Y-71507128D01*
X43913888Y-71488647D01*
X44007288Y-71468794D01*
X44027370Y-71459853D01*
X44175722Y-71393803D01*
X44175724Y-71393802D01*
X44181752Y-71391118D01*
X44216162Y-71366118D01*
X44251737Y-71340271D01*
X44336253Y-71278866D01*
X44396852Y-71211564D01*
X44459621Y-71141852D01*
X44459622Y-71141851D01*
X44464040Y-71136944D01*
X44529726Y-71023173D01*
X44556223Y-70977279D01*
X44556224Y-70977278D01*
X44559527Y-70971556D01*
X44618542Y-70789928D01*
X44620362Y-70772618D01*
X44637814Y-70606565D01*
X44638504Y-70600000D01*
X44621483Y-70438056D01*
X44619232Y-70416635D01*
X44619232Y-70416633D01*
X44618542Y-70410072D01*
X44559527Y-70228444D01*
X44464040Y-70063056D01*
X44446679Y-70043774D01*
X44340675Y-69926045D01*
X44340674Y-69926044D01*
X44336253Y-69921134D01*
X44192361Y-69816590D01*
X44187094Y-69812763D01*
X44187093Y-69812762D01*
X44181752Y-69808882D01*
X44175722Y-69806197D01*
X44169999Y-69802893D01*
X44171297Y-69800645D01*
X44126051Y-69762175D01*
X44105413Y-69694244D01*
X44124776Y-69625939D01*
X44180160Y-69577958D01*
X44200716Y-69568806D01*
X44200721Y-69568803D01*
X44206752Y-69566118D01*
X44361253Y-69453866D01*
X44471373Y-69331565D01*
X44477284Y-69325000D01*
X55786496Y-69325000D01*
X55787186Y-69331565D01*
X55795504Y-69410702D01*
X55806458Y-69514928D01*
X55865473Y-69696556D01*
X55868776Y-69702278D01*
X55868777Y-69702279D01*
X55896329Y-69750000D01*
X55960960Y-69861944D01*
X55965378Y-69866851D01*
X55965379Y-69866852D01*
X55977809Y-69880657D01*
X56008526Y-69944664D01*
X55999761Y-70015118D01*
X55987879Y-70035924D01*
X55985960Y-70038056D01*
X55890473Y-70203444D01*
X55831458Y-70385072D01*
X55830768Y-70391633D01*
X55830768Y-70391635D01*
X55823899Y-70456994D01*
X55811496Y-70575000D01*
X55812186Y-70581565D01*
X55828154Y-70733489D01*
X55831458Y-70764928D01*
X55890473Y-70946556D01*
X55893776Y-70952277D01*
X55893777Y-70952279D01*
X55908211Y-70977279D01*
X55985960Y-71111944D01*
X55990378Y-71116851D01*
X55990379Y-71116852D01*
X56068629Y-71203757D01*
X56113747Y-71253866D01*
X56268248Y-71366118D01*
X56274276Y-71368802D01*
X56274278Y-71368803D01*
X56436681Y-71441109D01*
X56442712Y-71443794D01*
X56536113Y-71463647D01*
X56623056Y-71482128D01*
X56623061Y-71482128D01*
X56629513Y-71483500D01*
X56820487Y-71483500D01*
X56826939Y-71482128D01*
X56826944Y-71482128D01*
X56865731Y-71473883D01*
X56936522Y-71479285D01*
X56993154Y-71522102D01*
X57017648Y-71588739D01*
X57001046Y-71660130D01*
X56990473Y-71678444D01*
X56931458Y-71860072D01*
X56930768Y-71866633D01*
X56930768Y-71866635D01*
X56917441Y-71993435D01*
X56911496Y-72050000D01*
X56912186Y-72056565D01*
X56918014Y-72112011D01*
X56931458Y-72239928D01*
X56990473Y-72421556D01*
X57085960Y-72586944D01*
X57090378Y-72591851D01*
X57090379Y-72591852D01*
X57205441Y-72719641D01*
X57213747Y-72728866D01*
X57265546Y-72766500D01*
X57344777Y-72824065D01*
X57368248Y-72841118D01*
X57374276Y-72843802D01*
X57374278Y-72843803D01*
X57536681Y-72916109D01*
X57542712Y-72918794D01*
X57597121Y-72930359D01*
X57659594Y-72964087D01*
X57693916Y-73026237D01*
X57689188Y-73097076D01*
X57680044Y-73116604D01*
X57615473Y-73228444D01*
X57556458Y-73410072D01*
X57555768Y-73416633D01*
X57555768Y-73416635D01*
X57542375Y-73544065D01*
X57536496Y-73600000D01*
X57537186Y-73606565D01*
X57552938Y-73756433D01*
X57556458Y-73789928D01*
X57558497Y-73796202D01*
X57558497Y-73796204D01*
X57562838Y-73809564D01*
X57564864Y-73880532D01*
X57528200Y-73941329D01*
X57464487Y-73972653D01*
X57416807Y-73971744D01*
X57267421Y-73939990D01*
X57267408Y-73939989D01*
X57260955Y-73938617D01*
X57069981Y-73938617D01*
X57063529Y-73939989D01*
X57063524Y-73939989D01*
X56976581Y-73958470D01*
X56883180Y-73978323D01*
X56877150Y-73981008D01*
X56877149Y-73981008D01*
X56714746Y-74053314D01*
X56714744Y-74053315D01*
X56708716Y-74055999D01*
X56703375Y-74059879D01*
X56703374Y-74059880D01*
X56653311Y-74096253D01*
X56554215Y-74168251D01*
X56549794Y-74173161D01*
X56549793Y-74173162D01*
X56451121Y-74282749D01*
X56426428Y-74310173D01*
X56404037Y-74348955D01*
X56338634Y-74462237D01*
X56330941Y-74475561D01*
X56271926Y-74657189D01*
X56271236Y-74663750D01*
X56271236Y-74663752D01*
X56262281Y-74748955D01*
X56251964Y-74847117D01*
X56252654Y-74853682D01*
X56267923Y-74998955D01*
X56271926Y-75037045D01*
X56330941Y-75218673D01*
X56426428Y-75384061D01*
X56500803Y-75466663D01*
X56531518Y-75530667D01*
X56522755Y-75601120D01*
X56492162Y-75643653D01*
X56488747Y-75646134D01*
X56484326Y-75651044D01*
X56432249Y-75708882D01*
X56360960Y-75788056D01*
X56339027Y-75826045D01*
X56274069Y-75938556D01*
X56265473Y-75953444D01*
X56206458Y-76135072D01*
X56186496Y-76325000D01*
X56206458Y-76514928D01*
X56265473Y-76696556D01*
X56268776Y-76702278D01*
X56268777Y-76702279D01*
X56273276Y-76710072D01*
X56360960Y-76861944D01*
X56365378Y-76866851D01*
X56365379Y-76866852D01*
X56401137Y-76906565D01*
X56488747Y-77003866D01*
X56587843Y-77075864D01*
X56615842Y-77096206D01*
X56643248Y-77116118D01*
X56649276Y-77118802D01*
X56649278Y-77118803D01*
X56784183Y-77178866D01*
X56817712Y-77193794D01*
X56892680Y-77209729D01*
X56998056Y-77232128D01*
X56998061Y-77232128D01*
X57004513Y-77233500D01*
X57195487Y-77233500D01*
X57201939Y-77232128D01*
X57201944Y-77232128D01*
X57307320Y-77209729D01*
X57382288Y-77193794D01*
X57415817Y-77178866D01*
X57550722Y-77118803D01*
X57550724Y-77118802D01*
X57556752Y-77116118D01*
X57584159Y-77096206D01*
X57612157Y-77075864D01*
X57711253Y-77003866D01*
X57798863Y-76906565D01*
X57804774Y-76900000D01*
X69061496Y-76900000D01*
X69062186Y-76906565D01*
X69069489Y-76976045D01*
X69081458Y-77089928D01*
X69140473Y-77271556D01*
X69235960Y-77436944D01*
X69240378Y-77441851D01*
X69240379Y-77441852D01*
X69289113Y-77495977D01*
X69363747Y-77578866D01*
X69518248Y-77691118D01*
X69524274Y-77693801D01*
X69524281Y-77693805D01*
X69568348Y-77713424D01*
X69622444Y-77759404D01*
X69643094Y-77827331D01*
X69626220Y-77891529D01*
X69590473Y-77953444D01*
X69531458Y-78135072D01*
X69530768Y-78141633D01*
X69530768Y-78141635D01*
X69512186Y-78318435D01*
X69511496Y-78325000D01*
X69512186Y-78331565D01*
X69528011Y-78482128D01*
X69531458Y-78514928D01*
X69590473Y-78696556D01*
X69685960Y-78861944D01*
X69690378Y-78866851D01*
X69690379Y-78866852D01*
X69744794Y-78927286D01*
X69813747Y-79003866D01*
X69968248Y-79116118D01*
X69974276Y-79118802D01*
X69974278Y-79118803D01*
X70120469Y-79183891D01*
X70142712Y-79193794D01*
X70236112Y-79213647D01*
X70323056Y-79232128D01*
X70323061Y-79232128D01*
X70329513Y-79233500D01*
X70520487Y-79233500D01*
X70526939Y-79232128D01*
X70526944Y-79232128D01*
X70613888Y-79213647D01*
X70707288Y-79193794D01*
X70729531Y-79183891D01*
X70875722Y-79118803D01*
X70875724Y-79118802D01*
X70881752Y-79116118D01*
X71036253Y-79003866D01*
X71162029Y-78864177D01*
X71222474Y-78826939D01*
X71293458Y-78828291D01*
X71352442Y-78867805D01*
X71377576Y-78927286D01*
X71379394Y-78926900D01*
X71380768Y-78933364D01*
X71381458Y-78939928D01*
X71440473Y-79121556D01*
X71443776Y-79127278D01*
X71443777Y-79127279D01*
X71521999Y-79262763D01*
X71535960Y-79286944D01*
X71540378Y-79291851D01*
X71540379Y-79291852D01*
X71585399Y-79341852D01*
X71663747Y-79428866D01*
X71818248Y-79541118D01*
X71824276Y-79543802D01*
X71824278Y-79543803D01*
X71936581Y-79593803D01*
X71992712Y-79618794D01*
X72086113Y-79638647D01*
X72173056Y-79657128D01*
X72173061Y-79657128D01*
X72179513Y-79658500D01*
X72370487Y-79658500D01*
X72376939Y-79657128D01*
X72376944Y-79657128D01*
X72463887Y-79638647D01*
X72557288Y-79618794D01*
X72613419Y-79593803D01*
X72725722Y-79543803D01*
X72725724Y-79543802D01*
X72731752Y-79541118D01*
X72886253Y-79428866D01*
X72964601Y-79341852D01*
X73009621Y-79291852D01*
X73009622Y-79291851D01*
X73014040Y-79286944D01*
X73028001Y-79262763D01*
X73106223Y-79127279D01*
X73106224Y-79127278D01*
X73109527Y-79121556D01*
X73168542Y-78939928D01*
X73170968Y-78916852D01*
X73183249Y-78800000D01*
X77486496Y-78800000D01*
X77487186Y-78806565D01*
X77499834Y-78926900D01*
X77506458Y-78989928D01*
X77565473Y-79171556D01*
X77568776Y-79177278D01*
X77568777Y-79177279D01*
X77576762Y-79191109D01*
X77660960Y-79336944D01*
X77665378Y-79341851D01*
X77665379Y-79341852D01*
X77739305Y-79423955D01*
X77788747Y-79478866D01*
X77943248Y-79591118D01*
X77949276Y-79593802D01*
X77949278Y-79593803D01*
X78094591Y-79658500D01*
X78117712Y-79668794D01*
X78192680Y-79684729D01*
X78298056Y-79707128D01*
X78298061Y-79707128D01*
X78304513Y-79708500D01*
X78495487Y-79708500D01*
X78501939Y-79707128D01*
X78501944Y-79707128D01*
X78607320Y-79684729D01*
X78682288Y-79668794D01*
X78705409Y-79658500D01*
X78850722Y-79593803D01*
X78850724Y-79593802D01*
X78856752Y-79591118D01*
X79011253Y-79478866D01*
X79060695Y-79423955D01*
X79134621Y-79341852D01*
X79134622Y-79341851D01*
X79139040Y-79336944D01*
X79223238Y-79191109D01*
X79231223Y-79177279D01*
X79231224Y-79177278D01*
X79234527Y-79171556D01*
X79293542Y-78989928D01*
X79300167Y-78926900D01*
X79312814Y-78806565D01*
X79313504Y-78800000D01*
X79293542Y-78610072D01*
X79234527Y-78428444D01*
X79139040Y-78263056D01*
X79126344Y-78248955D01*
X79015675Y-78126045D01*
X79015674Y-78126044D01*
X79011253Y-78121134D01*
X78856752Y-78008882D01*
X78850724Y-78006198D01*
X78850722Y-78006197D01*
X78688319Y-77933891D01*
X78688318Y-77933891D01*
X78682288Y-77931206D01*
X78588887Y-77911353D01*
X78501944Y-77892872D01*
X78501939Y-77892872D01*
X78495487Y-77891500D01*
X78304513Y-77891500D01*
X78298061Y-77892872D01*
X78298056Y-77892872D01*
X78211113Y-77911353D01*
X78117712Y-77931206D01*
X78111682Y-77933891D01*
X78111681Y-77933891D01*
X77949278Y-78006197D01*
X77949276Y-78006198D01*
X77943248Y-78008882D01*
X77788747Y-78121134D01*
X77784326Y-78126044D01*
X77784325Y-78126045D01*
X77673657Y-78248955D01*
X77660960Y-78263056D01*
X77565473Y-78428444D01*
X77506458Y-78610072D01*
X77486496Y-78800000D01*
X73183249Y-78800000D01*
X73187814Y-78756565D01*
X73188504Y-78750000D01*
X73168542Y-78560072D01*
X73109527Y-78378444D01*
X73014040Y-78213056D01*
X72994753Y-78191635D01*
X72890675Y-78076045D01*
X72890671Y-78076041D01*
X72886253Y-78071134D01*
X72731752Y-77958882D01*
X72725724Y-77956198D01*
X72725722Y-77956197D01*
X72563319Y-77883891D01*
X72563318Y-77883891D01*
X72557288Y-77881206D01*
X72463887Y-77861353D01*
X72376944Y-77842872D01*
X72376939Y-77842872D01*
X72370487Y-77841500D01*
X72179513Y-77841500D01*
X72173061Y-77842872D01*
X72173056Y-77842872D01*
X72086113Y-77861353D01*
X71992712Y-77881206D01*
X71986682Y-77883891D01*
X71986681Y-77883891D01*
X71824278Y-77956197D01*
X71824276Y-77956198D01*
X71818248Y-77958882D01*
X71663747Y-78071134D01*
X71537972Y-78210822D01*
X71477526Y-78248061D01*
X71406542Y-78246709D01*
X71347558Y-78207195D01*
X71322424Y-78147714D01*
X71320606Y-78148100D01*
X71319232Y-78141635D01*
X71318542Y-78135072D01*
X71259527Y-77953444D01*
X71164040Y-77788056D01*
X71146697Y-77768794D01*
X71040675Y-77651045D01*
X71040674Y-77651044D01*
X71036253Y-77646134D01*
X70881752Y-77533882D01*
X70875726Y-77531199D01*
X70875719Y-77531195D01*
X70831652Y-77511576D01*
X70777556Y-77465596D01*
X70756906Y-77397669D01*
X70773780Y-77333471D01*
X70809527Y-77271556D01*
X70868542Y-77089928D01*
X70880512Y-76976045D01*
X70887814Y-76906565D01*
X70888504Y-76900000D01*
X70876300Y-76783882D01*
X70869232Y-76716635D01*
X70869232Y-76716633D01*
X70868542Y-76710072D01*
X70809527Y-76528444D01*
X70778960Y-76475500D01*
X79636496Y-76475500D01*
X79656458Y-76665428D01*
X79715473Y-76847056D01*
X79718776Y-76852778D01*
X79718777Y-76852779D01*
X79724541Y-76862763D01*
X79810960Y-77012444D01*
X79815378Y-77017351D01*
X79815379Y-77017352D01*
X79897132Y-77108148D01*
X79938747Y-77154366D01*
X80093248Y-77266618D01*
X80099276Y-77269302D01*
X80099278Y-77269303D01*
X80243396Y-77333468D01*
X80267712Y-77344294D01*
X80361112Y-77364147D01*
X80448056Y-77382628D01*
X80448061Y-77382628D01*
X80454513Y-77384000D01*
X80645487Y-77384000D01*
X80651939Y-77382628D01*
X80651944Y-77382628D01*
X80809579Y-77349121D01*
X80880370Y-77354523D01*
X80937002Y-77397340D01*
X80961496Y-77463977D01*
X80946075Y-77533279D01*
X80898893Y-77581369D01*
X80893248Y-77583882D01*
X80738747Y-77696134D01*
X80734326Y-77701044D01*
X80734325Y-77701045D01*
X80650832Y-77793774D01*
X80610960Y-77838056D01*
X80515473Y-78003444D01*
X80456458Y-78185072D01*
X80455768Y-78191633D01*
X80455768Y-78191635D01*
X80448819Y-78257749D01*
X80436496Y-78375000D01*
X80456458Y-78564928D01*
X80515473Y-78746556D01*
X80610960Y-78911944D01*
X80615378Y-78916851D01*
X80615379Y-78916852D01*
X80693727Y-79003866D01*
X80738747Y-79053866D01*
X80893248Y-79166118D01*
X80899276Y-79168802D01*
X80899278Y-79168803D01*
X81044591Y-79233500D01*
X81067712Y-79243794D01*
X81156954Y-79262763D01*
X81248056Y-79282128D01*
X81248061Y-79282128D01*
X81254513Y-79283500D01*
X81445487Y-79283500D01*
X81451939Y-79282128D01*
X81451944Y-79282128D01*
X81543046Y-79262763D01*
X81632288Y-79243794D01*
X81655409Y-79233500D01*
X81800722Y-79168803D01*
X81800724Y-79168802D01*
X81806752Y-79166118D01*
X81961253Y-79053866D01*
X82006273Y-79003866D01*
X82084621Y-78916852D01*
X82084622Y-78916851D01*
X82089040Y-78911944D01*
X82184527Y-78746556D01*
X82243542Y-78564928D01*
X82263504Y-78375000D01*
X82251181Y-78257749D01*
X82244232Y-78191635D01*
X82244232Y-78191633D01*
X82243542Y-78185072D01*
X82184527Y-78003444D01*
X82089040Y-77838056D01*
X82049169Y-77793774D01*
X81965675Y-77701045D01*
X81965674Y-77701044D01*
X81961253Y-77696134D01*
X81806752Y-77583882D01*
X81800724Y-77581198D01*
X81800722Y-77581197D01*
X81638319Y-77508891D01*
X81638318Y-77508891D01*
X81632288Y-77506206D01*
X81538887Y-77486353D01*
X81451944Y-77467872D01*
X81451939Y-77467872D01*
X81445487Y-77466500D01*
X81254513Y-77466500D01*
X81248061Y-77467872D01*
X81248056Y-77467872D01*
X81090421Y-77501379D01*
X81019630Y-77495977D01*
X80962998Y-77453160D01*
X80938504Y-77386523D01*
X80953925Y-77317221D01*
X81001107Y-77269131D01*
X81006752Y-77266618D01*
X81098443Y-77200000D01*
X83461496Y-77200000D01*
X83462186Y-77206565D01*
X83478955Y-77366109D01*
X83481458Y-77389928D01*
X83540473Y-77571556D01*
X83635960Y-77736944D01*
X83640378Y-77741851D01*
X83640379Y-77741852D01*
X83731338Y-77842872D01*
X83763747Y-77878866D01*
X83918248Y-77991118D01*
X83924276Y-77993802D01*
X83924278Y-77993803D01*
X83986613Y-78021556D01*
X84092712Y-78068794D01*
X84186112Y-78088647D01*
X84273056Y-78107128D01*
X84273061Y-78107128D01*
X84279513Y-78108500D01*
X84470487Y-78108500D01*
X84476939Y-78107128D01*
X84476944Y-78107128D01*
X84563888Y-78088647D01*
X84657288Y-78068794D01*
X84763387Y-78021556D01*
X84825722Y-77993803D01*
X84825724Y-77993802D01*
X84831752Y-77991118D01*
X84986253Y-77878866D01*
X85018662Y-77842872D01*
X85109621Y-77741852D01*
X85109622Y-77741851D01*
X85114040Y-77736944D01*
X85164237Y-77650000D01*
X85911496Y-77650000D01*
X85912186Y-77656565D01*
X85923982Y-77768794D01*
X85931458Y-77839928D01*
X85990473Y-78021556D01*
X86085960Y-78186944D01*
X86090378Y-78191851D01*
X86090379Y-78191852D01*
X86140990Y-78248061D01*
X86213747Y-78328866D01*
X86368248Y-78441118D01*
X86374276Y-78443802D01*
X86374278Y-78443803D01*
X86536681Y-78516109D01*
X86542712Y-78518794D01*
X86636113Y-78538647D01*
X86723056Y-78557128D01*
X86723061Y-78557128D01*
X86729513Y-78558500D01*
X86920487Y-78558500D01*
X86926939Y-78557128D01*
X86926944Y-78557128D01*
X87013887Y-78538647D01*
X87107288Y-78518794D01*
X87113319Y-78516109D01*
X87275722Y-78443803D01*
X87275724Y-78443802D01*
X87281752Y-78441118D01*
X87436253Y-78328866D01*
X87509010Y-78248061D01*
X87559621Y-78191852D01*
X87559622Y-78191851D01*
X87564040Y-78186944D01*
X87659527Y-78021556D01*
X87718542Y-77839928D01*
X87726019Y-77768794D01*
X87737814Y-77656565D01*
X87738504Y-77650000D01*
X87730621Y-77575000D01*
X87719232Y-77466635D01*
X87719232Y-77466633D01*
X87718542Y-77460072D01*
X87659527Y-77278444D01*
X87654250Y-77269303D01*
X87567341Y-77118774D01*
X87564040Y-77113056D01*
X87543216Y-77089928D01*
X87440675Y-76976045D01*
X87440674Y-76976044D01*
X87436253Y-76971134D01*
X87281752Y-76858882D01*
X87275724Y-76856198D01*
X87275722Y-76856197D01*
X87113319Y-76783891D01*
X87113318Y-76783891D01*
X87107288Y-76781206D01*
X87013887Y-76761353D01*
X86926944Y-76742872D01*
X86926939Y-76742872D01*
X86920487Y-76741500D01*
X86729513Y-76741500D01*
X86723061Y-76742872D01*
X86723056Y-76742872D01*
X86636113Y-76761353D01*
X86542712Y-76781206D01*
X86536682Y-76783891D01*
X86536681Y-76783891D01*
X86374278Y-76856197D01*
X86374276Y-76856198D01*
X86368248Y-76858882D01*
X86213747Y-76971134D01*
X86209326Y-76976044D01*
X86209325Y-76976045D01*
X86106785Y-77089928D01*
X86085960Y-77113056D01*
X86082659Y-77118774D01*
X85995751Y-77269303D01*
X85990473Y-77278444D01*
X85931458Y-77460072D01*
X85930768Y-77466633D01*
X85930768Y-77466635D01*
X85919379Y-77575000D01*
X85911496Y-77650000D01*
X85164237Y-77650000D01*
X85209527Y-77571556D01*
X85268542Y-77389928D01*
X85271046Y-77366109D01*
X85287814Y-77206565D01*
X85288504Y-77200000D01*
X85271483Y-77038056D01*
X85269232Y-77016635D01*
X85269232Y-77016633D01*
X85268542Y-77010072D01*
X85209527Y-76828444D01*
X85114040Y-76663056D01*
X84986253Y-76521134D01*
X84831752Y-76408882D01*
X84825724Y-76406198D01*
X84825722Y-76406197D01*
X84663319Y-76333891D01*
X84663318Y-76333891D01*
X84657288Y-76331206D01*
X84557861Y-76310072D01*
X84476944Y-76292872D01*
X84476939Y-76292872D01*
X84470487Y-76291500D01*
X84279513Y-76291500D01*
X84273061Y-76292872D01*
X84273056Y-76292872D01*
X84192139Y-76310072D01*
X84092712Y-76331206D01*
X84086682Y-76333891D01*
X84086681Y-76333891D01*
X83924278Y-76406197D01*
X83924276Y-76406198D01*
X83918248Y-76408882D01*
X83763747Y-76521134D01*
X83635960Y-76663056D01*
X83540473Y-76828444D01*
X83481458Y-77010072D01*
X83480768Y-77016633D01*
X83480768Y-77016635D01*
X83478517Y-77038056D01*
X83461496Y-77200000D01*
X81098443Y-77200000D01*
X81161253Y-77154366D01*
X81202868Y-77108148D01*
X81284621Y-77017352D01*
X81284622Y-77017351D01*
X81289040Y-77012444D01*
X81375459Y-76862763D01*
X81381223Y-76852779D01*
X81381224Y-76852778D01*
X81384527Y-76847056D01*
X81443542Y-76665428D01*
X81463504Y-76475500D01*
X81451170Y-76358148D01*
X81444232Y-76292135D01*
X81444232Y-76292133D01*
X81443542Y-76285572D01*
X81384527Y-76103944D01*
X81289040Y-75938556D01*
X81161253Y-75796634D01*
X81006752Y-75684382D01*
X81000724Y-75681698D01*
X81000722Y-75681697D01*
X80838319Y-75609391D01*
X80838318Y-75609391D01*
X80832288Y-75606706D01*
X80738887Y-75586853D01*
X80651944Y-75568372D01*
X80651939Y-75568372D01*
X80645487Y-75567000D01*
X80454513Y-75567000D01*
X80448061Y-75568372D01*
X80448056Y-75568372D01*
X80361113Y-75586853D01*
X80267712Y-75606706D01*
X80261682Y-75609391D01*
X80261681Y-75609391D01*
X80099278Y-75681697D01*
X80099276Y-75681698D01*
X80093248Y-75684382D01*
X79938747Y-75796634D01*
X79810960Y-75938556D01*
X79715473Y-76103944D01*
X79656458Y-76285572D01*
X79655768Y-76292133D01*
X79655768Y-76292135D01*
X79648830Y-76358148D01*
X79636496Y-76475500D01*
X70778960Y-76475500D01*
X70714040Y-76363056D01*
X70685686Y-76331565D01*
X70590675Y-76226045D01*
X70590674Y-76226044D01*
X70586253Y-76221134D01*
X70487157Y-76149136D01*
X70437094Y-76112763D01*
X70437093Y-76112762D01*
X70431752Y-76108882D01*
X70425724Y-76106198D01*
X70425722Y-76106197D01*
X70263319Y-76033891D01*
X70263318Y-76033891D01*
X70257288Y-76031206D01*
X70163888Y-76011353D01*
X70076944Y-75992872D01*
X70076939Y-75992872D01*
X70070487Y-75991500D01*
X69879513Y-75991500D01*
X69873061Y-75992872D01*
X69873056Y-75992872D01*
X69786112Y-76011353D01*
X69692712Y-76031206D01*
X69686682Y-76033891D01*
X69686681Y-76033891D01*
X69524278Y-76106197D01*
X69524276Y-76106198D01*
X69518248Y-76108882D01*
X69512907Y-76112762D01*
X69512906Y-76112763D01*
X69462843Y-76149136D01*
X69363747Y-76221134D01*
X69359326Y-76226044D01*
X69359325Y-76226045D01*
X69264315Y-76331565D01*
X69235960Y-76363056D01*
X69140473Y-76528444D01*
X69081458Y-76710072D01*
X69080768Y-76716633D01*
X69080768Y-76716635D01*
X69073700Y-76783882D01*
X69061496Y-76900000D01*
X57804774Y-76900000D01*
X57834621Y-76866852D01*
X57834622Y-76866851D01*
X57839040Y-76861944D01*
X57926724Y-76710072D01*
X57931223Y-76702279D01*
X57931224Y-76702278D01*
X57934527Y-76696556D01*
X57993542Y-76514928D01*
X58013504Y-76325000D01*
X57993542Y-76135072D01*
X57934527Y-75953444D01*
X57925932Y-75938556D01*
X57860973Y-75826045D01*
X57839040Y-75788056D01*
X57764665Y-75705454D01*
X57733950Y-75641450D01*
X57742713Y-75570997D01*
X57773306Y-75528464D01*
X57776721Y-75525983D01*
X57859993Y-75433500D01*
X57900089Y-75388969D01*
X57900093Y-75388964D01*
X57904508Y-75384061D01*
X57999995Y-75218673D01*
X58059010Y-75037045D01*
X58063014Y-74998955D01*
X58078282Y-74853682D01*
X58078972Y-74847117D01*
X58068655Y-74748955D01*
X58059700Y-74663752D01*
X58059700Y-74663750D01*
X58059010Y-74657189D01*
X58052630Y-74637553D01*
X58050604Y-74566585D01*
X58087268Y-74505788D01*
X58150981Y-74474464D01*
X58198661Y-74475373D01*
X58348047Y-74507127D01*
X58348060Y-74507128D01*
X58354513Y-74508500D01*
X58545487Y-74508500D01*
X58551939Y-74507128D01*
X58551944Y-74507128D01*
X58638888Y-74488647D01*
X58732288Y-74468794D01*
X58738319Y-74466109D01*
X58900722Y-74393803D01*
X58900724Y-74393802D01*
X58906752Y-74391118D01*
X58923715Y-74378794D01*
X58997755Y-74325000D01*
X68336496Y-74325000D01*
X68337186Y-74331565D01*
X68352301Y-74475373D01*
X68356458Y-74514928D01*
X68415473Y-74696556D01*
X68510960Y-74861944D01*
X68638747Y-75003866D01*
X68793248Y-75116118D01*
X68799276Y-75118802D01*
X68799278Y-75118803D01*
X68961681Y-75191109D01*
X68967712Y-75193794D01*
X69061113Y-75213647D01*
X69148056Y-75232128D01*
X69148061Y-75232128D01*
X69154513Y-75233500D01*
X69345487Y-75233500D01*
X69351939Y-75232128D01*
X69351944Y-75232128D01*
X69438887Y-75213647D01*
X69532288Y-75193794D01*
X69538319Y-75191109D01*
X69700722Y-75118803D01*
X69700724Y-75118802D01*
X69706752Y-75116118D01*
X69861253Y-75003866D01*
X69989040Y-74861944D01*
X70084527Y-74696556D01*
X70143542Y-74514928D01*
X70147700Y-74475373D01*
X70162814Y-74331565D01*
X70163504Y-74325000D01*
X70156515Y-74258500D01*
X70144232Y-74141635D01*
X70144232Y-74141633D01*
X70143542Y-74135072D01*
X70084527Y-73953444D01*
X70077533Y-73941329D01*
X70022571Y-73846134D01*
X69989040Y-73788056D01*
X69965504Y-73761916D01*
X69887244Y-73675000D01*
X70661496Y-73675000D01*
X70662186Y-73681565D01*
X70679483Y-73846134D01*
X70681458Y-73864928D01*
X70740473Y-74046556D01*
X70743776Y-74052278D01*
X70743777Y-74052279D01*
X70753105Y-74068435D01*
X70835960Y-74211944D01*
X70840378Y-74216851D01*
X70840379Y-74216852D01*
X70924406Y-74310173D01*
X70963747Y-74353866D01*
X71118248Y-74466118D01*
X71124276Y-74468802D01*
X71124278Y-74468803D01*
X71265245Y-74531565D01*
X71292712Y-74543794D01*
X71386112Y-74563647D01*
X71473056Y-74582128D01*
X71473061Y-74582128D01*
X71479513Y-74583500D01*
X71670487Y-74583500D01*
X71676939Y-74582128D01*
X71676944Y-74582128D01*
X71763888Y-74563647D01*
X71857288Y-74543794D01*
X71884755Y-74531565D01*
X72025722Y-74468803D01*
X72025724Y-74468802D01*
X72031752Y-74466118D01*
X72186253Y-74353866D01*
X72225594Y-74310173D01*
X72309621Y-74216852D01*
X72309622Y-74216851D01*
X72314040Y-74211944D01*
X72393105Y-74075000D01*
X75936496Y-74075000D01*
X75937186Y-74081565D01*
X75943500Y-74141635D01*
X75956458Y-74264928D01*
X76015473Y-74446556D01*
X76018776Y-74452278D01*
X76018777Y-74452279D01*
X76032219Y-74475561D01*
X76110960Y-74611944D01*
X76238747Y-74753866D01*
X76337843Y-74825864D01*
X76358060Y-74840552D01*
X76393248Y-74866118D01*
X76399276Y-74868802D01*
X76399278Y-74868803D01*
X76461613Y-74896556D01*
X76567712Y-74943794D01*
X76661112Y-74963647D01*
X76748056Y-74982128D01*
X76748061Y-74982128D01*
X76754513Y-74983500D01*
X76945487Y-74983500D01*
X76951939Y-74982128D01*
X76951944Y-74982128D01*
X77038888Y-74963647D01*
X77132288Y-74943794D01*
X77238387Y-74896556D01*
X77300722Y-74868803D01*
X77300724Y-74868802D01*
X77306752Y-74866118D01*
X77341941Y-74840552D01*
X77362157Y-74825864D01*
X77461253Y-74753866D01*
X77589040Y-74611944D01*
X77610370Y-74575000D01*
X86136496Y-74575000D01*
X86137186Y-74581565D01*
X86143071Y-74637553D01*
X86156458Y-74764928D01*
X86215473Y-74946556D01*
X86218776Y-74952278D01*
X86218777Y-74952279D01*
X86236803Y-74983500D01*
X86310960Y-75111944D01*
X86438747Y-75253866D01*
X86593248Y-75366118D01*
X86599276Y-75368802D01*
X86599278Y-75368803D01*
X86744591Y-75433500D01*
X86767712Y-75443794D01*
X86861113Y-75463647D01*
X86948056Y-75482128D01*
X86948061Y-75482128D01*
X86954513Y-75483500D01*
X87145487Y-75483500D01*
X87151939Y-75482128D01*
X87151944Y-75482128D01*
X87238887Y-75463647D01*
X87332288Y-75443794D01*
X87355409Y-75433500D01*
X87500722Y-75368803D01*
X87500724Y-75368802D01*
X87506752Y-75366118D01*
X87661253Y-75253866D01*
X87789040Y-75111944D01*
X87863197Y-74983500D01*
X87881223Y-74952279D01*
X87881224Y-74952278D01*
X87884527Y-74946556D01*
X87943542Y-74764928D01*
X87956930Y-74637553D01*
X87962814Y-74581565D01*
X87963504Y-74575000D01*
X87956515Y-74508500D01*
X87944232Y-74391635D01*
X87944232Y-74391633D01*
X87943542Y-74385072D01*
X87884527Y-74203444D01*
X87789040Y-74038056D01*
X87776344Y-74023955D01*
X87665675Y-73901045D01*
X87665674Y-73901044D01*
X87661253Y-73896134D01*
X87542100Y-73809564D01*
X87512094Y-73787763D01*
X87512093Y-73787762D01*
X87506752Y-73783882D01*
X87500724Y-73781198D01*
X87500722Y-73781197D01*
X87338319Y-73708891D01*
X87338318Y-73708891D01*
X87332288Y-73706206D01*
X87216362Y-73681565D01*
X87151944Y-73667872D01*
X87151939Y-73667872D01*
X87145487Y-73666500D01*
X86954513Y-73666500D01*
X86948061Y-73667872D01*
X86948056Y-73667872D01*
X86883638Y-73681565D01*
X86767712Y-73706206D01*
X86761682Y-73708891D01*
X86761681Y-73708891D01*
X86599278Y-73781197D01*
X86599276Y-73781198D01*
X86593248Y-73783882D01*
X86587907Y-73787762D01*
X86587906Y-73787763D01*
X86557900Y-73809564D01*
X86438747Y-73896134D01*
X86434326Y-73901044D01*
X86434325Y-73901045D01*
X86323657Y-74023955D01*
X86310960Y-74038056D01*
X86215473Y-74203444D01*
X86156458Y-74385072D01*
X86155768Y-74391633D01*
X86155768Y-74391635D01*
X86143485Y-74508500D01*
X86136496Y-74575000D01*
X77610370Y-74575000D01*
X77667781Y-74475561D01*
X77681223Y-74452279D01*
X77681224Y-74452278D01*
X77684527Y-74446556D01*
X77743542Y-74264928D01*
X77756501Y-74141635D01*
X77762814Y-74081565D01*
X77763504Y-74075000D01*
X77752747Y-73972653D01*
X77744232Y-73891635D01*
X77744232Y-73891633D01*
X77743542Y-73885072D01*
X77684527Y-73703444D01*
X77663990Y-73667872D01*
X77624803Y-73600000D01*
X77589040Y-73538056D01*
X77547243Y-73491635D01*
X77465675Y-73401045D01*
X77465674Y-73401044D01*
X77461253Y-73396134D01*
X77306752Y-73283882D01*
X77300724Y-73281198D01*
X77300722Y-73281197D01*
X77138319Y-73208891D01*
X77138318Y-73208891D01*
X77132288Y-73206206D01*
X77038887Y-73186353D01*
X76951944Y-73167872D01*
X76951939Y-73167872D01*
X76945487Y-73166500D01*
X76754513Y-73166500D01*
X76748061Y-73167872D01*
X76748056Y-73167872D01*
X76661113Y-73186353D01*
X76567712Y-73206206D01*
X76561682Y-73208891D01*
X76561681Y-73208891D01*
X76399278Y-73281197D01*
X76399276Y-73281198D01*
X76393248Y-73283882D01*
X76238747Y-73396134D01*
X76234326Y-73401044D01*
X76234325Y-73401045D01*
X76152758Y-73491635D01*
X76110960Y-73538056D01*
X76075197Y-73600000D01*
X76036011Y-73667872D01*
X76015473Y-73703444D01*
X75956458Y-73885072D01*
X75955768Y-73891633D01*
X75955768Y-73891635D01*
X75947253Y-73972653D01*
X75936496Y-74075000D01*
X72393105Y-74075000D01*
X72396895Y-74068435D01*
X72406223Y-74052279D01*
X72406224Y-74052278D01*
X72409527Y-74046556D01*
X72468542Y-73864928D01*
X72470518Y-73846134D01*
X72487814Y-73681565D01*
X72488504Y-73675000D01*
X72486529Y-73656206D01*
X72469232Y-73491635D01*
X72469232Y-73491633D01*
X72468542Y-73485072D01*
X72409527Y-73303444D01*
X72314040Y-73138056D01*
X72294727Y-73116606D01*
X72190675Y-73001045D01*
X72190674Y-73001044D01*
X72186253Y-72996134D01*
X72077680Y-72917251D01*
X72037094Y-72887763D01*
X72037093Y-72887762D01*
X72031752Y-72883882D01*
X72025724Y-72881198D01*
X72025722Y-72881197D01*
X71863319Y-72808891D01*
X71863318Y-72808891D01*
X71857288Y-72806206D01*
X71763887Y-72786353D01*
X71676944Y-72767872D01*
X71676939Y-72767872D01*
X71670487Y-72766500D01*
X71479513Y-72766500D01*
X71473061Y-72767872D01*
X71473056Y-72767872D01*
X71386113Y-72786353D01*
X71292712Y-72806206D01*
X71286682Y-72808891D01*
X71286681Y-72808891D01*
X71124278Y-72881197D01*
X71124276Y-72881198D01*
X71118248Y-72883882D01*
X71112907Y-72887762D01*
X71112906Y-72887763D01*
X71072320Y-72917251D01*
X70963747Y-72996134D01*
X70959326Y-73001044D01*
X70959325Y-73001045D01*
X70855274Y-73116606D01*
X70835960Y-73138056D01*
X70740473Y-73303444D01*
X70681458Y-73485072D01*
X70680768Y-73491633D01*
X70680768Y-73491635D01*
X70663471Y-73656206D01*
X70661496Y-73675000D01*
X69887244Y-73675000D01*
X69865675Y-73651045D01*
X69865674Y-73651044D01*
X69861253Y-73646134D01*
X69726129Y-73547960D01*
X69712094Y-73537763D01*
X69712093Y-73537762D01*
X69706752Y-73533882D01*
X69700724Y-73531198D01*
X69700722Y-73531197D01*
X69538319Y-73458891D01*
X69538318Y-73458891D01*
X69532288Y-73456206D01*
X69438887Y-73436353D01*
X69351944Y-73417872D01*
X69351939Y-73417872D01*
X69345487Y-73416500D01*
X69154513Y-73416500D01*
X69148061Y-73417872D01*
X69148056Y-73417872D01*
X69061113Y-73436353D01*
X68967712Y-73456206D01*
X68961682Y-73458891D01*
X68961681Y-73458891D01*
X68799278Y-73531197D01*
X68799276Y-73531198D01*
X68793248Y-73533882D01*
X68787907Y-73537762D01*
X68787906Y-73537763D01*
X68773871Y-73547960D01*
X68638747Y-73646134D01*
X68634326Y-73651044D01*
X68634325Y-73651045D01*
X68534497Y-73761916D01*
X68510960Y-73788056D01*
X68477429Y-73846134D01*
X68422468Y-73941329D01*
X68415473Y-73953444D01*
X68356458Y-74135072D01*
X68355768Y-74141633D01*
X68355768Y-74141635D01*
X68343485Y-74258500D01*
X68336496Y-74325000D01*
X58997755Y-74325000D01*
X59006791Y-74318435D01*
X59061253Y-74278866D01*
X59160851Y-74168251D01*
X59184621Y-74141852D01*
X59184622Y-74141851D01*
X59189040Y-74136944D01*
X59254274Y-74023955D01*
X59281223Y-73977279D01*
X59281224Y-73977278D01*
X59284527Y-73971556D01*
X59343542Y-73789928D01*
X59347063Y-73756433D01*
X59362814Y-73606565D01*
X59363504Y-73600000D01*
X59357625Y-73544065D01*
X59344232Y-73416635D01*
X59344232Y-73416633D01*
X59343542Y-73410072D01*
X59284527Y-73228444D01*
X59189040Y-73063056D01*
X59145670Y-73014888D01*
X59065675Y-72926045D01*
X59065674Y-72926044D01*
X59061253Y-72921134D01*
X58938674Y-72832075D01*
X58912094Y-72812763D01*
X58912093Y-72812762D01*
X58906752Y-72808882D01*
X58900724Y-72806198D01*
X58900722Y-72806197D01*
X58738319Y-72733891D01*
X58738318Y-72733891D01*
X58732288Y-72731206D01*
X58677879Y-72719641D01*
X58615406Y-72685913D01*
X58581084Y-72623763D01*
X58585812Y-72552924D01*
X58594957Y-72533394D01*
X58656223Y-72427279D01*
X58656224Y-72427278D01*
X58659527Y-72421556D01*
X58718542Y-72239928D01*
X58731987Y-72112011D01*
X58737814Y-72056565D01*
X58738504Y-72050000D01*
X58732559Y-71993435D01*
X58719232Y-71866635D01*
X58719232Y-71866633D01*
X58718542Y-71860072D01*
X58659527Y-71678444D01*
X58564040Y-71513056D01*
X58558703Y-71507128D01*
X58440675Y-71376045D01*
X58440674Y-71376044D01*
X58436253Y-71371134D01*
X58281752Y-71258882D01*
X58275724Y-71256198D01*
X58275722Y-71256197D01*
X58113319Y-71183891D01*
X58113318Y-71183891D01*
X58107288Y-71181206D01*
X58002959Y-71159030D01*
X57926944Y-71142872D01*
X57926939Y-71142872D01*
X57920487Y-71141500D01*
X57729513Y-71141500D01*
X57723061Y-71142872D01*
X57723056Y-71142872D01*
X57684269Y-71151117D01*
X57613478Y-71145715D01*
X57556846Y-71102898D01*
X57532352Y-71036261D01*
X57546598Y-70975000D01*
X61961496Y-70975000D01*
X61962186Y-70981565D01*
X61979954Y-71150615D01*
X61981458Y-71164928D01*
X62040473Y-71346556D01*
X62043776Y-71352278D01*
X62043777Y-71352279D01*
X62097974Y-71446151D01*
X62114712Y-71515147D01*
X62097974Y-71572150D01*
X62065473Y-71628444D01*
X62006458Y-71810072D01*
X62005768Y-71816633D01*
X62005768Y-71816635D01*
X62004040Y-71833079D01*
X61986496Y-72000000D01*
X62006458Y-72189928D01*
X62065473Y-72371556D01*
X62160960Y-72536944D01*
X62165378Y-72541851D01*
X62165379Y-72541852D01*
X62273360Y-72661777D01*
X62304078Y-72725784D01*
X62295313Y-72796238D01*
X62285773Y-72812948D01*
X62285960Y-72813056D01*
X62245069Y-72883882D01*
X62190473Y-72978444D01*
X62131458Y-73160072D01*
X62130768Y-73166633D01*
X62130768Y-73166635D01*
X62124272Y-73228444D01*
X62111496Y-73350000D01*
X62112186Y-73356565D01*
X62125033Y-73478794D01*
X62131458Y-73539928D01*
X62190473Y-73721556D01*
X62285960Y-73886944D01*
X62290378Y-73891851D01*
X62290379Y-73891852D01*
X62382150Y-73993774D01*
X62413747Y-74028866D01*
X62456434Y-74059880D01*
X62551286Y-74128794D01*
X62568248Y-74141118D01*
X62574276Y-74143802D01*
X62574278Y-74143803D01*
X62736681Y-74216109D01*
X62742712Y-74218794D01*
X62836112Y-74238647D01*
X62923056Y-74257128D01*
X62923061Y-74257128D01*
X62929513Y-74258500D01*
X63120487Y-74258500D01*
X63126939Y-74257128D01*
X63126944Y-74257128D01*
X63213888Y-74238647D01*
X63307288Y-74218794D01*
X63313319Y-74216109D01*
X63475722Y-74143803D01*
X63475724Y-74143802D01*
X63481752Y-74141118D01*
X63498715Y-74128794D01*
X63593566Y-74059880D01*
X63636253Y-74028866D01*
X63667850Y-73993774D01*
X63759621Y-73891852D01*
X63759622Y-73891851D01*
X63764040Y-73886944D01*
X63859527Y-73721556D01*
X63918542Y-73539928D01*
X63924968Y-73478794D01*
X63937814Y-73356565D01*
X63938504Y-73350000D01*
X63925728Y-73228444D01*
X63919232Y-73166635D01*
X63919232Y-73166633D01*
X63918542Y-73160072D01*
X63859527Y-72978444D01*
X63764040Y-72813056D01*
X63651640Y-72688223D01*
X63620922Y-72624216D01*
X63629687Y-72553762D01*
X63639227Y-72537052D01*
X63639040Y-72536944D01*
X63731223Y-72377279D01*
X63731224Y-72377278D01*
X63734527Y-72371556D01*
X63793542Y-72189928D01*
X63813504Y-72000000D01*
X63795960Y-71833079D01*
X63794232Y-71816635D01*
X63794232Y-71816633D01*
X63793542Y-71810072D01*
X63734527Y-71628444D01*
X63677026Y-71528849D01*
X63660288Y-71459853D01*
X63677026Y-71402849D01*
X63706223Y-71352279D01*
X63706224Y-71352278D01*
X63709527Y-71346556D01*
X63768542Y-71164928D01*
X63770047Y-71150615D01*
X63787814Y-70981565D01*
X63788504Y-70975000D01*
X63787814Y-70968435D01*
X63769232Y-70791635D01*
X63769232Y-70791633D01*
X63768542Y-70785072D01*
X63724048Y-70648134D01*
X64391500Y-70648134D01*
X64398255Y-70710316D01*
X64449385Y-70846705D01*
X64536739Y-70963261D01*
X64653295Y-71050615D01*
X64789684Y-71101745D01*
X64851866Y-71108500D01*
X66648134Y-71108500D01*
X66710316Y-71101745D01*
X66846705Y-71050615D01*
X66963261Y-70963261D01*
X67050615Y-70846705D01*
X67078389Y-70772618D01*
X67094798Y-70728848D01*
X67137440Y-70672084D01*
X67204001Y-70647384D01*
X67273350Y-70662592D01*
X67308017Y-70690580D01*
X67333218Y-70719673D01*
X67340580Y-70726883D01*
X67504434Y-70862916D01*
X67512881Y-70868831D01*
X67696756Y-70976279D01*
X67706042Y-70980729D01*
X67905001Y-71056703D01*
X67914899Y-71059579D01*
X68018250Y-71080606D01*
X68032299Y-71079410D01*
X68036000Y-71069065D01*
X68036000Y-71068517D01*
X68544000Y-71068517D01*
X68548064Y-71082359D01*
X68561478Y-71084393D01*
X68568184Y-71083534D01*
X68578262Y-71081392D01*
X68782255Y-71020191D01*
X68791842Y-71016433D01*
X68983095Y-70922739D01*
X68991945Y-70917464D01*
X69165328Y-70793792D01*
X69173200Y-70787139D01*
X69324052Y-70636812D01*
X69330730Y-70628965D01*
X69458022Y-70451819D01*
X69459279Y-70452722D01*
X69506373Y-70409362D01*
X69576311Y-70397145D01*
X69641751Y-70424678D01*
X69669579Y-70456511D01*
X69729987Y-70555088D01*
X69876250Y-70723938D01*
X70048126Y-70866632D01*
X70241000Y-70979338D01*
X70449692Y-71059030D01*
X70454760Y-71060061D01*
X70454763Y-71060062D01*
X70549508Y-71079338D01*
X70668597Y-71103567D01*
X70673772Y-71103757D01*
X70673774Y-71103757D01*
X70886673Y-71111564D01*
X70886677Y-71111564D01*
X70891837Y-71111753D01*
X70896957Y-71111097D01*
X70896959Y-71111097D01*
X71108288Y-71084025D01*
X71108289Y-71084025D01*
X71113416Y-71083368D01*
X71118366Y-71081883D01*
X71322429Y-71020661D01*
X71322434Y-71020659D01*
X71327384Y-71019174D01*
X71527994Y-70920896D01*
X71709860Y-70791173D01*
X71715983Y-70785072D01*
X71854152Y-70647384D01*
X71868096Y-70633489D01*
X71889686Y-70603444D01*
X71998453Y-70452077D01*
X71999776Y-70453028D01*
X72046645Y-70409857D01*
X72116580Y-70397625D01*
X72182026Y-70425144D01*
X72209875Y-70456994D01*
X72269987Y-70555088D01*
X72416250Y-70723938D01*
X72588126Y-70866632D01*
X72781000Y-70979338D01*
X72989692Y-71059030D01*
X72994760Y-71060061D01*
X72994763Y-71060062D01*
X73089508Y-71079338D01*
X73208597Y-71103567D01*
X73213772Y-71103757D01*
X73213774Y-71103757D01*
X73426673Y-71111564D01*
X73426677Y-71111564D01*
X73431837Y-71111753D01*
X73436957Y-71111097D01*
X73436959Y-71111097D01*
X73648288Y-71084025D01*
X73648289Y-71084025D01*
X73653416Y-71083368D01*
X73658366Y-71081883D01*
X73862429Y-71020661D01*
X73862434Y-71020659D01*
X73867384Y-71019174D01*
X74067994Y-70920896D01*
X74249860Y-70791173D01*
X74255983Y-70785072D01*
X74293050Y-70748134D01*
X77076500Y-70748134D01*
X77083255Y-70810316D01*
X77134385Y-70946705D01*
X77221739Y-71063261D01*
X77338295Y-71150615D01*
X77474684Y-71201745D01*
X77536866Y-71208500D01*
X79333134Y-71208500D01*
X79395316Y-71201745D01*
X79531705Y-71150615D01*
X79648261Y-71063261D01*
X79735615Y-70946705D01*
X79744437Y-70923173D01*
X79779598Y-70829382D01*
X79822240Y-70772618D01*
X79888802Y-70747918D01*
X79958150Y-70763126D01*
X79992817Y-70791114D01*
X80021250Y-70823938D01*
X80193126Y-70966632D01*
X80386000Y-71079338D01*
X80390825Y-71081180D01*
X80390826Y-71081181D01*
X80444678Y-71101745D01*
X80594692Y-71159030D01*
X80599760Y-71160061D01*
X80599763Y-71160062D01*
X80696946Y-71179834D01*
X80813597Y-71203567D01*
X80818772Y-71203757D01*
X80818774Y-71203757D01*
X81031673Y-71211564D01*
X81031677Y-71211564D01*
X81036837Y-71211753D01*
X81041957Y-71211097D01*
X81041959Y-71211097D01*
X81253288Y-71184025D01*
X81253289Y-71184025D01*
X81258416Y-71183368D01*
X81263366Y-71181883D01*
X81467429Y-71120661D01*
X81467434Y-71120659D01*
X81472384Y-71119174D01*
X81672994Y-71020896D01*
X81854860Y-70891173D01*
X81882804Y-70863327D01*
X81998616Y-70747918D01*
X82013096Y-70733489D01*
X82017587Y-70727240D01*
X82143453Y-70552077D01*
X82144776Y-70553028D01*
X82191645Y-70509857D01*
X82261580Y-70497625D01*
X82327026Y-70525144D01*
X82354875Y-70556994D01*
X82414987Y-70655088D01*
X82561250Y-70823938D01*
X82733126Y-70966632D01*
X82926000Y-71079338D01*
X82930825Y-71081180D01*
X82930826Y-71081181D01*
X82984678Y-71101745D01*
X83134692Y-71159030D01*
X83139760Y-71160061D01*
X83139763Y-71160062D01*
X83236946Y-71179834D01*
X83353597Y-71203567D01*
X83358772Y-71203757D01*
X83358774Y-71203757D01*
X83571673Y-71211564D01*
X83571677Y-71211564D01*
X83576837Y-71211753D01*
X83581957Y-71211097D01*
X83581959Y-71211097D01*
X83793288Y-71184025D01*
X83793289Y-71184025D01*
X83798416Y-71183368D01*
X83803366Y-71181883D01*
X84007429Y-71120661D01*
X84007434Y-71120659D01*
X84012384Y-71119174D01*
X84212994Y-71020896D01*
X84394860Y-70891173D01*
X84422804Y-70863327D01*
X84538616Y-70747918D01*
X84553096Y-70733489D01*
X84557587Y-70727240D01*
X84683453Y-70552077D01*
X84684776Y-70553028D01*
X84731645Y-70509857D01*
X84801580Y-70497625D01*
X84867026Y-70525144D01*
X84894875Y-70556994D01*
X84954987Y-70655088D01*
X85101250Y-70823938D01*
X85273126Y-70966632D01*
X85466000Y-71079338D01*
X85470825Y-71081180D01*
X85470826Y-71081181D01*
X85524678Y-71101745D01*
X85674692Y-71159030D01*
X85679760Y-71160061D01*
X85679763Y-71160062D01*
X85776946Y-71179834D01*
X85893597Y-71203567D01*
X85898772Y-71203757D01*
X85898774Y-71203757D01*
X86111673Y-71211564D01*
X86111677Y-71211564D01*
X86116837Y-71211753D01*
X86121957Y-71211097D01*
X86121959Y-71211097D01*
X86333288Y-71184025D01*
X86333289Y-71184025D01*
X86338416Y-71183368D01*
X86343366Y-71181883D01*
X86547429Y-71120661D01*
X86547434Y-71120659D01*
X86552384Y-71119174D01*
X86752994Y-71020896D01*
X86934860Y-70891173D01*
X86962804Y-70863327D01*
X87078616Y-70747918D01*
X87093096Y-70733489D01*
X87097587Y-70727240D01*
X87223453Y-70552077D01*
X87224776Y-70553028D01*
X87271645Y-70509857D01*
X87341580Y-70497625D01*
X87407026Y-70525144D01*
X87434875Y-70556994D01*
X87494987Y-70655088D01*
X87641250Y-70823938D01*
X87813126Y-70966632D01*
X88006000Y-71079338D01*
X88010825Y-71081180D01*
X88010826Y-71081181D01*
X88064678Y-71101745D01*
X88214692Y-71159030D01*
X88219760Y-71160061D01*
X88219763Y-71160062D01*
X88316946Y-71179834D01*
X88433597Y-71203567D01*
X88438772Y-71203757D01*
X88438774Y-71203757D01*
X88651673Y-71211564D01*
X88651677Y-71211564D01*
X88656837Y-71211753D01*
X88661957Y-71211097D01*
X88661959Y-71211097D01*
X88873288Y-71184025D01*
X88873289Y-71184025D01*
X88878416Y-71183368D01*
X88883366Y-71181883D01*
X89087429Y-71120661D01*
X89087434Y-71120659D01*
X89092384Y-71119174D01*
X89292994Y-71020896D01*
X89474860Y-70891173D01*
X89502804Y-70863327D01*
X89618616Y-70747918D01*
X89633096Y-70733489D01*
X89637587Y-70727240D01*
X89760435Y-70556277D01*
X89763453Y-70552077D01*
X89784320Y-70509857D01*
X89860136Y-70356453D01*
X89860137Y-70356451D01*
X89862430Y-70351811D01*
X89905598Y-70209729D01*
X89925865Y-70143023D01*
X89925865Y-70143021D01*
X89927370Y-70138069D01*
X89956529Y-69916590D01*
X89958156Y-69850000D01*
X89939852Y-69627361D01*
X89885431Y-69410702D01*
X89796354Y-69205840D01*
X89754818Y-69141635D01*
X89677822Y-69022617D01*
X89677820Y-69022614D01*
X89675014Y-69018277D01*
X89524670Y-68853051D01*
X89520619Y-68849852D01*
X89520615Y-68849848D01*
X89353414Y-68717800D01*
X89353410Y-68717798D01*
X89349359Y-68714598D01*
X89153789Y-68606638D01*
X89148920Y-68604914D01*
X89148916Y-68604912D01*
X88948087Y-68533795D01*
X88948083Y-68533794D01*
X88943212Y-68532069D01*
X88938119Y-68531162D01*
X88938116Y-68531161D01*
X88728373Y-68493800D01*
X88728367Y-68493799D01*
X88723284Y-68492894D01*
X88649452Y-68491992D01*
X88505081Y-68490228D01*
X88505079Y-68490228D01*
X88499911Y-68490165D01*
X88279091Y-68523955D01*
X88066756Y-68593357D01*
X88019802Y-68617800D01*
X87955939Y-68651045D01*
X87868607Y-68696507D01*
X87864474Y-68699610D01*
X87864471Y-68699612D01*
X87710011Y-68815584D01*
X87689965Y-68830635D01*
X87671605Y-68849848D01*
X87561632Y-68964928D01*
X87535629Y-68992138D01*
X87428201Y-69149621D01*
X87373293Y-69194621D01*
X87302768Y-69202792D01*
X87239021Y-69171538D01*
X87218324Y-69147054D01*
X87137822Y-69022617D01*
X87137820Y-69022614D01*
X87135014Y-69018277D01*
X86984670Y-68853051D01*
X86980619Y-68849852D01*
X86980615Y-68849848D01*
X86813414Y-68717800D01*
X86813410Y-68717798D01*
X86809359Y-68714598D01*
X86613789Y-68606638D01*
X86608920Y-68604914D01*
X86608916Y-68604912D01*
X86408087Y-68533795D01*
X86408083Y-68533794D01*
X86403212Y-68532069D01*
X86398119Y-68531162D01*
X86398116Y-68531161D01*
X86188373Y-68493800D01*
X86188367Y-68493799D01*
X86183284Y-68492894D01*
X86109452Y-68491992D01*
X85965081Y-68490228D01*
X85965079Y-68490228D01*
X85959911Y-68490165D01*
X85739091Y-68523955D01*
X85526756Y-68593357D01*
X85479802Y-68617800D01*
X85415939Y-68651045D01*
X85328607Y-68696507D01*
X85324474Y-68699610D01*
X85324471Y-68699612D01*
X85170011Y-68815584D01*
X85149965Y-68830635D01*
X85131605Y-68849848D01*
X85021632Y-68964928D01*
X84995629Y-68992138D01*
X84888201Y-69149621D01*
X84833293Y-69194621D01*
X84762768Y-69202792D01*
X84699021Y-69171538D01*
X84678324Y-69147054D01*
X84597822Y-69022617D01*
X84597820Y-69022614D01*
X84595014Y-69018277D01*
X84444670Y-68853051D01*
X84440619Y-68849852D01*
X84440615Y-68849848D01*
X84273414Y-68717800D01*
X84273410Y-68717798D01*
X84269359Y-68714598D01*
X84073789Y-68606638D01*
X84068920Y-68604914D01*
X84068916Y-68604912D01*
X83868087Y-68533795D01*
X83868083Y-68533794D01*
X83863212Y-68532069D01*
X83858119Y-68531162D01*
X83858116Y-68531161D01*
X83648373Y-68493800D01*
X83648367Y-68493799D01*
X83643284Y-68492894D01*
X83569452Y-68491992D01*
X83425081Y-68490228D01*
X83425079Y-68490228D01*
X83419911Y-68490165D01*
X83199091Y-68523955D01*
X82986756Y-68593357D01*
X82939802Y-68617800D01*
X82875939Y-68651045D01*
X82788607Y-68696507D01*
X82784474Y-68699610D01*
X82784471Y-68699612D01*
X82630011Y-68815584D01*
X82609965Y-68830635D01*
X82591605Y-68849848D01*
X82481632Y-68964928D01*
X82455629Y-68992138D01*
X82348201Y-69149621D01*
X82293293Y-69194621D01*
X82222768Y-69202792D01*
X82159021Y-69171538D01*
X82138324Y-69147054D01*
X82057822Y-69022617D01*
X82057820Y-69022614D01*
X82055014Y-69018277D01*
X81904670Y-68853051D01*
X81900619Y-68849852D01*
X81900615Y-68849848D01*
X81733414Y-68717800D01*
X81733410Y-68717798D01*
X81729359Y-68714598D01*
X81533789Y-68606638D01*
X81528920Y-68604914D01*
X81528916Y-68604912D01*
X81328087Y-68533795D01*
X81328083Y-68533794D01*
X81323212Y-68532069D01*
X81318119Y-68531162D01*
X81318116Y-68531161D01*
X81108373Y-68493800D01*
X81108367Y-68493799D01*
X81103284Y-68492894D01*
X81029452Y-68491992D01*
X80885081Y-68490228D01*
X80885079Y-68490228D01*
X80879911Y-68490165D01*
X80659091Y-68523955D01*
X80446756Y-68593357D01*
X80399802Y-68617800D01*
X80335939Y-68651045D01*
X80248607Y-68696507D01*
X80244474Y-68699610D01*
X80244471Y-68699612D01*
X80090011Y-68815584D01*
X80069965Y-68830635D01*
X80011192Y-68892138D01*
X79989283Y-68915064D01*
X79927759Y-68950494D01*
X79856846Y-68947037D01*
X79799060Y-68905791D01*
X79780207Y-68872243D01*
X79738767Y-68761703D01*
X79735615Y-68753295D01*
X79648261Y-68636739D01*
X79531705Y-68549385D01*
X79395316Y-68498255D01*
X79333134Y-68491500D01*
X77536866Y-68491500D01*
X77474684Y-68498255D01*
X77338295Y-68549385D01*
X77221739Y-68636739D01*
X77134385Y-68753295D01*
X77083255Y-68889684D01*
X77076500Y-68951866D01*
X77076500Y-70748134D01*
X74293050Y-70748134D01*
X74394152Y-70647384D01*
X74408096Y-70633489D01*
X74429686Y-70603444D01*
X74535435Y-70456277D01*
X74538453Y-70452077D01*
X74547809Y-70433148D01*
X74635136Y-70256453D01*
X74635137Y-70256451D01*
X74637430Y-70251811D01*
X74702370Y-70038069D01*
X74731529Y-69816590D01*
X74733156Y-69750000D01*
X74714852Y-69527361D01*
X74660431Y-69310702D01*
X74571354Y-69105840D01*
X74495379Y-68988401D01*
X74452822Y-68922617D01*
X74452820Y-68922614D01*
X74450014Y-68918277D01*
X74299670Y-68753051D01*
X74295619Y-68749852D01*
X74295615Y-68749848D01*
X74128414Y-68617800D01*
X74128410Y-68617798D01*
X74124359Y-68614598D01*
X74114467Y-68609137D01*
X74006225Y-68549385D01*
X73928789Y-68506638D01*
X73923920Y-68504914D01*
X73923916Y-68504912D01*
X73723087Y-68433795D01*
X73723083Y-68433794D01*
X73718212Y-68432069D01*
X73713119Y-68431162D01*
X73713116Y-68431161D01*
X73503373Y-68393800D01*
X73503367Y-68393799D01*
X73498284Y-68392894D01*
X73424452Y-68391992D01*
X73280081Y-68390228D01*
X73280079Y-68390228D01*
X73274911Y-68390165D01*
X73054091Y-68423955D01*
X72841756Y-68493357D01*
X72643607Y-68596507D01*
X72639474Y-68599610D01*
X72639471Y-68599612D01*
X72469100Y-68727530D01*
X72464965Y-68730635D01*
X72310629Y-68892138D01*
X72203201Y-69049621D01*
X72148293Y-69094621D01*
X72077768Y-69102792D01*
X72014021Y-69071538D01*
X71993324Y-69047054D01*
X71912822Y-68922617D01*
X71912820Y-68922614D01*
X71910014Y-68918277D01*
X71759670Y-68753051D01*
X71755619Y-68749852D01*
X71755615Y-68749848D01*
X71588414Y-68617800D01*
X71588410Y-68617798D01*
X71584359Y-68614598D01*
X71574467Y-68609137D01*
X71466225Y-68549385D01*
X71388789Y-68506638D01*
X71383920Y-68504914D01*
X71383916Y-68504912D01*
X71183087Y-68433795D01*
X71183083Y-68433794D01*
X71178212Y-68432069D01*
X71173119Y-68431162D01*
X71173116Y-68431161D01*
X70963373Y-68393800D01*
X70963367Y-68393799D01*
X70958284Y-68392894D01*
X70884452Y-68391992D01*
X70740081Y-68390228D01*
X70740079Y-68390228D01*
X70734911Y-68390165D01*
X70514091Y-68423955D01*
X70301756Y-68493357D01*
X70103607Y-68596507D01*
X70099474Y-68599610D01*
X70099471Y-68599612D01*
X69929100Y-68727530D01*
X69924965Y-68730635D01*
X69770629Y-68892138D01*
X69767720Y-68896403D01*
X69767714Y-68896411D01*
X69755404Y-68914457D01*
X69663204Y-69049618D01*
X69662898Y-69050066D01*
X69607987Y-69095069D01*
X69537462Y-69103240D01*
X69473715Y-69071986D01*
X69453018Y-69047502D01*
X69372426Y-68922926D01*
X69366136Y-68914757D01*
X69222806Y-68757240D01*
X69215273Y-68750215D01*
X69048139Y-68618222D01*
X69039552Y-68612517D01*
X68853117Y-68509599D01*
X68843705Y-68505369D01*
X68642959Y-68434280D01*
X68632988Y-68431646D01*
X68561837Y-68418972D01*
X68548540Y-68420432D01*
X68544000Y-68434989D01*
X68544000Y-71068517D01*
X68036000Y-71068517D01*
X68036000Y-68433102D01*
X68032082Y-68419758D01*
X68017806Y-68417771D01*
X67979324Y-68423660D01*
X67969288Y-68426051D01*
X67766868Y-68492212D01*
X67757359Y-68496209D01*
X67568463Y-68594542D01*
X67559738Y-68600036D01*
X67389433Y-68727905D01*
X67381726Y-68734748D01*
X67304478Y-68815584D01*
X67242954Y-68851014D01*
X67172042Y-68847557D01*
X67114255Y-68806311D01*
X67095402Y-68772763D01*
X67053767Y-68661703D01*
X67050615Y-68653295D01*
X66963261Y-68536739D01*
X66846705Y-68449385D01*
X66710316Y-68398255D01*
X66648134Y-68391500D01*
X64851866Y-68391500D01*
X64789684Y-68398255D01*
X64653295Y-68449385D01*
X64536739Y-68536739D01*
X64449385Y-68653295D01*
X64398255Y-68789684D01*
X64391500Y-68851866D01*
X64391500Y-70648134D01*
X63724048Y-70648134D01*
X63709527Y-70603444D01*
X63614040Y-70438056D01*
X63601995Y-70424678D01*
X63490675Y-70301045D01*
X63490674Y-70301044D01*
X63486253Y-70296134D01*
X63331752Y-70183882D01*
X63325724Y-70181198D01*
X63325722Y-70181197D01*
X63163319Y-70108891D01*
X63163318Y-70108891D01*
X63157288Y-70106206D01*
X63063887Y-70086353D01*
X62976944Y-70067872D01*
X62976939Y-70067872D01*
X62970487Y-70066500D01*
X62779513Y-70066500D01*
X62773061Y-70067872D01*
X62773056Y-70067872D01*
X62686113Y-70086353D01*
X62592712Y-70106206D01*
X62586682Y-70108891D01*
X62586681Y-70108891D01*
X62424278Y-70181197D01*
X62424276Y-70181198D01*
X62418248Y-70183882D01*
X62263747Y-70296134D01*
X62259326Y-70301044D01*
X62259325Y-70301045D01*
X62148006Y-70424678D01*
X62135960Y-70438056D01*
X62040473Y-70603444D01*
X61981458Y-70785072D01*
X61980768Y-70791633D01*
X61980768Y-70791635D01*
X61962186Y-70968435D01*
X61961496Y-70975000D01*
X57546598Y-70975000D01*
X57548954Y-70964870D01*
X57559527Y-70946556D01*
X57618542Y-70764928D01*
X57621847Y-70733489D01*
X57637814Y-70581565D01*
X57638504Y-70575000D01*
X57626101Y-70456994D01*
X57619232Y-70391635D01*
X57619232Y-70391633D01*
X57618542Y-70385072D01*
X57559527Y-70203444D01*
X57464040Y-70038056D01*
X57447191Y-70019343D01*
X57416474Y-69955336D01*
X57425239Y-69884882D01*
X57437121Y-69864076D01*
X57439040Y-69861944D01*
X57503671Y-69750000D01*
X57531223Y-69702279D01*
X57531224Y-69702278D01*
X57534527Y-69696556D01*
X57593542Y-69514928D01*
X57604497Y-69410702D01*
X57612814Y-69331565D01*
X57613504Y-69325000D01*
X57595071Y-69149618D01*
X57594232Y-69141635D01*
X57594232Y-69141633D01*
X57593542Y-69135072D01*
X57534527Y-68953444D01*
X57507015Y-68905791D01*
X57474716Y-68849848D01*
X57439040Y-68788056D01*
X57433196Y-68781565D01*
X57315675Y-68651045D01*
X57315674Y-68651044D01*
X57311253Y-68646134D01*
X57156752Y-68533882D01*
X57150724Y-68531198D01*
X57150722Y-68531197D01*
X56988319Y-68458891D01*
X56988318Y-68458891D01*
X56982288Y-68456206D01*
X56888887Y-68436353D01*
X56801944Y-68417872D01*
X56801939Y-68417872D01*
X56795487Y-68416500D01*
X56604513Y-68416500D01*
X56598061Y-68417872D01*
X56598056Y-68417872D01*
X56511113Y-68436353D01*
X56417712Y-68456206D01*
X56411682Y-68458891D01*
X56411681Y-68458891D01*
X56249278Y-68531197D01*
X56249276Y-68531198D01*
X56243248Y-68533882D01*
X56088747Y-68646134D01*
X56084326Y-68651044D01*
X56084325Y-68651045D01*
X55966805Y-68781565D01*
X55960960Y-68788056D01*
X55925284Y-68849848D01*
X55892986Y-68905791D01*
X55865473Y-68953444D01*
X55806458Y-69135072D01*
X55805768Y-69141633D01*
X55805768Y-69141635D01*
X55804929Y-69149618D01*
X55786496Y-69325000D01*
X44477284Y-69325000D01*
X44484621Y-69316852D01*
X44484622Y-69316851D01*
X44489040Y-69311944D01*
X44584527Y-69146556D01*
X44643542Y-68964928D01*
X44645423Y-68947037D01*
X44662814Y-68781565D01*
X44663504Y-68775000D01*
X44656893Y-68712101D01*
X44644232Y-68591635D01*
X44644232Y-68591633D01*
X44643542Y-68585072D01*
X44584527Y-68403444D01*
X44577313Y-68390948D01*
X44492341Y-68243774D01*
X44489040Y-68238056D01*
X44361253Y-68096134D01*
X44206752Y-67983882D01*
X44200724Y-67981198D01*
X44200722Y-67981197D01*
X44038319Y-67908891D01*
X44038318Y-67908891D01*
X44032288Y-67906206D01*
X43938888Y-67886353D01*
X43851944Y-67867872D01*
X43851939Y-67867872D01*
X43845487Y-67866500D01*
X43654513Y-67866500D01*
X43648051Y-67867873D01*
X43647171Y-67867966D01*
X43577332Y-67855194D01*
X43525485Y-67806692D01*
X43508000Y-67742656D01*
X43508000Y-67049330D01*
X43509500Y-67029945D01*
X43511805Y-67015144D01*
X43511805Y-67015141D01*
X43513186Y-67006272D01*
X43512009Y-66997271D01*
X43511738Y-66966833D01*
X43518747Y-66904626D01*
X43525026Y-66877118D01*
X43552035Y-66799931D01*
X43564277Y-66774510D01*
X43607788Y-66705263D01*
X43625380Y-66683204D01*
X43683204Y-66625380D01*
X43705263Y-66607788D01*
X43774510Y-66564277D01*
X43799931Y-66552035D01*
X43877119Y-66525026D01*
X43904624Y-66518747D01*
X43916238Y-66517438D01*
X43960262Y-66512478D01*
X43975903Y-66511695D01*
X43984858Y-66511804D01*
X43993732Y-66513186D01*
X44025254Y-66509064D01*
X44041591Y-66508000D01*
X92950670Y-66508000D01*
X92970055Y-66509500D01*
G37*
%TD.AperFunction*%
%TD*%
M02*
