%TF.GenerationSoftware,KiCad,Pcbnew,(6.0.1)*%
%TF.CreationDate,2022-04-20T02:22:31-05:00*%
%TF.ProjectId,pcb_w_STM32F030C8T6,7063625f-775f-4535-944d-333246303330,rev?*%
%TF.SameCoordinates,Original*%
%TF.FileFunction,Copper,L1,Top*%
%TF.FilePolarity,Positive*%
%FSLAX46Y46*%
G04 Gerber Fmt 4.6, Leading zero omitted, Abs format (unit mm)*
G04 Created by KiCad (PCBNEW (6.0.1)) date 2022-04-20 02:22:31*
%MOMM*%
%LPD*%
G01*
G04 APERTURE LIST*
G04 Aperture macros list*
%AMRoundRect*
0 Rectangle with rounded corners*
0 $1 Rounding radius*
0 $2 $3 $4 $5 $6 $7 $8 $9 X,Y pos of 4 corners*
0 Add a 4 corners polygon primitive as box body*
4,1,4,$2,$3,$4,$5,$6,$7,$8,$9,$2,$3,0*
0 Add four circle primitives for the rounded corners*
1,1,$1+$1,$2,$3*
1,1,$1+$1,$4,$5*
1,1,$1+$1,$6,$7*
1,1,$1+$1,$8,$9*
0 Add four rect primitives between the rounded corners*
20,1,$1+$1,$2,$3,$4,$5,0*
20,1,$1+$1,$4,$5,$6,$7,0*
20,1,$1+$1,$6,$7,$8,$9,0*
20,1,$1+$1,$8,$9,$2,$3,0*%
%AMFreePoly0*
4,1,17,0.230680,0.111820,0.364318,-0.021819,0.364320,-0.021820,0.364320,-0.021821,0.377501,-0.053640,0.377500,-0.053642,0.377500,-0.080000,0.364320,-0.111820,0.332500,-0.125000,-0.332500,-0.125000,-0.364320,-0.111820,-0.377500,-0.080000,-0.377500,0.080000,-0.364320,0.111820,-0.332500,0.125000,0.198860,0.125000,0.230680,0.111820,0.230680,0.111820,$1*%
%AMFreePoly1*
4,1,17,0.364320,0.111820,0.377500,0.080000,0.377500,0.053642,0.377501,0.053640,0.369779,0.035000,0.364320,0.021820,0.364318,0.021819,0.230680,-0.111820,0.198860,-0.125000,-0.332500,-0.125000,-0.364320,-0.111820,-0.377500,-0.080000,-0.377500,0.080000,-0.364320,0.111820,-0.332500,0.125000,0.332500,0.125000,0.364320,0.111820,0.364320,0.111820,$1*%
%AMFreePoly2*
4,1,17,0.053642,0.377500,0.080000,0.377500,0.111820,0.364320,0.125000,0.332500,0.125000,-0.332500,0.111820,-0.364320,0.080000,-0.377500,-0.080000,-0.377500,-0.111820,-0.364320,-0.125000,-0.332500,-0.125000,0.198860,-0.111820,0.230680,0.021819,0.364318,0.021820,0.364320,0.031140,0.368181,0.053640,0.377501,0.053642,0.377500,0.053642,0.377500,$1*%
%AMFreePoly3*
4,1,17,-0.021820,0.364320,0.111818,0.230681,0.111820,0.230680,0.111820,0.230679,0.125001,0.198860,0.125000,0.198858,0.125000,-0.332500,0.111820,-0.364320,0.080000,-0.377500,-0.080000,-0.377500,-0.111820,-0.364320,-0.125000,-0.332500,-0.125000,0.332500,-0.111820,0.364320,-0.080000,0.377500,-0.053640,0.377500,-0.021820,0.364320,-0.021820,0.364320,$1*%
%AMFreePoly4*
4,1,17,0.364320,0.111820,0.377500,0.080000,0.377500,-0.080000,0.364320,-0.111820,0.332500,-0.125000,-0.198858,-0.125000,-0.198860,-0.125001,-0.221360,-0.115681,-0.230680,-0.111820,-0.230681,-0.111818,-0.364320,0.021820,-0.377500,0.053640,-0.377500,0.080000,-0.364320,0.111820,-0.332500,0.125000,0.332500,0.125000,0.364320,0.111820,0.364320,0.111820,$1*%
%AMFreePoly5*
4,1,17,-0.198858,0.125000,0.332500,0.125000,0.364320,0.111820,0.377500,0.080000,0.377500,-0.080000,0.364320,-0.111820,0.332500,-0.125000,-0.332500,-0.125000,-0.364320,-0.111820,-0.377500,-0.080000,-0.377500,-0.053640,-0.364320,-0.021820,-0.230681,0.111818,-0.230680,0.111820,-0.221360,0.115681,-0.198860,0.125001,-0.198858,0.125000,-0.198858,0.125000,$1*%
%AMFreePoly6*
4,1,17,0.111820,0.364320,0.125000,0.332500,0.125000,-0.198858,0.125001,-0.198860,0.115681,-0.221360,0.111820,-0.230680,0.111818,-0.230681,-0.021820,-0.364320,-0.053640,-0.377500,-0.080000,-0.377500,-0.111820,-0.364320,-0.125000,-0.332500,-0.125000,0.332500,-0.111820,0.364320,-0.080000,0.377500,0.080000,0.377500,0.111820,0.364320,0.111820,0.364320,$1*%
%AMFreePoly7*
4,1,17,0.111820,0.364320,0.125000,0.332500,0.125000,-0.332500,0.111820,-0.364320,0.080000,-0.377500,0.053642,-0.377500,0.053640,-0.377501,0.031140,-0.368181,0.021820,-0.364320,0.021819,-0.364318,-0.111820,-0.230680,-0.125000,-0.198860,-0.125000,0.332500,-0.111820,0.364320,-0.080000,0.377500,0.080000,0.377500,0.111820,0.364320,0.111820,0.364320,$1*%
G04 Aperture macros list end*
%TA.AperFunction,SMDPad,CuDef*%
%ADD10R,1.910000X0.610000*%
%TD*%
%TA.AperFunction,SMDPad,CuDef*%
%ADD11R,1.205000X1.550000*%
%TD*%
%TA.AperFunction,SMDPad,CuDef*%
%ADD12RoundRect,0.250000X-0.350000X-0.450000X0.350000X-0.450000X0.350000X0.450000X-0.350000X0.450000X0*%
%TD*%
%TA.AperFunction,SMDPad,CuDef*%
%ADD13RoundRect,0.250000X-0.337500X-0.475000X0.337500X-0.475000X0.337500X0.475000X-0.337500X0.475000X0*%
%TD*%
%TA.AperFunction,SMDPad,CuDef*%
%ADD14RoundRect,0.250000X0.475000X-0.337500X0.475000X0.337500X-0.475000X0.337500X-0.475000X-0.337500X0*%
%TD*%
%TA.AperFunction,SMDPad,CuDef*%
%ADD15RoundRect,0.250000X-0.325000X-0.450000X0.325000X-0.450000X0.325000X0.450000X-0.325000X0.450000X0*%
%TD*%
%TA.AperFunction,SMDPad,CuDef*%
%ADD16FreePoly0,0.000000*%
%TD*%
%TA.AperFunction,SMDPad,CuDef*%
%ADD17RoundRect,0.062500X-0.375000X-0.062500X0.375000X-0.062500X0.375000X0.062500X-0.375000X0.062500X0*%
%TD*%
%TA.AperFunction,SMDPad,CuDef*%
%ADD18FreePoly1,0.000000*%
%TD*%
%TA.AperFunction,SMDPad,CuDef*%
%ADD19FreePoly2,0.000000*%
%TD*%
%TA.AperFunction,SMDPad,CuDef*%
%ADD20RoundRect,0.062500X-0.062500X-0.375000X0.062500X-0.375000X0.062500X0.375000X-0.062500X0.375000X0*%
%TD*%
%TA.AperFunction,SMDPad,CuDef*%
%ADD21FreePoly3,0.000000*%
%TD*%
%TA.AperFunction,SMDPad,CuDef*%
%ADD22FreePoly4,0.000000*%
%TD*%
%TA.AperFunction,SMDPad,CuDef*%
%ADD23FreePoly5,0.000000*%
%TD*%
%TA.AperFunction,SMDPad,CuDef*%
%ADD24FreePoly6,0.000000*%
%TD*%
%TA.AperFunction,SMDPad,CuDef*%
%ADD25FreePoly7,0.000000*%
%TD*%
%TA.AperFunction,SMDPad,CuDef*%
%ADD26RoundRect,0.300000X0.500000X-0.300000X0.500000X0.300000X-0.500000X0.300000X-0.500000X-0.300000X0*%
%TD*%
%TA.AperFunction,ComponentPad*%
%ADD27R,1.700000X1.700000*%
%TD*%
%TA.AperFunction,ComponentPad*%
%ADD28O,1.700000X1.700000*%
%TD*%
%TA.AperFunction,SMDPad,CuDef*%
%ADD29RoundRect,0.250000X-0.475000X0.337500X-0.475000X-0.337500X0.475000X-0.337500X0.475000X0.337500X0*%
%TD*%
%TA.AperFunction,SMDPad,CuDef*%
%ADD30RoundRect,0.400000X-0.690000X-0.400000X0.690000X-0.400000X0.690000X0.400000X-0.690000X0.400000X0*%
%TD*%
%TA.AperFunction,SMDPad,CuDef*%
%ADD31R,0.500000X2.000000*%
%TD*%
%TA.AperFunction,SMDPad,CuDef*%
%ADD32R,2.000000X1.700000*%
%TD*%
%TA.AperFunction,ViaPad*%
%ADD33C,0.800000*%
%TD*%
%TA.AperFunction,Conductor*%
%ADD34C,0.250000*%
%TD*%
G04 APERTURE END LIST*
D10*
%TO.P,U2,1,OUT*%
%TO.N,MC_USB_3.3*%
X60345000Y-75990000D03*
X60345000Y-74720000D03*
%TO.P,U2,3,ADJ*%
%TO.N,Net-(C5-Pad2)*%
X60345000Y-77260000D03*
%TO.P,U2,4,NC*%
%TO.N,unconnected-(U2-Pad4)*%
X60345000Y-78530000D03*
D11*
%TO.P,U2,5,GND*%
%TO.N,GND*%
X62522500Y-75850000D03*
X63727500Y-75850000D03*
X62522500Y-77400000D03*
X63727500Y-77400000D03*
D10*
X65905000Y-78530000D03*
%TO.P,U2,6,EN*%
%TO.N,MC_USB_5*%
X65905000Y-77260000D03*
%TO.P,U2,8,IN*%
X65905000Y-75990000D03*
X65905000Y-74720000D03*
%TD*%
D12*
%TO.P,R11,1*%
%TO.N,GND*%
X55700000Y-78400000D03*
%TO.P,R11,2*%
%TO.N,Net-(C5-Pad2)*%
X57700000Y-78400000D03*
%TD*%
%TO.P,R10,1*%
%TO.N,Net-(C5-Pad2)*%
X59425000Y-80850000D03*
%TO.P,R10,2*%
%TO.N,MC_USB_3.3*%
X61425000Y-80850000D03*
%TD*%
D13*
%TO.P,C8,1*%
%TO.N,MC_USB_3.3*%
X59487500Y-72025000D03*
%TO.P,C8,2*%
%TO.N,GND*%
X61562500Y-72025000D03*
%TD*%
%TO.P,C5,1*%
%TO.N,MC_USB_3.3*%
X59312500Y-69525000D03*
%TO.P,C5,2*%
%TO.N,Net-(C5-Pad2)*%
X61387500Y-69525000D03*
%TD*%
%TO.P,C4,1*%
%TO.N,MC_USB_5*%
X67137500Y-72725000D03*
%TO.P,C4,2*%
%TO.N,GND*%
X69212500Y-72725000D03*
%TD*%
D14*
%TO.P,C3,1*%
%TO.N,VDDA*%
X69050000Y-92537500D03*
%TO.P,C3,2*%
%TO.N,GND*%
X69050000Y-90462500D03*
%TD*%
%TO.P,C2,1*%
%TO.N,VDDA*%
X71425000Y-92462500D03*
%TO.P,C2,2*%
%TO.N,GND*%
X71425000Y-90387500D03*
%TD*%
D15*
%TO.P,D4,1,K*%
%TO.N,Net-(D4-Pad1)*%
X57450000Y-101775000D03*
%TO.P,D4,2,A*%
%TO.N,DEC*%
X59500000Y-101775000D03*
%TD*%
D16*
%TO.P,U1,1,BOOT0*%
%TO.N,GND*%
X62452500Y-89250000D03*
D17*
%TO.P,U1,2,PF0*%
%TO.N,unconnected-(U1-Pad2)*%
X62512500Y-89750000D03*
%TO.P,U1,3,PF1*%
%TO.N,unconnected-(U1-Pad3)*%
X62512500Y-90250000D03*
%TO.P,U1,4,NRST*%
%TO.N,NRST*%
X62512500Y-90750000D03*
%TO.P,U1,5,VDDA*%
%TO.N,VDDA*%
X62512500Y-91250000D03*
%TO.P,U1,6,PA0*%
%TO.N,unconnected-(U1-Pad6)*%
X62512500Y-91750000D03*
D18*
%TO.P,U1,7,PA1*%
%TO.N,unconnected-(U1-Pad7)*%
X62452500Y-92250000D03*
D19*
%TO.P,U1,8,PA2*%
%TO.N,CHANGE_STATE*%
X62950000Y-92747500D03*
D20*
%TO.P,U1,9,PA3*%
%TO.N,INC*%
X63450000Y-92687500D03*
%TO.P,U1,10,PA4*%
%TO.N,DEC*%
X63950000Y-92687500D03*
%TO.P,U1,11,PA5*%
%TO.N,unconnected-(U1-Pad11)*%
X64450000Y-92687500D03*
%TO.P,U1,12,PA6*%
%TO.N,unconnected-(U1-Pad12)*%
X64950000Y-92687500D03*
%TO.P,U1,13,PA7*%
%TO.N,unconnected-(U1-Pad13)*%
X65450000Y-92687500D03*
D21*
%TO.P,U1,14,PB0*%
%TO.N,unconnected-(U1-Pad14)*%
X65950000Y-92747500D03*
D22*
%TO.P,U1,15,PB1*%
%TO.N,unconnected-(U1-Pad15)*%
X66447500Y-92250000D03*
D17*
%TO.P,U1,16,VSS*%
%TO.N,GND*%
X66387500Y-91750000D03*
%TO.P,U1,17,VDD*%
%TO.N,VDDA*%
X66387500Y-91250000D03*
%TO.P,U1,18,PA8*%
%TO.N,unconnected-(U1-Pad18)*%
X66387500Y-90750000D03*
%TO.P,U1,19,PA9*%
%TO.N,SCL*%
X66387500Y-90250000D03*
%TO.P,U1,20,PA10*%
%TO.N,SDA*%
X66387500Y-89750000D03*
D23*
%TO.P,U1,21,PA13*%
%TO.N,SWDIO*%
X66447500Y-89250000D03*
D24*
%TO.P,U1,22,PA14*%
%TO.N,SWCLK*%
X65950000Y-88752500D03*
D20*
%TO.P,U1,23,PA15*%
%TO.N,unconnected-(U1-Pad23)*%
X65450000Y-88812500D03*
%TO.P,U1,24,PB3*%
%TO.N,unconnected-(U1-Pad24)*%
X64950000Y-88812500D03*
%TO.P,U1,25,PB4*%
%TO.N,unconnected-(U1-Pad25)*%
X64450000Y-88812500D03*
%TO.P,U1,26,PB5*%
%TO.N,unconnected-(U1-Pad26)*%
X63950000Y-88812500D03*
%TO.P,U1,27,PB6*%
%TO.N,unconnected-(U1-Pad27)*%
X63450000Y-88812500D03*
D25*
%TO.P,U1,28,PB7*%
%TO.N,unconnected-(U1-Pad28)*%
X62950000Y-88752500D03*
%TD*%
D12*
%TO.P,R1,1*%
%TO.N,SDA*%
X69075000Y-85525000D03*
%TO.P,R1,2*%
%TO.N,VDDA*%
X71075000Y-85525000D03*
%TD*%
D26*
%TO.P,SW2,1,A*%
%TO.N,MC_USB_3.3*%
X92000000Y-76950000D03*
X89200000Y-76950000D03*
%TO.P,SW2,2,B*%
%TO.N,VDDA*%
X92000000Y-79450000D03*
X89200000Y-79450000D03*
%TO.P,SW2,3,C*%
%TO.N,Net-(J2-Pad4)*%
X92000000Y-81950000D03*
X89200000Y-81950000D03*
%TD*%
D15*
%TO.P,D2,1,K*%
%TO.N,Net-(D2-Pad1)*%
X54000000Y-81075000D03*
%TO.P,D2,2,A*%
%TO.N,CHANGE_STATE*%
X56050000Y-81075000D03*
%TD*%
D27*
%TO.P,J2,1,Pin_1*%
%TO.N,SWCLK*%
X78435000Y-69850000D03*
D28*
%TO.P,J2,2,Pin_2*%
%TO.N,SWDIO*%
X80975000Y-69850000D03*
%TO.P,J2,3,Pin_3*%
%TO.N,GND*%
X83515000Y-69850000D03*
%TO.P,J2,4,Pin_4*%
%TO.N,Net-(J2-Pad4)*%
X86055000Y-69850000D03*
%TO.P,J2,5,Pin_5*%
%TO.N,NRST*%
X88595000Y-69850000D03*
%TD*%
D12*
%TO.P,R4,1*%
%TO.N,GND*%
X49450000Y-80950000D03*
%TO.P,R4,2*%
%TO.N,Net-(D2-Pad1)*%
X51450000Y-80950000D03*
%TD*%
%TO.P,R5,1*%
%TO.N,GND*%
X82375000Y-95100000D03*
%TO.P,R5,2*%
%TO.N,Net-(D3-Pad1)*%
X84375000Y-95100000D03*
%TD*%
D27*
%TO.P,J1,1,Pin_1*%
%TO.N,GND*%
X65750000Y-69750000D03*
D28*
%TO.P,J1,2,Pin_2*%
%TO.N,VDDA*%
X68290000Y-69750000D03*
%TO.P,J1,3,Pin_3*%
%TO.N,SCL*%
X70830000Y-69750000D03*
%TO.P,J1,4,Pin_4*%
%TO.N,SDA*%
X73370000Y-69750000D03*
%TD*%
D29*
%TO.P,C7,1*%
%TO.N,VDDA*%
X72500000Y-94987500D03*
%TO.P,C7,2*%
%TO.N,GND*%
X72500000Y-97062500D03*
%TD*%
D12*
%TO.P,R3,1*%
%TO.N,GND*%
X78200000Y-74750000D03*
%TO.P,R3,2*%
%TO.N,Net-(D1-Pad1)*%
X80200000Y-74750000D03*
%TD*%
D29*
%TO.P,C6,1*%
%TO.N,VDDA*%
X69725000Y-94987500D03*
%TO.P,C6,2*%
%TO.N,GND*%
X69725000Y-97062500D03*
%TD*%
D12*
%TO.P,R8,1*%
%TO.N,INC*%
X85675000Y-103025000D03*
%TO.P,R8,2*%
%TO.N,GND*%
X87675000Y-103025000D03*
%TD*%
%TO.P,R9,1*%
%TO.N,DEC*%
X45825000Y-102125000D03*
%TO.P,R9,2*%
%TO.N,GND*%
X47825000Y-102125000D03*
%TD*%
D14*
%TO.P,C1,1*%
%TO.N,NRST*%
X59625000Y-90212500D03*
%TO.P,C1,2*%
%TO.N,GND*%
X59625000Y-88137500D03*
%TD*%
D30*
%TO.P,SW5,1,1*%
%TO.N,VDDA*%
X49660000Y-98425000D03*
%TO.P,SW5,2,2*%
%TO.N,DEC*%
X58840000Y-98425000D03*
%TD*%
D31*
%TO.P,J3,1,VBUS*%
%TO.N,MC_USB_5*%
X51825000Y-75525000D03*
%TO.P,J3,2,D-*%
%TO.N,unconnected-(J3-Pad2)*%
X51025000Y-75525000D03*
%TO.P,J3,3,D+*%
%TO.N,unconnected-(J3-Pad3)*%
X50225000Y-75525000D03*
%TO.P,J3,4,ID*%
%TO.N,unconnected-(J3-Pad4)*%
X49425000Y-75525000D03*
%TO.P,J3,5,GND*%
%TO.N,GND*%
X48625000Y-75525000D03*
D32*
%TO.P,J3,6,Shield*%
X54675000Y-75425000D03*
X45775000Y-75425000D03*
X54675000Y-69975000D03*
X45775000Y-69975000D03*
%TD*%
D15*
%TO.P,D1,1,K*%
%TO.N,Net-(D1-Pad1)*%
X82475000Y-74750000D03*
%TO.P,D1,2,A*%
%TO.N,VDDA*%
X84525000Y-74750000D03*
%TD*%
D12*
%TO.P,R2,1*%
%TO.N,SCL*%
X69325000Y-88075000D03*
%TO.P,R2,2*%
%TO.N,VDDA*%
X71325000Y-88075000D03*
%TD*%
D30*
%TO.P,SW4,1,1*%
%TO.N,VDDA*%
X79860000Y-98875000D03*
%TO.P,SW4,2,2*%
%TO.N,INC*%
X89040000Y-98875000D03*
%TD*%
%TO.P,SW3,1,1*%
%TO.N,VDDA*%
X76210000Y-83550000D03*
%TO.P,SW3,2,2*%
%TO.N,CHANGE_STATE*%
X85390000Y-83550000D03*
%TD*%
D12*
%TO.P,R7,1*%
%TO.N,CHANGE_STATE*%
X84400000Y-87425000D03*
%TO.P,R7,2*%
%TO.N,GND*%
X86400000Y-87425000D03*
%TD*%
D15*
%TO.P,D3,1,K*%
%TO.N,Net-(D3-Pad1)*%
X87325000Y-95225000D03*
%TO.P,D3,2,A*%
%TO.N,INC*%
X89375000Y-95225000D03*
%TD*%
D12*
%TO.P,R6,1*%
%TO.N,GND*%
X52450000Y-101800000D03*
%TO.P,R6,2*%
%TO.N,Net-(D4-Pad1)*%
X54450000Y-101800000D03*
%TD*%
D30*
%TO.P,SW1,1,1*%
%TO.N,GND*%
X46860000Y-84425000D03*
%TO.P,SW1,2,2*%
%TO.N,NRST*%
X56040000Y-84425000D03*
%TD*%
D33*
%TO.N,GND*%
X69250000Y-74325000D03*
%TO.N,Net-(C5-Pad2)*%
X62875000Y-70975000D03*
X58450000Y-73600000D03*
%TO.N,MC_USB_3.3*%
X63050000Y-80050000D03*
X57825000Y-72050000D03*
%TO.N,MC_USB_5*%
X65625000Y-80125000D03*
X54125000Y-77650000D03*
%TO.N,MC_USB_3.3*%
X81350000Y-78375000D03*
X80550000Y-76475500D03*
%TO.N,GND*%
X63025000Y-73350000D03*
X62900000Y-72000000D03*
X69400000Y-98450000D03*
X67600000Y-91350000D03*
X43750000Y-68775000D03*
X57100000Y-76325000D03*
X43600000Y-76500000D03*
X88025000Y-87725000D03*
X51050000Y-103350000D03*
X59175000Y-86550000D03*
X47925000Y-103700000D03*
X43550000Y-74525000D03*
X76850000Y-74075000D03*
X43725000Y-70600000D03*
X81875000Y-93425000D03*
X72500000Y-98475000D03*
X48450000Y-77575000D03*
X73200000Y-90100000D03*
X89050000Y-102350000D03*
X57165468Y-74847117D03*
X47875000Y-81000000D03*
X56725000Y-70575000D03*
X56700000Y-69325000D03*
X62250000Y-87325000D03*
X45625000Y-87075000D03*
%TO.N,VDDA*%
X47550000Y-97825000D03*
X77850000Y-96450000D03*
X64975000Y-91100000D03*
X74125000Y-82675000D03*
X87700000Y-79450000D03*
X72400000Y-85650000D03*
X74175000Y-84300000D03*
X72700000Y-87925000D03*
X84475000Y-72950000D03*
X61300000Y-91475000D03*
X67700000Y-92825000D03*
X68200000Y-94375000D03*
X72975000Y-92125000D03*
X74025000Y-93975000D03*
%TO.N,NRST*%
X61350000Y-89900000D03*
X70625000Y-83475000D03*
X74275000Y-80950000D03*
X87050000Y-74575000D03*
X84375000Y-77200000D03*
X78400000Y-78800000D03*
%TO.N,CHANGE_STATE*%
X61225000Y-88425000D03*
X61050000Y-96525000D03*
X74700000Y-92650000D03*
X59400000Y-92350000D03*
%TO.N,DEC*%
X64300000Y-95825000D03*
X62525000Y-96400000D03*
%TO.N,SCL*%
X70150000Y-86825000D03*
X71575000Y-73675000D03*
%TO.N,SDA*%
X69975000Y-76900000D03*
X68024500Y-83950000D03*
%TO.N,SWCLK*%
X68750000Y-81075000D03*
X70425000Y-78325000D03*
%TO.N,SWDIO*%
X70252729Y-80596870D03*
X72275000Y-78750000D03*
%TO.N,Net-(J2-Pad4)*%
X87500000Y-80675000D03*
X86825000Y-77650000D03*
%TD*%
D34*
%TO.N,MC_USB_3.3*%
X87375000Y-78775000D02*
X89200000Y-76950000D01*
%TO.N,GND*%
X69250000Y-74325000D02*
X69250000Y-72762500D01*
X69250000Y-72762500D02*
X69212500Y-72725000D01*
%TO.N,Net-(C5-Pad2)*%
X62837500Y-70975000D02*
X61387500Y-69525000D01*
X62875000Y-70975000D02*
X62837500Y-70975000D01*
X58350000Y-73700000D02*
X58450000Y-73600000D01*
X58840000Y-76565000D02*
X58350000Y-76075000D01*
X58840000Y-77260000D02*
X58840000Y-76565000D01*
X58350000Y-76075000D02*
X58350000Y-73700000D01*
%TO.N,MC_USB_3.3*%
X59462500Y-72050000D02*
X59487500Y-72025000D01*
X57825000Y-72050000D02*
X59462500Y-72050000D01*
X63100000Y-80850000D02*
X63100000Y-80100000D01*
X63100000Y-80850000D02*
X67425000Y-80850000D01*
X63100000Y-80100000D02*
X63050000Y-80050000D01*
X61425000Y-80850000D02*
X63100000Y-80850000D01*
%TO.N,MC_USB_5*%
X67225000Y-80100000D02*
X67200000Y-80125000D01*
X68750000Y-78575000D02*
X67225000Y-80100000D01*
X68750000Y-77575000D02*
X68750000Y-78575000D01*
X67200000Y-80125000D02*
X65625000Y-80125000D01*
X67165000Y-75990000D02*
X68750000Y-77575000D01*
X53950000Y-77650000D02*
X51825000Y-75525000D01*
X54125000Y-77650000D02*
X53950000Y-77650000D01*
X65905000Y-75990000D02*
X67165000Y-75990000D01*
%TO.N,GND*%
X64857500Y-78530000D02*
X65905000Y-78530000D01*
X63727500Y-77400000D02*
X64857500Y-78530000D01*
%TO.N,MC_USB_5*%
X65905000Y-75990000D02*
X65905000Y-77260000D01*
%TO.N,Net-(C5-Pad2)*%
X58840000Y-77260000D02*
X60345000Y-77260000D01*
X57700000Y-78400000D02*
X58840000Y-77260000D01*
%TO.N,MC_USB_3.3*%
X81750000Y-78775000D02*
X87375000Y-78775000D01*
X81350000Y-78375000D02*
X81750000Y-78775000D01*
X80450500Y-76575000D02*
X80550000Y-76475500D01*
X77725000Y-76575000D02*
X80450500Y-76575000D01*
X76750000Y-77550000D02*
X77725000Y-76575000D01*
X72925000Y-79700000D02*
X74600000Y-79700000D01*
X68575000Y-79700000D02*
X72925000Y-79700000D01*
X74600000Y-79700000D02*
X76750000Y-77550000D01*
X68525000Y-79750000D02*
X68575000Y-79700000D01*
X67425000Y-80850000D02*
X68525000Y-79750000D01*
%TO.N,GND*%
X55700000Y-78400000D02*
X55700000Y-77725000D01*
X55700000Y-77725000D02*
X57100000Y-76325000D01*
%TO.N,Net-(C5-Pad2)*%
X57700000Y-79125000D02*
X57700000Y-78400000D01*
X59425000Y-80850000D02*
X57700000Y-79125000D01*
%TO.N,GND*%
X62875000Y-72025000D02*
X62900000Y-72000000D01*
X61562500Y-72025000D02*
X62875000Y-72025000D01*
X63727500Y-77400000D02*
X62522500Y-77400000D01*
X63727500Y-75850000D02*
X63727500Y-77400000D01*
X62522500Y-75850000D02*
X63727500Y-75850000D01*
X62522500Y-73852500D02*
X62522500Y-75850000D01*
X63025000Y-73350000D02*
X62522500Y-73852500D01*
%TO.N,MC_USB_3.3*%
X59487500Y-69700000D02*
X59312500Y-69525000D01*
X59487500Y-72025000D02*
X59487500Y-69700000D01*
X60345000Y-72882500D02*
X59487500Y-72025000D01*
X60345000Y-74720000D02*
X60345000Y-72882500D01*
X60345000Y-74720000D02*
X60345000Y-75990000D01*
%TO.N,MC_USB_5*%
X65905000Y-75990000D02*
X65905000Y-74720000D01*
X65905000Y-73957500D02*
X67137500Y-72725000D01*
X65905000Y-74720000D02*
X65905000Y-73957500D01*
%TO.N,Net-(J2-Pad4)*%
X89200000Y-81950000D02*
X92000000Y-81950000D01*
%TO.N,VDDA*%
X89200000Y-79450000D02*
X92000000Y-79450000D01*
%TO.N,MC_USB_3.3*%
X89200000Y-76950000D02*
X92000000Y-76950000D01*
%TO.N,GND*%
X67600000Y-91350000D02*
X67200000Y-91750000D01*
X67200000Y-91750000D02*
X66387500Y-91750000D01*
X68487500Y-90462500D02*
X67600000Y-91350000D01*
X69050000Y-90462500D02*
X68487500Y-90462500D01*
X88375000Y-103025000D02*
X89050000Y-102350000D01*
X45775000Y-75425000D02*
X44675000Y-75425000D01*
X44675000Y-75425000D02*
X43600000Y-76500000D01*
X56050000Y-69975000D02*
X56700000Y-69325000D01*
X71425000Y-90387500D02*
X72912500Y-90387500D01*
X45775000Y-75425000D02*
X44450000Y-75425000D01*
X62452500Y-89250000D02*
X62452500Y-87527500D01*
X52450000Y-101950000D02*
X51050000Y-103350000D01*
X69725000Y-97062500D02*
X69725000Y-98125000D01*
X87675000Y-103025000D02*
X88375000Y-103025000D01*
X48625000Y-75525000D02*
X48625000Y-77400000D01*
X46860000Y-85840000D02*
X45625000Y-87075000D01*
X47825000Y-102125000D02*
X47825000Y-103600000D01*
X72912500Y-90387500D02*
X73200000Y-90100000D01*
X59625000Y-88137500D02*
X59625000Y-87000000D01*
X72500000Y-97062500D02*
X72500000Y-98475000D01*
X47825000Y-103600000D02*
X47925000Y-103700000D01*
X69050000Y-90637500D02*
X68662500Y-90637500D01*
X56125000Y-69975000D02*
X56725000Y-70575000D01*
X45775000Y-69975000D02*
X44350000Y-69975000D01*
X46860000Y-84425000D02*
X46860000Y-85840000D01*
X82375000Y-95100000D02*
X82375000Y-93925000D01*
X44575000Y-68775000D02*
X43750000Y-68775000D01*
X52450000Y-101800000D02*
X52450000Y-101950000D01*
X78200000Y-74750000D02*
X77525000Y-74750000D01*
X44350000Y-69975000D02*
X43725000Y-70600000D01*
X56200000Y-75425000D02*
X57100000Y-76325000D01*
X49450000Y-80950000D02*
X47925000Y-80950000D01*
X54675000Y-69975000D02*
X56125000Y-69975000D01*
X54675000Y-75425000D02*
X56200000Y-75425000D01*
X59625000Y-87000000D02*
X59175000Y-86550000D01*
X47925000Y-80950000D02*
X47875000Y-81000000D01*
X54675000Y-75425000D02*
X56587585Y-75425000D01*
X62452500Y-87527500D02*
X62250000Y-87325000D01*
X87725000Y-87425000D02*
X88025000Y-87725000D01*
X45775000Y-69975000D02*
X44575000Y-68775000D01*
X44450000Y-75425000D02*
X43550000Y-74525000D01*
X54675000Y-69975000D02*
X56050000Y-69975000D01*
X69725000Y-98125000D02*
X69400000Y-98450000D01*
X77525000Y-74750000D02*
X76850000Y-74075000D01*
X48625000Y-77400000D02*
X48450000Y-77575000D01*
X56587585Y-75425000D02*
X57165468Y-74847117D01*
X86400000Y-87425000D02*
X87725000Y-87425000D01*
X82375000Y-93925000D02*
X81875000Y-93425000D01*
%TO.N,VDDA*%
X71325000Y-88075000D02*
X72550000Y-88075000D01*
X66387500Y-91250000D02*
X65125000Y-91250000D01*
X84525000Y-74750000D02*
X84525000Y-73000000D01*
X61525000Y-91250000D02*
X61300000Y-91475000D01*
X72275000Y-85525000D02*
X72400000Y-85650000D01*
X89200000Y-79450000D02*
X87700000Y-79450000D01*
X49660000Y-98425000D02*
X48150000Y-98425000D01*
X72637500Y-92462500D02*
X72975000Y-92125000D01*
X69725000Y-94987500D02*
X68812500Y-94987500D01*
X73012500Y-94987500D02*
X74025000Y-93975000D01*
X72500000Y-94987500D02*
X73012500Y-94987500D01*
X71075000Y-85525000D02*
X72275000Y-85525000D01*
X48150000Y-98425000D02*
X47550000Y-97825000D01*
X62512500Y-91250000D02*
X61525000Y-91250000D01*
X76210000Y-83550000D02*
X74925000Y-83550000D01*
X75000000Y-83550000D02*
X74125000Y-82675000D01*
X65125000Y-91250000D02*
X64975000Y-91100000D01*
X76210000Y-83550000D02*
X75000000Y-83550000D01*
X71425000Y-92462500D02*
X72637500Y-92462500D01*
X84525000Y-73000000D02*
X84475000Y-72950000D01*
X69050000Y-92362500D02*
X68162500Y-92362500D01*
X79860000Y-98460000D02*
X77850000Y-96450000D01*
X68812500Y-94987500D02*
X68200000Y-94375000D01*
X68162500Y-92362500D02*
X67700000Y-92825000D01*
X72550000Y-88075000D02*
X72700000Y-87925000D01*
X74925000Y-83550000D02*
X74175000Y-84300000D01*
X79860000Y-98875000D02*
X79860000Y-98460000D01*
%TO.N,NRST*%
X61350000Y-90500000D02*
X61600000Y-90750000D01*
X88595000Y-69850000D02*
X88595000Y-73030000D01*
X80000000Y-77200000D02*
X78400000Y-78800000D01*
X74275000Y-80950000D02*
X73150000Y-80950000D01*
X59625000Y-90212500D02*
X60162500Y-90750000D01*
X88595000Y-73030000D02*
X87050000Y-74575000D01*
X56040000Y-86627500D02*
X59625000Y-90212500D01*
X73150000Y-80950000D02*
X70625000Y-83475000D01*
X61600000Y-90750000D02*
X62512500Y-90750000D01*
X60162500Y-90750000D02*
X61600000Y-90750000D01*
X61350000Y-89900000D02*
X61350000Y-90500000D01*
X84375000Y-77200000D02*
X80000000Y-77200000D01*
X56040000Y-84425000D02*
X56040000Y-86627500D01*
%TO.N,Net-(D1-Pad1)*%
X82475000Y-74750000D02*
X80200000Y-74750000D01*
%TO.N,Net-(D2-Pad1)*%
X51575000Y-81075000D02*
X51450000Y-80950000D01*
X54000000Y-81075000D02*
X51575000Y-81075000D01*
%TO.N,CHANGE_STATE*%
X84400000Y-87425000D02*
X84400000Y-86025000D01*
X84400000Y-87425000D02*
X79925000Y-87425000D01*
X62950000Y-93950000D02*
X62075000Y-94825000D01*
X56050000Y-81075000D02*
X56050000Y-81650000D01*
X85390000Y-85035000D02*
X85390000Y-83550000D01*
X79925000Y-87425000D02*
X74700000Y-92650000D01*
X62075000Y-94825000D02*
X60550000Y-94825000D01*
X62950000Y-92747500D02*
X62950000Y-93950000D01*
X61350000Y-88300000D02*
X61350000Y-86950000D01*
X61050000Y-95850000D02*
X62075000Y-94825000D01*
X59800000Y-94075000D02*
X59400000Y-93675000D01*
X59400000Y-93675000D02*
X59400000Y-92350000D01*
X84400000Y-86025000D02*
X85390000Y-85035000D01*
X61225000Y-88425000D02*
X61350000Y-88300000D01*
X61050000Y-96525000D02*
X61050000Y-95850000D01*
X60550000Y-94825000D02*
X59800000Y-94075000D01*
X56050000Y-81650000D02*
X61350000Y-86950000D01*
%TO.N,Net-(D3-Pad1)*%
X84375000Y-95100000D02*
X87200000Y-95100000D01*
X87200000Y-95100000D02*
X87325000Y-95225000D01*
%TO.N,INC*%
X63450000Y-96475000D02*
X70000000Y-103025000D01*
X70000000Y-103025000D02*
X85675000Y-103025000D01*
X89040000Y-95560000D02*
X89375000Y-95225000D01*
X63450000Y-92687500D02*
X63450000Y-96475000D01*
X89040000Y-98875000D02*
X89040000Y-95560000D01*
X85675000Y-102240000D02*
X89040000Y-98875000D01*
X85675000Y-103025000D02*
X85675000Y-102240000D01*
%TO.N,Net-(D4-Pad1)*%
X57425000Y-101800000D02*
X54450000Y-101800000D01*
X57450000Y-101775000D02*
X57425000Y-101800000D01*
%TO.N,DEC*%
X64300000Y-95825000D02*
X63950000Y-95475000D01*
X57340000Y-99925000D02*
X58840000Y-98425000D01*
X58840000Y-98425000D02*
X60500000Y-98425000D01*
X45825000Y-102125000D02*
X48025000Y-99925000D01*
X48025000Y-99925000D02*
X57340000Y-99925000D01*
X59500000Y-99085000D02*
X58840000Y-98425000D01*
X63950000Y-95475000D02*
X63950000Y-92687500D01*
X60500000Y-98425000D02*
X62525000Y-96400000D01*
X59500000Y-101775000D02*
X59500000Y-99085000D01*
%TO.N,SCL*%
X70830000Y-72930000D02*
X70830000Y-69750000D01*
X67075386Y-90250000D02*
X69250386Y-88075000D01*
X71575000Y-73675000D02*
X70830000Y-72930000D01*
X69250386Y-88075000D02*
X69325000Y-88075000D01*
X66387500Y-90250000D02*
X67075386Y-90250000D01*
X69325000Y-87650000D02*
X70150000Y-86825000D01*
X69325000Y-88075000D02*
X69325000Y-87650000D01*
%TO.N,SDA*%
X66882580Y-89750000D02*
X66387500Y-89750000D01*
X69075000Y-85525000D02*
X67850000Y-86750000D01*
X73370000Y-73505000D02*
X73370000Y-69750000D01*
X69075000Y-85525000D02*
X69075000Y-85000500D01*
X67850000Y-86750000D02*
X67850000Y-88782580D01*
X67850000Y-88782580D02*
X66882580Y-89750000D01*
X69075000Y-85000500D02*
X68024500Y-83950000D01*
X69975000Y-76900000D02*
X73370000Y-73505000D01*
%TO.N,SWCLK*%
X78435000Y-69850000D02*
X78435000Y-70315000D01*
X68750000Y-81075000D02*
X65950000Y-83875000D01*
X78435000Y-70315000D02*
X70425000Y-78325000D01*
X65950000Y-83875000D02*
X65950000Y-88752500D01*
%TO.N,SWDIO*%
X77075386Y-72825000D02*
X72275000Y-77625386D01*
X77225000Y-72825000D02*
X77075386Y-72825000D01*
X80975000Y-69850000D02*
X78000000Y-72825000D01*
X70252729Y-80596870D02*
X67300000Y-83549599D01*
X72275000Y-77625386D02*
X72275000Y-78750000D01*
X67300000Y-88397500D02*
X66447500Y-89250000D01*
X67300000Y-83549599D02*
X67300000Y-88397500D01*
X78000000Y-72825000D02*
X77225000Y-72825000D01*
%TO.N,Net-(J2-Pad4)*%
X89200000Y-81950000D02*
X88525000Y-81950000D01*
X88775000Y-81950000D02*
X87500000Y-80675000D01*
X86825000Y-77650000D02*
X86055000Y-76880000D01*
X89200000Y-81950000D02*
X88775000Y-81950000D01*
X86055000Y-76880000D02*
X86055000Y-69850000D01*
%TD*%
M02*
